<?xml version="1.0" encoding="utf-8"?>
<!-- Generator: Adobe Illustrator 16.0.0, SVG Export Plug-In . SVG Version: 6.00 Build 0)  -->
<!DOCTYPE svg PUBLIC "-//W3C//DTD SVG 1.1//EN" "http://www.w3.org/Graphics/SVG/1.1/DTD/svg11.dtd">
<svg version="1.1" id="Layer_1" xmlns="http://www.w3.org/2000/svg" xmlns:xlink="http://www.w3.org/1999/xlink" x="0px" y="0px"
	 width="500px" height="500px" viewBox="0 0 500 500" enable-background="new 0 0 500 500" xml:space="preserve">
<path fill="#F38230" d="M181.25,170.5v1.25c0,36,28.25,65.5,63.75,67.5v48h-32c-3,0-5.25,2.5-5.25,5.25v10
	c-13-0.5-20.25-2.5-27.75-4.5c-8.75-2.5-18-5-36-5c-8,0-14.75,0.5-21.25,1.5v-2c0-3-2.5-5.25-5.25-5.25h-32v-48
	c35.5-2,63.75-31.5,63.75-67.5v-1.25c0-3-2.5-5.25-5.25-5.25c-29.5,0-54.5,18.75-63.75,45c-9.5-26.25-34.5-45-63.75-45
	c-3,0-5.25,2.5-5.25,5.25v1.25c0,36,28.25,65.5,63.75,67.5v48H43c-3,0-5.25,2.5-5.25,5.25v4.5c-7.75-2-16.75-4-32-4v10.75
	c15.75,0,23.75,2,32,4.25v27c0,3,2.5,5.25,5.25,5.25h10.25C55.5,345.5,56.5,351,56.5,356c-0.25,5.5-1.75,10.5-5.25,20.5
	c-1.5,4.25-2.5,7-3.25,9c-1,2.75-1.75,4.5-2.25,7.5c-0.75,7.25,1,15,5.75,23l4.5-2.75c-4-6.75-5.75-13.5-5-19.5
	c0.25-2.25,0.75-3.5,1.75-6.25c0.75-2,2-4.75,3.5-9.25c3.5-10.5,5.25-15.75,5.5-22C62,351,61,345.5,59,340.25h15.25
	C76.5,345.5,77.5,351,77.5,356c-0.25,5.5-1.75,10.5-5.25,20.5c-1.5,4.25-2.5,7-3.25,9c-1,2.75-1.75,4.5-2.25,7.5
	c-0.75,7.25,1,15,5.75,23l4.5-2.75c-4-6.75-5.75-13.5-5-19.5c0.25-2.25,0.75-3.5,1.75-6.25c0.75-2,2-4.75,3.5-9.25
	c3.5-10.5,5.25-15.75,5.5-22C83,351,82,345.5,80,340.25h15.5c2.25,5.25,3.25,10.75,3.25,15.75c-0.25,5.5-1.75,10.5-5.25,20.5
	c-1.5,4.25-2.5,7-3.25,9c-1,2.75-1.75,4.5-2.25,7.5c-0.75,7.25,1,15,5.75,23l4.5-2.75c-4-6.75-5.75-13.5-5-19.5
	c0.25-2.25,0.75-3.5,1.75-6.25c0.75-2,2-4.75,3.5-9.25c3.5-10.5,5.25-15.75,5.5-22c0.25-5.25-0.75-10.75-2.75-16h16.25
	c3,0,5.25-2.5,5.25-5.25v-29.75c5-1,11.5-1.75,21.25-1.75c16.5,0,24.5,2.25,33,4.75c8,2.25,16,4.5,30.75,5V335
	c0,3,2.5,5.25,5.25,5.25h10.25c2.25,5.25,3.25,10.75,3.25,15.75c-0.25,5.5-1.75,10.5-5.25,20.5c-1.5,4.25-2.5,7-3.25,9
	c-1,2.75-1.75,4.5-2.25,7.5c-0.75,7.25,1,15,5.75,23l4.5-2.75c-4-6.75-5.75-13.5-5-19.5c0.25-2.25,0.75-3.5,1.75-6.25
	c0.75-2,2-4.75,3.5-9.25c3.5-10.5,5.25-15.75,5.5-22c0.25-5.25-0.75-10.75-2.75-16h15.25c2.25,5.25,3.25,10.75,3.25,15.75
	c-0.25,5.5-1.75,10.5-5.25,20.5c-1.5,4.25-2.5,7-3.25,9c-1,2.75-1.75,4.5-2.25,7.5c-0.75,7.25,1,15,5.75,23l4.5-2.75
	c-4-6.75-5.75-13.5-5-19.5c0.25-2.25,0.75-3.5,1.75-6.25c0.75-2,2-4.75,3.5-9.25c3.5-10.5,5.25-15.75,5.5-22
	c0.25-5.25-0.75-10.75-2.75-16h15.5c2.25,5.25,3.25,10.75,3.25,15.75c-0.25,5.5-1.75,10.5-5.25,20.5c-1.5,4.25-2.5,7-3.25,9
	c-1,2.75-1.75,4.5-2.25,7.5c-0.75,7.25,1,15,5.75,23l4.5-2.75c-4-6.75-5.75-13.5-5-19.5c0.25-2.25,0.75-3.5,1.75-6.25
	c0.75-2,2-4.75,3.5-9.25c3.5-10.5,5.25-15.75,5.5-22c0.25-5.25-0.75-10.75-2.75-16h16c3,0,5.25-2.5,5.25-5.25v-31
	c9.75,0.75,16,2.5,22.5,4.25c8.75,2.5,18,5,36,5c12,0,20-1.25,26.5-2.5V335c0,3,2.5,5.25,5.25,5.25H393
	c2.25,5.25,3.25,10.75,3.25,15.75c-0.25,5.5-1.75,10.5-5.25,20.5c-1.5,4.25-2.5,7-3.25,9c-1,2.75-1.75,4.5-2.25,7.5
	c-0.75,7.25,1,15,5.75,23l4.5-2.75c-4-6.75-5.75-13.5-5-19.5c0.25-2.25,0.75-3.5,1.75-6.25c0.75-2,2-4.75,3.5-9.25
	c3.5-10.5,5.25-15.75,5.5-22c0.25-5.25-0.75-10.75-2.75-16H414c2.25,5.25,3.25,10.75,3.25,15.75c-0.25,5.5-1.75,10.5-5.25,20.5
	c-1.5,4.25-2.5,7-3.25,9c-1,2.75-1.75,4.5-2.25,7.5c-0.75,7.25,1,15,5.75,23l4.5-2.75c-4-6.75-5.75-13.5-5-19.5
	c0.25-2.25,0.75-3.5,1.75-6.25c0.75-2,2-4.75,3.5-9.25c3.5-10.5,5.25-15.75,5.5-22c0.25-5.25-0.75-10.75-2.75-16h15.5
	c2.25,5.25,3.25,10.75,3.25,15.75c-0.25,5.5-1.75,10.5-5.25,20.5c-1.5,4.25-2.5,7-3.25,9c-1,2.75-1.75,4.5-2.25,7.5
	c-0.75,7.25,1,15,5.75,23l4.5-2.75c-4-6.75-5.75-13.5-5-19.5c0.25-2.25,0.75-3.5,1.75-6.25c0.75-2,2-4.75,3.5-9.25
	c3.5-10.5,5.25-15.75,5.5-22c0.25-5.25-0.75-10.75-2.75-16h16c3,0,5.25-2.5,5.25-5.25v-24.25c6.5,1.5,14.5,2.5,26.5,2.5V302.5
	c-12.5,0-20.25-1.25-26.5-2.75v-7.25c0-3-2.5-5.25-5.25-5.25h-32v-48c35.5-2,63.75-31.5,63.75-67.5v-1.25c0-3-2.5-5.25-5.25-5.25
	c-29.5,0-54.5,18.75-63.75,45c-9.5-26.25-34.5-45-63.75-45c-3,0-5.25,2.5-5.25,5.25v1.25c0,36,28.25,65.5,63.75,67.5v48h-32
	c-3,0-5.25,2.5-5.25,5.25v7.25c-6.5,1.5-14,3-26.5,3c-16.5,0-24.5-2.25-33-4.75c-7-2-14-4-25.25-4.75v-0.75c0-3-2.5-5.25-5.25-5.25
	h-32v-48c35.5-2,63.75-31.5,63.75-67.5v-1.25c0-3-2.5-5.25-5.25-5.25c-29.5,0-54.5,18.75-63.75,45c-9.5-26.25-34.5-45-63.75-45
	C183.5,165.25,181.25,167.5,181.25,170.5z M138.5,176.25c-2,27.75-24,50-51.5,52.5C89,201,111,178.75,138.5,176.25z M22,176.25
	c27.5,2.75,49.5,25,51.5,52.5C45.75,226,24,203.75,22,176.25z M112,330H48.25v-32H112V330z M478.5,176.25c-2,27.75-24,50-51.5,52.5
	C429,201,451,178.75,478.5,176.25z M362,176.25c27.5,2.75,49.5,25,51.5,52.5C386,226,364,203.75,362,176.25z M388.5,298h63.75v32
	H388.5V298z M308.5,176.25c-2,27.75-24,50-51.5,52.5C259,201,281,178.75,308.5,176.25z M282,298v32h-63.75v-32H282z M243.5,228.75
	c-27.5-2.75-49.5-25-51.5-52.5C219.5,178.75,241.5,201,243.5,228.75z"/>
<rect x="5.75" y="484" fill="#F38230" width="489" height="10.75"/>
<path fill="#F38230" d="M154.5,441.5c0,8.75,7.25,16,16,16s16-7.25,16-16s-7.25-16-16-16C161.75,425.75,154.5,432.75,154.5,441.5z
	 M175.75,441.5c0,3-2.5,5.25-5.25,5.25c-3,0-5.25-2.5-5.25-5.25c0-3,2.5-5.25,5.25-5.25C173.5,436.25,175.75,438.75,175.75,441.5z"
	/>
<path fill="#F38230" d="M5.75,415c0,8.75,7.25,16,16,16s16-7.25,16-16s-7.25-16-16-16S5.75,406.25,5.75,415z M27,415
	c0,3-2.5,5.25-5.25,5.25s-5.25-2.5-5.25-5.25c0-3,2.5-5.25,5.25-5.25S27,412,27,415z"/>
<path fill="#F38230" d="M308.75,367.25c0,8.75,7.25,16,16,16s16-7.25,16-16s-7.25-16-16-16
	C315.75,351.25,308.75,358.5,308.75,367.25z M330,367.25c0,3-2.5,5.25-5.25,5.25c-3,0-5.25-2.5-5.25-5.25s2.5-5.25,5.25-5.25
	C327.5,361.75,330,364.25,330,367.25z"/>
<path fill="#F38230" d="M436.25,436.25c0,8.75,7.25,16,16,16s16-7.25,16-16s-7.25-16-16-16S436.25,427.5,436.25,436.25z
	 M457.5,436.25c0,3-2.5,5.25-5.25,5.25S447,439,447,436.25s2.5-5.25,5.25-5.25S457.5,433.25,457.5,436.25z"/>
<path fill="#F38230" d="M218.25,64.25c0,17.5,14.25,32,32,32s32-14.25,32-32s-14.5-31.75-32-31.75S218.25,46.75,218.25,64.25z
	 M250.25,43c11.75,0,21.25,9.5,21.25,21.25S262,85.5,250.25,85.5S229,76,229,64.25S238.5,43,250.25,43z"/>
<rect x="245" y="5.75" fill="#F38230" width="10.75" height="16"/>
<rect x="245" y="106.75" fill="#F38230" width="10.75" height="16"/>
<rect x="292.75" y="59" fill="#F38230" width="16" height="10.75"/>
<rect x="191.75" y="59" fill="#F38230" width="16" height="10.75"/>
<rect x="278.044" y="23.241" transform="matrix(-0.7071 0.7071 -0.7071 -0.7071 508.546 -153.4083)" fill="#F38230" width="16.001" height="10.75"/>
<rect x="206.542" y="94.824" transform="matrix(-0.7071 0.7071 -0.7071 -0.7071 437.1 19.3507)" fill="#F38230" width="16" height="10.75"/>
<rect x="280.483" y="92.033" transform="matrix(-0.7071 0.7071 -0.7071 -0.7071 558.7189 -31.3736)" fill="#F38230" width="10.749" height="16"/>
<rect x="209.254" y="20.432" transform="matrix(-0.707 0.7072 -0.7072 -0.707 386.4868 -103.2456)" fill="#F38230" width="10.75" height="16"/>
</svg>
