<?xml version="1.0" encoding="utf-8"?>
<!-- Generator: Adobe Illustrator 23.0.1, SVG Export Plug-In . SVG Version: 6.00 Build 0)  -->
<svg version="1.1" id="Layer_1" xmlns="http://www.w3.org/2000/svg" xmlns:xlink="http://www.w3.org/1999/xlink" x="0px" y="0px"
	 viewBox="0 0 200 200" style="enable-background:new 0 0 200 200;" xml:space="preserve">
<style type="text/css">
	.st0{fill:#E34D34;}
</style>
<path class="st0" d="M72.5,68.2v0.5c0,14.4,11.3,26.2,25.5,27v19.2H85.2c-1.2,0-2.1,1-2.1,2.1v4c-5.2-0.2-8.1-1-11.1-1.8
	c-3.5-1-7.2-2-14.4-2c-3.2,0-5.9,0.2-8.5,0.6V117c0-1.2-1-2.1-2.1-2.1H34.2V95.7c14.2-0.8,25.5-12.6,25.5-27v-0.5
	c0-1.2-1-2.1-2.1-2.1c-11.8,0-21.8,7.5-25.5,18c-3.8-10.5-13.8-18-25.5-18c-1.2,0-2.1,1-2.1,2.1v0.5c0,14.4,11.3,26.2,25.5,27v19.2
	H17.2c-1.2,0-2.1,1-2.1,2.1v1.8c-3.1-0.8-6.7-1.6-12.8-1.6v4.3c6.3,0,9.5,0.8,12.8,1.7V134c0,1.2,1,2.1,2.1,2.1h4.1
	c0.9,2.1,1.3,4.3,1.3,6.3c-0.1,2.2-0.7,4.2-2.1,8.2c-0.6,1.7-1,2.8-1.3,3.6c-0.4,1.1-0.7,1.8-0.9,3c-0.3,2.9,0.4,6,2.3,9.2l1.8-1.1
	c-1.6-2.7-2.3-5.4-2-7.8c0.1-0.9,0.3-1.4,0.7-2.5c0.3-0.8,0.8-1.9,1.4-3.7c1.4-4.2,2.1-6.3,2.2-8.8c0.1-2.1-0.3-4.3-1.1-6.4h6.1
	c0.9,2.1,1.3,4.3,1.3,6.3c-0.1,2.2-0.7,4.2-2.1,8.2c-0.6,1.7-1,2.8-1.3,3.6c-0.4,1.1-0.7,1.8-0.9,3c-0.3,2.9,0.4,6,2.3,9.2l1.8-1.1
	c-1.6-2.7-2.3-5.4-2-7.8c0.1-0.9,0.3-1.4,0.7-2.5c0.3-0.8,0.8-1.9,1.4-3.7c1.4-4.2,2.1-6.3,2.2-8.8c0.1-2.1-0.3-4.3-1.1-6.4h6.2
	c0.9,2.1,1.3,4.3,1.3,6.3c-0.1,2.2-0.7,4.2-2.1,8.2c-0.6,1.7-1,2.8-1.3,3.6c-0.4,1.1-0.7,1.8-0.9,3c-0.3,2.9,0.4,6,2.3,9.2l1.8-1.1
	c-1.6-2.7-2.3-5.4-2-7.8c0.1-0.9,0.3-1.4,0.7-2.5c0.3-0.8,0.8-1.9,1.4-3.7c1.4-4.2,2.1-6.3,2.2-8.8c0.1-2.1-0.3-4.3-1.1-6.4H47
	c1.2,0,2.1-1,2.1-2.1v-11.9c2-0.4,4.6-0.7,8.5-0.7c6.6,0,9.8,0.9,13.2,1.9c3.2,0.9,6.4,1.8,12.3,2v8.7c0,1.2,1,2.1,2.1,2.1h4.1
	c0.9,2.1,1.3,4.3,1.3,6.3c-0.1,2.2-0.7,4.2-2.1,8.2c-0.6,1.7-1,2.8-1.3,3.6c-0.4,1.1-0.7,1.8-0.9,3c-0.3,2.9,0.4,6,2.3,9.2l1.8-1.1
	c-1.6-2.7-2.3-5.4-2-7.8c0.1-0.9,0.3-1.4,0.7-2.5c0.3-0.8,0.8-1.9,1.4-3.7c1.4-4.2,2.1-6.3,2.2-8.8c0.1-2.1-0.3-4.3-1.1-6.4h6.1
	c0.9,2.1,1.3,4.3,1.3,6.3c-0.1,2.2-0.7,4.2-2.1,8.2c-0.6,1.7-1,2.8-1.3,3.6c-0.4,1.1-0.7,1.8-0.9,3c-0.3,2.9,0.4,6,2.3,9.2l1.8-1.1
	c-1.6-2.7-2.3-5.4-2-7.8c0.1-0.9,0.3-1.4,0.7-2.5c0.3-0.8,0.8-1.9,1.4-3.7c1.4-4.2,2.1-6.3,2.2-8.8c0.1-2.1-0.3-4.3-1.1-6.4h6.2
	c0.9,2.1,1.3,4.3,1.3,6.3c-0.1,2.2-0.7,4.2-2.1,8.2c-0.6,1.7-1,2.8-1.3,3.6c-0.4,1.1-0.7,1.8-0.9,3c-0.3,2.9,0.4,6,2.3,9.2l1.8-1.1
	c-1.6-2.7-2.3-5.4-2-7.8c0.1-0.9,0.3-1.4,0.7-2.5c0.3-0.8,0.8-1.9,1.4-3.7c1.4-4.2,2.1-6.3,2.2-8.8c0.1-2.1-0.3-4.3-1.1-6.4h6.4
	c1.2,0,2.1-1,2.1-2.1v-12.4c3.9,0.3,6.4,1,9,1.7c3.5,1,7.2,2,14.4,2c4.8,0,8-0.5,10.6-1v9.7c0,1.2,1,2.1,2.1,2.1h4.1
	c0.9,2.1,1.3,4.3,1.3,6.3c-0.1,2.2-0.7,4.2-2.1,8.2c-0.6,1.7-1,2.8-1.3,3.6c-0.4,1.1-0.7,1.8-0.9,3c-0.3,2.9,0.4,6,2.3,9.2l1.8-1.1
	c-1.6-2.7-2.3-5.4-2-7.8c0.1-0.9,0.3-1.4,0.7-2.5c0.3-0.8,0.8-1.9,1.4-3.7c1.4-4.2,2.1-6.3,2.2-8.8c0.1-2.1-0.3-4.3-1.1-6.4h6.1
	c0.9,2.1,1.3,4.3,1.3,6.3c-0.1,2.2-0.7,4.2-2.1,8.2c-0.6,1.7-1,2.8-1.3,3.6c-0.4,1.1-0.7,1.8-0.9,3c-0.3,2.9,0.4,6,2.3,9.2l1.8-1.1
	c-1.6-2.7-2.3-5.4-2-7.8c0.1-0.9,0.3-1.4,0.7-2.5c0.3-0.8,0.8-1.9,1.4-3.7c1.4-4.2,2.1-6.3,2.2-8.8c0.1-2.1-0.3-4.3-1.1-6.4h6.2
	c0.9,2.1,1.3,4.3,1.3,6.3c-0.1,2.2-0.7,4.2-2.1,8.2c-0.6,1.7-1,2.8-1.3,3.6c-0.4,1.1-0.7,1.8-0.9,3c-0.3,2.9,0.4,6,2.3,9.2l1.8-1.1
	c-1.6-2.7-2.3-5.4-2-7.8c0.1-0.9,0.3-1.4,0.7-2.5c0.3-0.8,0.8-1.9,1.4-3.7c1.4-4.2,2.1-6.3,2.2-8.8c0.1-2.1-0.3-4.3-1.1-6.4h6.4
	c1.2,0,2.1-1,2.1-2.1v-9.7c2.6,0.6,5.8,1,10.6,1V121c-5,0-8.1-0.5-10.6-1.1V117c0-1.2-1-2.1-2.1-2.1H170V95.7
	c14.2-0.8,25.5-12.6,25.5-27v-0.5c0-1.2-1-2.1-2.1-2.1c-11.8,0-21.8,7.5-25.5,18c-3.8-10.5-13.8-18-25.5-18c-1.2,0-2.1,1-2.1,2.1
	v0.5c0,14.4,11.3,26.2,25.5,27v19.2H153c-1.2,0-2.1,1-2.1,2.1v2.9c-2.6,0.6-5.6,1.2-10.6,1.2c-6.6,0-9.8-0.9-13.2-1.9
	c-2.8-0.8-5.6-1.6-10.1-1.9V117c0-1.2-1-2.1-2.1-2.1h-12.8V95.7c14.2-0.8,25.5-12.6,25.5-27v-0.5c0-1.2-1-2.1-2.1-2.1
	c-11.8,0-21.8,7.5-25.5,18c-3.8-10.5-13.8-18-25.5-18C73.4,66.1,72.5,67,72.5,68.2z M55.4,70.5c-0.8,11.1-9.6,20-20.6,21
	C35.6,80.4,44.4,71.5,55.4,70.5z M8.8,70.5c11,1.1,19.8,10,20.6,21C18.3,90.4,9.6,81.5,8.8,70.5z M44.8,132H19.3v-12.8h25.5V132z
	 M191.4,70.5c-0.8,11.1-9.6,20-20.6,21C171.6,80.4,180.4,71.5,191.4,70.5z M144.8,70.5c11,1.1,19.8,10,20.6,21
	C154.4,90.4,145.6,81.5,144.8,70.5z M155.4,119.2h25.5V132h-25.5V119.2z M123.4,70.5c-0.8,11.1-9.6,20-20.6,21
	C103.6,80.4,112.4,71.5,123.4,70.5z M112.8,119.2V132H87.3v-12.8H112.8z M97.4,91.5c-11-1.1-19.8-10-20.6-21
	C87.8,71.5,96.6,80.4,97.4,91.5z"/>
<rect x="2.3" y="193.6" class="st0" width="195.6" height="4.3"/>
<path class="st0" d="M61.8,176.6c0,3.5,2.9,6.4,6.4,6.4s6.4-2.9,6.4-6.4s-2.9-6.4-6.4-6.4C64.7,170.3,61.8,173.1,61.8,176.6z
	 M70.3,176.6c0,1.2-1,2.1-2.1,2.1c-1.2,0-2.1-1-2.1-2.1c0-1.2,1-2.1,2.1-2.1C69.4,174.5,70.3,175.5,70.3,176.6z"/>
<path class="st0" d="M2.3,166c0,3.5,2.9,6.4,6.4,6.4s6.4-2.9,6.4-6.4s-2.9-6.4-6.4-6.4S2.3,162.5,2.3,166z M10.8,166
	c0,1.2-1,2.1-2.1,2.1s-2.1-1-2.1-2.1c0-1.2,1-2.1,2.1-2.1S10.8,164.8,10.8,166z"/>
<path class="st0" d="M123.5,146.9c0,3.5,2.9,6.4,6.4,6.4c3.5,0,6.4-2.9,6.4-6.4s-2.9-6.4-6.4-6.4
	C126.3,140.5,123.5,143.4,123.5,146.9z M132,146.9c0,1.2-1,2.1-2.1,2.1c-1.2,0-2.1-1-2.1-2.1s1-2.1,2.1-2.1
	C131,144.7,132,145.7,132,146.9z"/>
<path class="st0" d="M174.5,174.5c0,3.5,2.9,6.4,6.4,6.4s6.4-2.9,6.4-6.4s-2.9-6.4-6.4-6.4S174.5,171,174.5,174.5z M183,174.5
	c0,1.2-1,2.1-2.1,2.1s-2.1-1-2.1-2.1s1-2.1,2.1-2.1S183,173.3,183,174.5z"/>
<path class="st0" d="M87.3,25.7c0,7,5.7,12.8,12.8,12.8s12.8-5.7,12.8-12.8S107.1,13,100.1,13S87.3,18.7,87.3,25.7z M100.1,17.2
	c4.7,0,8.5,3.8,8.5,8.5s-3.8,8.5-8.5,8.5s-8.5-3.8-8.5-8.5S95.4,17.2,100.1,17.2z"/>
<rect x="98" y="2.3" class="st0" width="4.3" height="6.4"/>
<rect x="98" y="42.7" class="st0" width="4.3" height="6.4"/>
<rect x="117.1" y="23.6" class="st0" width="6.4" height="4.3"/>
<rect x="76.7" y="23.6" class="st0" width="6.4" height="4.3"/>
<rect x="111.2" y="9.3" transform="matrix(0.7071 -0.7071 0.7071 0.7071 25.429 84.2423)" class="st0" width="6.4" height="4.3"/>
<rect x="82.6" y="37.9" transform="matrix(0.7071 -0.7071 0.7071 0.7071 -3.1715 72.4295)" class="st0" width="6.4" height="4.3"/>
<rect x="112.2" y="36.8" transform="matrix(0.7071 -0.7071 0.7071 0.7071 5.202 92.5861)" class="st0" width="4.3" height="6.4"/>
<rect x="83.7" y="8.2" transform="matrix(0.707 -0.7072 0.7072 0.707 17.0937 64.0262)" class="st0" width="4.3" height="6.4"/>
</svg>
