<?xml version="1.0" encoding="utf-8"?>
<!-- Generator: Adobe Illustrator 16.0.0, SVG Export Plug-In . SVG Version: 6.00 Build 0)  -->
<!DOCTYPE svg PUBLIC "-//W3C//DTD SVG 1.1//EN" "http://www.w3.org/Graphics/SVG/1.1/DTD/svg11.dtd">
<svg version="1.1" id="Layer_1" xmlns="http://www.w3.org/2000/svg" xmlns:xlink="http://www.w3.org/1999/xlink" x="0px" y="0px"
	 width="500px" height="500px" viewBox="0 0 500 500" enable-background="new 0 0 500 500" xml:space="preserve">
<path fill="#F38230" d="M104,481c0.5,0,1-0.25,1.5-0.5l17.25,13l3.25-4.25L111,478l30.25-13h35.5c0.75,0,1.5-0.25,2.25-0.5l11.5,7.5
	l5,9.75c0.5,1,1.25,1.5,2.25,1.5h21V478H199.5l-4.5-9c-0.25-0.5-0.5-0.75-1-1l-10.5-7l21.25-17h90.5l22.25,17.75L301.25,478h-9.5
	v5.25h10.5c0.75,0,1.25-0.25,1.75-0.75l17.75-17.75c0.5,0,0.75,0.25,1.25,0.25h35.5l25,12.5l-9.25,6.25l-10.5,5.25l2.25,4.75
	l10.75-5.5l12-8c0.5,0.25,1.25,0.5,1.75,0.5l99.5,10.5l1-10.5l-98.5-10.5L362,455c-0.75-0.25-1.5-0.5-2.25-0.5H325l-24.75-19.75
	c-1-0.75-2-1.25-3.25-1.25h-39.25v-42C351.75,390,428,313.25,428,218.75c0-3-2.25-5.25-5.25-5.25c-85.25,0-156,62-170.25,143
	c-14-80.5-85-142.5-170-142.5c-3,0-5.25,2.25-5.25,5.25c0,94.5,76.25,171.5,170.25,172.75v42h-44.75c-1.25,0-2.25,0.5-3.25,1.25
	L174.75,455H140c-0.75,0-1.5,0.25-2,0.5L102,471L8.5,481.5L9.75,492L104,481z M417.5,224.5c-2.75,85.25-71.75,154.25-157,157
	C263.25,296.25,332.25,227.25,417.5,224.5z M87.75,224.5c85.25,2.75,154.25,71.75,157,157C159.25,378.75,90.5,310,87.75,224.5z"/>
<path fill="#F38230" d="M339,109.25c0,15.5,11.25,28.5,26.25,31v21.5h-42c-3,0-5.25,2.25-5.25,5.25v62.75h10.5v-57.5h42
	c3,0,5.25-2.25,5.25-5.25v-26.75c14.75-2.5,26.25-15.5,26.25-31c0-17.25-14-31.5-31.5-31.5S339,92,339,109.25z M370.5,88.25
	c11.5,0,21,9.5,21,21s-9.5,21-21,21s-21-9.5-21-21S359,88.25,370.5,88.25z"/>
<circle fill="#F38230" cx="370.5" cy="109.25" r="10.5"/>
<path fill="#F38230" d="M312.75,72v39.5l-29,19.5c-1.5,1-2.25,2.5-2.25,4.25V261H292V138.25l29-19.5c1.5-1,2.25-2.5,2.25-4.25V72
	C338,69.5,349.5,56.5,349.5,41c0-17.25-14-31.5-31.5-31.5c-17.25,0-31.5,14-31.5,31.5C286.75,56.75,298,69.5,312.75,72z M318,20.25
	c11.5,0,21,9.5,21,21s-9.5,21-21,21s-21-9.5-21-21S306.5,20.25,318,20.25z"/>
<circle fill="#F38230" cx="318" cy="41.25" r="10.5"/>
<path fill="#F38230" d="M171.5,72v37.25c0,1.75,0.75,3.25,2,4.25l39.75,29.75V261h10.5V140.75c0-1.75-0.75-3.25-2-4.25L182,106.75
	V72c14.75-2.5,26.25-15.5,26.25-31c0-17.25-14-31.5-31.5-31.5s-31.5,14.25-31.5,31.75C145.25,56.75,156.5,69.5,171.5,72z
	 M176.75,20.25c11.5,0,21,9.5,21,21s-9.5,21-21,21s-21-9.5-21-21S165,20.25,176.75,20.25z"/>
<circle fill="#F38230" cx="176.75" cy="41.25" r="10.5"/>
<path fill="#F38230" d="M124.25,135v32c0,3,2.25,5.25,5.25,5.25h42v52.5H182v-57.5c0-3-2.25-5.25-5.25-5.25h-42v-27
	c14.75-2.5,26.25-15.5,26.25-31c0-17.25-14-31.5-31.5-31.5S98,86.5,98,104C98,119.5,109.5,132.5,124.25,135z M129.5,83
	c11.5,0,21,9.5,21,21s-9.5,21-21,21s-21-9.5-21-21S118,83,129.5,83z"/>
<circle fill="#F38230" cx="129.5" cy="104" r="10.5"/>
<rect x="171.553" y="224.982" transform="matrix(-0.6912 0.7227 -0.7227 -0.6912 517.4026 395.6208)" fill="#F38230" width="5.249" height="166.742"/>
<rect x="248.949" y="297.736" transform="matrix(-0.7071 0.7071 -0.7071 -0.7071 795.4894 271.2197)" fill="#F38230" width="185.248" height="5.25"/>
<rect x="92.75" y="439.25" fill="#F38230" width="10.5" height="10.5"/>
<rect x="30" y="428.75" fill="#F38230" width="10.5" height="10.5"/>
<rect x="155.75" y="413" fill="#F38230" width="10.5" height="10.5"/>
<rect x="328.5" y="413" fill="#F38230" width="10.5" height="10.5"/>
<rect x="407.25" y="423.5" fill="#F38230" width="10.5" height="10.5"/>
<rect x="449" y="444.5" fill="#F38230" width="10.5" height="10.5"/>
<path fill="#F38230" d="M247.5,119.25v157.5H258v-157.5c14.75-2.5,26.25-15.5,26.25-31c0-17.25-14-31.5-31.5-31.5
	c-17.25,0-31.5,14-31.5,31.5C221.25,103.75,232.5,116.75,247.5,119.25z M252.75,67.25c11.5,0,21,9.5,21,21s-9.5,21-21,21
	s-21-9.5-21-21S241,67.25,252.75,67.25z"/>
<circle fill="#F38230" cx="252.75" cy="88.25" r="10.5"/>
</svg>
