<?xml version="1.0" encoding="utf-8"?>
<!-- Generator: Adobe Illustrator 16.0.0, SVG Export Plug-In . SVG Version: 6.00 Build 0)  -->
<!DOCTYPE svg PUBLIC "-//W3C//DTD SVG 1.1//EN" "http://www.w3.org/Graphics/SVG/1.1/DTD/svg11.dtd">
<svg version="1.1" id="Layer_1" xmlns="http://www.w3.org/2000/svg" xmlns:xlink="http://www.w3.org/1999/xlink" x="0px" y="0px"
	 width="500px" height="500px" viewBox="0 0 500 500" enable-background="new 0 0 500 500" xml:space="preserve">
<path fill="#F38230" d="M410,448.25c-0.75,0-1.25,0-2,0.25l-13.75,5.5l-29.75-10l-20.75-5.25c-0.5,0-0.75-0.25-1.25-0.25h-19.75
	l-40.5-15.25C281.75,423,281,423,280.5,423h-26v-26.25c34.75-2,62.25-31.25,62.25-66.75v-1.25c0-2.75-2.25-5.25-5.25-5.25
	c-28.75,0-53.25,18.75-62.25,44.75c-9.25-25.5-33.5-43.75-62.25-43.75c-2.75,0-5.25,2.25-5.25,5.25V331c0,35.25,27.5,64,62.25,66
	v26.25h-25.75c-0.75,0-1.5,0.25-2.25,0.5l-20.25,10L134.5,449L68,459.25L11.75,449L10,459.25l57,10.5c0.25,0,0.5,0,1,0
	c0.25,0,0.5,0,0.75,0l26.75-4.25c0.25,0,0.25,0,0.5,0c4.25-1.25,8.75-1.75,13.5-1.75l-0.25-0.25l27.75-4.25l62.25-15.5
	c0.25,0,0.75-0.25,1-0.5L220,433.5h60l40.5,15.25c0.5,0.25,1.25,0.25,1.75,0.25h20l9.25,2.25c1.25,0,2.5,0.25,3.75,0.5
	c3.25,1,6.75,1.5,10.25,2.25c4.25,0.75,8.25,2.25,12.25,4.25c1,0.5,2,1,2.75,1.75l12.5,4.25c1.25,0.5,2.5,0.25,3.5,0l14.75-5.75h10
	l0.25,0.25c6.5-1.75,13.75-1.75,20.25-0.25H488V448h-78V448.25z M306.25,334.25c-2,27.5-23.5,49.75-50.25,52.25
	C257.75,359,279.25,337,306.25,334.25z M192.25,335.25c27,2.5,48.25,24.25,50.25,51.25C215.75,384,194.5,362.25,192.25,335.25z"/>
<path fill="#F38230" d="M410,79.75c0,14.25,11.75,26,26,26s26-11.75,26-26s-11.75-26-26-26S410,65.5,410,79.75z M436,64.25
	c8.5,0,15.5,7,15.5,15.5s-7,15.5-15.5,15.5s-15.5-7-15.5-15.5S427.5,64.25,436,64.25z"/>
<rect x="430.75" y="28" fill="#F38230" width="10.5" height="15.5"/>
<rect x="430.75" y="116.25" fill="#F38230" width="10.5" height="15.5"/>
<rect x="472.25" y="74.75" fill="#F38230" width="15.5" height="10.5"/>
<rect x="384.25" y="74.75" fill="#F38230" width="15.5" height="10.5"/>
<rect x="459.523" y="43.518" transform="matrix(-0.7072 0.707 -0.707 -0.7072 832.2076 -247.1108)" fill="#F38230" width="15.499" height="10.5"/>
<rect x="396.925" y="105.774" transform="matrix(-0.7071 0.7071 -0.7071 -0.7071 769.3292 -96.6178)" fill="#F38230" width="15.5" height="10.5"/>
<rect x="461.979" y="103.222" transform="matrix(-0.7071 0.7071 -0.7071 -0.7071 876.0702 -140.9542)" fill="#F38230" width="10.499" height="15.5"/>
<rect x="399.835" y="40.974" transform="matrix(-0.707 0.7072 -0.7072 -0.707 725.9504 -203.2932)" fill="#F38230" width="10.5" height="15.5"/>
<path fill="#F38230" d="M274.5,277H264c0,8.5-6.75,15.5-14.75,15.5V303C263,303,274.5,291.25,274.5,277z"/>
<path fill="#F38230" d="M119.5,79.75H41.75C39,79.75,36.5,82,36.5,85v5.25H10.75v10.5h26v41.5h-26v10.25h26v5.25
	C36.75,160.5,39,163,42,163h77.75c2.75,0,5.25-2.25,5.25-5.25v-10.5h93.5c2.75,0,5.25,2.25,5.25,5.25v26c0,2.75,2.25,5.25,5.25,5.25
	h36.25c2.75,0,5.25-2.25,5.25-5.25V142c0-25.75-21-46.75-46.75-46.75h-10.5V74.5c0-2.75-2.25-5.25-5.25-5.25h-5.5v-10.5
	c2.75,0,5.25-2.25,5.25-5.25v-5.25H244v-10.5h-36.25V32.5c0-2.75-2.25-5.25-5.25-5.25h-31c-2.75,0-5.25,2.25-5.25,5.25v5.25H130
	v10.5h36.25v5.25c0,2.75,2.25,5.25,5.25,5.25v10.5H161c-2.75,0-5.25,2.25-5.25,5.25v20.75h-31V85
	C124.75,82.25,122.5,79.75,119.5,79.75z M114.5,152.5H47V90.25h67.5V152.5z M176.75,38.25h20.75v10.5h-20.75V38.25z M192.25,59v10.5
	h-10.5V59H192.25z M161,105.75c2.75,0,5.25-2.25,5.25-5.25V79.75h36.25v20.75c0,2.75,2.25,5.25,5.25,5.25h15.5
	c20,0,36.25,16.25,36.25,36.25v31.25h-25.75V152.5c0-8.5-7-15.5-15.5-15.5h-93.5v-31.25H161z"/>
<path fill="#F38230" d="M244,202l-32.5,59.5c-7.25,13.25-7,28.75,0.75,41.75S233.5,324,248.5,324s28.5-7.75,36.25-20.75
	s8-28.5,0.75-41.75L253,202C251.25,198.5,245.75,198.5,244,202z M276,297.75c-5.75,9.75-16,15.5-27.25,15.5s-21.5-5.75-27.25-15.5
	s-6-21.5-0.5-31.5L249,215l28,51.25C282,276.25,281.75,288,276,297.75z"/>
</svg>
