<?xml version="1.0" encoding="utf-8"?>
<!-- Generator: Adobe Illustrator 16.0.0, SVG Export Plug-In . SVG Version: 6.00 Build 0)  -->
<!DOCTYPE svg PUBLIC "-//W3C//DTD SVG 1.1//EN" "http://www.w3.org/Graphics/SVG/1.1/DTD/svg11.dtd">
<svg version="1.1" id="Layer_1" xmlns="http://www.w3.org/2000/svg" xmlns:xlink="http://www.w3.org/1999/xlink" x="0px" y="0px"
	 width="500px" height="500px" viewBox="0 0 500 500" enable-background="new 0 0 500 500" xml:space="preserve">
<path fill="#F38230" d="M165.5,26.5v49.75c0,2.75,2.25,5,5,5h10v107.5l-136,170c-14.75,18.25-22.75,41.5-22.75,65
	c0,30,24.5,54.5,54.5,54.5h347.5c30,0,54.5-24.5,54.5-54.5c0-23.5-8-46.5-22.75-65l-136-170V81.25h10c2.75,0,5-2.25,5-5V26.5
	c0-2.75-2.25-5-5-5h-159C167.75,21.75,165.5,23.75,165.5,26.5z M468.5,423.75c0,24.75-20,44.75-44.75,44.75H76.25
	c-24.75,0-44.75-20-44.75-44.75c0-3.25,0.25-6.75,0.5-10h435.75C468.25,417.25,468.5,420.5,468.5,423.75z M175.5,31.5h149v39.75h-10
	c-2.75,0-5,2.25-5,5V190.5c0,1.25,0.5,2.25,1,3L447.75,365c9,11.5,15.25,24.75,18.5,39h-102v-30c22.25-2.5,39.75-21.5,39.75-44.5
	c0-2.75-2.25-5-5-5c-17.25,0-32.25,10-39.75,24.25c-7.5-14.5-22.5-24.25-39.75-24.25c-2.75,0-5,2.25-5,5c0,23,17.5,42,39.75,44.5v30
	H255v-30c22.25-2.5,39.75-21.5,39.75-44.5c0-2.75-2.25-5-5-5c-17.25,0-32.25,10-39.75,24.25c-7.5-14.5-22.5-24.25-39.75-24.25
	c-2.75,0-5,2.25-5,5c0,23,17.5,42,39.75,44.5v30h-99.25v-30c22.25-2.5,39.75-21.5,39.75-44.5c0-2.75-2.25-5-5-5
	c-17.25,0-32.25,10-39.75,24.25c-7.5-14.5-22.5-24.25-39.75-24.25c-2.75,0-5,2.25-5,5c0,23,17.5,42,39.75,44.5v30h-102
	c3-14.25,9.25-27.5,18.5-39L189.5,193.5c0.75-1,1-2,1-3V76.25c0-2.75-2.25-5-5-5h-10V31.5z M364.5,363.75c2.25-14.75,14-26.75,29-29
	C391.25,349.75,379.5,361.5,364.5,363.75z M353.75,363.75c-14.75-2.25-26.75-14-29-29C339.75,337.25,351.5,349,353.75,363.75z
	 M255.5,363.75c2.25-14.75,14-26.75,29-29C282,349.75,270.25,361.5,255.5,363.75z M244.5,363.75c-14.75-2.25-26.75-14-29-29
	C230.5,337.25,242.25,349,244.5,363.75z M146.25,363.75c2.25-14.75,14-26.75,29-29C172.75,349.75,161,361.5,146.25,363.75z
	 M135.5,363.75c-14.75-2.25-26.75-14-29-29C121.25,337.25,133,349,135.5,363.75z"/>
<path fill="#F38230" d="M81.25,456c8.25,0,15-6.75,15-15s-6.75-15-15-15s-15,6.75-15,15S73,456,81.25,456z M81.25,436.25
	c2.75,0,5,2.25,5,5s-2.25,5-5,5s-5-2.25-5-5S78.5,436.25,81.25,436.25z"/>
<path fill="#F38230" d="M225.25,453.5c8.25,0,15-6.75,15-15s-6.75-15-15-15s-15,6.75-15,15S217,453.5,225.25,453.5z M225.25,433.75
	c2.75,0,5,2.25,5,5s-2.25,5-5,5s-5-2.25-5-5S222.5,433.75,225.25,433.75z"/>
<path fill="#F38230" d="M408.75,453.5c8.25,0,15-6.75,15-15s-6.75-15-15-15s-15,6.75-15,15S400.75,453.5,408.75,453.5z
	 M408.75,433.75c2.75,0,5,2.25,5,5s-2.25,5-5,5s-5-2.25-5-5C404,436,406.25,433.75,408.75,433.75z"/>
<rect x="339.25" y="428.75" fill="#F38230" width="10" height="10"/>
<rect x="150.75" y="448.5" fill="#F38230" width="10" height="10"/>
<rect x="111" y="423.75" fill="#F38230" width="10" height="10"/>
<rect x="279.75" y="448.5" fill="#F38230" width="10" height="10"/>
<rect x="200.25" y="71.25" fill="#F38230" width="79.5" height="10"/>
<rect x="289.75" y="71.25" fill="#F38230" width="10" height="10"/>
<rect x="458.5" y="21.75" fill="#F38230" width="10" height="10"/>
<rect x="458.5" y="41.5" fill="#F38230" width="10" height="10"/>
<rect x="468.5" y="31.5" fill="#F38230" width="10" height="10"/>
<rect x="448.5" y="31.5" fill="#F38230" width="10" height="10"/>
<rect x="399" y="155.75" fill="#F38230" width="10" height="10"/>
<rect x="399" y="175.5" fill="#F38230" width="10" height="10"/>
<rect x="408.75" y="165.5" fill="#F38230" width="10" height="10"/>
<rect x="389" y="165.5" fill="#F38230" width="10" height="10"/>
<rect x="111" y="140.75" fill="#F38230" width="10" height="10"/>
<rect x="111" y="160.75" fill="#F38230" width="10" height="10"/>
<rect x="121" y="150.75" fill="#F38230" width="10" height="10"/>
<rect x="101" y="150.75" fill="#F38230" width="10" height="10"/>
<rect x="31.5" y="46.5" fill="#F38230" width="10" height="10"/>
<rect x="31.5" y="66.25" fill="#F38230" width="10" height="10"/>
<rect x="41.5" y="56.5" fill="#F38230" width="10" height="10"/>
<rect x="21.75" y="56.5" fill="#F38230" width="10" height="10"/>
</svg>
