<?xml version="1.0" encoding="utf-8"?>
<!-- Generator: Adobe Illustrator 16.0.0, SVG Export Plug-In . SVG Version: 6.00 Build 0)  -->
<!DOCTYPE svg PUBLIC "-//W3C//DTD SVG 1.1//EN" "http://www.w3.org/Graphics/SVG/1.1/DTD/svg11.dtd">
<svg version="1.1" id="Layer_1" xmlns="http://www.w3.org/2000/svg" xmlns:xlink="http://www.w3.org/1999/xlink" x="0px" y="0px"
	 width="100px" height="100px" viewBox="0 0 100 100" enable-background="new 0 0 100 100" xml:space="preserve">
<title>heart-disease-medical-breath-rate</title>
<rect x="47.941" y="49.758" fill="#F38230" width="3.834" height="3.835"/>
<path fill="#F38230" d="M74.297,44.604c-1.763-2.644-5.336-3.357-7.98-1.594c-0.832,0.555-1.504,1.318-1.953,2.213l-2.133,4.263
	c-0.473,0.947-1.623,1.331-2.57,0.858c-0.229-0.114-0.434-0.273-0.6-0.468l-4.731-5.521c-1.118-1.296-2.753-2.032-4.464-2.008
	c-1.714,0.026-3.326,0.817-4.395,2.157l-1.687,2.107c-0.374,0.458-0.935,0.723-1.526,0.719c-0.593-0.007-1.149-0.291-1.504-0.767
	l-4.813-6.415c-1.905-2.542-5.51-3.058-8.052-1.153c-0.715,0.536-1.296,1.232-1.696,2.031l-4.365,8.73H0v3.835h24.197l5.425-10.85
	c0.473-0.947,1.625-1.331,2.572-0.858c0.266,0.133,0.498,0.327,0.677,0.565l4.813,6.416c1.063,1.428,2.731,2.278,4.511,2.301h0.092
	c1.748,0.005,3.402-0.79,4.489-2.158l1.687-2.107c0.356-0.447,0.893-0.711,1.464-0.719c0.575-0.027,1.128,0.222,1.489,0.67
	l4.732,5.522c1.09,1.275,2.685,2.01,4.363,2.009c0.236,0,0.473-0.015,0.707-0.044c1.913-0.232,3.582-1.412,4.442-3.137l2.133-4.263
	c0.474-0.947,1.626-1.331,2.573-0.857c0.298,0.149,0.553,0.374,0.738,0.651l4.572,6.861h24.038v-3.835H77.73L74.297,44.604z"/>
<rect x="47.941" y="49.758" fill="#F38230" width="3.834" height="3.835"/>
<path fill="#F38230" d="M19.298,45.098c-3.491-7.345-0.367-16.13,6.978-19.622c5.627-2.675,12.328-1.519,16.734,2.886l6.847,6.848
	l6.847-6.848c5.751-5.75,15.075-5.75,20.825,0.001c4.404,4.406,5.561,11.107,2.886,16.734l3.464,1.648
	c4.4-9.259,0.463-20.332-8.796-24.733c-7.092-3.371-15.539-1.914-21.092,3.638l-4.135,4.135l-4.135-4.135
	c-7.25-7.248-19.002-7.247-26.25,0.003c-5.552,5.553-7.009,14-3.638,21.092L19.298,45.098z"/>
<polygon fill="#F38230" points="49.858,79.514 28.262,55.861 25.432,58.445 49.858,85.201 74.285,58.445 71.455,55.861 "/>
</svg>
