<?xml version="1.0" encoding="utf-8"?>
<!-- Generator: Adobe Illustrator 17.0.0, SVG Export Plug-In . SVG Version: 6.00 Build 0)  -->
<!DOCTYPE svg PUBLIC "-//W3C//DTD SVG 1.1//EN" "http://www.w3.org/Graphics/SVG/1.1/DTD/svg11.dtd">
<svg version="1.1" id="Layer_1" xmlns="http://www.w3.org/2000/svg" xmlns:xlink="http://www.w3.org/1999/xlink" x="0px" y="0px"
	 width="100px" height="100px" viewBox="0 0 100 100" enable-background="new 0 0 100 100" xml:space="preserve">
<g>
	<path fill="#E34D34" d="M96.728,83.828h-1.388v-2.566c0-1.6-1.301-2.901-2.901-2.901h-1.502l5.032-21.686
		c0.436-1.993-0.089-4.897-1.196-6.62L78.192,24.795c-0.634-0.986-1.632-1.677-2.734-1.893c-1.017-0.2-2.035,0.01-2.867,0.591
		c-1.735,1.214-2.381,3.791-1.474,5.871l5.409,13.108c-1.637,0.642-2.788,2.255-2.788,4.14v11.784c0,0.867-0.128,2.072-0.352,3.306
		c-0.21,1.135-0.479,2.18-0.76,2.948l-0.025,0.069c-0.003,0.008-0.007,0.015-0.009,0.022c-0.778,2.12-1.244,5.365-1.244,8.682v4.938
		h-1.173c-1.601,0-2.902,1.301-2.902,2.901v2.566h-1.004c-0.569,0-1.029,0.46-1.029,1.028v8.279c0,0.567,0.46,1.027,1.029,1.027
		h30.461c0.568,0,1.028-0.46,1.028-1.027v-8.279C97.756,84.287,97.296,83.828,96.728,83.828z M73.402,73.423
		c0-3.081,0.416-6.058,1.113-7.961l0.025-0.067c0.003-0.008,0.006-0.015,0.009-0.022c0.322-0.876,0.626-2.048,0.857-3.302
		c0.249-1.372,0.386-2.676,0.386-3.676V46.61c0-1.256,0.985-2.324,2.195-2.383c0.009,0,0.019-0.001,0.027-0.001
		c0.164-0.012,0.344,0.006,0.521,0.043c1.081,0.217,1.863,1.202,1.863,2.342v11.76c-0.016,0.391-0.065,3.604,2.243,6.274
		c0.371,0.431,1.019,0.478,1.448,0.106c0.431-0.37,0.478-1.019,0.106-1.448c-1.85-2.142-1.746-4.827-1.745-4.85
		c0.001-0.019,0.002-0.038,0.002-0.057V46.611c0-2.116-1.478-3.949-3.508-4.356c-0.101-0.02-0.204-0.037-0.306-0.051l-5.625-13.636
		c-0.003-0.007-0.007-0.015-0.009-0.021c-0.517-1.176-0.166-2.72,0.764-3.372c0.37-0.259,0.829-0.351,1.293-0.259
		c0.557,0.109,1.067,0.469,1.407,0.996l16.579,25.261c0.804,1.246,1.23,3.611,0.915,5.049l-5.136,22.137H73.401v-4.937H73.402z
		 M69.326,81.26c0-0.467,0.381-0.846,0.848-0.846h2.197c0.001,0,0.002,0,0.005,0c0.001,0,0.002,0,0.003,0h17.249
		c0.006,0,0.012,0.001,0.018,0.001c0.004,0,0.008-0.001,0.012-0.001h2.783c0.467,0,0.847,0.379,0.847,0.846v2.566H69.327V81.26
		H69.326z M95.7,92.107H67.294v-6.225H95.7V92.107z"/>
	<path fill="#E34D34" d="M32.794,83.828h-1.003v-2.566c0-1.6-1.302-2.901-2.902-2.901h-1.175v-4.938
		c0-3.322-0.464-6.568-1.249-8.702l-0.024-0.058c-0.606-1.645-1.117-4.516-1.117-6.266V46.612c0-1.886-1.15-3.499-2.786-4.142
		l5.408-13.106c0.907-2.08,0.261-4.657-1.474-5.872c-0.832-0.582-1.851-0.793-2.869-0.591c-1.101,0.217-2.097,0.906-2.727,1.885
		L4.285,50.062c-1.103,1.714-1.627,4.618-1.19,6.626l5.028,21.671H6.622c-1.6,0-2.902,1.301-2.902,2.901v2.566H2.333
		c-0.568,0-1.028,0.46-1.028,1.028v8.279c0,0.567,0.46,1.027,1.028,1.027h30.461c0.567,0,1.028-0.46,1.028-1.027v-8.279
		C33.822,84.287,33.361,83.828,32.794,83.828z M5.1,56.236c-0.316-1.451,0.11-3.817,0.907-5.053l16.591-25.276
		c0.334-0.518,0.845-0.879,1.401-0.988c0.464-0.092,0.923,0,1.294,0.259c0.931,0.652,1.281,2.196,0.765,3.372
		c-0.002,0.007-0.006,0.015-0.009,0.021l-5.626,13.634c-0.1,0.013-0.2,0.028-0.302,0.048c-2.035,0.41-3.513,2.243-3.513,4.357
		v11.784c0,0.016,0,0.037,0.001,0.053c0.001,0.027,0.106,2.712-1.745,4.853c-0.371,0.43-0.324,1.078,0.106,1.449
		c0.43,0.371,1.078,0.324,1.449-0.106c2.307-2.671,2.258-5.883,2.244-6.274V46.61c0-1.139,0.784-2.125,1.861-2.342
		c0.152-0.03,0.297-0.045,0.441-0.045c0.034,0,0.069,0.001,0.109,0.003c1.21,0.058,2.194,1.128,2.194,2.384v11.784
		c0,1.984,0.558,5.112,1.25,6.994l0.024,0.06c0.699,1.899,1.117,4.881,1.117,7.974v4.938H10.235L5.1,56.236z M5.775,81.26
		c0-0.466,0.379-0.846,0.847-0.846h2.784c0.003,0,0.006,0.001,0.01,0.001s0.009-0.001,0.013-0.001h19.459
		c0.468,0,0.847,0.38,0.847,0.846v2.566H5.775L5.775,81.26L5.775,81.26z M31.766,92.107H3.359v-6.225h28.407V92.107z"/>
	<path fill="#E34D34" d="M49.339,37.818c-0.567,0-1.028,0.46-1.028,1.028V85.17c0,0.569,0.46,1.029,1.028,1.029
		c0.568,0,1.028-0.46,1.028-1.029V38.846C50.367,38.278,49.907,37.818,49.339,37.818z"/>
	<path fill="#E34D34" d="M47.281,46.409c-0.001-0.011-0.001-0.024-0.003-0.036c-0.841-4.468-2.767-7.555-5.727-9.179
		c-4.706-2.582-10.212-0.426-10.443-0.334c-0.024,0.01-0.044,0.024-0.066,0.035c-0.029,0.015-0.06,0.028-0.088,0.046
		c-0.03,0.019-0.06,0.04-0.088,0.062c-0.024,0.019-0.048,0.037-0.071,0.057c-0.027,0.025-0.052,0.052-0.075,0.079
		c-0.02,0.022-0.039,0.045-0.057,0.07c-0.02,0.028-0.038,0.057-0.055,0.087c-0.017,0.027-0.033,0.056-0.047,0.085
		c-0.013,0.028-0.024,0.057-0.035,0.088c-0.012,0.033-0.024,0.066-0.033,0.1c-0.007,0.029-0.011,0.06-0.016,0.089
		c-0.006,0.036-0.011,0.071-0.012,0.109c-0.001,0.03,0,0.062,0.001,0.093c0.001,0.027-0.001,0.053,0.001,0.08
		c0.03,0.249,0.788,6.112,5.314,8.995c1.602,1.021,3.453,1.533,5.537,1.533c1.618,0,3.376-0.308,5.266-0.925
		c0.007-0.001,0.012-0.006,0.019-0.008c0.016-0.006,0.033-0.01,0.048-0.017c0.004-0.001,0.009-0.004,0.013-0.007
		c0.036-0.015,0.071-0.031,0.106-0.051c0.004-0.003,0.009-0.007,0.013-0.009c0.009-0.004,0.018-0.011,0.027-0.017
		c0.011-0.008,0.024-0.016,0.035-0.024c0.025-0.018,0.048-0.036,0.071-0.055c0.011-0.009,0.022-0.018,0.034-0.028
		c0.01-0.009,0.022-0.018,0.031-0.028c0.003-0.003,0.007-0.008,0.011-0.012c0.027-0.028,0.053-0.056,0.078-0.088
		c0.003-0.004,0.007-0.01,0.01-0.016c0.004-0.006,0.009-0.013,0.013-0.02c0.01-0.012,0.019-0.026,0.027-0.039
		c0.008-0.012,0.017-0.024,0.024-0.036c0.006-0.009,0.009-0.02,0.013-0.029c0.01-0.019,0.021-0.039,0.03-0.058
		c0.01-0.022,0.019-0.045,0.028-0.067c0.008-0.021,0.016-0.04,0.022-0.062c0.007-0.019,0.011-0.038,0.016-0.057
		c0.006-0.024,0.011-0.047,0.016-0.072c0.003-0.022,0.008-0.044,0.01-0.066c0.002-0.02,0.003-0.04,0.004-0.061
		c0.001-0.024,0.001-0.047,0-0.071c0-0.022,0-0.045-0.002-0.067C47.288,46.453,47.284,46.431,47.281,46.409z M37.425,42.522
		l6.188,3.664c-2.663,0.487-4.915,0.163-6.712-0.978c-2.808-1.781-3.876-5.145-4.233-6.696c1.532-0.433,4.995-1.113,7.906,0.491
		c1.864,1.027,3.231,2.846,4.084,5.414l-6.188-3.664c-0.488-0.29-1.119-0.128-1.407,0.361
		C36.775,41.602,36.937,42.231,37.425,42.522z"/>
	<path fill="#E34D34" d="M51.371,46.373c-0.002,0.012-0.001,0.025-0.003,0.037c-0.003,0.024-0.007,0.047-0.009,0.071
		c-0.001,0.018-0.001,0.036-0.002,0.054c0,0.026-0.001,0.052,0.001,0.079c0.001,0.022,0.002,0.044,0.004,0.066
		c0.002,0.018,0.006,0.036,0.009,0.054c0.004,0.026,0.009,0.053,0.016,0.079c0.007,0.021,0.012,0.042,0.019,0.062
		c0.006,0.018,0.012,0.034,0.018,0.051c0.009,0.024,0.02,0.048,0.03,0.072c0.01,0.022,0.021,0.043,0.033,0.064
		c0.004,0.008,0.007,0.017,0.011,0.025c0.007,0.01,0.015,0.02,0.02,0.029c0.012,0.017,0.024,0.034,0.035,0.051l0,0
		c0.008,0.011,0.015,0.024,0.024,0.033c0.021,0.026,0.044,0.049,0.066,0.073c0.008,0.009,0.015,0.018,0.022,0.025
		c0.01,0.008,0.019,0.016,0.027,0.022c0.012,0.012,0.027,0.024,0.04,0.035c0.021,0.017,0.043,0.034,0.064,0.049
		c0.015,0.009,0.028,0.018,0.043,0.027c0.004,0.003,0.011,0.007,0.016,0.01c0.009,0.004,0.016,0.011,0.024,0.016
		c0.03,0.017,0.064,0.033,0.096,0.046c0.008,0.003,0.017,0.008,0.024,0.011c0.015,0.006,0.028,0.01,0.044,0.015
		c0.008,0.002,0.013,0.007,0.021,0.009c1.889,0.617,3.648,0.925,5.266,0.925c2.084,0,3.936-0.512,5.538-1.533
		c4.526-2.884,5.284-8.746,5.314-8.995c0.002-0.022,0-0.044,0.001-0.066c0.003-0.037,0.004-0.074,0.003-0.111
		c-0.003-0.031-0.008-0.063-0.012-0.094c-0.006-0.034-0.01-0.069-0.019-0.101c-0.008-0.031-0.019-0.062-0.029-0.093
		c-0.011-0.031-0.022-0.064-0.037-0.093c-0.013-0.028-0.027-0.055-0.044-0.082c-0.018-0.03-0.036-0.061-0.057-0.09
		c-0.018-0.024-0.037-0.046-0.056-0.067c-0.025-0.027-0.048-0.054-0.075-0.08c-0.022-0.02-0.047-0.038-0.071-0.057
		c-0.028-0.022-0.056-0.043-0.088-0.062c-0.028-0.018-0.057-0.031-0.088-0.046c-0.024-0.011-0.043-0.025-0.065-0.035
		c-0.233-0.093-5.737-2.249-10.443,0.334C54.138,38.817,52.212,41.905,51.371,46.373z M65.984,38.512
		c-0.352,1.546-1.41,4.896-4.222,6.688c-1.801,1.147-4.056,1.473-6.724,0.985l6.189-3.664c0.489-0.289,0.649-0.92,0.36-1.408
		c-0.29-0.489-0.919-0.65-1.408-0.361l-6.188,3.664c0.855-2.568,2.222-4.388,4.085-5.414C60.989,37.397,64.453,38.079,65.984,38.512
		z"/>
	<path fill="#E34D34" d="M47.281,62.233c-0.001-0.013-0.001-0.024-0.003-0.036c-0.841-4.469-2.767-7.557-5.727-9.179
		c-4.706-2.582-10.212-0.427-10.443-0.333c-0.022,0.008-0.042,0.021-0.063,0.032c-0.031,0.016-0.063,0.029-0.092,0.047
		c-0.029,0.02-0.057,0.039-0.084,0.062c-0.025,0.019-0.049,0.037-0.073,0.058c-0.026,0.024-0.049,0.051-0.073,0.078
		c-0.021,0.024-0.04,0.046-0.058,0.071c-0.02,0.027-0.037,0.055-0.054,0.084c-0.017,0.029-0.033,0.057-0.047,0.087
		c-0.012,0.027-0.024,0.057-0.034,0.087c-0.012,0.033-0.024,0.066-0.033,0.102c-0.007,0.028-0.011,0.058-0.016,0.088
		c-0.006,0.036-0.011,0.071-0.012,0.109c-0.001,0.03,0,0.063,0.001,0.093c0.001,0.027-0.001,0.053,0.001,0.079
		c0.03,0.249,0.788,6.112,5.314,8.996c1.602,1.021,3.453,1.532,5.537,1.532c1.618,0,3.376-0.308,5.265-0.925
		c0.007-0.002,0.012-0.006,0.019-0.008c0.016-0.006,0.031-0.01,0.047-0.017c0.006-0.002,0.01-0.006,0.016-0.008
		c0.036-0.016,0.071-0.03,0.105-0.051c0.004-0.003,0.009-0.007,0.013-0.009c0.009-0.006,0.018-0.012,0.027-0.018
		c0.012-0.008,0.024-0.015,0.036-0.024c0.024-0.018,0.047-0.035,0.071-0.055c0.011-0.009,0.022-0.018,0.033-0.027
		c0.01-0.01,0.022-0.019,0.031-0.028c0.003-0.004,0.007-0.009,0.011-0.012c0.027-0.028,0.053-0.057,0.078-0.088
		c0.003-0.004,0.006-0.009,0.009-0.015c0.006-0.007,0.01-0.015,0.016-0.021c0.009-0.013,0.018-0.026,0.026-0.039
		c0.008-0.012,0.018-0.022,0.025-0.036c0.006-0.009,0.009-0.019,0.013-0.028c0.01-0.02,0.021-0.038,0.03-0.06
		c0.01-0.021,0.019-0.044,0.028-0.066c0.008-0.02,0.016-0.042,0.022-0.062c0.007-0.02,0.011-0.038,0.016-0.058
		c0.006-0.024,0.011-0.047,0.016-0.071c0.003-0.024,0.008-0.044,0.01-0.067c0.002-0.02,0.003-0.039,0.004-0.061
		c0.001-0.024,0.001-0.047,0-0.071c0-0.024,0-0.045-0.002-0.069C47.288,62.277,47.284,62.255,47.281,62.233z M37.425,58.344
		l6.188,3.665c-2.663,0.486-4.915,0.163-6.712-0.978c-2.808-1.781-3.876-5.145-4.233-6.696c1.532-0.433,4.995-1.113,7.906,0.491
		c1.864,1.028,3.231,2.846,4.084,5.414l-6.188-3.665c-0.488-0.288-1.119-0.126-1.407,0.361
		C36.775,57.426,36.937,58.056,37.425,58.344z"/>
	<path fill="#E34D34" d="M68.154,53.389c-0.009-0.032-0.02-0.063-0.03-0.092c-0.011-0.033-0.022-0.065-0.037-0.094
		c-0.012-0.028-0.027-0.054-0.044-0.08c-0.018-0.032-0.036-0.062-0.058-0.091c-0.016-0.022-0.035-0.044-0.053-0.065
		c-0.026-0.029-0.051-0.058-0.08-0.083c-0.02-0.02-0.042-0.035-0.063-0.052c-0.032-0.024-0.062-0.047-0.096-0.069
		c-0.025-0.015-0.051-0.027-0.078-0.04c-0.024-0.012-0.047-0.027-0.072-0.037c-0.233-0.094-5.737-2.249-10.443,0.333
		c-2.961,1.623-4.887,4.71-5.728,9.179c-0.002,0.012-0.001,0.024-0.003,0.037c-0.003,0.024-0.007,0.047-0.009,0.071
		c-0.001,0.019-0.001,0.036-0.002,0.055c0,0.026-0.001,0.054,0.001,0.079c0.001,0.024,0.002,0.044,0.004,0.066
		c0.002,0.018,0.006,0.035,0.009,0.054c0.004,0.026,0.009,0.053,0.016,0.078c0.007,0.022,0.012,0.042,0.019,0.063
		c0.006,0.018,0.012,0.034,0.018,0.052c0.009,0.024,0.02,0.048,0.03,0.071s0.021,0.043,0.033,0.064
		c0.004,0.008,0.007,0.017,0.011,0.024c0.007,0.012,0.015,0.021,0.021,0.03c0.011,0.017,0.022,0.034,0.034,0.049
		c0,0.001,0.001,0.001,0.001,0.002c0.008,0.01,0.013,0.022,0.022,0.032c0.021,0.025,0.044,0.049,0.066,0.073
		c0.008,0.009,0.015,0.018,0.022,0.025c0.01,0.008,0.019,0.015,0.027,0.022c0.012,0.013,0.027,0.024,0.04,0.035
		c0.021,0.018,0.042,0.034,0.064,0.048c0.015,0.011,0.028,0.02,0.043,0.028c0.004,0.003,0.01,0.007,0.016,0.009
		c0.008,0.006,0.016,0.011,0.024,0.017c0.03,0.018,0.063,0.032,0.094,0.045c0.008,0.004,0.017,0.01,0.025,0.013
		c0.015,0.006,0.028,0.009,0.044,0.015c0.007,0.002,0.013,0.007,0.021,0.009c1.889,0.618,3.648,0.925,5.266,0.925
		c2.084,0,3.936-0.512,5.538-1.532c4.526-2.884,5.284-8.747,5.314-8.996c0.002-0.022,0-0.043,0.001-0.065
		c0.003-0.037,0.004-0.074,0.003-0.112c-0.003-0.032-0.008-0.063-0.012-0.094C68.166,53.456,68.162,53.422,68.154,53.389z
		 M61.749,61.03c-1.798,1.141-4.05,1.465-6.712,0.979l6.188-3.665c0.489-0.289,0.649-0.919,0.36-1.408
		c-0.29-0.488-0.919-0.649-1.408-0.361l-6.188,3.665c0.855-2.568,2.222-4.387,4.085-5.414c2.912-1.605,6.375-0.923,7.906-0.491
		C65.625,55.886,64.555,59.25,61.749,61.03z"/>
	<path fill="#E34D34" d="M47.281,78.057c-0.001-0.012-0.001-0.024-0.003-0.035c-0.841-4.469-2.767-7.557-5.727-9.179
		c-4.706-2.583-10.212-0.427-10.443-0.334c-0.022,0.009-0.042,0.022-0.063,0.032c-0.031,0.016-0.063,0.03-0.092,0.048
		c-0.029,0.02-0.057,0.039-0.084,0.061c-0.025,0.02-0.049,0.037-0.073,0.06c-0.026,0.024-0.049,0.051-0.073,0.076
		c-0.021,0.024-0.04,0.046-0.058,0.071c-0.02,0.027-0.037,0.055-0.054,0.084c-0.017,0.027-0.033,0.057-0.047,0.087
		c-0.012,0.027-0.024,0.057-0.034,0.087c-0.012,0.033-0.024,0.066-0.033,0.102c-0.007,0.027-0.011,0.057-0.016,0.088
		c-0.006,0.035-0.011,0.071-0.012,0.109c-0.001,0.03,0,0.062,0.001,0.093c0.001,0.026-0.001,0.052,0.001,0.079
		c0.03,0.249,0.788,6.112,5.314,8.996c1.602,1.02,3.453,1.53,5.537,1.53c1.618,0,3.376-0.307,5.265-0.924
		c0.007-0.002,0.012-0.006,0.019-0.009c0.016-0.005,0.031-0.009,0.047-0.016c0.006-0.002,0.01-0.007,0.016-0.009
		c0.036-0.015,0.071-0.03,0.105-0.051c0.004-0.002,0.009-0.006,0.013-0.008c0.009-0.006,0.018-0.012,0.027-0.018
		c0.012-0.008,0.024-0.016,0.036-0.024c0.024-0.017,0.047-0.035,0.071-0.054c0.011-0.009,0.022-0.018,0.033-0.028
		c0.01-0.009,0.022-0.018,0.031-0.027c0.003-0.004,0.007-0.009,0.011-0.012c0.027-0.028,0.053-0.057,0.078-0.088
		c0.003-0.004,0.006-0.01,0.009-0.015c0.006-0.007,0.01-0.015,0.016-0.021c0.009-0.013,0.018-0.026,0.026-0.039
		c0.008-0.012,0.018-0.024,0.025-0.036c0.006-0.009,0.009-0.02,0.013-0.028c0.01-0.02,0.021-0.038,0.03-0.06
		c0.01-0.021,0.019-0.044,0.028-0.066c0.008-0.022,0.016-0.042,0.022-0.063c0.007-0.019,0.011-0.037,0.016-0.057
		c0.006-0.024,0.011-0.047,0.016-0.071c0.003-0.024,0.008-0.044,0.01-0.067c0.002-0.02,0.003-0.04,0.004-0.061
		c0.001-0.024,0.001-0.047,0-0.071c0-0.022,0-0.045-0.002-0.067C47.288,78.101,47.284,78.079,47.281,78.057z M37.425,74.169
		l6.188,3.665c-2.663,0.486-4.915,0.162-6.712-0.979c-2.808-1.781-3.876-5.145-4.233-6.695c1.532-0.433,4.995-1.113,7.906,0.491
		c1.864,1.027,3.231,2.846,4.084,5.414L38.471,72.4c-0.488-0.288-1.119-0.127-1.407,0.361
		C36.775,73.249,36.937,73.879,37.425,74.169z"/>
	<path fill="#E34D34" d="M68.18,69.52c0.003-0.036,0.004-0.073,0.003-0.111c-0.003-0.033-0.008-0.063-0.012-0.094
		c-0.006-0.035-0.01-0.07-0.018-0.101c-0.009-0.032-0.02-0.063-0.03-0.092c-0.011-0.033-0.022-0.065-0.037-0.094
		c-0.012-0.028-0.027-0.055-0.044-0.08c-0.018-0.032-0.036-0.063-0.058-0.092c-0.016-0.024-0.035-0.043-0.053-0.065
		c-0.026-0.028-0.051-0.057-0.08-0.082c-0.02-0.02-0.042-0.035-0.063-0.052c-0.032-0.024-0.062-0.047-0.096-0.069
		c-0.025-0.016-0.051-0.028-0.078-0.04c-0.024-0.012-0.047-0.027-0.072-0.038c-0.234-0.093-5.737-2.248-10.443,0.333
		c-2.961,1.624-4.887,4.712-5.728,9.18c-0.002,0.012-0.001,0.024-0.003,0.036c-0.003,0.024-0.007,0.047-0.009,0.071
		c-0.001,0.018-0.001,0.036-0.002,0.055c0,0.026-0.001,0.052,0.001,0.079c0.001,0.021,0.002,0.044,0.004,0.065
		c0.002,0.019,0.006,0.036,0.009,0.055c0.004,0.025,0.009,0.053,0.016,0.078c0.007,0.022,0.012,0.042,0.019,0.063
		c0.006,0.018,0.012,0.033,0.018,0.052c0.009,0.024,0.02,0.048,0.03,0.071s0.021,0.042,0.033,0.064
		c0.004,0.008,0.007,0.017,0.011,0.024c0.007,0.011,0.015,0.021,0.021,0.03c0.011,0.017,0.022,0.034,0.034,0.049
		c0,0,0.001,0.001,0.001,0.002c0.008,0.01,0.013,0.021,0.022,0.032c0.021,0.025,0.044,0.049,0.066,0.072
		c0.008,0.009,0.015,0.019,0.022,0.026c0.01,0.008,0.019,0.015,0.027,0.022c0.012,0.013,0.027,0.024,0.04,0.035
		c0.021,0.017,0.042,0.034,0.064,0.048c0.015,0.01,0.028,0.02,0.043,0.028c0.004,0.003,0.01,0.007,0.016,0.009
		c0.008,0.006,0.016,0.011,0.024,0.017c0.03,0.018,0.063,0.032,0.094,0.045c0.008,0.003,0.017,0.01,0.025,0.013
		c0.015,0.006,0.028,0.009,0.044,0.015c0.007,0.002,0.013,0.007,0.021,0.009c1.889,0.618,3.648,0.924,5.266,0.924
		c2.084,0,3.936-0.511,5.538-1.53c4.526-2.884,5.284-8.747,5.314-8.996C68.181,69.563,68.179,69.542,68.18,69.52z M61.749,76.853
		c-1.798,1.141-4.05,1.465-6.712,0.979l6.188-3.665c0.489-0.29,0.649-0.919,0.36-1.408c-0.29-0.489-0.919-0.65-1.408-0.361
		l-6.188,3.665c0.855-2.568,2.222-4.388,4.085-5.414c2.914-1.605,6.375-0.923,7.906-0.491C65.625,71.71,64.555,75.072,61.749,76.853
		z"/>
	<path fill="#E34D34" d="M57.834,20.819c-0.38-8.693-8.031-14.534-8.356-14.779c-0.017-0.012-0.036-0.021-0.054-0.031
		c-0.033-0.021-0.064-0.043-0.099-0.061c-0.027-0.013-0.055-0.025-0.083-0.036c-0.034-0.013-0.067-0.026-0.101-0.036
		c-0.029-0.009-0.06-0.015-0.09-0.02c-0.035-0.007-0.071-0.013-0.106-0.016c-0.029-0.002-0.057-0.002-0.085-0.002
		c-0.038,0-0.076,0.001-0.114,0.006c-0.026,0.003-0.052,0.008-0.079,0.013c-0.038,0.008-0.078,0.016-0.116,0.028
		c-0.025,0.008-0.049,0.019-0.074,0.028c-0.036,0.015-0.072,0.03-0.108,0.049c-0.026,0.013-0.049,0.03-0.074,0.047
		c-0.024,0.015-0.047,0.026-0.07,0.044c-0.32,0.251-7.841,6.257-8.031,14.959c-0.119,5.457,2.677,10.679,8.312,15.519
		c0.013,0.011,0.029,0.019,0.043,0.029c0.015,0.011,0.029,0.024,0.044,0.035c0.012,0.008,0.025,0.016,0.037,0.024
		c0.031,0.02,0.064,0.036,0.096,0.052c0.016,0.008,0.03,0.018,0.047,0.025c0.008,0.003,0.018,0.006,0.026,0.01
		c0.042,0.017,0.084,0.028,0.128,0.039c0.015,0.003,0.028,0.01,0.043,0.013c0.003,0.001,0.008,0.001,0.012,0.001
		c0.064,0.012,0.129,0.02,0.195,0.02c0.001,0,0.002,0,0.004,0s0.004,0,0.007,0c0.011,0,0.02-0.002,0.029-0.003
		c0.054-0.002,0.107-0.008,0.159-0.018c0.007-0.001,0.012-0.001,0.018-0.002c0.019-0.004,0.036-0.012,0.054-0.018
		c0.039-0.01,0.079-0.022,0.117-0.038c0.009-0.003,0.018-0.006,0.027-0.009c0.018-0.008,0.034-0.02,0.052-0.028
		c0.03-0.017,0.062-0.033,0.092-0.052c0.013-0.009,0.026-0.016,0.038-0.025c0.017-0.011,0.032-0.026,0.048-0.038
		c0.013-0.011,0.028-0.02,0.043-0.031C55.391,31.556,58.073,26.274,57.834,20.819z M50.178,33.365l-0.152-13.89
		c-0.007-0.563-0.466-1.017-1.028-1.017c-0.003,0-0.008,0-0.012,0c-0.567,0.006-1.022,0.471-1.015,1.039l0.152,13.89
		c-3.987-3.944-5.962-8.078-5.874-12.315c0.132-6.35,4.896-11.279,6.627-12.861c1.762,1.544,6.635,6.366,6.907,12.714
		C55.962,25.157,54.079,29.334,50.178,33.365z"/>
</g>
</svg>
