<?xml version="1.0" encoding="utf-8"?>
<!-- Generator: Adobe Illustrator 19.1.0, SVG Export Plug-In . SVG Version: 6.00 Build 0)  -->
<svg version="1.1" id="Layer_1" xmlns="http://www.w3.org/2000/svg" xmlns:xlink="http://www.w3.org/1999/xlink" x="0px" y="0px"
	 viewBox="-255 334 100 103" style="enable-background:new -255 334 100 103;" xml:space="preserve">
<style type="text/css">
	.st0{fill:#E44C2A;}
</style>
<g>
	<path class="st0" d="M-216.6,383.2c2.7,3.7,5,8.2,6.7,12.8l8.4,0.7c2.6-8.6,6-14.8,9.7-19.7c5.5,2.1,12.5,2,16.6-1.5
		c7-6.1,6.4-24.5,4.6-35.1c-0.3-1.9-2.8-2.5-3.9-0.9c-9.8,12.5-27,14.2-26.7,26.3c0.1,2.6,0.6,4.2,2.4,6.1
		c7.2-9.2,16.2-12.3,16.7-12.4c0.1,0,0.2-0.1,0.2-0.1c-1.1,0.8-5.2,4.3-9.6,9.6c-5.3,5.6-10.4,12.7-14.1,24c-1.6-4-3.6-7.8-5.9-11.1
		c-4.6-8-10.5-13.4-11.8-14.4c0.1,0,0.1,0,0.2,0.1c0.4,0.2,8,3,14,11.1c1.6-1.6,2.1-2.9,2.2-5.1c0.6-10.4-14.2-12.3-22.1-23.3
		c-0.9-1.3-3-0.9-3.4,0.8c-1.8,9-2.9,24.8,2.9,30.2C-226.4,384-221.1,384.4-216.6,383.2z"/>
	<path class="st0" d="M-179.9,406.3c-2,0.7-5.3,1.5-8.9,2.3c-1.3,2.1-3.7,3.8-7.3,4.4c-0.9,0.2-1.8,0.2-2.8,0.2
		c-2.6,0-5.5-0.3-8.8-0.7c-0.2,0-0.5,0-0.7-0.1c-0.8-0.1-1.5-0.7-1.5-1.5c-0.1-1,0.8-1.8,1.8-1.7c0.3,0,0.5,0.1,0.8,0.1
		c4.3,0.5,8.3,0.9,10.8,0.5c4.7-0.8,6.1-3.6,5.9-6.1c-0.2-2-1.6-3.9-4-3.8c-3.3,0.2-7.2-0.2-11-0.5c-4.4-0.4-8.8-0.6-12-0.3
		c-3.5,0.4-10.7,2.8-17.1,7c-3.1,2.1-6.6,4.5-8.7,6c-1,0.8-1.3,2.3-0.5,3.3l8.9,12.1c0.8,1,2.2,1.2,3.2,0.5l3.4-2.6
		c0.9-0.6,1.9-0.8,2.8-0.5c6.2,2.1,12.7,3.5,17,3.8c9.4,0.7,27.6-10.2,33-13.7C-170.5,411.5-174.1,404.2-179.9,406.3z"/>
</g>
</svg>
