<?xml version="1.0" encoding="utf-8"?>
<!-- Generator: Adobe Illustrator 23.0.1, SVG Export Plug-In . SVG Version: 6.00 Build 0)  -->
<svg version="1.1" id="Layer_1" xmlns="http://www.w3.org/2000/svg" xmlns:xlink="http://www.w3.org/1999/xlink" x="0px" y="0px"
	 viewBox="0 0 200 200" style="enable-background:new 0 0 200 200;" xml:space="preserve">
<style type="text/css">
	.st0{fill:#E34D34;}
</style>
<path class="st0" d="M164,179.3c-0.3,0-0.5,0-0.8,0.1l-5.5,2.2l-11.9-4l-8.3-2.1c-0.2,0-0.3-0.1-0.5-0.1h-7.9l-16.2-6.1
	c-0.2-0.1-0.5-0.1-0.7-0.1h-10.4v-10.5c13.9-0.8,24.9-12.5,24.9-26.7v-0.5c0-1.1-0.9-2.1-2.1-2.1c-11.5,0-21.3,7.5-24.9,17.9
	c-3.7-10.2-13.4-17.5-24.9-17.5c-1.1,0-2.1,0.9-2.1,2.1v0.5c0,14.1,11,25.6,24.9,26.4v10.5H87.3c-0.3,0-0.6,0.1-0.9,0.2l-8.1,4
	l-24.5,6.1l-26.6,4.1l-22.5-4.1L4,183.7l22.8,4.2c0.1,0,0.2,0,0.4,0c0.1,0,0.2,0,0.3,0l10.7-1.7c0.1,0,0.1,0,0.2,0
	c1.7-0.5,3.5-0.7,5.4-0.7l-0.1-0.1l11.1-1.7l24.9-6.2c0.1,0,0.3-0.1,0.4-0.2l7.9-3.9h24l16.2,6.1c0.2,0.1,0.5,0.1,0.7,0.1h8l3.7,0.9
	c0.5,0,1,0.1,1.5,0.2c1.3,0.4,2.7,0.6,4.1,0.9c1.7,0.3,3.3,0.9,4.9,1.7c0.4,0.2,0.8,0.4,1.1,0.7l5,1.7c0.5,0.2,1,0.1,1.4,0l5.9-2.3
	h4l0.1,0.1c2.6-0.7,5.5-0.7,8.1-0.1h18.5v-4.2H164V179.3z M122.5,133.7c-0.8,11-9.4,19.9-20.1,20.9
	C103.1,143.6,111.7,134.8,122.5,133.7z M76.9,134.1c10.8,1,19.3,9.7,20.1,20.5C86.3,153.6,77.8,144.9,76.9,134.1z"/>
<path class="st0" d="M164,31.9c0,5.7,4.7,10.4,10.4,10.4s10.4-4.7,10.4-10.4s-4.7-10.4-10.4-10.4S164,26.2,164,31.9z M174.4,25.7
	c3.4,0,6.2,2.8,6.2,6.2s-2.8,6.2-6.2,6.2s-6.2-2.8-6.2-6.2S171,25.7,174.4,25.7z"/>
<rect x="172.3" y="11.2" class="st0" width="4.2" height="6.2"/>
<rect x="172.3" y="46.5" class="st0" width="4.2" height="6.2"/>
<rect x="188.9" y="29.9" class="st0" width="6.2" height="4.2"/>
<rect x="153.7" y="29.9" class="st0" width="6.2" height="4.2"/>
<rect x="183.8" y="17.4" transform="matrix(0.7072 -0.707 0.707 0.7072 40.9468 137.8551)" class="st0" width="6.2" height="4.2"/>
<rect x="158.8" y="42.3" transform="matrix(0.7071 -0.7071 0.7071 0.7071 15.9951 127.494)" class="st0" width="6.2" height="4.2"/>
<rect x="184.8" y="41.3" transform="matrix(0.7071 -0.7071 0.7071 0.7071 23.3394 145.1503)" class="st0" width="4.2" height="6.2"/>
<rect x="159.9" y="16.4" transform="matrix(0.707 -0.7072 0.7072 0.707 33.7094 120.2694)" class="st0" width="4.2" height="6.2"/>
<path class="st0" d="M109.8,110.8h-4.2c0,3.4-2.7,6.2-5.9,6.2v4.2C105.2,121.2,109.8,116.5,109.8,110.8z"/>
<path class="st0" d="M47.8,31.9H16.7c-1.1,0-2.1,0.9-2.1,2.1v2.1H4.3v4.2h10.4v16.6H4.3V61h10.4v2.1c0,1.1,0.9,2.1,2.1,2.1h31.1
	c1.1,0,2.1-0.9,2.1-2.1v-4.2h37.4c1.1,0,2.1,0.9,2.1,2.1v10.4c0,1.1,0.9,2.1,2.1,2.1h14.5c1.1,0,2.1-0.9,2.1-2.1V56.8
	c0-10.3-8.4-18.7-18.7-18.7h-4.2v-8.3c0-1.1-0.9-2.1-2.1-2.1H81v-4.2c1.1,0,2.1-0.9,2.1-2.1v-2.1h14.5v-4.2H83.1V13
	c0-1.1-0.9-2.1-2.1-2.1H68.6c-1.1,0-2.1,0.9-2.1,2.1v2.1H52v4.2h14.5v2.1c0,1.1,0.9,2.1,2.1,2.1v4.2h-4.2c-1.1,0-2.1,0.9-2.1,2.1
	v8.3H49.9V34C49.9,32.9,49,31.9,47.8,31.9z M45.8,61h-27V36.1h27V61z M70.7,15.3H79v4.2h-8.3V15.3z M76.9,23.6v4.2h-4.2v-4.2
	C72.7,23.6,76.9,23.6,76.9,23.6z M64.4,42.3c1.1,0,2.1-0.9,2.1-2.1v-8.3H81v8.3c0,1.1,0.9,2.1,2.1,2.1h6.2c8,0,14.5,6.5,14.5,14.5
	v12.5H93.5V61c0-3.4-2.8-6.2-6.2-6.2H49.9V42.3H64.4z"/>
<path class="st0" d="M97.6,80.8l-13,23.8c-2.9,5.3-2.8,11.5,0.3,16.7c3.1,5.2,8.5,8.3,14.5,8.3s11.4-3.1,14.5-8.3
	c3.1-5.2,3.2-11.4,0.3-16.7l-13-23.8C100.5,79.4,98.3,79.4,97.6,80.8z M110.4,119.1c-2.3,3.9-6.4,6.2-10.9,6.2s-8.6-2.3-10.9-6.2
	c-2.3-3.9-2.4-8.6-0.2-12.6L99.6,86l11.2,20.5C112.8,110.5,112.7,115.2,110.4,119.1z"/>
</svg>
