<?xml version="1.0" encoding="utf-8"?>
<!-- Generator: Adobe Illustrator 23.0.1, SVG Export Plug-In . SVG Version: 6.00 Build 0)  -->
<svg version="1.1" id="Layer_1" xmlns="http://www.w3.org/2000/svg" xmlns:xlink="http://www.w3.org/1999/xlink" x="0px" y="0px"
	 viewBox="0 0 200 200" style="enable-background:new 0 0 200 200;" xml:space="preserve">
<style type="text/css">
	.st0{fill:#E34D34;}
</style>
<path class="st0" d="M66.2,10.6v19.9c0,1.1,0.9,2,2,2h4v43l-54.4,68c-5.9,7.3-9.1,16.6-9.1,26c0,12,9.8,21.8,21.8,21.8h139
	c12,0,21.8-9.8,21.8-21.8c0-9.4-3.2-18.6-9.1-26l-54.4-68v-43h4c1.1,0,2-0.9,2-2V10.6c0-1.1-0.9-2-2-2H68.2
	C67.1,8.7,66.2,9.5,66.2,10.6z M187.4,169.5c0,9.9-8,17.9-17.9,17.9h-139c-9.9,0-17.9-8-17.9-17.9c0-1.3,0.1-2.7,0.2-4h174.3
	C187.3,166.9,187.4,168.2,187.4,169.5z M70.2,12.6h59.6v15.9h-4c-1.1,0-2,0.9-2,2v45.7c0,0.5,0.2,0.9,0.4,1.2l54.9,68.6
	c3.6,4.6,6.1,9.9,7.4,15.6h-40.8v-12c8.9-1,15.9-8.6,15.9-17.8c0-1.1-0.9-2-2-2c-6.9,0-12.9,4-15.9,9.7c-3-5.8-9-9.7-15.9-9.7
	c-1.1,0-2,0.9-2,2c0,9.2,7,16.8,15.9,17.8v12H102v-12c8.9-1,15.9-8.6,15.9-17.8c0-1.1-0.9-2-2-2c-6.9,0-12.9,4-15.9,9.7
	c-3-5.8-9-9.7-15.9-9.7c-1.1,0-2,0.9-2,2c0,9.2,7,16.8,15.9,17.8v12H58.3v-12c8.9-1,15.9-8.6,15.9-17.8c0-1.1-0.9-2-2-2
	c-6.9,0-12.9,4-15.9,9.7c-3-5.8-9-9.7-15.9-9.7c-1.1,0-2,0.9-2,2c0,9.2,7,16.8,15.9,17.8v12H13.5c1.2-5.7,3.7-11,7.4-15.6l54.9-68.6
	c0.3-0.4,0.4-0.8,0.4-1.2V30.5c0-1.1-0.9-2-2-2h-4C70.2,28.5,70.2,12.6,70.2,12.6z M145.8,145.5c0.9-5.9,5.6-10.7,11.6-11.6
	C156.5,139.9,151.8,144.6,145.8,145.5z M141.5,145.5c-5.9-0.9-10.7-5.6-11.6-11.6C135.9,134.9,140.6,139.6,141.5,145.5z
	 M102.2,145.5c0.9-5.9,5.6-10.7,11.6-11.6C112.8,139.9,108.1,144.6,102.2,145.5z M97.8,145.5c-5.9-0.9-10.7-5.6-11.6-11.6
	C92.2,134.9,96.9,139.6,97.8,145.5z M58.5,145.5c0.9-5.9,5.6-10.7,11.6-11.6C69.1,139.9,64.4,144.6,58.5,145.5z M54.2,145.5
	c-5.9-0.9-10.7-5.6-11.6-11.6C48.5,134.9,53.2,139.6,54.2,145.5z"/>
<path class="st0" d="M32.5,182.4c3.3,0,6-2.7,6-6s-2.7-6-6-6s-6,2.7-6,6S29.2,182.4,32.5,182.4z M32.5,174.5c1.1,0,2,0.9,2,2
	s-0.9,2-2,2c-1.1,0-2-0.9-2-2S31.4,174.5,32.5,174.5z"/>
<path class="st0" d="M90.1,181.4c3.3,0,6-2.7,6-6s-2.7-6-6-6s-6,2.7-6,6S86.8,181.4,90.1,181.4z M90.1,173.5c1.1,0,2,0.9,2,2
	s-0.9,2-2,2s-2-0.9-2-2S89,173.5,90.1,173.5z"/>
<path class="st0" d="M163.5,181.4c3.3,0,6-2.7,6-6s-2.7-6-6-6s-6,2.7-6,6S160.3,181.4,163.5,181.4z M163.5,173.5c1.1,0,2,0.9,2,2
	s-0.9,2-2,2s-2-0.9-2-2C161.6,174.4,162.5,173.5,163.5,173.5z"/>
<rect x="135.7" y="171.5" class="st0" width="4" height="4"/>
<rect x="60.3" y="179.4" class="st0" width="4" height="4"/>
<rect x="44.4" y="169.5" class="st0" width="4" height="4"/>
<rect x="111.9" y="179.4" class="st0" width="4" height="4"/>
<rect x="80.1" y="28.5" class="st0" width="31.8" height="4"/>
<rect x="115.9" y="28.5" class="st0" width="4" height="4"/>
<rect x="183.4" y="8.7" class="st0" width="4" height="4"/>
<rect x="183.4" y="16.6" class="st0" width="4" height="4"/>
<rect x="187.4" y="12.6" class="st0" width="4" height="4"/>
<rect x="179.4" y="12.6" class="st0" width="4" height="4"/>
<rect x="159.6" y="62.3" class="st0" width="4" height="4"/>
<rect x="159.6" y="70.2" class="st0" width="4" height="4"/>
<rect x="163.5" y="66.2" class="st0" width="4" height="4"/>
<rect x="155.6" y="66.2" class="st0" width="4" height="4"/>
<rect x="44.4" y="56.3" class="st0" width="4" height="4"/>
<rect x="44.4" y="64.3" class="st0" width="4" height="4"/>
<rect x="48.4" y="60.3" class="st0" width="4" height="4"/>
<rect x="40.4" y="60.3" class="st0" width="4" height="4"/>
<rect x="12.6" y="18.6" class="st0" width="4" height="4"/>
<rect x="12.6" y="26.5" class="st0" width="4" height="4"/>
<rect x="16.6" y="22.6" class="st0" width="4" height="4"/>
<rect x="8.7" y="22.6" class="st0" width="4" height="4"/>
</svg>
