<?xml version="1.0" encoding="utf-8"?>
<!-- Generator: Adobe Illustrator 19.1.0, SVG Export Plug-In . SVG Version: 6.00 Build 0)  -->
<svg version="1.1" id="Layer_1" xmlns="http://www.w3.org/2000/svg" xmlns:xlink="http://www.w3.org/1999/xlink" x="0px" y="0px"
	 viewBox="-280 337 50.5 52" style="enable-background:new -280 337 50.5 52;" xml:space="preserve">
<style type="text/css">
	.st0{fill:#E44C2A;stroke:#E44C2A;stroke-miterlimit:10;}
	.st1{fill:#E44C2A;}
</style>
<title>17</title>
<path class="st0" d="M-255.8,339c-6.7,0-12.2,4.2-12.2,9.3l0,0c0,0.5,0.1,1,0.2,1.5c0.2,3.1,0.6,10.5,0.6,12.8
	c0,0.8,0.1,19.7,9.8,22.5h0c0.5,0.1,1,0.2,1.6,0.2c0.5,0,1-0.1,1.5-0.1c5.4-0.9,8.8-8.4,9.8-21.7l0-0.3c0.2-2.4,0.5-10.2,0.7-13.5
	c0.1-0.4,0.1-0.9,0.1-1.3C-243.7,343.2-249.1,339-255.8,339z M-266.4,362.6c0-2-0.3-7.8-0.5-11.3c1.1,1.4,2.6,2.5,4.3,3.3
	c0.1,1.3,0.7,8,0.7,9.7c0,0.1,0,0.3,0,0.6c-0.2,9.3,0.8,15.6,2.9,18.6C-266.3,379.2-266.4,363.3-266.4,362.6z M-254.5,384.4
	c-0.9,0.2-1.8,0.2-2.6,0c-2-1.3-4.3-5.8-4-19.4c0-0.3,0-0.5,0-0.6c0-1.6-0.5-7.4-0.7-9.4c1.9,0.8,4,1.2,6,1.2c2,0,4-0.4,5.9-1.2
	c-0.1,2-0.6,7.8-0.6,9.4c0,0.1,0,0.4,0,0.6C-250.3,378.6-252.6,383.1-254.5,384.4z M-245.3,363.1l0,0.3c-0.8,11.2-3.5,18.4-7.6,20.4
	c2.2-2.9,3.3-9.3,3.1-18.9c0-0.3,0-0.5,0-0.6c0-1.7,0.5-8.4,0.6-9.7c1.7-0.7,3.3-1.9,4.4-3.4C-244.8,354.9-245.1,361-245.3,363.1z
	 M-249.6,353.9c-0.1,0-0.1,0-0.1,0.1c-1.9,0.8-4,1.2-6.1,1.3c-2.1,0-4.3-0.5-6.2-1.3c0,0-0.1-0.1-0.1-0.1c-2.8-1.3-5-3.3-5-5.6l0,0
	c0-4.7,5.1-8.5,11.4-8.5s11.4,3.8,11.4,8.5C-244.5,350.7-246.7,352.7-249.6,353.9z"/>
<path class="st1" d="M-256.4,347.1c0.1,0.2,0.3,0.4,0.6,0.4l0,0c0.3,0,0.5-0.1,0.6-0.4l0.9-1.9c0.1-0.3,0-0.7-0.4-0.8
	c-0.1,0-0.1,0-0.2,0c-0.7-0.1-1.3-0.1-2,0c-0.2,0-0.4,0.1-0.5,0.3c-0.1,0.2-0.1,0.4,0,0.6L-256.4,347.1z M-255.1,345.1l-0.7,1.5
	l-0.7-1.4C-256.1,345-255.6,345-255.1,345.1z"/>
<path class="st1" d="M-259.9,347.5l1.9,0.3h0.1c0.5,0,0.9-0.4,0.9-0.9c0-0.1,0-0.2-0.1-0.3v0l-0.7-1.3c-0.1-0.2-0.3-0.4-0.5-0.5
	c-0.2-0.1-0.5-0.1-0.7,0c-0.7,0.3-1.3,0.8-1.6,1.4c-0.1,0.2-0.1,0.5,0,0.8C-260.4,347.3-260.2,347.5-259.9,347.5z M-259.8,346.6
	c0.3-0.5,0.7-0.9,1.3-1.1h0c0,0,0,0,0,0v0l0.7,1.3c0,0,0,0,0,0.1c0,0,0,0-0.1,0l-1.9-0.3l0,0C-259.8,346.7-259.8,346.7-259.8,346.6
	C-259.8,346.7-259.8,346.6-259.8,346.6L-259.8,346.6z"/>
<path class="st1" d="M-254.6,347.5c0.1,0.2,0.4,0.3,0.6,0.3h0.1l2.2-0.3c0.4-0.1,0.7-0.4,0.6-0.8c0-0.1,0-0.1,0-0.2
	c-0.3-0.8-1-1.4-1.8-1.7c-0.2-0.1-0.4-0.1-0.6,0c-0.2,0.1-0.3,0.2-0.4,0.4l-0.8,1.6C-254.8,347-254.7,347.3-254.6,347.5z
	 M-253.2,345.5c0.6,0.2,1.1,0.6,1.3,1.2l-2,0.3L-253.2,345.5z"/>
<path class="st1" d="M-257,348.5c-0.1-0.2-0.4-0.4-0.7-0.4h-2.2c-0.3,0-0.5,0.1-0.7,0.4c-0.1,0.2-0.2,0.5,0,0.7
	c0.4,0.8,1,1.4,1.8,1.8c0.1,0,0.2,0,0.3,0c0.3,0,0.5-0.1,0.6-0.3v0l0.8-1.4C-256.9,349.1-256.9,348.8-257,348.5z M-258.4,350.2
	c-0.6-0.3-1-0.8-1.3-1.3h2.1L-258.4,350.2z"/>
<path class="st1" d="M-251.7,348.1h-2.3c-0.4,0-0.7,0.3-0.7,0.7c0,0.1,0,0.3,0.1,0.4l0.8,1.4v0c0.1,0.2,0.4,0.3,0.6,0.3
	c0.1,0,0.2,0,0.2,0c0.8-0.4,1.5-1,1.9-1.8c0.1-0.2,0.1-0.5,0-0.7C-251.2,348.3-251.5,348.1-251.7,348.1z M-253.1,350.2l-0.7-1.3h2.1
	C-252.1,349.5-252.6,349.9-253.1,350.2z"/>
<path class="st1" d="M-255.2,348.8L-255.2,348.8c-0.1-0.2-0.4-0.4-0.6-0.4c-0.3,0-0.5,0.1-0.6,0.4l0,0l-0.8,1.7
	c-0.1,0.2-0.1,0.4,0,0.6c0.1,0.2,0.3,0.4,0.5,0.4c0.3,0,0.6,0.1,0.9,0.1c0.3,0,0.7,0,1-0.1c0.4-0.1,0.6-0.4,0.6-0.8
	c0-0.1,0-0.1-0.1-0.2L-255.2,348.8z M-256.5,350.8l0.7-1.4l0.7,1.4C-255.6,350.9-256.1,350.9-256.5,350.8z"/>
</svg>
