<?xml version="1.0" encoding="utf-8"?>
<!-- Generator: Adobe Illustrator 19.1.0, SVG Export Plug-In . SVG Version: 6.00 Build 0)  -->
<svg version="1.1" id="Layer_1" xmlns="http://www.w3.org/2000/svg" xmlns:xlink="http://www.w3.org/1999/xlink" x="0px" y="0px"
	 viewBox="-241 335 128 124" style="enable-background:new -241 335 128 124;" xml:space="preserve">
<style type="text/css">
	.st0{fill:#E44C2A;}
</style>
<g>
	<path class="st0" d="M-126.9,388.2c-1.7-3.6-4.7-6.5-8.4-7.9c-1.1-0.4-2.2-0.7-3.4-0.8c0.6-1,1.1-1.9,1.4-3
		c3.5-9.4-1.2-19.8-10.6-23.3c-5.7-2.1-11.9-1.2-16.9,2.2c-1.1,0.9-1.5,2.5-0.6,3.7c0.9,1.1,2.5,1.5,3.7,0.6c3.4-2.5,8-3.1,11.9-1.6
		c6.6,2.5,10,9.9,7.5,16.5c-0.8,2.2-2.3,4.2-4.2,5.7c-0.8,0.6-1.1,1.5-1,2.5l0.1,0.4c0.1,0.8,0.6,1.5,1.2,1.9
		c0.7,0.4,1.5,0.5,2.2,0.3c2.2-0.8,4.5-0.8,6.6,0c2.5,0.9,4.3,2.7,5.5,5c1.1,2.4,1.1,5,0.3,7.4c-0.8,2.1-2.2,3.9-4.2,5
		c-1.2,0.7-1.7,2.4-1,3.6c0.5,0.9,1.4,1.3,2.3,1.3c0.4,0,0.9-0.1,1.3-0.4c3-1.8,5.3-4.5,6.5-7.7C-125.1,396-125.2,391.9-126.9,388.2
		z"/>
	<path class="st0" d="M-156.5,435.5c1.6,0.2,3.2,0.3,4.8,0.3c5.7,0,10.9-1.1,15.3-3.4c3.5-1.8,6-4.5,7.3-8c1.4-3.8,1.2-8-0.4-11.7
		c-0.6-1.3-2.2-1.9-3.5-1.2c-1.3,0.6-1.9,2.2-1.2,3.5c1.1,2.4,1.2,5,0.4,7.5c-0.9,2.3-2.4,4-4.9,5.2c-4.8,2.5-10.5,3.4-17.1,2.7
		c-1.4-0.2-2.7,0.9-2.9,2.4C-159.1,434.1-158,435.4-156.5,435.5z"/>
	<path class="st0" d="M-223.5,420.6L-223.5,420.6C-223.5,420.7-223.5,420.7-223.5,420.6C-223.5,420.7-223.5,420.7-223.5,420.6
		C-223.5,420.7-223.5,420.7-223.5,420.6c5.7,6.5,14.8,10.4,26,11.6c0.1,0,0.2,0,0.3,0c1.3,0,2.5-1,2.7-2.4s-0.9-2.7-2.4-2.9
		c-6.9-0.7-16.4-3-22.5-9.8l0,0l0,0c-1.8-1.9-2.7-4.1-2.7-6.5c0-5.4,4.3-9.7,9.7-9.7c0.4,0,1.3,0.1,1.8,0.2c1.3,0.2,2.7-0.7,2.9-2
		c0.4-1.3-0.4-2.7-1.7-3.1c-3.9-1.3-6.5-5-6.5-9.2c0-4.7,3.4-8.7,7.9-9.5c1.4-0.3,2.4-1.7,2.1-3.1c-0.3-1.4-1.7-2.4-3.1-2.1
		c-7.1,1.3-12.2,7.5-12.2,14.8c0,3.7,1.3,7.1,3.6,9.8c-5.7,2.1-9.8,7.6-9.8,14.1C-227.6,414.4-226.3,417.7-223.5,420.6z"/>
	<path class="st0" d="M-146.8,420.6L-146.8,420.6c2.7-2.9,4.1-6.3,4.1-10.1c0-6.5-4.1-11.9-9.8-14.1c2.3-2.7,3.6-6.1,3.6-9.8
		c0-8.3-6.7-15-15-15c-1.1,0-2.3,0.2-3.4,0.4c0.2-1.1,0.3-2.2,0.3-3.4c0-10-8.1-18.1-18.1-18.1s-18.1,8.1-18.1,18.1
		c0,4.1,1.3,8,3.9,11.1c0.5,0.7,1.3,1,2.1,1c0.5,0,1.1-0.2,1.6-0.5c1.1-0.9,1.3-2.6,0.4-3.7c-1.8-2.3-2.7-5-2.7-7.9
		c0-7.1,5.7-12.8,12.8-12.8s12.8,5.7,12.8,12.8c0,2.9-1,5.6-2.7,7.9c-0.9,1.1-0.7,2.7,0.4,3.6s2.7,0.8,3.6-0.2
		c1.9-2,4.4-3.1,7.1-3.1c5.4,0,9.7,4.3,9.7,9.7c0,4.2-2.7,7.9-6.5,9.2c-1.3,0.4-2,1.8-1.7,3.1c0.4,1.3,1.6,2.2,2.9,2
		c0.5-0.1,1.4-0.2,1.8-0.2c5.4,0,9.7,4.3,9.7,9.7c0,2.5-0.9,4.6-2.7,6.5l0,0l0,0c-9,10-25.4,10.3-31.8,10.1
		c-1.3-7.7-2.3-19.6-1.4-37.6l4.6-3.4c1.1-0.9,1.4-2.6,0.5-3.7s-2.6-1.4-3.7-0.5l-1,0.7c0.3-3.3,0.5-6.7,0.9-10.3
		c0.2-1.4-0.9-2.7-2.4-2.9c-1.4-0.2-2.7,0.9-2.9,2.4c-0.8,8.5-1.3,16-1.5,22.6l-6.1-5c-1.1-0.9-2.8-0.8-3.7,0.4
		c-0.9,1.1-0.8,2.8,0.4,3.7l8.7,7.1c0.3,0.2,0.4,0.4,0.7,0.4c-0.3,32.4,6.2,41.2,6.5,41.6c0.5,0.7,1.3,1.1,2.1,1.1
		c0.5,0,1.1-0.2,1.6-0.5c1.1-0.9,1.4-2.6,0.5-3.7c0-0.1-1.3-1.9-2.6-7c0.8,0,1.6,0,2.3,0C-159.7,432.6-150.1,424.4-146.8,420.6z"/>
	<path class="st0" d="M-181.1,411.4c0.5,0.8,1.3,1.2,2.3,1.2c0.4,0,1-0.1,1.4-0.4l9.1-5.7c1.2-0.8,1.6-2.4,0.9-3.6
		c-0.8-1.2-2.4-1.6-3.6-0.9l-9.2,5.7C-181.4,408.6-181.8,410.2-181.1,411.4z"/>
</g>
</svg>
