<?xml version="1.0" encoding="utf-8"?>
<!-- Generator: Adobe Illustrator 19.1.0, SVG Export Plug-In . SVG Version: 6.00 Build 0)  -->
<svg version="1.1" id="Layer_1" xmlns="http://www.w3.org/2000/svg" xmlns:xlink="http://www.w3.org/1999/xlink" x="0px" y="0px"
	 viewBox="-255 334 100 105.3" style="enable-background:new -255 334 100 105.3;" xml:space="preserve">
<style type="text/css">
	.st0{fill:#E44C2A;}
</style>
<path class="st0" d="M-194.7,426.2c-3,2.8-6.3,4.1-10.2,4.1c-3,0-5.6-0.9-7.8-3c-1-0.9-1.9-1.3-3.2-1.2c-4.4,0.4-7.9-1.4-10.4-4.9
	c-1.6-2.3-3-4.9-4-7.5c-2.5-6.3-3.7-13-4.8-19.7c-0.9-5-1.6-10-2.3-15c-0.5-4.1-0.5-8.1,0.6-12.2c1.8-6.9,6.6-11,13.8-11.6
	c1.7-0.1,3.5-0.3,5.1,0.2c2.4,0.6,4.2-0.1,5.9-1.5c2-1.7,3.6-3.6,3.4-6.7c-0.1-1.8,0.1-3.6,0.4-5.3c0.9-3.7,3.6-5.8,7.4-6
	c2.2-0.1,4.4,0.3,6.7,1.2c-0.5,1.7-1,3.4-1.5,5.2c-0.8-0.2-1.5-0.3-2.1-0.4c-4.3-1-7.4,2.3-6.2,6.6c0.7,2.4,1.6,4.6,4.5,5.2
	c1,0.2,2,0.8,2.8,1.5c1.1,0.9,2.3,1,3.7,0.8c1.4-0.2,2.8-0.4,4.1-0.3c5.7,0.1,9.8,2.7,12.3,7.8c1.9,3.7,2.6,7.7,2.8,11.8
	c0.6,12.8-0.7,25.4-4.2,37.8c-0.9,3.2-2.2,6.2-4.1,8.9c-1.4,2-3,3.6-5.3,4.6C-189.7,427.6-192.1,427.3-194.7,426.2z M-218.8,415.1
	c0.2-0.1,0.4-0.1,0.7-0.2c0.4,0.7,0.7,1.4,1.1,2.1c1.4,2.7,2.9,5.3,5.2,7.4c1.7,1.5,3.6,2.6,5.9,2.8c4.8,0.3,8.9-1.3,11.7-5.4
	c1.1-1.6,1.8-3.5,2.6-5.2c0.2-0.4,0.4-0.9,0.6-1.3c0.4,3-0.5,5.7-1.6,8.3c2.3,1,4.2,0.6,5.7-0.8c1.2-1,2.4-2.3,3.1-3.7
	c1.2-2.2,2.2-4.6,3-6.9c1.8-5.1,2.6-10.5,3.2-15.8c0.9-7.6,1.7-15.3,0.7-23c-0.4-3.3-1.1-6.6-2.9-9.5c-2.6-4.4-8-6.3-12.6-4.5
	c2.2,5.7,2.3,5.9,1.9,8.2c-0.7-1.5-1.4-3-2.2-4.4c-4.8-9.2-18-10.3-24.3-1.9c-0.9,1.2-1.6,2.4-2.4,3.7c-0.3,0.5-0.6,0.9-1.2,1.8
	c0.2-3.3,1.6-5.6,2.8-8c-6.5-1.8-14.2,0.9-16.1,8.8c-0.8,3.2-1.1,6.5-0.6,9.7c1.1,7.3,2.1,14.7,3.5,22c0.9,4.6,2.2,9,3.6,13.5
	c0.8,2.7,2.1,5.1,4,7.2c1.8,2,4,3.2,6.9,3.1C-217.2,420.3-218,417.7-218.8,415.1z"/>
</svg>
