<?xml version="1.0" encoding="utf-8"?>
<!-- Generator: Adobe Illustrator 17.0.0, SVG Export Plug-In . SVG Version: 6.00 Build 0)  -->
<!DOCTYPE svg PUBLIC "-//W3C//DTD SVG 1.1//EN" "http://www.w3.org/Graphics/SVG/1.1/DTD/svg11.dtd">
<svg version="1.1" id="Layer_1" xmlns="http://www.w3.org/2000/svg" xmlns:xlink="http://www.w3.org/1999/xlink" x="0px" y="0px"
	 width="250px" height="250px" viewBox="0 0 250 250" enable-background="new 0 0 250 250" xml:space="preserve">
<title>svg/circle_043-eat-expression-face-emoticon-triangle</title>
<desc>Created with Sketch.</desc>
<g>
	<g transform="translate(-248.000000, -405.000000)">
		<g transform="translate(105.000000, 114.000000)">
			<path fill="#E44C2A" d="M251.402,425.539c0.238,1.62-0.883,3.126-2.502,3.363c-1.62,0.238-3.126-0.883-3.363-2.502
				c-0.51-3.475-3.031-5.936-5.837-5.936c-2.806,0-5.327,2.461-5.837,5.936c-0.238,1.62-1.744,2.74-3.363,2.502
				c-1.62-0.238-2.74-1.744-2.502-3.363c0.917-6.246,5.79-11.003,11.703-11.003S250.485,419.293,251.402,425.539z"/>
			<path fill="#E44C2A" d="M304.759,425.539c0.238,1.62-0.883,3.126-2.502,3.363c-1.62,0.238-3.126-0.883-3.363-2.502
				c-0.51-3.475-3.031-5.936-5.837-5.936c-2.806,0-5.327,2.461-5.837,5.936c-0.238,1.62-1.744,2.74-3.363,2.502
				c-1.62-0.238-2.74-1.744-2.502-3.363c0.917-6.246,5.79-11.003,11.703-11.003S303.842,419.293,304.759,425.539z"/>
			<path fill="#E44C2A" d="M292.165,443.672c0.472-1.568,2.125-2.456,3.693-1.984c1.568,0.472,2.456,2.125,1.984,3.693
				c-3.989,13.25-16.728,22.512-31.342,22.512s-27.354-9.262-31.342-22.512c-0.472-1.568,0.416-3.221,1.984-3.693
				c1.568-0.472,3.221,0.416,3.693,1.984c3.227,10.72,13.642,18.293,25.665,18.293C278.523,461.964,288.938,454.392,292.165,443.672
				z"/>
			<path fill="#E44C2A" d="M273.326,466.952c-1.352,0.923-3.196,0.576-4.12-0.775c-0.248-0.363-0.445-0.755-0.589-1.171
				c-0.398-1.147-0.056-2.421,0.863-3.214c4.421-3.819,6.26-10.25,5.318-19.594c-0.101-1.007-0.067-2.023,0.103-3.02
				c1.044-6.139,6.866-10.269,13.005-9.226c0.866,0.147,1.714,0.385,2.53,0.709c5.191,2.06,8.361,7.268,7.894,12.75
				c-0.139,1.631-1.574,2.841-3.205,2.702c-1.631-0.139-2.841-1.574-2.702-3.205c0.246-2.894-1.43-5.649-4.174-6.737
				c-0.431-0.171-0.88-0.297-1.337-0.375c-2.911-0.495-5.672,1.464-6.167,4.375c-0.08,0.473-0.097,0.955-0.049,1.432
				c1.043,10.344-0.955,18.279-6.152,23.562C274.383,465.867,273.968,466.513,273.326,466.952z"/>
		</g>
		<g transform="translate(92.000000, 89.000000)">
			<path fill="#E44C2A" d="M279.5,525.5c45.84,0,83-37.16,83-83s-37.16-83-83-83s-83,37.16-83,83S233.66,525.5,279.5,525.5z
				 M279.5,519.571c-42.565,0-77.071-34.506-77.071-77.071s34.506-77.071,77.071-77.071s77.071,34.506,77.071,77.071
				S322.065,519.571,279.5,519.571z"/>
		</g>
	</g>
</g>
</svg>
