<?xml version="1.0" encoding="utf-8"?>
<!-- Generator: Adobe Illustrator 19.1.0, SVG Export Plug-In . SVG Version: 6.00 Build 0)  -->
<svg version="1.1" id="Layer_1" xmlns="http://www.w3.org/2000/svg" xmlns:xlink="http://www.w3.org/1999/xlink" x="0px" y="0px"
	 viewBox="-243 318.7 123.5 131" style="enable-background:new -243 318.7 123.5 131;" xml:space="preserve">
<style type="text/css">
	.st0{fill:#E44C2A;}
</style>
<title>Ресурс 2</title>
<g>
	<path class="st0" d="M-140.2,410.6c-11.5,25.3-26,18.5-47.6,22.7c-11.7,2.2-25.6,10.9-38.2,2.3c-4.4-3-7.3-8.6-7.4-16.4
		c-0.1-6.6,2.7-13.4,4.3-19.6c5.8-23-0.2-40.2,18.7-51.3c23.3-13.8,40.7,11.2,58.1,28.7c2.8,2.8,9.7,8.9,11.1,12.7
		C-139.3,395-138.2,405-140.2,410.6L-140.2,410.6z M-215.9,422.9c3.1,1.8,9.2-0.6,11.5-3.2c2.3-2.7,2-6.7-0.7-9
		c-2.6-2.2-6.4-2-8.8,0.4C-216.2,413.8-217.7,420-215.9,422.9L-215.9,422.9z M-190,414.8c3.1,1.8,9.2-0.6,11.5-3.2
		c2.3-2.7,2-6.7-0.7-9c-2.6-2.2-6.4-2-8.8,0.4C-190.3,405.7-191.8,411.9-190,414.8L-190,414.8z M-212.1,398
		c3.1,1.8,9.2-0.6,11.5-3.2c2.3-2.7,2-6.7-0.7-9c-2.6-2.2-6.4-2-8.8,0.4C-212.4,388.8-213.9,395-212.1,398L-212.1,398z
		 M-165.9,408.2c3.1,1.8,9.2-0.6,11.5-3.2c2.3-2.7,2-6.7-0.7-9c-2.6-2.2-6.4-2-8.8,0.4C-166.2,399-167.7,405.2-165.9,408.2
		L-165.9,408.2z M-183.8,387.4c3.1,1.8,9.2-0.6,11.6-3.2c2.3-2.7,2-6.7-0.7-9c-2.6-2.2-6.4-2-8.8,0.4
		C-184,378.2-185.5,384.5-183.8,387.4L-183.8,387.4z M-205.8,370.6c3.1,1.8,9.2-0.6,11.5-3.2c2.3-2.7,2-6.7-0.7-9
		c-2.6-2.2-6.4-2-8.8,0.4C-206.1,361.4-207.6,367.6-205.8,370.6L-205.8,370.6z M-160.8,348.6c-5.7-6.5,3.3-10.3-5.5-18
		c-2.4,5.2-4.2,12.1-2.3,18.3c3.1,10.4,29.6,37.9,41,24.8c-5.9-4.3-15-3.1-18.4-5.7c-0.4-9.5,11-1.2,13.4-13.1
		c-4.6-0.1-7.9-0.9-11,1.3c0,0-8.6,8.8-8.8,1.3c-0.2-6.1,5.3-0.9,7-19.2C-156.4,340.3-153.4,351.1-160.8,348.6z M-196.3,339.6
		c-9.9,0.2-19.3,4.6-25.8,12.2c-9.7,11-7.3,28.1-11.6,46.1c-1.3,5.4-3.5,10.6-4.3,15.7c-2.8,18.6,7.9,30,25.6,30
		c10.4,0,15.7-4.1,22.5-4.9c7.8-1,13.3-2.4,20.7-2.6c29.7-0.7,44-30.4,28.6-54.7c19.5,1.6,20.4-11.4,18.5-13.4
		c-2.7-0.9-1.5,1.4-11.4-2c2.7-2.5,2.8-2,4.7-6.2c5.4-11.8-2.7-9.9-13.3-9.8c1.1-4.2,2.4-12.1,1.6-16.8c-7.4-2.2-13.6,3.5-16.9,6.6
		c0.3-8.1-4.1-16.2-11.4-15.4c-4.1,4.2-5.8,16-5.5,22.8C-180.6,344.5-182.1,340-196.3,339.6z"/>
</g>
</svg>
