<?xml version="1.0" encoding="utf-8"?>
<!-- Generator: Adobe Illustrator 19.1.0, SVG Export Plug-In . SVG Version: 6.00 Build 0)  -->
<svg version="1.1" id="Layer_1" xmlns="http://www.w3.org/2000/svg" xmlns:xlink="http://www.w3.org/1999/xlink" x="0px" y="0px"
	 viewBox="-280 365.5 50 50.3" style="enable-background:new -280 365.5 50 50.3;" xml:space="preserve">
<style type="text/css">
	.st0{fill:#E44C2A;}
</style>
<g>
	<path class="st0" d="M-262.5,402.1c0.4,0.1,0.8-0.1,0.9-0.5c0.1-0.4-0.1-0.8-0.5-0.9c-1.3-0.4-2.4-1.3-3.2-2.4
		c-0.2-0.3-0.7-0.4-1.1-0.2c-0.3,0.2-0.4,0.7-0.2,1.1C-265.5,400.5-264.1,401.6-262.5,402.1z"/>
	<path class="st0" d="M-261.3,405.5l-0.4,2c-0.2,1,0.6,2,1.6,2h9.2c1,0,1.8-1,1.6-2l-0.4-2c6.5-2.3,11.4-9.1,11.7-16.5
		c0.1-1-0.7-1.7-1.6-1.7h-4.7l6-8.6c0.7-1,0.3-2.4-0.8-3.1c-1.1-0.7-2.5-0.6-3.2,0.4l-7.9,11.3h-21.2c-0.9,0-1.7,0.8-1.6,1.7
		C-272.7,396.4-267.8,403.2-261.3,405.5z M-250.9,408h-9.2c-0.1,0-0.1-0.1-0.1-0.2l0.4-1.8c1.3,0.3,3,0.6,4.7,0.5
		c1.3,0,2.6-0.2,4-0.5l0.4,1.8C-250.8,407.9-250.8,408-250.9,408z M-241.1,376.8c0.2-0.3,0.7-0.2,1.1,0c0.3,0.2,0.6,0.7,0.4,1
		l-6.6,9.4h-2.2L-241.1,376.8z M-271.5,388.9c0,0,0,0,0.1,0c7,0,25.4,0,31.8,0c0.1,0,0.1,0.1,0.1,0.1c-0.4,7-5.1,13.5-11.3,15.4
		C-261.5,407.6-271,399.3-271.5,388.9C-271.5,388.9-271.5,388.9-271.5,388.9z"/>
	<path class="st0" d="M-267.2,384.1c-0.3,0.3-0.3,0.8,0,1.1c0.3,0.3,0.8,0.3,1.1,0c1-1,1-2.7,0-3.7c-1-1,0.6-2.1,0.7-2.3
		c0.3-0.3,0.3-0.8,0-1.1s-0.8-0.3-1.1,0c0,0.1-2.9,2.2-0.7,4.4C-266.8,382.9-266.8,383.6-267.2,384.1z"/>
	<path class="st0" d="M-260.2,384.1c-0.3,0.3-0.3,0.8,0,1.1c0.3,0.3,0.8,0.3,1.1,0c1-1,1-2.7,0-3.7c-1-1,0.6-2.1,0.7-2.3
		c0.3-0.3,0.3-0.8,0-1.1c-0.3-0.3-0.8-0.3-1.1,0c0,0.1-2.9,2.2-0.7,4.4C-259.7,382.9-259.7,383.6-260.2,384.1z"/>
	<path class="st0" d="M-263.7,379.2c-0.3,0.3-0.3,0.8,0,1.1c0.3,0.3,0.8,0.3,1.1,0c1-1,1-2.7,0-3.7c-1-1,0.6-2.1,0.7-2.3
		c0.3-0.3,0.3-0.8,0-1.1c-0.3-0.3-0.8-0.3-1.1,0c0,0.1-2.9,2.2-0.7,4.4C-263.3,378.1-263.3,378.8-263.7,379.2z"/>
</g>
</svg>
