<?xml version="1.0" encoding="utf-8"?>
<!-- Generator: Adobe Illustrator 23.0.1, SVG Export Plug-In . SVG Version: 6.00 Build 0)  -->
<svg version="1.1" id="Layer_1" xmlns="http://www.w3.org/2000/svg" xmlns:xlink="http://www.w3.org/1999/xlink" x="0px" y="0px"
	 viewBox="0 0 200 200" style="enable-background:new 0 0 200 200;" xml:space="preserve">
<style type="text/css">
	.st0{fill:#E34D34;}
</style>
<path class="st0" d="M41.6,192.4c0.2,0,0.4-0.1,0.6-0.2l6.9,5.2l1.3-1.7l-6-4.5l12.1-5.2h14.2c0.3,0,0.6-0.1,0.9-0.2l4.6,3l2,3.9
	c0.2,0.4,0.5,0.6,0.9,0.6h8.4v-2.1h-7.7l-1.8-3.6c-0.1-0.2-0.2-0.3-0.4-0.4l-4.2-2.8l8.5-6.8h36.2l8.9,7.1l-6.5,6.5h-3.8v2.1h4.2
	c0.3,0,0.5-0.1,0.7-0.3l7.1-7.1c0.2,0,0.3,0.1,0.5,0.1h14.2l10,5l-3.7,2.5l-4.2,2.1l0.9,1.9l4.3-2.2l4.8-3.2
	c0.2,0.1,0.5,0.2,0.7,0.2l39.8,4.2l0.4-4.2l-39.4-4.2l-12.2-6.1c-0.3-0.1-0.6-0.2-0.9-0.2H130l-9.9-7.9c-0.4-0.3-0.8-0.5-1.3-0.5
	h-15.7v-16.8c37.6-0.6,68.1-31.3,68.1-69.1c0-1.2-0.9-2.1-2.1-2.1c-34.1,0-62.4,24.8-68.1,57.2c-5.6-32.2-34-57-68-57
	c-1.2,0-2.1,0.9-2.1,2.1c0,37.8,30.5,68.6,68.1,69.1v16.8H81.1c-0.5,0-0.9,0.2-1.3,0.5l-9.9,7.9H56c-0.3,0-0.6,0.1-0.8,0.2
	l-14.4,6.2l-37.4,4.2l0.5,4.2L41.6,192.4z M167,89.8c-1.1,34.1-28.7,61.7-62.8,62.8C105.3,118.5,132.9,90.9,167,89.8z M35.1,89.8
	c34.1,1.1,61.7,28.7,62.8,62.8C63.7,151.5,36.2,124,35.1,89.8z"/>
<path class="st0" d="M135.6,43.7c0,6.2,4.5,11.4,10.5,12.4v8.6h-16.8c-1.2,0-2.1,0.9-2.1,2.1v25.1h4.2v-23h16.8
	c1.2,0,2.1-0.9,2.1-2.1V56.1c5.9-1,10.5-6.2,10.5-12.4c0-6.9-5.6-12.6-12.6-12.6S135.6,36.8,135.6,43.7z M148.2,35.3
	c4.6,0,8.4,3.8,8.4,8.4s-3.8,8.4-8.4,8.4s-8.4-3.8-8.4-8.4S143.6,35.3,148.2,35.3z"/>
<circle class="st0" cx="148.2" cy="43.7" r="4.2"/>
<path class="st0" d="M125.1,28.8v15.8l-11.6,7.8c-0.6,0.4-0.9,1-0.9,1.7v50.3h4.2V55.3l11.6-7.8c0.6-0.4,0.9-1,0.9-1.7v-17
	c5.9-1,10.5-6.2,10.5-12.4c0-6.9-5.6-12.6-12.6-12.6c-6.9,0-12.6,5.6-12.6,12.6C114.7,22.7,119.2,27.8,125.1,28.8z M127.2,8.1
	c4.6,0,8.4,3.8,8.4,8.4s-3.8,8.4-8.4,8.4s-8.4-3.8-8.4-8.4S122.6,8.1,127.2,8.1z"/>
<circle class="st0" cx="127.2" cy="16.5" r="4.2"/>
<path class="st0" d="M68.6,28.8v14.9c0,0.7,0.3,1.3,0.8,1.7l15.9,11.9v47.1h4.2V56.3c0-0.7-0.3-1.3-0.8-1.7L72.8,42.7V28.8
	c5.9-1,10.5-6.2,10.5-12.4c0-6.9-5.6-12.6-12.6-12.6S58.1,9.5,58.1,16.5C58.1,22.7,62.6,27.8,68.6,28.8z M70.7,8.1
	c4.6,0,8.4,3.8,8.4,8.4s-3.8,8.4-8.4,8.4s-8.4-3.8-8.4-8.4S66,8.1,70.7,8.1z"/>
<circle class="st0" cx="70.7" cy="16.5" r="4.2"/>
<path class="st0" d="M49.7,54v12.8c0,1.2,0.9,2.1,2.1,2.1h16.8v21h4.2v-23c0-1.2-0.9-2.1-2.1-2.1H53.9V54c5.9-1,10.5-6.2,10.5-12.4
	c0-6.9-5.6-12.6-12.6-12.6s-12.6,5.6-12.6,12.6C39.2,47.8,43.8,53,49.7,54z M51.8,33.2c4.6,0,8.4,3.8,8.4,8.4S56.4,50,51.8,50
	s-8.4-3.8-8.4-8.4S47.2,33.2,51.8,33.2z"/>
<circle class="st0" cx="51.8" cy="41.6" r="4.2"/>
<rect x="68.6" y="90" transform="matrix(0.6912 -0.7226 0.7226 0.6912 -67.6039 88.4108)" class="st0" width="2.1" height="66.7"/>
<rect x="99.6" y="119.1" transform="matrix(0.7071 -0.7071 0.7071 0.7071 -44.954 131.8116)" class="st0" width="74.1" height="2.1"/>
<rect x="37.1" y="175.7" class="st0" width="4.2" height="4.2"/>
<rect x="12" y="171.5" class="st0" width="4.2" height="4.2"/>
<rect x="62.3" y="165.2" class="st0" width="4.2" height="4.2"/>
<rect x="131.4" y="165.2" class="st0" width="4.2" height="4.2"/>
<rect x="162.9" y="169.4" class="st0" width="4.2" height="4.2"/>
<rect x="179.6" y="177.8" class="st0" width="4.2" height="4.2"/>
<path class="st0" d="M99,47.7v63h4.2v-63c5.9-1,10.5-6.2,10.5-12.4c0-6.9-5.6-12.6-12.6-12.6c-6.9,0-12.6,5.6-12.6,12.6
	C88.5,41.5,93,46.7,99,47.7z M101.1,26.9c4.6,0,8.4,3.8,8.4,8.4s-3.8,8.4-8.4,8.4s-8.4-3.8-8.4-8.4S96.4,26.9,101.1,26.9z"/>
<circle class="st0" cx="101.1" cy="35.3" r="4.2"/>
</svg>
