<?xml version="1.0" encoding="utf-8"?>
<!-- Generator: Adobe Illustrator 16.0.0, SVG Export Plug-In . SVG Version: 6.00 Build 0)  -->
<!DOCTYPE svg PUBLIC "-//W3C//DTD SVG 1.1//EN" "http://www.w3.org/Graphics/SVG/1.1/DTD/svg11.dtd">
<svg version="1.1" id="Layer_1" xmlns="http://www.w3.org/2000/svg" xmlns:xlink="http://www.w3.org/1999/xlink" x="0px" y="0px"
	 width="500px" height="500px" viewBox="0 0 500 500" enable-background="new 0 0 500 500" xml:space="preserve">
<path fill="#E44C2A" d="M416.867,270.264c-8.525,12.081-20.104,22.247-30.498,32.687c-17.552,17.506-35.058,35.058-52.563,52.563
	c-18.28,18.28-36.562,36.562-54.842,54.842c-8.435,8.435-16.822,16.822-25.256,25.256c-2.599,2.599-7.066,2.599-9.665,0
	c-0.273-0.273-0.501-0.501-0.775-0.774c-5.699-5.699-11.443-11.442-17.141-17.142l-32.504-32.504
	c-12.901-12.901-25.757-25.758-38.659-38.659c-11.853-11.853-23.706-23.705-35.559-35.559c-3.738-3.738-7.477-7.476-11.214-11.214
	h55.982c3.054,0,6.474-1.688,7.887-4.514c4.194-8.525,8.388-17.096,12.582-25.62c5.289-10.714,10.577-21.472,15.819-32.186
	c1.641,4.24,3.328,8.479,4.969,12.719c6.747,17.369,13.54,34.784,20.287,52.153c1.55,4.012,3.1,8.023,4.695,12.035
	c1.368,3.465,3.693,6.018,7.568,6.519c3.328,0.456,7.567-1.094,9.072-4.376c7.294-15.683,14.588-31.319,21.837-47.001
	c3.191,6.838,6.382,13.631,9.619,20.469c0.82,1.732,1.641,3.51,2.462,5.242c1.321,2.827,4.878,4.514,7.887,4.514h28.948
	c4.786,0,9.346-4.194,9.117-9.118c-0.228-4.923-4.012-9.117-9.117-9.117h-23.204c-5.152-10.941-10.258-21.882-15.409-32.778
	c-0.82-1.732-1.642-3.51-2.462-5.243c-2.78-5.926-12.947-5.972-15.728,0c-7.021,15.09-14.042,30.225-21.062,45.314
	c-1.595-4.058-3.146-8.114-4.741-12.172c-6.747-17.369-13.54-34.784-20.287-52.153c-1.55-4.012-3.146-8.023-4.695-12.035
	c-1.368-3.464-3.693-6.018-7.568-6.519c-3.374-0.456-7.476,1.094-9.072,4.331c-4.194,8.525-8.388,17.095-12.583,25.62
	c-6.701,13.585-13.357,27.216-20.059,40.802c-0.775,1.596-1.596,3.236-2.371,4.832H90.32c-0.046,0-0.091,0-0.091,0
	c-7.203-7.887-13.494-16.412-17.961-26.35c-10.987-24.436-12.036-52.882-1.824-77.773c11.397-27.9,35.148-49.417,64.279-57.532
	c30.316-8.434,63.185-1.595,87.802,17.871c6.246,4.923,11.716,10.85,17.369,16.458c3.009,3.009,6.018,6.018,8.981,8.98
	l12.901-12.901c7.066-7.066,14.224-13.858,22.749-19.192c12.536-7.887,26.76-12.537,41.394-14.224
	c29.268-3.374,59.082,7.294,79.916,27.991c3.738,3.784,7.157,7.887,10.303,12.172C440.071,189.983,440.3,237.03,416.867,270.264z"/>
</svg>
