<?xml version="1.0" encoding="utf-8"?>
<!-- Generator: Adobe Illustrator 19.1.0, SVG Export Plug-In . SVG Version: 6.00 Build 0)  -->
<svg version="1.1" id="Layer_1" xmlns="http://www.w3.org/2000/svg" xmlns:xlink="http://www.w3.org/1999/xlink" x="0px" y="0px"
	 viewBox="206 -244 1024 1008" style="enable-background:new 206 -244 1024 1008;" xml:space="preserve">
<style type="text/css">
	.st0{fill:#E44C2A;}
</style>
<path class="st0" d="M981.3,56c8.9,7.4,22.1,6.2,29.5-2.7c0,0,0,0,0,0l80.3-96.5c7.4-8.9,6.2-22.1-2.7-29.5s-22.1-6.2-29.5,2.7
	l-80.3,96.5C971.3,35.4,972.5,48.6,981.3,56L981.3,56z M1024.2,196.1c-1.6-45.7-22.6-88.6-57.8-117.9l-0.1-0.1
	C898,21.4,796.7,30.7,739.8,98.9l-37.7,45.3C621.4,241,534.2,332,441,416.7L297.8,546.6c-11.9,10.6-15.6,27.6-9.1,42.2
	c2.3,5.3,5.9,10,10.4,13.7c7.5,6.2,17.1,9.1,26.7,8.2c120.9-10.2,239.1-41,349.7-90.9C786,470,887.2,401.6,974.8,317.7
	C1007.8,286.1,1025.8,241.8,1024.2,196.1L1024.2,196.1z M945.8,287.5C779.7,446.1,565.3,544.8,336.7,567.8l132.4-120.2
	c94.7-86,183.3-178.4,265.2-276.7l37.7-45.3c42.1-50.5,117.1-57.3,167.6-15.3l0.2,0.1c50.4,42,57.3,116.9,15.3,167.3
	C952.2,281.2,949.1,284.4,945.8,287.5L945.8,287.5z"/>
</svg>
