<?xml version="1.0" encoding="utf-8"?>
<!-- Generator: Adobe Illustrator 17.0.0, SVG Export Plug-In . SVG Version: 6.00 Build 0)  -->
<!DOCTYPE svg PUBLIC "-//W3C//DTD SVG 1.1//EN" "http://www.w3.org/Graphics/SVG/1.1/DTD/svg11.dtd">
<svg version="1.1" id="Layer_1" xmlns="http://www.w3.org/2000/svg" xmlns:xlink="http://www.w3.org/1999/xlink" x="0px" y="0px"
	 width="250px" height="250px" viewBox="0 0 250 250" enable-background="new 0 0 250 250" xml:space="preserve">
<title>1</title>
<g>
	<path fill="#E44C2A" d="M211.323,41.677C181.899,13.26,135.009,14.076,106.592,43.5c-26.556,27.496-27.824,70.685-2.928,99.693
		L23.41,223.447c-1.828,1.565-2.04,4.316-0.475,6.143c1.565,1.828,4.316,2.04,6.143,0.475c0.17-0.146,0.329-0.305,0.475-0.475
		l80.254-80.254c31.041,26.642,77.802,23.075,104.443-7.966C239.147,112.363,237.878,69.174,211.323,41.677z M159.04,28.607
		c6.529,0.011,13.019,0.995,19.257,2.919c4.905,2.698,9.408,6.072,13.376,10.021c19.13,19.119,19.138,50.126,0.018,69.256
		c-0.006,0.006-0.012,0.012-0.018,0.018c-15.648,15.622-40.991,15.622-56.64,0c-12.755-12.83-12.775-33.547-0.044-46.401
		c10.611-10.624,27.825-10.634,38.448-0.023c0.008,0.008,0.015,0.015,0.023,0.023c8.843,8.818,8.863,23.136,0.045,31.979
		c-0.015,0.015-0.03,0.03-0.045,0.045c-7.392,7.411-19.392,7.427-26.803,0.036c-0.012-0.012-0.024-0.024-0.036-0.036
		c-6.254-6.274-6.254-16.425,0-22.699c5.357-5.346,14.031-5.346,19.388,0c1.565,1.828,1.352,4.578-0.475,6.143
		c-1.631,1.397-4.037,1.397-5.668,0c-1.981-1.87-5.077-1.87-7.058,0c-2.846,2.87-2.846,7.499,0,10.369
		c4.059,3.878,10.45,3.878,14.508,0c5.438-5.417,5.455-14.217,0.038-19.655c-0.013-0.013-0.025-0.025-0.038-0.038
		c-7.226-7.201-18.915-7.201-26.141,0c-9.422,9.454-9.422,24.748,0,34.202c12.244,12.215,32.065,12.215,44.31,0
		c15.725-15.718,15.73-41.208,0.012-56.933c-0.004-0.004-0.008-0.008-0.012-0.012c-20.098-20.036-52.618-20.036-72.716,0
		c12.251-12.244,28.862-19.123,46.183-19.127L159.04,28.607z"/>
</g>
</svg>
