<?xml version="1.0" encoding="utf-8"?>
<!-- Generator: Adobe Illustrator 16.0.0, SVG Export Plug-In . SVG Version: 6.00 Build 0)  -->
<!DOCTYPE svg PUBLIC "-//W3C//DTD SVG 1.1//EN" "http://www.w3.org/Graphics/SVG/1.1/DTD/svg11.dtd">
<svg version="1.1" id="Layer_1" xmlns="http://www.w3.org/2000/svg" xmlns:xlink="http://www.w3.org/1999/xlink" x="0px" y="0px"
	 width="500px" height="500px" viewBox="0 0 500 500" enable-background="new 0 0 500 500" xml:space="preserve">
<g>
	<g>
		<path fill="#F38230" stroke="#F38230" stroke-width="3" stroke-miterlimit="10" d="M136.839,151.634
			c19.701,140.222,136.746,132.11,187.735,143.699c2.896,0.578,6.374-1.159,6.954-4.636c0.577-2.317-0.58-5.795-3.479-6.374
			c-14.485-5.794-25.495-15.646-33.026-27.812C410.33,228.119,377.303,145.26,402.219,94.85c1.737-3.476-0.58-8.112-4.636-8.112l0,0
			c-57.363-14.486-104.298,9.85-118.783,73.587C259.679,76.308,208.11,50.234,124.671,64.14c-1.737,0-2.896,0.579-4.056,1.738
			c-1.738,1.739-2.317,4.056-1.159,6.374C125.251,85,131.625,113.972,136.839,151.634z M388.892,96.009
			c-20.858,60.261,3.477,125.157-99.083,150.072c-0.58-1.158-0.58-1.738-1.157-2.896c20.858-17.384,23.177-37.665,26.652-45.775
			h20.858c3.478,0,5.796-2.318,5.796-5.794c0-3.476-2.318-5.794-5.796-5.794h-13.905c8.691-11.009,20.28-19.7,20.28-19.7
			c2.316-1.738,2.896-5.794,1.158-8.112c-1.737-2.317-5.794-2.897-8.111-1.159c-0.58,0.58-12.169,9.271-22.019,21.439l-2.897-9.85
			c-1.158-2.897-4.056-4.636-6.952-4.056c-2.896,1.159-4.636,4.056-4.058,6.953l5.795,19.121
			c-5.795,11.588-4.635,23.756-20.28,38.822C275.323,152.793,308.35,79.785,388.892,96.009z M273.585,221.166
			c0,15.645,5.215,33.027,16.224,47.514c-40.56-24.916-38.241-49.251-48.672-68.953l7.532-27.813
			c0.58-2.897-1.158-6.374-4.056-6.953c-2.897-0.58-6.374,1.159-6.953,4.056l-4.636,17.383
			c-8.691-11.588-17.962-19.121-29.552-29.551c-2.317-2.317-6.374-1.738-8.112,0.58c-2.317,2.318-1.738,6.374,0.58,8.112
			c11.009,9.85,20.858,17.962,28.971,28.971l-23.177,1.159c-3.478,0-5.794,2.897-5.794,5.794s2.896,5.794,5.794,5.794
			c2.316,0-8.691,0.579,29.551-1.159c8.69,17.962,7.533,43.457,49.25,70.689c-50.989-6.951-118.203-26.652-132.109-126.894
			c-2.896-20.28-8.11-55.046-15.644-75.326C212.744,58.346,271.268,96.588,273.585,221.166z"/>
	</g>
	<g>
		<path fill="#F38230" stroke="#F38230" stroke-width="3" stroke-miterlimit="10" d="M353.546,315.613l-49.252,29.55
			c-2.896-9.271-11.588-16.224-22.018-16.804c-43.457-1.157-61.42-15.064-61.42-15.064c-22.599-21.439-52.149-26.074-77.064-12.747
			L91.645,328.36c-2.897,1.738-4.057,5.216-2.318,8.112c1.739,2.896,5.215,4.058,8.113,2.317l52.147-27.813
			c20.281-11.008,44.616-6.951,63.738,11.59c0.58,0.58,20.858,16.225,68.952,17.964c6.374,0,11.588,5.214,11.588,11.588
			c0,5.795-4.636,11.009-10.43,11.589c-21.438,2.317-60.84,3.476-85.756-12.169c-2.896-1.738-6.374-1.158-8.111,1.739
			c-1.739,2.896-1.159,6.373,1.737,8.11c24.916,15.646,63.738,16.805,92.709,13.906c9.271-1.158,17.384-7.532,19.701-16.224
			l55.625-33.028c10.431-6.373,23.177-3.477,30.13,6.374c1.159,1.159,0.579,3.477-0.579,4.636l-122.26,77.645
			c-6.954,4.056-15.064,5.215-22.019,1.737l-76.484-33.605c-6.953-2.897-15.646-2.897-22.019,1.737l-22.019,13.326
			c-2.896,1.738-3.477,5.216-1.738,8.112c1.738,2.897,5.215,3.478,8.111,1.738l21.439-13.326c3.476-2.318,7.533-2.318,11.009-0.58
			l76.483,33.606c11.011,4.636,23.179,4.057,33.028-2.317c99.083-70.11,143.119-77.064,126.896-99.661
			C388.892,310.398,369.19,306.343,353.546,315.613z"/>
	</g>
</g>
</svg>
