<?xml version="1.0" encoding="utf-8"?>
<!-- Generator: Adobe Illustrator 16.0.0, SVG Export Plug-In . SVG Version: 6.00 Build 0)  -->
<!DOCTYPE svg PUBLIC "-//W3C//DTD SVG 1.1//EN" "http://www.w3.org/Graphics/SVG/1.1/DTD/svg11.dtd">
<svg version="1.1" id="Layer_1" xmlns="http://www.w3.org/2000/svg" xmlns:xlink="http://www.w3.org/1999/xlink" x="0px" y="0px"
	 width="500px" height="500px" viewBox="0 0 500 500" enable-background="new 0 0 500 500" xml:space="preserve">
<g>
	<path fill="#F38230" d="M186.215,235.835c13.106,17.961,24.271,39.806,32.524,62.136l40.777,3.398
		c12.621-41.748,29.126-71.845,47.088-95.631c26.698,10.193,60.68,9.708,80.582-7.282c33.98-29.611,31.068-118.932,22.33-170.388
		c-1.457-9.224-13.592-12.137-18.932-4.369c-47.573,60.68-131.068,68.932-129.611,127.67c0.484,12.621,2.912,20.389,11.65,29.611
		c34.951-44.66,78.641-59.709,81.067-60.194c0.485,0,0.971-0.485,0.971-0.485c-5.34,3.884-25.243,20.874-46.603,46.603
		c-25.728,27.185-50.484,61.65-68.446,116.505c-7.767-19.418-17.476-37.864-28.641-53.884
		c-22.33-38.835-50.971-65.049-57.281-69.903c0.485,0,0.485,0,0.971,0.486c1.942,0.971,38.835,14.563,67.961,53.883
		c7.767-7.767,10.194-14.077,10.68-24.757c2.913-50.485-68.932-59.709-107.281-113.107c-4.369-6.311-14.563-4.368-16.505,3.884
		c-8.738,43.689-14.078,120.389,14.078,146.602C138.642,239.719,164.37,241.66,186.215,235.835z"/>
	<path fill="#F38230" d="M364.37,347.971c-9.709,3.398-25.729,7.281-43.204,11.165c-6.311,10.194-17.961,18.446-35.437,21.359
		c-4.369,0.971-8.738,0.971-13.593,0.971c-12.621,0-26.699-1.456-42.718-3.397c-0.971,0-2.427,0-3.398-0.486
		c-3.883-0.485-7.282-3.397-7.282-7.281c-0.485-4.854,3.884-8.737,8.738-8.252c1.456,0,2.427,0.485,3.883,0.485
		c20.874,2.427,40.291,4.368,52.427,2.427c22.816-3.883,29.612-17.476,28.641-29.611c-0.971-9.709-7.767-18.933-19.417-18.447
		c-16.02,0.972-34.951-0.971-53.398-2.427c-21.359-1.941-42.718-2.913-58.252-1.456c-16.99,1.941-51.942,13.592-83.01,33.98
		c-15.049,10.194-32.039,21.845-42.233,29.126c-4.854,3.884-6.311,11.165-2.427,16.02l43.204,58.738
		c3.883,4.854,10.679,5.825,15.534,2.427l16.505-12.621c4.369-2.913,9.223-3.884,13.592-2.428
		c30.097,10.194,61.65,16.99,82.524,18.447c45.631,3.397,133.98-49.515,160.194-66.506
		C410.001,373.214,392.525,337.777,364.37,347.971z"/>
</g>
</svg>
