<?xml version="1.0" encoding="utf-8"?>
<!-- Generator: Adobe Illustrator 16.0.0, SVG Export Plug-In . SVG Version: 6.00 Build 0)  -->
<!DOCTYPE svg PUBLIC "-//W3C//DTD SVG 1.1//EN" "http://www.w3.org/Graphics/SVG/1.1/DTD/svg11.dtd">
<svg version="1.1" id="Layer_1" xmlns="http://www.w3.org/2000/svg" xmlns:xlink="http://www.w3.org/1999/xlink" x="0px" y="0px"
	 width="500px" height="500px" viewBox="350 0 500 500" enable-background="new 350 0 500 500" xml:space="preserve">
<g>
	<path fill="#F38230" d="M787.052,115.604c1.739-2.86,5.456-6.603,13.405-9.257l9.888-3.298l-7.376-7.363
		c-0.819-0.818-18.719-18.249-48.519-11.066c0.813-4.007,2.216-8.876,4.632-13.707l4.664-9.321h-10.424
		c-2.195,0-51.731,0.554-68.408,37.94c-5.654-1.436-11.678-2.834-17.99-4.18c0.533-1.585,1.089-2.867,1.648-3.71
		c2.86-4.29,3.877-9.443,2.866-14.507c-1.01-5.063-3.929-9.43-8.213-12.277c-3.188-2.139-6.892-3.266-10.73-3.266
		c-6.48,0-12.491,3.221-16.086,8.606c-7.593,11.389-11.369,29.528-11.343,53.806c-13.933,3.034-25.135,9.36-33.303,19.08
		c-24.053,28.607-17.766,78.638-10.422,121.931c-0.645-0.772-1.321-1.525-1.959-2.305c-13.798-16.754-23.305-37.928-32.491-58.399
		c-16.78-37.38-34.205-75.9-77.331-73.826c-3.769-7.427-6.802-14.597-9.224-21.025c10.036-0.548,25.096-2.19,37.251-6.86
		c7.839,3.42,17.663,6.152,28.149,6.152c11.447,0,23.627-3.234,34.713-12.329l-8.174-9.965c-13.74,11.266-28.884,10.7-40.292,7.575
		c2.022-2.177,3.511-4.818,4.367-7.743c0.091-0.303,0.207-0.592,0.284-0.902c0.354-1.436,0.585-2.924,0.585-4.47
		c0-10.654-8.67-19.325-19.325-19.325c-10.654,0-19.324,8.67-19.324,19.325c0,4.773,1.804,9.089,4.683,12.464
		c-8.458,1.907-18.294,3.053-27.274,3.382c-2.389-7.736-3.459-12.773-3.556-13.212c-1.81-8.992-9.765-15.518-18.918-15.518
		c-1.314,0-2.616,0.129-3.821,0.38c-10.441,2.087-17.243,12.284-15.157,22.72c0.207,1.037,4.896,24.194,17.972,51.583
		c-17.817,13.141-24.787,34.54-24.787,54.147c0,43.036,16.722,98.162,45.89,151.253c25.734,46.861,88.461,112.849,147.356,112.849
		c20.793,0,38.023-3.549,51.397-10.461c13.109,7.454,28.098,11.229,44.937,11.229c4.495,0,9.133-0.264,13.894-0.799
		c41.658-4.688,60.652-28.729,56.466-71.449c-3.696-37.729-13.533-63.668-22.203-86.548c-4.831-12.748-9.006-23.763-11.414-35.023
		c-2.441-11.414-4.143-24.084-5.779-36.336c-2.775-20.703-5.668-42.011-12.283-60.235c7.04-1.23,14.603,5.044,19.756,10.584
		l6.79,7.195l3.885-9.127c0.457-1.069,11.659-26.005,56.202-9.302l8.702,3.259v-9.295C811.297,163.007,811,127.038,787.052,115.604z
		 M497.897,74.476c3.549,0,6.442,2.892,6.442,6.441c0,0.689-0.193,1.32-0.393,1.939c-0.548,1.372-1.714,2.641-3.285,3.819
		c-0.851,0.413-1.766,0.683-2.764,0.683c-3.549,0-6.441-2.892-6.441-6.441S494.349,74.476,497.897,74.476z M680.928,111.823
		c-0.884,4.032-1.817,9.585-2.318,16.227c-4.6-1.991-9.533-3.505-14.842-4.522c0.012-6.016,0.275-11.202,0.727-15.518
		C670.227,109.24,675.742,110.509,680.928,111.823z M647.134,77.342c1.895-2.86,6.063-3.704,8.937-1.778
		c1.423,0.947,2.395,2.403,2.731,4.09c0.34,1.694,0,3.407-0.948,4.837c-5.391,8.091-6.86,23.737-6.976,37.541
		c-1.797-0.09-3.606-0.148-5.475-0.148c-2.564,0-5.032,0.123-7.46,0.29C638.092,101.659,641.222,86.218,647.134,77.342z
		 M427.164,88.621c-0.696-3.479,1.571-6.88,5.095-7.582c3.15-0.618,6.847,1.624,7.55,5.102c0.207,0.992,4.689,21.953,16.271,46.102
		c-4.477,1.012-8.592,2.377-12.368,4.039C431.66,110.773,427.357,89.587,427.164,88.621z M631.024,444.754
		c-91.888-56.976-135.078-142.467-152.658-188.538l-12.033,4.594c17.354,45.478,58.946,128.141,145.598,186.855
		c-3.529,0.251-7.156,0.418-10.97,0.418c-53.046,0-112.552-63.353-136.071-106.162C436.741,290.673,420.6,237.793,420.6,196.864
		c0-14.313,4.367-48.157,44.852-53.207c36.156-4.451,50.038,22.114,69.697,65.929c9.533,21.25,19.402,43.23,34.301,61.317
		c5.172,6.28,10.577,12.452,16.071,18.416c1.076,6.442,2.01,12.497,2.603,17.767c1.431,12.772,3.556,31.775,8.232,52.046
		c-40.324-39.537-65.304-84.718-79.559-117.306l-11.801,5.166c16.49,37.695,46.868,91.734,98.007,135.768
		c2.661,7.903,5.779,15.718,9.516,23.151c7.574,15.067,16.798,27.049,27.569,36.026
		C637.261,443.032,634.213,443.955,631.024,444.754z M733.406,307.505c8.386,22.133,17.896,47.208,21.43,83.236
		c3.505,35.789-10.395,53.483-45.082,57.38c-39.255,4.413-67.27-11.284-85.719-47.989c-16.136-32.097-20.671-72.678-23.111-94.477
		c-1.006-8.972-2.873-19.711-4.857-31.08c-7.104-40.743-16.832-96.552,5.566-123.195c9.396-11.176,23.711-16.612,43.762-16.612
		c13.296,0,24.048,2.615,32.957,7.704c0.565,13.282,3.426,28.781,11.232,44.389l6.481,12.96l5.274-13.495
		c0.567-1.443,1.914-4.077,3.82-6.75c5.244,16.162,7.833,35.184,10.318,53.716c1.675,12.49,3.408,25.411,5.946,37.316
		C724.046,282.826,728.587,294.808,733.406,307.505z M739.353,167.555c-8.78-7.485-17.456-10.467-25.909-8.857
		c-7.458,1.424-13.103,6.255-17.044,11.118c-7.782-22.842-5.114-44.292-2.975-54.631c38.72,11.022,58.577,22.642,58.829,22.79
		l6.623-11.047c-1.063-0.638-21.418-12.606-61.362-23.995c9.965-19.427,32.826-25.618,46.005-27.563
		c-3.027,9.952-3.08,17.985-3.08,18.429v9.515l8.839-3.53c16.245-6.493,28.581-3.826,36.117-0.406
		c-12.567,8.387-12.748,19.608-12.748,20.188v5.031l4.877,1.218c13.643,3.407,18.377,19.279,20.014,29.65
		C763.959,145.951,746.837,158.569,739.353,167.555z"/>
	<path fill="#F38230" d="M679.298,237.195c10.73,39.737,35.209,137.894,30.802,191.031l12.839,1.068
		c4.413-53.188-17.661-145.294-31.209-195.462L679.298,237.195z"/>
	<path fill="#F38230" d="M688.175,220.885c-2.313-8.232-3.744-12.992-3.744-12.992l-12.342,3.697
		c0.006,0.032,1.411,4.709,3.678,12.773L688.175,220.885z"/>
	<path fill="#F38230" d="M621.312,242.36c2.756,43.493,12.45,125.134,46.365,183.197l11.126-6.493
		c-32.576-55.777-41.949-135.161-44.634-177.528L621.312,242.36z"/>
	<path fill="#F38230" d="M633.17,216.189h-12.883c0,0,0,4.805,0.34,13.147l12.871-0.521
		C633.17,220.866,633.17,216.26,633.17,216.189z"/>
	<path fill="#F38230" d="M458.256,237.407c1.057,3.427,2.287,7.24,3.717,11.395l12.188-4.187c-1.379-4.006-2.563-7.685-3.581-10.989
		L458.256,237.407z"/>
	<path fill="#F38230" d="M507.772,219.171l-12.135,4.323c1.243,3.504,2.821,7.704,4.728,12.477l11.956-4.799
		C510.485,226.579,508.977,222.547,507.772,219.171z"/>
</g>
</svg>
