<?xml version="1.0" encoding="utf-8"?>
<!-- Generator: Adobe Illustrator 16.0.0, SVG Export Plug-In . SVG Version: 6.00 Build 0)  -->
<!DOCTYPE svg PUBLIC "-//W3C//DTD SVG 1.1//EN" "http://www.w3.org/Graphics/SVG/1.1/DTD/svg11.dtd">
<svg version="1.1" id="Layer_1" xmlns="http://www.w3.org/2000/svg" xmlns:xlink="http://www.w3.org/1999/xlink" x="0px" y="0px"
	 width="500px" height="500px" viewBox="0 0 500 500" enable-background="new 0 0 500 500" xml:space="preserve">
<title>17</title>
<path fill="#F38230" stroke="#E44C2A" stroke-miterlimit="10" d="M250.481,27.404c-64.423,0-117.308,40.385-117.308,89.424l0,0
	c0,4.807,0.961,9.615,1.923,14.423c1.923,29.808,5.769,100.961,5.769,123.076c0,7.693,0.961,189.424,94.231,216.348l0,0
	c4.808,0.961,9.615,1.922,15.384,1.922c4.808,0,9.616-0.961,14.423-0.961c51.923-8.654,84.615-80.77,94.23-208.654v-2.885
	c1.923-23.077,4.808-98.077,6.731-129.807c0.961-3.846,0.961-8.654,0.961-12.5C366.827,67.789,314.904,27.404,250.481,27.404z
	 M148.558,254.328c0-19.232-2.884-75-4.808-108.655c10.577,13.462,25,24.039,41.346,31.73c0.961,12.5,6.731,76.924,6.731,93.27
	c0,0.961,0,2.885,0,5.77c-1.923,89.422,7.692,150,27.885,178.846C149.52,413.943,148.558,261.059,148.558,254.328z M262.981,463.943
	c-8.654,1.922-17.308,1.922-25,0c-19.231-12.5-41.346-55.77-38.461-186.539c0-2.885,0-4.809,0-5.77
	c0-15.385-4.808-71.154-6.731-90.384c18.27,7.692,38.462,11.538,57.692,11.538c19.231,0,38.462-3.846,56.731-11.538
	c-0.962,19.23-5.77,75-5.77,90.384c0,0.961,0,3.846,0,5.77C303.365,408.174,281.25,451.443,262.981,463.943z M351.442,259.135v2.885
	c-7.692,107.693-33.654,176.924-73.077,196.154c21.154-27.885,31.731-89.424,29.808-181.73c0-2.885,0-4.809,0-5.77
	c0-16.348,4.809-80.77,5.77-93.27c16.346-6.73,31.73-18.27,42.308-32.692C356.25,180.289,353.365,238.943,351.442,259.135z
	 M310.097,170.673c-0.962,0-0.962,0-0.962,0.961c-18.27,7.693-38.462,11.539-58.654,12.5c-20.192,0-41.346-4.807-59.615-12.5
	l-0.962-0.961c-26.923-12.5-48.077-31.73-48.077-53.846l0,0c0-45.193,49.039-81.731,109.616-81.731
	c60.576,0,109.615,36.538,109.615,81.731C359.135,139.904,337.981,159.135,310.097,170.673z"/>
<path fill="#F38230" d="M244.712,105.289c0.961,1.924,2.884,3.846,5.769,3.846l0,0c2.884,0,4.808-0.961,5.769-3.846l8.654-18.27
	c0.962-2.884,0-6.73-3.847-7.691c-0.961,0-0.961,0-1.923,0c-6.73-0.962-12.5-0.962-19.23,0c-1.923,0-3.846,0.961-4.808,2.885
	c-0.962,1.923-0.962,3.846,0,5.769L244.712,105.289z M257.212,86.058l-6.731,14.423l-6.731-13.462
	C247.596,85.096,252.404,85.096,257.212,86.058z"/>
<path fill="#F38230" d="M211.058,109.134l18.27,2.885h0.961c4.808,0,8.654-3.846,8.654-8.653c0-0.962,0-1.923-0.961-2.885l0,0
	l-6.731-12.5c-0.962-1.923-2.885-3.846-4.808-4.808c-1.923-0.961-4.808-0.961-6.731,0c-6.731,2.885-12.5,7.692-15.385,13.462
	c-0.961,1.923-0.961,4.808,0,7.692C206.25,107.211,208.173,109.134,211.058,109.134z M212.02,100.481
	c2.885-4.808,6.731-8.653,12.5-10.577l0,0l0,0l0,0l6.73,12.5c0,0,0,0,0,0.962c0,0,0,0-0.961,0L212.02,100.481L212.02,100.481
	C212.02,101.443,212.02,101.443,212.02,100.481C212.02,101.443,212.02,100.481,212.02,100.481L212.02,100.481z"/>
<path fill="#F38230" d="M262.02,109.134c0.962,1.924,3.846,2.885,5.769,2.885h0.962l21.154-2.885
	c3.846-0.961,6.73-3.846,5.769-7.691c0-0.962,0-0.962,0-1.924c-2.885-7.691-9.615-13.461-17.307-16.346
	c-1.924-0.962-3.847-0.962-5.77,0c-1.924,0.961-2.885,1.923-3.847,3.846l-7.692,15.385
	C260.097,104.328,261.058,107.211,262.02,109.134z M275.481,89.904c5.769,1.924,10.576,5.77,12.5,11.539l-19.231,2.885
	L275.481,89.904z"/>
<path fill="#F38230" d="M238.942,118.75c-0.961-1.923-3.846-3.847-6.73-3.847h-21.154c-2.885,0-4.808,0.962-6.731,3.847
	c-0.961,1.923-1.923,4.808,0,6.73c3.846,7.692,9.616,13.462,17.308,17.308c0.961,0,1.923,0,2.884,0c2.885,0,4.808-0.961,5.77-2.885
	l0,0l7.692-13.461C239.904,124.519,239.904,121.634,238.942,118.75z M225.481,135.096c-5.769-2.884-9.615-7.692-12.5-12.499h20.192
	L225.481,135.096z"/>
<path fill="#F38230" d="M289.904,114.904h-22.116c-3.846,0-6.73,2.885-6.73,6.731c0,0.962,0,2.884,0.962,3.846l7.692,13.462l0,0
	c0.961,1.923,3.846,2.885,5.77,2.885c0.961,0,1.923,0,1.923,0c7.692-3.847,14.423-9.616,18.269-17.309
	c0.962-1.923,0.962-4.807,0-6.73C294.712,116.828,291.827,114.904,289.904,114.904z M276.442,135.096l-6.73-12.499h20.192
	C286.058,128.366,281.25,132.211,276.442,135.096z"/>
<path fill="#F38230" d="M256.25,121.634L256.25,121.634c-0.962-1.923-3.846-3.846-5.769-3.846c-2.885,0-4.808,0.962-5.769,3.846l0,0
	l-7.692,16.347c-0.962,1.923-0.962,3.847,0,5.77s2.885,3.846,4.808,3.846c2.885,0,5.77,0.962,8.654,0.962s6.731,0,9.616-0.962
	c3.846-0.962,5.77-3.846,5.77-7.692c0-0.961,0-0.961-0.962-1.923L256.25,121.634z M243.75,140.866l6.731-13.462l6.731,13.462
	C252.404,141.828,247.596,141.828,243.75,140.866z"/>
</svg>
