<?xml version="1.0" encoding="utf-8"?>
<!-- Generator: Adobe Illustrator 16.0.0, SVG Export Plug-In . SVG Version: 6.00 Build 0)  -->
<!DOCTYPE svg PUBLIC "-//W3C//DTD SVG 1.1//EN" "http://www.w3.org/Graphics/SVG/1.1/DTD/svg11.dtd">
<svg version="1.1" id="Layer_1" xmlns="http://www.w3.org/2000/svg" xmlns:xlink="http://www.w3.org/1999/xlink" x="0px" y="0px"
	 width="500px" height="500px" viewBox="350 0 500 500" enable-background="new 350 0 500 500" xml:space="preserve">
<g>
	<path fill="#F38230" d="M711.496,237.93c-7.847-19.059-15.321-39.24-19.432-60.915c-11.959-60.915-48.956-102.023-92.307-102.023
		s-80.348,41.108-91.934,102.397c-4.11,21.301-11.958,41.855-19.433,60.915c-7.1,17.565-10.837,36.625-10.837,56.057
		c0,74.742,54.936,136.031,122.578,136.031c67.641,0,122.577-60.915,122.577-136.031
		C722.335,274.554,718.598,255.869,711.496,237.93z M599.757,410.959c-57.178,0-103.518-52.319-103.518-116.971
		c0-17.192,3.363-33.634,9.343-48.957c8.222-19.807,16.07-41.482,20.555-64.279c10.089-50.825,40.36-86.701,73.621-86.701
		c33.259,0,63.532,35.876,73.249,86.701c4.484,23.17,12.331,44.472,20.554,64.279l0,0c6.354,15.323,9.343,31.765,9.343,48.957
		C703.275,358.64,656.935,410.959,599.757,410.959z"/>
	<path fill="#F38230" d="M599.757,214.013c-39.987,0-72.874,35.876-72.874,80.349c0,44.472,32.887,79.975,72.874,79.975
		s72.875-35.877,72.875-80.348C672.632,249.516,639.744,214.013,599.757,214.013z M599.757,355.276
		c-29.522,0-53.814-27.281-53.814-61.288c0-34.009,24.292-60.916,53.814-60.916c29.523,0,53.815,27.282,53.815,61.289
		S629.28,355.276,599.757,355.276z"/>
	<path fill="#F38230" d="M599.757,258.858c-17.938,0-32.513,15.695-32.513,35.13c0,5.231,4.111,9.342,9.343,9.342
		c5.231,0,9.343-4.11,9.343-9.342c0-8.971,5.979-16.07,13.453-16.07c5.233,0,9.343-4.111,9.343-9.343
		C608.726,263.343,604.989,258.858,599.757,258.858z"/>
</g>
</svg>
