<?xml version="1.0" encoding="utf-8"?>
<!-- Generator: Adobe Illustrator 16.0.0, SVG Export Plug-In . SVG Version: 6.00 Build 0)  -->
<!DOCTYPE svg PUBLIC "-//W3C//DTD SVG 1.1//EN" "http://www.w3.org/Graphics/SVG/1.1/DTD/svg11.dtd">
<svg version="1.1" id="Layer_1" xmlns="http://www.w3.org/2000/svg" xmlns:xlink="http://www.w3.org/1999/xlink" x="0px" y="0px"
	 width="400px" height="400px" viewBox="400 50 400 400" enable-background="new 400 50 400 400" xml:space="preserve">
<g>
	<path fill="#F38230" d="M567.009,198.813h17.68v-34.238h-44.06c-9.823,0-17.681-7.858-17.681-17.681
		c0-2.806,2.246-5.051,5.052-5.051c2.806,0,5.051,2.245,5.051,5.051c0,4.21,3.368,7.578,7.578,7.578h43.218
		c-3.368-13.47-15.436-23.293-29.748-23.293c-39.569,0-63.424,23.012-76.333,42.096c-8.419,12.348-14.874,27.222-19.364,43.5h12.628
		c2.807,0,5.051,2.245,5.051,5.051c0,2.806-2.244,5.051-5.051,5.051h-15.154c-2.526,12.628-4.209,25.819-4.209,39.29
		c0,30.87,9.542,80.263,39.57,110.01h64.546c6.455,0,11.787-5.331,11.787-11.785c0-6.456-5.332-11.507-11.787-11.507h-18.241
		c-2.807,0-5.051-2.246-5.051-5.053c0-2.806,2.245-5.051,5.051-5.051h18.241c12.067,0,21.61,9.822,21.61,21.61
		c0,12.066-9.823,21.607-21.61,21.607h-52.198c13.47,9.262,30.028,14.874,50.515,14.874c16.838,0,30.589-13.751,30.589-30.589
		v-40.132h-27.782c-2.807,0-5.052-2.246-5.052-5.052s2.245-5.051,5.052-5.051h27.782v-40.974h-49.673
		c-9.261,0-17.119-7.576-17.119-17.119c0-9.541,7.578-17.119,17.119-17.119h21.33c2.806,0,5.051,2.245,5.051,5.051
		c0,2.807-2.245,5.052-5.051,5.052h-21.33c-3.928,0-7.015,3.087-7.015,7.016c0,3.93,3.087,7.017,7.015,7.017h49.673V233.05H528
		c-12.067,0-21.891,9.823-21.891,21.89h-9.822c0-17.681,14.313-31.993,31.993-31.993h56.688v-14.313h-17.96
		c-2.807,0-5.051-2.245-5.051-5.052C561.958,201.058,564.202,198.813,567.009,198.813z M460.367,278.233v-4.49
		c0-2.807,2.245-5.052,5.051-5.052c2.806,0,5.051,2.245,5.051,5.052v4.49c0,8.7,7.017,15.715,15.716,15.715
		c2.806,0,5.051,2.246,5.051,5.053c0,2.806-2.246,5.051-5.051,5.051C471.872,303.771,460.367,292.547,460.367,278.233z
		 M504.146,293.948h31.993c2.806,0,5.051,2.246,5.051,5.053c0,2.806-2.246,5.051-5.051,5.051h-31.993
		c-2.807,0-5.051-2.245-5.051-5.051C499.375,296.194,501.339,293.948,504.146,293.948z M533.333,320.049
		c2.807,0,5.051,2.245,5.051,5.051s-2.245,5.052-5.051,5.052H492.92c-3.648,0-6.454,2.807-6.454,6.455
		c0,3.367,2.806,6.454,6.454,6.454h24.416c2.807,0,5.051,2.246,5.051,5.053c0,2.806-2.245,5.05-5.051,5.05H492.92
		c-8.98,0-16.277-7.296-16.277-16.276c0-8.981,7.297-16.276,16.277-16.276h40.413V320.049z M550.451,208.635h-51.356
		c-9.261,0-16.558-7.578-16.558-16.558c0-9.261,7.577-16.558,16.558-16.558h29.748c2.807,0,5.051,2.245,5.051,5.051
		c0,2.807-2.245,5.052-5.051,5.052h-29.748c-3.648,0-6.736,3.087-6.736,6.735s3.087,6.735,6.736,6.735h51.356
		c2.807,0,5.052,2.245,5.052,5.051C555.503,206.39,553.258,208.635,550.451,208.635z"/>
	<path fill="#F38230" d="M713.503,305.455h15.153c2.526-12.629,4.21-25.818,4.21-39.289c0-30.871-9.541-80.263-39.569-110.01H628.75
		c-6.455,0-11.787,5.332-11.787,11.787c0,6.455,5.332,11.506,11.787,11.506h18.241c2.807,0,5.052,2.245,5.052,5.051
		s-2.245,5.052-5.052,5.052H628.75c-12.067,0-21.609-9.823-21.609-21.609s9.822-21.609,21.609-21.609h52.479
		c-13.47-9.261-30.027-14.874-50.515-14.874c-16.838,0-30.589,13.751-30.589,30.589v40.412h27.783c2.806,0,5.052,2.245,5.052,5.051
		s-2.246,5.051-5.052,5.051h-27.783v40.974h49.673c9.261,0,17.119,7.577,17.119,17.119c0,9.541-7.577,17.119-17.119,17.119H628.47
		c-2.807,0-5.053-2.246-5.053-5.052c0-2.807,2.246-5.053,5.053-5.053h21.328c3.929,0,7.016-3.086,7.016-7.015
		c0-3.93-3.087-7.016-7.016-7.016h-49.954v35.921h56.688c12.068,0,21.891-9.822,21.891-21.891h9.822
		c0,17.682-14.313,31.994-31.993,31.994h-56.408v14.313h17.681c2.807,0,5.051,2.245,5.051,5.052s-2.244,5.051-5.051,5.051h-17.681
		v34.238h44.061c9.822,0,17.681,7.857,17.681,17.68c0,2.807-2.245,5.053-5.053,5.053c-2.806,0-5.051-2.246-5.051-5.053
		c0-4.209-3.368-7.576-7.577-7.576h-43.219c3.368,13.471,15.436,23.292,29.748,23.292c39.57,0,63.424-23.012,76.333-42.096
		c8.42-12.348,14.875-27.222,19.365-43.498h-12.629c-2.807,0-5.052-2.246-5.052-5.052
		C708.451,307.7,710.696,305.455,713.503,305.455z M680.388,238.383h-31.993c-2.807,0-5.052-2.245-5.052-5.052
		c0-2.806,2.245-5.051,5.052-5.051h31.993c2.807,0,5.051,2.245,5.051,5.051C685.158,236.138,683.194,238.383,680.388,238.383z
		 M651.201,212.283c-2.807,0-5.052-2.245-5.052-5.051s2.245-5.051,5.052-5.051h40.412c3.648,0,6.454-2.807,6.454-6.455
		c0-3.368-2.806-6.455-6.454-6.455h-24.416c-2.807,0-5.051-2.246-5.051-5.052s2.244-5.051,5.051-5.051h24.416
		c8.98,0,16.277,7.296,16.277,16.277c0,8.981-7.297,16.277-16.277,16.277h-40.412V212.283z M685.438,357.093h-29.467
		c-2.806,0-5.052-2.245-5.052-5.052c0-2.806,2.246-5.052,5.052-5.052h29.747c3.648,0,6.736-3.086,6.736-6.734
		s-3.088-6.735-6.736-6.735h-51.637c-2.807,0-5.052-2.245-5.052-5.052s2.245-5.051,5.052-5.051h51.356
		c9.261,0,16.558,7.576,16.558,16.557C702.277,349.516,694.699,357.093,685.438,357.093z M698.629,238.383
		c-2.807,0-5.052-2.245-5.052-5.052c0-2.806,2.245-5.051,5.052-5.051c14.032,0,25.537,11.506,25.537,25.538v4.49
		c0,2.807-2.244,5.052-5.051,5.052c-2.806,0-5.052-2.245-5.052-5.052v-4.49C714.063,245.398,707.048,238.383,698.629,238.383z"/>
</g>
</svg>
