<?xml version="1.0" encoding="utf-8"?>
<!-- Generator: Adobe Illustrator 16.0.0, SVG Export Plug-In . SVG Version: 6.00 Build 0)  -->
<!DOCTYPE svg PUBLIC "-//W3C//DTD SVG 1.1//EN" "http://www.w3.org/Graphics/SVG/1.1/DTD/svg11.dtd">
<svg version="1.1" id="Layer_1" xmlns="http://www.w3.org/2000/svg" xmlns:xlink="http://www.w3.org/1999/xlink" x="0px" y="0px"
	 width="500px" height="500px" viewBox="350 0 500 500" enable-background="new 350 0 500 500" xml:space="preserve">
<title>Brain 07</title>
<desc>Created with Sketch.</desc>
<g>
	<path fill="#F38230" d="M633.333,104.667c20.292,0,37.195,14.505,40.908,33.712c36.578,3.675,65.568,33.672,67.34,71.013
		c0.057,1.199,0.073,4.124,0.051,4.377c11.438,12.315,16.701,24.998,16.701,40.897c0,17.561-6.858,34.474-19.526,47.141
		c-3.026,3.027-6.302,5.73-9.784,8.091c2.824,7.038,4.311,14.704,4.311,22.595c0,27.559-18.145,50.712-42.252,54.85
		c-3.692,23.971-24.41,42.325-49.414,42.325c-17.392,0-32.709-8.88-41.667-22.353c-8.958,13.473-24.275,22.353-41.667,22.353
		c-25.004,0-45.722-18.354-49.414-42.325c-24.107-4.138-42.252-27.291-42.252-54.85c0-7.891,1.486-15.557,4.311-22.595
		c-3.482-2.36-6.758-5.063-9.784-8.091c-12.668-12.667-19.526-29.58-19.526-47.141c0-15.576,5.354-28.144,16.747-40.501
		c-0.053-0.381,0-9.499,1.771-17.806c7.027-31.02,33.281-54.743,65.573-57.981c3.713-19.207,20.616-33.711,40.908-33.711
		c13.63,0,25.731,6.544,33.333,16.663C607.602,111.211,619.703,104.667,633.333,104.667z M608.333,146.333V271.33
		c6.964-5.23,15.62-8.33,25-8.33c4.603,0,8.334,3.73,8.334,8.334c0,4.602-3.731,8.332-8.334,8.332c-13.807,0-25,11.193-25,25v75.001
		c0,18.409,14.924,33.333,33.334,33.333c15.892,0,29.187-11.121,32.525-26.006c-18.615-4.167-32.525-20.789-32.525-40.66
		c0-4.604,3.73-8.334,8.333-8.334s8.333,3.73,8.333,8.334c0,13.807,11.193,24.999,25,24.999c18.163,0,33.334-17.175,33.334-38.841
		c0-5.248-0.896-10.329-2.592-15.023c-4.854,1.729-9.887,2.885-14.994,3.453c0.602,2.82,0.919,5.745,0.919,8.744
		c0,4.604-3.73,8.334-8.333,8.334s-8.334-3.73-8.334-8.334c0-13.807-11.192-25-25-25c-4.603,0-8.333-3.73-8.333-8.332
		c0-4.604,3.73-8.334,8.333-8.334c13.632,0,25.735,6.547,33.337,16.666c6.566,0,13.076-1.283,19.141-3.793
		c6.01-2.486,11.501-6.141,16.211-10.852c9.51-9.51,14.646-22.172,14.646-35.355c0-12.357-4.123-21.504-14.227-31.607
		c-2.44-3.038-7.174-5.724-10.638-7.102c-10.426-4.148-22.58-2.873-32.028,4.064c-0.22,10.087-4.285,20.108-12.215,28.038
		c-3.255,3.254-8.531,3.254-11.785,0c-3.255-3.254-3.255-8.531,0-11.785c9.763-9.763,9.763-24.285,0-34.048
		c-3.255-3.254-3.255-8.531,0-11.785c3.254-3.254,8.53-3.254,11.785,0c3.696,3.697,6.554,7.848,8.571,12.248
		c13.3-7.028,28.978-7.586,42.588-1.913c-5.625-26.416-29.112-46.109-57.052-46.109c-13.808,0-25,11.193-25,25
		c0,4.603-3.731,8.333-8.334,8.333S625,184.269,625,179.667c0-19.777,13.779-36.336,32.261-40.601
		c-3.113-10.263-12.647-17.732-23.928-17.732C619.526,121.333,608.333,132.526,608.333,146.333z M591.667,146.333
		c0-13.807-11.193-25-25-25c-11.28,0-20.814,7.47-23.928,17.732C561.221,143.331,575,159.89,575,179.667
		c0,4.603-3.73,8.333-8.333,8.333s-8.334-3.731-8.334-8.333c0-13.807-11.192-25-25-25c-30.131,0-54.927,22.845-58.01,52.16
		c15.986-4.11,33.404-0.115,46.092,11.418c5.995-3.341,12.901-5.244,20.252-5.244c4.603,0,8.333,3.731,8.333,8.333
		c0,4.602-3.73,8.333-8.333,8.333c-13.808,0-25,11.193-25,25c0,4.604-3.731,8.334-8.334,8.334S500,259.27,500,254.666
		c0-9.568,3.226-18.384,8.648-25.417c-10.704-8.593-25.692-9.756-37.605-2.818c-0.641,0.373-3.663,2.836-4.415,3.831
		c-5.789,7.652-8.295,15.187-8.295,24.405c0,13.184,5.136,25.846,14.646,35.355c4.71,4.711,10.2,8.365,16.211,10.852
		c6.065,2.51,12.576,3.793,19.144,3.793c4.603,0,8.334,3.731,8.334,8.334s-3.731,8.334-8.334,8.334
		c-7.637,0-15.22-1.305-22.408-3.865c-1.696,4.694-2.592,9.775-2.592,15.023c0,18.685,11.282,34.029,26.036,37.898
		c4.15-18.256,20.289-31.954,39.698-32.381c1.311-8.179,5.213-16.074,11.707-22.568c3.254-3.255,8.53-3.255,11.785,0
		c3.254,3.254,3.254,8.53,0,11.785c-9.764,9.763-9.764,24.284,0,34.047c3.254,3.255,3.254,8.531,0,11.786
		c-3.255,3.254-8.531,3.254-11.785,0c-5.381-5.381-8.982-11.724-10.805-18.394c-13.793,0.017-24.97,11.203-24.97,25.001
		C525,398.076,539.924,413,558.333,413c18.41,0,33.334-14.924,33.334-33.333V241.935c-8.847,7.917-20.527,12.731-33.334,12.731
		c-4.603,0-8.333-3.73-8.333-8.333c0-4.603,3.73-8.333,8.333-8.333c18.41,0,33.334-14.924,33.334-33.333V146.333z"/>
</g>
</svg>
