<?xml version="1.0" encoding="utf-8"?>
<!-- Generator: Adobe Illustrator 17.0.0, SVG Export Plug-In . SVG Version: 6.00 Build 0)  -->
<!DOCTYPE svg PUBLIC "-//W3C//DTD SVG 1.1//EN" "http://www.w3.org/Graphics/SVG/1.1/DTD/svg11.dtd">
<svg version="1.1" id="Layer_1" xmlns="http://www.w3.org/2000/svg" xmlns:xlink="http://www.w3.org/1999/xlink" x="0px" y="0px"
	 width="250px" height="250px" viewBox="0 0 250 250" enable-background="new 0 0 250 250" xml:space="preserve">
<g>
	<path fill="#F38230" d="M150,83.125h-9.375V67.5h3.125c5.175-0.006,9.369-4.2,9.375-9.375V36.25
		c-0.006-5.175-4.2-9.369-9.375-9.375h-100c-5.175,0.006-9.369,4.2-9.375,9.375v21.875c0.006,5.175,4.2,9.369,9.375,9.375h3.125
		v15.625H37.5c-5.175,0.006-9.369,4.2-9.375,9.375v118.75c0.006,5.175,4.2,9.369,9.375,9.375H150c5.175-0.006,9.369-4.2,9.375-9.375
		V92.5C159.369,87.325,155.175,83.131,150,83.125z M40.625,58.125V36.25c0.002-1.725,1.4-3.123,3.125-3.125h100
		c1.725,0.002,3.123,1.4,3.125,3.125v21.875c-0.002,1.725-1.4,3.123-3.125,3.125h-100C42.025,61.248,40.627,59.85,40.625,58.125z
		 M53.125,67.5h81.25v15.625h-81.25V67.5z M153.125,211.25c-0.002,1.725-1.4,3.123-3.125,3.125H37.5
		c-1.725-0.002-3.123-1.4-3.125-3.125V92.5c0.002-1.725,1.4-3.123,3.125-3.125H150c1.725,0.002,3.123,1.4,3.125,3.125V211.25z"/>
	<path fill="#F38230" d="M93.75,111.25c-22.437,0-40.625,18.188-40.625,40.625S71.313,192.5,93.75,192.5
		s40.625-18.188,40.625-40.625C134.35,129.449,116.176,111.275,93.75,111.25z M93.75,186.25c-18.985,0-34.375-15.39-34.375-34.375
		S74.765,117.5,93.75,117.5s34.375,15.39,34.375,34.375C128.104,170.851,112.726,186.229,93.75,186.25z"/>
	<path fill="#F38230" d="M103.857,164.755c-2.397,2.845-5.968,4.43-9.686,4.298c-8.862-0.001-16.046-7.187-16.044-16.049
		c0.001-8.862,7.187-16.046,16.049-16.044c3.194,0,6.315,0.954,8.964,2.739c1.434,0.961,3.375,0.579,4.337-0.855
		c0.956-1.426,0.583-3.357-0.836-4.324c-10.21-6.886-24.068-4.191-30.954,6.018c-6.886,10.21-4.191,24.068,6.018,30.954
		c3.683,2.484,8.024,3.811,12.466,3.812c5.563,0.127,10.884-2.273,14.471-6.526c1.111-1.321,0.94-3.293-0.381-4.404
		C106.94,163.263,104.968,163.434,103.857,164.755L103.857,164.755z"/>
	<path fill="#F38230" d="M196.875,120.625c-13.801,0.016-24.984,11.199-25,25v50c0,13.807,11.193,25,25,25s25-11.193,25-25v-50
		C221.859,131.824,210.676,120.641,196.875,120.625z M196.875,126.875c10.351,0.011,18.739,8.399,18.75,18.75V167.5h-37.5v-21.875
		C178.136,135.274,186.524,126.886,196.875,126.875z M196.875,214.375c-10.351-0.011-18.739-8.399-18.75-18.75V173.75h37.5v21.875
		C215.614,205.976,207.226,214.364,196.875,214.375z"/>
</g>
</svg>
