<?xml version="1.0" encoding="utf-8"?>
<!-- Generator: Adobe Illustrator 16.0.0, SVG Export Plug-In . SVG Version: 6.00 Build 0)  -->
<!DOCTYPE svg PUBLIC "-//W3C//DTD SVG 1.1//EN" "http://www.w3.org/Graphics/SVG/1.1/DTD/svg11.dtd">
<svg version="1.1" id="Layer_1" xmlns="http://www.w3.org/2000/svg" xmlns:xlink="http://www.w3.org/1999/xlink" x="0px" y="0px"
	 width="500px" height="500px" viewBox="350 0 500 500" enable-background="new 350 0 500 500" xml:space="preserve">
<g>
	<g>
		<path fill="#F38230" d="M798.22,125.55c-7.459-16.641-20.521-28.337-38.823-34.766c-75.223-26.417-218.86,45.975-227.157,50.213
			c-30.558,10.778-52.926,44.413-52.926,84.185c0,48.435,33.152,87.838,73.903,87.838c8.217,0,16.098-1.669,23.488-4.624
			c38.065-12.836,190.491-67.88,220.905-135.703C804.821,156.602,805.029,140.74,798.22,125.55z M497.057,225.181
			c0-38.652,25.195-70.098,56.16-70.098c30.969,0,56.164,31.446,56.164,70.098c0,30.702-15.923,56.795-37.986,66.254
			c-3.921,1.334-6.603,2.21-7.764,2.584c-3.379,0.795-6.853,1.257-10.414,1.257C522.252,295.276,497.057,263.83,497.057,225.181z
			 M661.685,255.219c-17.006,7.96-33.633,14.94-48.259,20.722c8.591-14.352,13.698-31.844,13.698-50.759
			c0-22.793-7.404-43.519-19.426-59.147c14.733-9.123,54.561-28.713,136.264-38.388c3.647-0.433,6.256-3.74,5.822-7.39
			c-0.434-3.647-3.695-6.26-7.391-5.827C654.875,124.795,613.545,146.195,598.602,156c-7.118-6.611-15.248-11.738-24.102-14.911
			c47.084-20.128,131.178-50.373,179.023-33.563c13.715,4.819,23.042,13.089,28.505,25.281c0.595,1.327,1.109,2.657,1.548,3.99
			c-15.694,11.13-65.729,42.773-141.051,53.926c-3.635,0.539-6.146,3.922-5.605,7.557c0.489,3.305,3.327,5.679,6.571,5.679
			c0.325,0,0.654-0.024,0.983-0.072c70.802-10.483,119.383-37.792,140.706-51.979c-0.464,4.41-1.688,8.9-3.759,13.518
			C768.888,193.375,727.487,224.425,661.685,255.219z"/>
		<path fill="#F38230" d="M548.783,185.479c-3.802,0-6.885,5.787-6.885,12.926s3.083,12.926,6.885,12.926
			c3.804,0,6.887-5.788,6.887-12.926S552.586,185.479,548.783,185.479z"/>
		<path fill="#F38230" d="M575.093,213.922c5.511-4.538,8.02-10.596,5.603-13.532c-2.417-2.936-8.845-1.637-14.356,2.899
			c-5.512,4.537-8.021,10.595-5.604,13.532C563.154,219.757,569.581,218.459,575.093,213.922z"/>
		<path fill="#F38230" d="M530.208,206.014c-5.513-4.537-11.939-5.835-14.356-2.899c-2.417,2.936,0.091,8.994,5.604,13.532
			c5.511,4.537,11.939,5.834,14.355,2.898C538.227,216.609,535.719,210.551,530.208,206.014z"/>
		<path fill="#F38230" d="M548.783,238.111c-3.802,0-6.885,5.785-6.885,12.925c0,7.139,3.083,12.926,6.885,12.926
			c3.804,0,6.887-5.787,6.887-12.926C555.67,243.896,552.586,238.111,548.783,238.111z"/>
		<path fill="#F38230" d="M566.34,246.151c5.511,4.538,11.939,5.835,14.356,2.898c2.417-2.935-0.092-8.993-5.603-13.531
			c-5.513-4.538-11.939-5.834-14.356-2.898C558.32,235.556,560.828,241.614,566.34,246.151z"/>
		<path fill="#F38230" d="M521.455,232.794c-5.512,4.538-8.021,10.596-5.604,13.531c2.417,2.937,8.844,1.64,14.356-2.898
			c5.511-4.538,8.02-10.596,5.602-13.532C533.394,226.959,526.966,228.257,521.455,232.794z"/>
		<path fill="#F38230" d="M493.204,361.659c-3.802,0-6.886,2.515-6.886,5.614c0,3.102,3.083,5.616,6.886,5.616
			c3.804,0,6.887-2.515,6.887-5.616C500.09,364.174,497.007,361.659,493.204,361.659z"/>
		<path fill="#F38230" d="M525.117,368.138c-2.417-1.276-8.845-0.713-14.356,1.259c-5.512,1.971-8.021,4.603-5.604,5.878
			c2.417,1.275,8.844,0.711,14.356-1.261C525.025,372.043,527.533,369.411,525.117,368.138z"/>
		<path fill="#F38230" d="M474.628,370.579c-5.513-1.97-11.939-2.534-14.356-1.259c-2.417,1.275,0.091,3.907,5.604,5.878
			c5.511,1.972,11.939,2.534,14.355,1.259C482.648,375.182,480.14,372.55,474.628,370.579z"/>
		<ellipse fill="#F38230" cx="493.204" cy="390.137" rx="6.887" ry="5.615"/>
		<path fill="#F38230" d="M519.514,383.396c-5.512-1.971-11.938-2.536-14.356-1.26c-2.417,1.275,0.091,3.907,5.604,5.878
			c5.511,1.972,11.939,2.534,14.356,1.259C527.533,388,525.025,385.368,519.514,383.396z"/>
		<path fill="#F38230" d="M480.23,380.954c-2.416-1.276-8.844-0.713-14.355,1.258c-5.512,1.972-8.021,4.603-5.604,5.879
			c2.417,1.275,8.844,0.71,14.356-1.259C480.14,384.861,482.648,382.229,480.23,380.954z"/>
		<path fill="#F38230" d="M662.638,339.362c-34.643-26.245-71.569-31.747-85.94-12.778c-2.817,3.718-4.449,8.067-5.087,12.77
			c1.152-0.485,2.361-0.886,3.599-1.245c-1.238,0.364-2.444,0.769-3.591,1.259c-0.092,0.71-0.094,1.453-0.137,2.181
			c0.041-0.732,0.041-1.478,0.13-2.194c-4.356,1.889-8.101,4.636-10.917,8.354c-1.789,2.361-3.117,4.958-4.007,7.743
			c-13.338-11.293-36.504-18.476-63.966-18.476c-43.463,0-76.218,17.915-76.218,41.715c0,4.663,1.325,9.116,3.657,13.249
			c0.626-1.081,1.346-2.131,2.116-3.164c-0.767,1.035-1.484,2.088-2.103,3.171c0.355,0.621,0.802,1.213,1.208,1.819
			c-0.41-0.606-0.86-1.202-1.221-1.826c-2.333,4.135-3.657,8.586-3.657,13.252c0,23.797,32.755,41.767,76.218,41.767
			c43.41,0,76.165-17.97,76.165-41.767c0-2.438-0.379-4.813-1.058-7.12c6.913,9.957,16.474,19.921,28.396,28.953
			c34.601,26.215,71.56,31.673,85.931,12.703c2.816-3.717,4.449-8.066,5.087-12.769c-0.664,0.279-1.382,0.481-2.076,0.717
			c0.688-0.238,1.403-0.439,2.062-0.721c0.161-1.237,0.226-2.509,0.24-3.797c-0.012,1.286-0.07,2.56-0.226,3.801
			c4.355-1.887,8.1-4.637,10.918-8.354C712.528,399.636,697.238,365.575,662.638,339.362z M552.985,405.191
			c0,12.189-25.759,25.863-60.264,25.863c-34.558,0-60.317-13.674-60.317-25.863c0-0.106,0.053-0.265,0.053-0.371
			c-0.613-0.438-1.153-0.902-1.735-1.352c0.581,0.444,1.121,0.906,1.732,1.337c13.71,9.63,35.171,15.63,60.241,15.63
			c25.069,0,46.53-6,60.239-15.63c0.612-0.431,1.152-0.893,1.734-1.337c-0.583,0.449-1.124,0.914-1.736,1.352
			C552.932,404.927,552.985,405.085,552.985,405.191z M552.934,379.087c-0.194,4.352-3.62,8.86-9.536,12.859
			c-10.522,7.11-28.85,12.589-50.704,12.589c-21.855,0-40.183-5.479-50.705-12.589c-5.917-3.999-9.341-8.508-9.536-12.859
			c-1.138,0.799-2.194,1.635-3.223,2.484c1.03-0.855,2.087-1.698,3.225-2.511c0-0.106-0.053-0.212-0.053-0.37
			c0-12.192,25.759-25.813,60.317-25.813c34.505,0,60.264,13.62,60.264,25.813c0,0.158-0.053,0.264-0.053,0.37
			c1.139,0.813,2.195,1.655,3.226,2.511C555.128,380.722,554.072,379.886,552.934,379.087z M564.008,393.766
			c0.174-0.26,0.341-0.524,0.52-0.784c0.001,0.002,0.002,0.002,0.002,0.004C564.35,393.243,564.183,393.506,564.008,393.766z
			 M669.661,429.799c-0.064,0.085-0.118,0.242-0.182,0.327c-7.361,9.717-36.151,5.062-63.654-15.775
			c-27.546-20.869-39.819-47.324-32.457-57.041c0.063-0.084,0.202-0.18,0.265-0.264c-0.224-0.717-0.375-1.415-0.568-2.125
			c0.195,0.706,0.347,1.399,0.575,2.111c5.113,15.955,18.595,33.696,38.577,48.837c19.982,15.138,40.712,23.316,57.454,23.919
			c0.747,0.028,1.457-0.016,2.188-0.018C671.125,429.777,670.414,429.82,669.661,429.799z M685.482,409.003
			c-0.095,0.126-0.201,0.18-0.267,0.265c0.418,1.334,0.751,2.645,1.057,3.948c-0.309-1.297-0.645-2.604-1.069-3.927
			c-2.783,3.351-8.236,4.878-15.366,4.49c-12.682-0.685-30.597-7.389-48.018-20.586c-17.418-13.197-28.72-28.63-32.812-40.65
			c-2.302-6.761-2.309-12.423,0.165-16.01c-1.391-0.049-2.738-0.021-4.07,0.035c1.337-0.061,2.69-0.096,4.087-0.054
			c0.063-0.085,0.085-0.202,0.182-0.327c7.362-9.717,36.12-5.019,63.665,15.849C680.539,372.872,692.845,399.286,685.482,409.003z"
			/>
		<path fill="#F38230" d="M650.216,367.962c1.873-2.471,0.934-6.338-2.098-8.634s-7.007-2.154-8.879,0.316
			c-1.873,2.474-0.934,6.338,2.098,8.634C644.368,370.576,648.344,370.434,650.216,367.962z"/>
		<path fill="#F38230" d="M649.423,377.399c1.157,2.476,6.621,5.906,12.205,7.665c5.582,1.757,9.172,1.174,8.015-1.302
			c-1.156-2.476-6.619-5.908-12.203-7.665C651.855,374.339,648.268,374.924,649.423,377.399z"/>
		<path fill="#F38230" d="M628.841,363.29c2.697,0.442,2.286-3.171-0.917-8.07c-3.202-4.897-7.985-9.229-10.682-9.671
			c-2.696-0.444-2.286,3.169,0.916,8.068S626.145,362.846,628.841,363.29z"/>
		
			<ellipse transform="matrix(-0.7971 -0.6038 0.6038 -0.7971 903.1693 1067.5103)" fill="#F38230" cx="630.921" cy="382.027" rx="6.886" ry="5.615"/>
		<path fill="#F38230" d="M645.279,382.868c-2.696-0.441-2.286,3.171,0.917,8.068c3.203,4.899,7.985,9.231,10.683,9.674
			c2.696,0.443,2.286-3.169-0.917-8.068S647.977,383.313,645.279,382.868z"/>
		<path fill="#F38230" d="M626.126,366.873c-1.156-2.477-6.62-5.909-12.203-7.666c-5.584-1.757-9.172-1.174-8.017,1.302
			c1.157,2.476,6.62,5.909,12.203,7.666C623.693,369.931,627.282,369.349,626.126,366.873z"/>
	</g>
</g>
</svg>
