<?xml version="1.0" encoding="utf-8"?>
<!-- Generator: Adobe Illustrator 16.0.0, SVG Export Plug-In . SVG Version: 6.00 Build 0)  -->
<!DOCTYPE svg PUBLIC "-//W3C//DTD SVG 1.1//EN" "http://www.w3.org/Graphics/SVG/1.1/DTD/svg11.dtd">
<svg version="1.1" id="Layer_1" xmlns="http://www.w3.org/2000/svg" xmlns:xlink="http://www.w3.org/1999/xlink" x="0px" y="0px"
	 width="500px" height="500px" viewBox="0 0 500 500" enable-background="new 0 0 500 500" xml:space="preserve">
<g>
	<path fill="#F38230" stroke="#F38230" stroke-miterlimit="10" d="M398.469,91.837c5.264,7.018,10.527,14.035,15.789,21.931
		c5.264,7.895,10.527,15.789,14.912,23.685l-3.508,1.754l0,0l2.631-1.754l0,0l0,0l0,0c24.563,42.982,38.598,85.965,42.105,121.93
		c3.51,36.842-5.263,64.912-25.438,77.192c-1.755,0.877-4.387,1.755-6.141,2.632s-4.387,1.754-7.018,1.754l0,0
		c-1.754,0-4.387-0.877-4.387-2.631l0,0l0,0l0,0c-2.631-16.667-12.28-26.316-24.561-32.457
		c-13.158-6.141-28.947-8.771-42.982-10.525c-4.387-0.878-9.649-0.878-14.035-1.755c-4.387-0.878-8.771-0.878-13.158-1.755
		l0.877-3.509l-0.877,3.509c-0.877,0-1.754-0.877-1.754-0.877c-8.772-9.649-17.545-20.176-26.316-31.579
		s-16.666-23.685-23.684-35.965l3.508-1.755l-3.508,1.755l0,0c-4.387-7.895-8.772-16.667-13.158-24.562
		c-4.387-8.771-7.895-16.666-11.404-24.562l3.51-1.754l-3.51,1.754c-0.877-1.754,0-4.386,1.756-4.386h0.877
		c1.754,0,3.508,0,3.508,1.755c3.51,4.386,13.158,5.263,25.439,2.631c14.035-2.631,31.578-9.649,49.123-20.175l0,0l0,0l0,0l0,0
		c17.543-10.526,32.455-21.93,42.104-32.457c8.772-9.648,13.157-18.42,10.526-23.684l0,0c-0.877-1.755,0-2.632,0.877-4.386
		C394.083,90.083,396.715,90.083,398.469,91.837L398.469,91.837z M408.117,118.153c-3.508-4.386-6.141-8.771-9.648-13.158
		c-1.754,6.141-6.141,12.281-12.281,19.299c-9.648,11.403-25.438,23.684-43.859,34.21l0,0l-1.754-3.509l1.754,3.509
		c-18.421,10.526-36.842,17.544-51.754,21.053c-8.771,1.755-16.666,1.755-22.807,0.878c1.754,5.263,4.385,9.648,7.018,14.912
		c3.508,7.895,7.895,15.789,12.279,23.684l0,0l0,0c7.018,13.158,14.913,24.562,23.686,35.965
		c7.895,11.404,16.666,21.053,25.438,29.825c3.51,0.877,7.018,0.877,11.404,1.755c4.385,0.877,8.771,0.877,13.158,1.754
		c14.912,1.755,31.578,4.386,45.613,11.403c13.158,7.018,23.684,16.667,28.07,34.211c0.877,0,0.877,0,1.754-0.878
		c1.754-0.877,3.51-1.754,5.264-2.631c18.421-10.526,25.438-36.843,21.93-70.176c-3.509-34.211-17.544-77.193-41.229-118.421l0,0
		l0,0l0,0C417.768,133.065,413.381,125.171,408.117,118.153z"/>
	<path fill="#F38230" stroke="#F38230" stroke-miterlimit="10" d="M315.135,110.259L315.135,110.259L315.135,110.259
		L315.135,110.259L315.135,110.259L315.135,110.259L315.135,110.259c-18.42,10.526-33.332,22.807-42.981,33.333
		c-8.772,9.649-12.28,18.421-9.649,23.685c0.877,1.754,0,4.386-1.754,5.263c-1.755,0.878-4.387,0-5.264-1.754
		c-4.387-7.896,0-19.299,10.526-31.579c9.649-11.403,25.438-23.685,44.737-35.088l0,0l0,0l0,0l0,0l0,0l0,0l0,0
		c19.299-10.526,37.719-18.421,52.631-21.053c15.789-3.509,28.07-0.877,33.334,7.018c0.877,1.754,0,4.386-1.755,5.264
		c-1.755,0.877-4.386,0-5.263-1.755c-2.633-5.263-12.281-6.141-25.439-3.509S333.557,99.732,315.135,110.259z"/>
	<path fill="#F38230" stroke="#F38230" stroke-miterlimit="10" d="M330.047,218.153c-0.877-1.755-3.508-2.632-5.262-1.755
		c-1.756,0.878-2.633,3.509-1.756,5.264c0,0,19.299,37.719,46.492,72.807c0.877,1.755,3.508,1.755,5.264,0.878
		c1.754-0.878,1.754-3.51,0.877-5.264C348.469,254.995,330.047,218.153,330.047,218.153z"/>
	<path fill="#F38230" stroke="#F38230" stroke-miterlimit="10" d="M376.539,125.171c-1.754-1.754-3.509-0.877-5.264,0
		c-1.754,1.755-0.877,3.509,0,5.264c0,0,23.686,20.175,52.633,103.508c0.877,1.755,2.631,2.632,4.385,2.632
		c1.755,0,2.633-2.632,2.633-4.386C401.978,147.101,376.539,125.171,376.539,125.171z"/>
	<path fill="#F38230" stroke="#F38230" stroke-width="0.1" stroke-miterlimit="10" d="M326.539,147.101
		c-2.631,1.755-5.264,2.632-8.771,2.632c-2.633,0-6.141,0-9.65-0.878c-3.508-0.877-6.14-2.631-8.771-4.386
		c-2.631-1.754-4.386-4.386-6.141-7.017l3.51-1.755l-3.51,1.755c-0.877-1.755,0-3.51,1.755-4.387
		c2.632-1.754,5.263-2.631,8.772-2.631c2.631,0,6.141,0,9.648,0.877c3.51,0.877,6.141,2.631,8.771,4.386
		c2.633,1.755,4.387,4.386,6.141,7.018l-3.508,1.755l3.508-1.755C328.293,143.592,328.293,146.224,326.539,147.101z
		 M316.891,142.715c0.877,0,0.877,0,1.754,0c0,0-0.877-0.877-1.754-0.877c-1.756-0.878-3.51-2.632-6.141-2.632
		c-2.633-0.877-5.264-0.877-7.018-0.877c-0.877,0-0.877,0-1.755,0c0,0,0.878,0.877,1.755,0.877c1.754,0.877,3.508,2.632,6.141,2.632
		C312.504,142.715,314.258,142.715,316.891,142.715z"/>
	<path fill="#F38230" stroke="#F38230" stroke-width="0.11" stroke-miterlimit="10" d="M349.346,132.188
		c-2.631,1.754-5.264,2.631-8.771,2.631c-2.631,0-6.141,0-9.648-0.877c-3.51-0.877-6.141-2.631-8.773-4.386
		c-2.631-1.755-4.385-4.386-6.14-7.018l3.509-1.755l-3.509,1.755c-0.878-1.755,0-3.509,1.755-4.386
		c2.631-1.755,5.263-2.632,8.771-2.632c2.631,0,6.141,0,9.648,0.878c3.51,0.877,6.141,2.631,8.773,4.386
		c2.631,1.755,4.385,4.386,6.14,7.018l-3.509,1.754l3.509-1.754C351.978,128.68,351.1,130.434,349.346,132.188z M340.574,127.803
		c0.877,0,0.877,0,1.754,0c0,0-0.877-0.878-1.754-0.878c-1.754-0.877-3.509-2.631-6.141-2.631c-2.631-0.877-5.264-0.877-7.018-0.877
		c-0.877,0-0.877,0-1.754,0c0,0,0.877,0.877,1.754,0.877c1.754,0.877,3.51,2.631,6.141,2.631
		C336.188,127.803,337.942,127.803,340.574,127.803z"/>
	<path fill="#F38230" stroke="#F38230" stroke-miterlimit="10" d="M143.206,198.855c35.965,11.403,60.526,26.315,84.211,40.351
		c34.21,21.053,67.544,40.351,133.333,47.368c14.912,1.755,31.578,4.386,45.613,11.403s25.439,18.422,28.947,37.72
		c0,0.877,0,0.877,0,1.754c2.633,17.544-3.508,34.211-14.035,45.614c-10.525,12.281-26.314,20.176-43.859,23.685
		c-0.877,0-0.877,0-1.754,0c-29.824,4.386-66.666,0.877-102.631-7.018c-37.72-8.771-75.439-22.807-103.509-39.474
		c-4.386-2.631-7.895-4.386-11.403-7.018c-16.667-10.526-29.825-18.421-50-26.315c-18.421-7.018-31.579-18.421-39.474-31.579
		c-7.895-13.158-9.649-29.824-6.14-49.123v-0.877c4.386-17.544,15.789-31.579,30.701-39.474
		C107.241,197.101,124.785,194.47,143.206,198.855l-1.754,3.509L143.206,198.855C142.329,198.855,143.206,198.855,143.206,198.855z
		 M223.03,245.347c-22.807-14.035-47.369-28.07-82.456-39.475l0,0l0,0c-15.79-4.386-31.579-1.754-44.737,6.141
		s-22.807,20.176-27.193,35.088c-3.509,17.544-1.754,32.456,5.264,43.859c7.018,12.281,19.298,21.93,35.965,28.947
		c21.053,8.772,34.21,16.667,51.754,27.193c3.508,2.632,7.017,4.386,10.526,7.018c27.193,16.666,64.035,30.701,100.878,38.597
		c35.087,7.895,71.053,11.403,99.999,7.017c0.878,0,0.878,0,1.755,0c15.789-2.631,29.824-10.525,39.473-21.052
		c9.65-10.526,14.913-24.562,12.281-40.352v-0.877c-2.631-16.667-12.281-26.315-24.561-32.456
		c-13.158-6.141-28.947-8.771-42.982-10.526C291.451,286.574,258.118,266.399,223.03,245.347z M61.626,245.347L61.626,245.347"/>
	<path fill="#F38230" stroke="#F38230" stroke-miterlimit="10" d="M21.276,232.188c-1.754,0.877-2.631,3.509-1.754,5.264
		c0.877,1.754,3.509,2.631,5.263,1.754c0,0,30.702-16.666,40.351,2.632c0.878,1.754,3.509,2.631,5.264,1.754
		c1.754-0.877,2.631-3.509,1.754-5.263C58.118,212.013,21.276,232.188,21.276,232.188z"/>
	<path fill="#F38230" stroke="#F38230" stroke-miterlimit="10" d="M113.381,236.574c-1.755,0-3.509,1.755-3.509,3.509
		c0,1.755,1.754,3.509,3.509,3.509c0,0,44.737,1.755,75.438,25.438c33.333,25.438,52.632,14.035,52.632,14.035
		c1.754-0.877,2.631-3.509,1.754-5.264c-0.877-1.754-3.509-2.631-5.263-1.754c0,0-14.913,8.771-43.86-13.158
		C160.75,238.329,113.381,236.574,113.381,236.574z"/>
	<path fill="#F38230" stroke="#F38230" stroke-miterlimit="10" d="M252.855,366.399c-1.756-0.878-4.386,0-5.264,1.754
		c-0.877,1.755,0,4.387,1.755,5.264c16.667,7.018,43.859,11.403,71.929,13.158c40.352,2.631,82.457,0.877,96.492-1.755
		c1.754,0,3.508-2.632,2.631-4.386c0-1.755-2.631-3.509-4.385-2.632c-14.035,2.632-55.264,4.386-94.738,1.755
		C294.082,376.925,268.645,373.417,252.855,366.399z"/>
</g>
</svg>
