<?xml version="1.0" encoding="utf-8"?>
<!-- Generator: Adobe Illustrator 19.1.0, SVG Export Plug-In . SVG Version: 6.00 Build 0)  -->
<svg version="1.1" id="Layer_1" xmlns="http://www.w3.org/2000/svg" xmlns:xlink="http://www.w3.org/1999/xlink" x="0px" y="0px"
	 viewBox="-302 392.5 54.5 57" style="enable-background:new -302 392.5 54.5 57;" xml:space="preserve">
<style type="text/css">
	.st0{fill:#E44C2A;stroke:#E44C2A;stroke-miterlimit:10;}
	.st1{fill:#E44C2A;stroke:#E44C2A;stroke-width:0.1;stroke-miterlimit:10;}
	.st2{fill:#E44C2A;stroke:#E44C2A;stroke-width:0.11;stroke-miterlimit:10;}
</style>
<g>
	<path class="st0" d="M-257.8,400.9c0.6,0.8,1.2,1.6,1.8,2.5c0.6,0.9,1.2,1.8,1.7,2.7l-0.4,0.2l0,0l0.3-0.2l0,0l0,0c0,0,0,0,0,0
		c2.8,4.9,4.4,9.8,4.8,13.9c0.4,4.2-0.6,7.4-2.9,8.8c-0.2,0.1-0.5,0.2-0.7,0.3c-0.2,0.1-0.5,0.2-0.8,0.2l0,0c-0.2,0-0.5-0.1-0.5-0.3
		c0,0,0,0,0,0h0l0,0c-0.3-1.9-1.4-3-2.8-3.7c-1.5-0.7-3.3-1-4.9-1.2c-0.5-0.1-1.1-0.1-1.6-0.2c-0.5-0.1-1-0.1-1.5-0.2l0.1-0.4
		l-0.1,0.4c-0.1,0-0.2-0.1-0.2-0.1c-1-1.1-2-2.3-3-3.6c-1-1.3-1.9-2.7-2.7-4.1l0.4-0.2l-0.4,0.2c0,0,0,0,0,0c-0.5-0.9-1-1.9-1.5-2.8
		c-0.5-1-0.9-1.9-1.3-2.8l0.4-0.2l-0.4,0.2c-0.1-0.2,0-0.5,0.2-0.5c0,0,0.1,0,0.1,0c0.2,0,0.4,0,0.4,0.2c0.4,0.5,1.5,0.6,2.9,0.3
		c1.6-0.3,3.6-1.1,5.6-2.3l0,0l0,0l0,0c0,0,0,0,0,0c2-1.2,3.7-2.5,4.8-3.7c1-1.1,1.5-2.1,1.2-2.7l0,0c-0.1-0.2,0-0.3,0.1-0.5
		C-258.3,400.7-258,400.7-257.8,400.9C-257.8,400.9-257.8,400.9-257.8,400.9z M-256.7,403.9c-0.4-0.5-0.7-1-1.1-1.5
		c-0.2,0.7-0.7,1.4-1.4,2.2c-1.1,1.3-2.9,2.7-5,3.9c0,0,0,0,0,0l-0.2-0.4l0.2,0.4c-2.1,1.2-4.2,2-5.9,2.4c-1,0.2-1.9,0.2-2.6,0.1
		c0.2,0.6,0.5,1.1,0.8,1.7c0.4,0.9,0.9,1.8,1.4,2.7c0,0,0,0,0,0l0,0c0.8,1.5,1.7,2.8,2.7,4.1c0.9,1.3,1.9,2.4,2.9,3.4
		c0.4,0.1,0.8,0.1,1.3,0.2c0.5,0.1,1,0.1,1.5,0.2c1.7,0.2,3.6,0.5,5.2,1.3c1.5,0.8,2.7,1.9,3.2,3.9c0.1,0,0.1,0,0.2-0.1
		c0.2-0.1,0.4-0.2,0.6-0.3c2.1-1.2,2.9-4.2,2.5-8c-0.4-3.9-2-8.8-4.7-13.5l0,0l0,0c0,0,0,0,0,0
		C-255.6,405.6-256.1,404.7-256.7,403.9z"/>
	<path class="st0" d="M-267.3,403L-267.3,403L-267.3,403L-267.3,403L-267.3,403C-267.3,403-267.3,403-267.3,403L-267.3,403
		c-2.1,1.2-3.8,2.6-4.9,3.8c-1,1.1-1.4,2.1-1.1,2.7c0.1,0.2,0,0.5-0.2,0.6c-0.2,0.1-0.5,0-0.6-0.2c-0.5-0.9,0-2.2,1.2-3.6
		c1.1-1.3,2.9-2.7,5.1-4l0,0l0,0c0,0,0,0,0,0l0,0l0,0l0,0c0,0,0,0,0,0c2.2-1.2,4.3-2.1,6-2.4c1.8-0.4,3.2-0.1,3.8,0.8
		c0.1,0.2,0,0.5-0.2,0.6c-0.2,0.1-0.5,0-0.6-0.2c-0.3-0.6-1.4-0.7-2.9-0.4C-263.2,401-265.2,401.8-267.3,403z"/>
	<path class="st0" d="M-265.6,415.3c-0.1-0.2-0.4-0.3-0.6-0.2c-0.2,0.1-0.3,0.4-0.2,0.6c0,0,2.2,4.3,5.3,8.3
		c0.1,0.2,0.4,0.2,0.6,0.1c0.2-0.1,0.2-0.4,0.1-0.6C-263.5,419.5-265.6,415.3-265.6,415.3z"/>
	<path class="st0" d="M-260.3,404.7c-0.2-0.2-0.4-0.1-0.6,0c-0.2,0.2-0.1,0.4,0,0.6c0,0,2.7,2.3,6,11.8c0.1,0.2,0.3,0.3,0.5,0.3
		s0.3-0.3,0.3-0.5C-257.4,407.2-260.3,404.7-260.3,404.7z"/>
	<path class="st1" d="M-266,407.2c-0.3,0.2-0.6,0.3-1,0.3c-0.3,0-0.7,0-1.1-0.1c-0.4-0.1-0.7-0.3-1-0.5c-0.3-0.2-0.5-0.5-0.7-0.8
		l0.4-0.2l-0.4,0.2c-0.1-0.2,0-0.4,0.2-0.5c0.3-0.2,0.6-0.3,1-0.3c0.3,0,0.7,0,1.1,0.1c0.4,0.1,0.7,0.3,1,0.5
		c0.3,0.2,0.5,0.5,0.7,0.8l-0.4,0.2l0.4-0.2C-265.8,406.8-265.8,407.1-266,407.2z M-267.1,406.7c0.1,0,0.1,0,0.2,0
		c0,0-0.1-0.1-0.2-0.1c-0.2-0.1-0.4-0.3-0.7-0.3c-0.3-0.1-0.6-0.1-0.8-0.1c-0.1,0-0.1,0-0.2,0c0,0,0.1,0.1,0.2,0.1
		c0.2,0.1,0.4,0.3,0.7,0.3C-267.6,406.7-267.4,406.7-267.1,406.7z"/>
	<path class="st2" d="M-263.4,405.5c-0.3,0.2-0.6,0.3-1,0.3c-0.3,0-0.7,0-1.1-0.1c-0.4-0.1-0.7-0.3-1-0.5c-0.3-0.2-0.5-0.5-0.7-0.8
		l0.4-0.2l-0.4,0.2c-0.1-0.2,0-0.4,0.2-0.5c0.3-0.2,0.6-0.3,1-0.3c0.3,0,0.7,0,1.1,0.1c0.4,0.1,0.7,0.3,1,0.5
		c0.3,0.2,0.5,0.5,0.7,0.8l-0.4,0.2l0.4-0.2C-263.1,405.1-263.2,405.3-263.4,405.5z M-264.4,405c0.1,0,0.1,0,0.2,0
		c0,0-0.1-0.1-0.2-0.1c-0.2-0.1-0.4-0.3-0.7-0.3c-0.3-0.1-0.6-0.1-0.8-0.1c-0.1,0-0.1,0-0.2,0c0,0,0.1,0.1,0.2,0.1
		c0.2,0.1,0.4,0.3,0.7,0.3C-264.9,405-264.7,405-264.4,405z"/>
	<path class="st0" d="M-286.9,413.1c4.1,1.3,6.9,3,9.6,4.6c3.9,2.4,7.7,4.6,15.2,5.4c1.7,0.2,3.6,0.5,5.2,1.3
		c1.6,0.8,2.9,2.1,3.3,4.3c0,0.1,0,0.1,0,0.2c0.3,2-0.4,3.9-1.6,5.2c-1.2,1.4-3,2.3-5,2.7c-0.1,0-0.1,0-0.2,0
		c-3.4,0.5-7.6,0.1-11.7-0.8c-4.3-1-8.6-2.6-11.8-4.5c-0.5-0.3-0.9-0.5-1.3-0.8c-1.9-1.2-3.4-2.1-5.7-3c-2.1-0.8-3.6-2.1-4.5-3.6
		c-0.9-1.5-1.1-3.4-0.7-5.6c0,0,0-0.1,0-0.1c0.5-2,1.8-3.6,3.5-4.5C-291,412.9-289,412.6-286.9,413.1l-0.2,0.4L-286.9,413.1
		C-287,413.1-286.9,413.1-286.9,413.1z M-277.8,418.4c-2.6-1.6-5.4-3.2-9.4-4.5c0,0,0,0,0,0l0,0c-1.8-0.5-3.6-0.2-5.1,0.7
		c-1.5,0.9-2.6,2.3-3.1,4c-0.4,2-0.2,3.7,0.6,5c0.8,1.4,2.2,2.5,4.1,3.3c2.4,1,3.9,1.9,5.9,3.1c0.4,0.3,0.8,0.5,1.2,0.8
		c3.1,1.9,7.3,3.5,11.5,4.4c4,0.9,8.1,1.3,11.4,0.8c0.1,0,0.1,0,0.2,0c1.8-0.3,3.4-1.2,4.5-2.4c1.1-1.2,1.7-2.8,1.4-4.6
		c0,0,0-0.1,0-0.1c-0.3-1.9-1.4-3-2.8-3.7c-1.5-0.7-3.3-1-4.9-1.2C-270,423.1-273.8,420.8-277.8,418.4z M-296.2,418.4
		C-296.2,418.4-296.2,418.4-296.2,418.4"/>
	<path class="st0" d="M-300.8,416.9c-0.2,0.1-0.3,0.4-0.2,0.6c0.1,0.2,0.4,0.3,0.6,0.2c0,0,3.5-1.9,4.6,0.3c0.1,0.2,0.4,0.3,0.6,0.2
		c0.2-0.1,0.3-0.4,0.2-0.6C-296.6,414.6-300.8,416.9-300.8,416.9z"/>
	<path class="st0" d="M-290.3,417.4c-0.2,0-0.4,0.2-0.4,0.4c0,0.2,0.2,0.4,0.4,0.4c0,0,5.1,0.2,8.6,2.9c3.8,2.9,6,1.6,6,1.6
		c0.2-0.1,0.3-0.4,0.2-0.6c-0.1-0.2-0.4-0.3-0.6-0.2c0,0-1.7,1-5-1.5C-284.9,417.6-290.3,417.4-290.3,417.4z"/>
	<path class="st0" d="M-274.4,432.2c-0.2-0.1-0.5,0-0.6,0.2c-0.1,0.2,0,0.5,0.2,0.6c1.9,0.8,5,1.3,8.2,1.5c4.6,0.3,9.4,0.1,11-0.2
		c0.2,0,0.4-0.3,0.3-0.5c0-0.2-0.3-0.4-0.5-0.3c-1.6,0.3-6.3,0.5-10.8,0.2C-269.7,433.4-272.6,433-274.4,432.2z"/>
</g>
</svg>
