<?xml version="1.0" encoding="utf-8"?>
<!-- Generator: Adobe Illustrator 16.0.0, SVG Export Plug-In . SVG Version: 6.00 Build 0)  -->
<!DOCTYPE svg PUBLIC "-//W3C//DTD SVG 1.1//EN" "http://www.w3.org/Graphics/SVG/1.1/DTD/svg11.dtd">
<svg version="1.1" id="Layer_1" xmlns="http://www.w3.org/2000/svg" xmlns:xlink="http://www.w3.org/1999/xlink" x="0px" y="0px"
	 width="400px" height="400px" viewBox="400 50 400 400" enable-background="new 400 50 400 400" xml:space="preserve">
<g>
	<path fill="#F38230" d="M532.344,225.831l18.679,28.017l16.81-21.791c0.312-0.311,0.624-0.624,0.934-0.934l-15.565-19.924
		c15.565-17.122,18.368-41.715,0-67.242c-22.103-29.885-68.176-47.007-88.101-32.376c-20.235,14.631-18.055,63.507,3.425,93.393
		C486.892,230.189,511.174,235.17,532.344,225.831z"/>
	<path fill="#F38230" d="M635.076,296.81l-34.867,50.431l28.641,41.717c9.651,14.009,29.263,17.433,42.96,7.471
		c8.094-5.914,12.452-15.254,12.452-24.594c0-6.537-2.178-13.074-6.226-18.678L635.076,296.81z"/>
	<path fill="#F38230" d="M728.468,151.739l-1.557-1.246c-3.735-2.801-8.717-1.867-11.518,1.869l-36.112,51.054
		c-2.49,3.736-7.783,4.669-11.518,1.868l0,0c-3.736-2.491-4.359-7.472-1.869-11.208l35.801-51.988
		c2.49-3.736,1.557-8.717-1.867-11.207l-1.868-1.246c-3.736-2.491-8.718-1.868-11.207,1.557l-38.603,50.121
		c-2.801,3.424-7.782,4.358-11.206,1.557c-3.737-2.802-4.359-7.783-1.868-11.518l37.356-50.121
		c2.802-3.736,1.868-8.717-1.868-11.519l-1.557-1.245c-3.424-2.49-8.716-1.868-11.206,1.557l-49.188,63.196
		c-9.962,12.764-7.471,31.442,5.915,41.092l4.67,3.425l-18.056,22.726c-5.915-3.736-13.698-2.491-18.057,3.114l-84.053,109.269
		c-10.585,13.697-7.471,32.998,6.226,43.272c13.698,10.272,33.31,6.849,42.961-7.472l78.138-113.628
		c4.048-5.914,2.803-13.697-2.49-18.057l16.188-24.282l4.98,3.424c13.075,9.651,31.754,6.227,40.781-7.16l44.829-66.309
		C732.826,159.211,732.204,154.541,728.468,151.739z"/>
</g>
</svg>
