<?xml version="1.0" encoding="utf-8"?>
<!-- Generator: Adobe Illustrator 16.0.0, SVG Export Plug-In . SVG Version: 6.00 Build 0)  -->
<!DOCTYPE svg PUBLIC "-//W3C//DTD SVG 1.1//EN" "http://www.w3.org/Graphics/SVG/1.1/DTD/svg11.dtd">
<svg version="1.1" id="Layer_1" xmlns="http://www.w3.org/2000/svg" xmlns:xlink="http://www.w3.org/1999/xlink" x="0px" y="0px"
	 width="500px" height="500px" viewBox="350 0 500 500" enable-background="new 350 0 500 500" xml:space="preserve">
<path fill="#F38230" stroke="#F38230" stroke-width="6" stroke-miterlimit="10" d="M717.575,95.847H470.354
	c-21.296,0-38.616,17.332-38.616,38.628v242.224c0,21.298,17.32,38.617,38.616,38.617h247.221c21.308,0,38.628-17.319,38.628-38.617
	V134.475C756.203,113.179,738.883,95.847,717.575,95.847z M744.875,376.699c0,15.056-12.245,27.29-27.3,27.29H599.629V256.703H588.3
	v147.286H470.354c-15.043,0-27.288-12.246-27.288-27.289V134.475c0-15.055,12.245-27.3,27.288-27.3h247.221
	c15.055,0,27.3,12.245,27.3,27.3V376.699z"/>
<path fill="#F38230" d="M593.964,126.964c-43.828,0-85.141,12.506-116.292,35.208c-1.416,1.03-2.276,2.65-2.321,4.395
	c-0.068,1.745,0.69,3.41,2.016,4.531l64.365,53.876c1.994,1.654,4.872,1.767,6.967,0.237c12.042-8.767,28.105-13.604,45.267-13.604
	c17.172,0,33.236,4.837,45.266,13.604c0.997,0.725,2.163,1.088,3.343,1.088c1.278,0,2.593-0.442,3.624-1.325l64.366-53.876
	c1.337-1.121,2.085-2.786,2.026-4.531c-0.057-1.745-0.916-3.365-2.322-4.395C679.105,139.471,637.815,126.964,593.964,126.964z
	 M642.222,213.544c-11.996-7.657-26.835-12.008-42.592-12.903v-33.95H588.3v33.95c-15.745,0.895-30.585,5.234-42.592,12.903
	l-55.371-46.354c4.486-2.934,9.209-5.584,14.08-8.099l11.975,11.667c1.109,1.065,2.537,1.609,3.964,1.609
	c1.473,0,2.946-0.566,4.056-1.711c2.175-2.243,2.13-5.834-0.102-8.02l-8.982-8.734c8.938-3.829,18.362-6.955,28.138-9.402
	l10.071,12.585c1.122,1.405,2.764,2.13,4.429,2.13c1.235,0,2.505-0.407,3.546-1.234c2.436-1.949,2.833-5.517,0.884-7.964
	l-6.547-8.201c10.522-1.926,21.375-3.036,32.454-3.319v11.044c0,3.127,2.538,5.665,5.664,5.665s5.665-2.538,5.665-5.665v-11.056
	c11.089,0.284,21.954,1.405,32.464,3.319l-6.547,8.202c-1.959,2.447-1.563,6.004,0.896,7.964c1.042,0.838,2.277,1.234,3.522,1.234
	c1.665,0,3.319-0.725,4.44-2.129l10.061-12.585c9.775,2.447,19.199,5.562,28.137,9.402l-8.972,8.734
	c-2.243,2.187-2.288,5.766-0.101,8.02c1.109,1.144,2.581,1.71,4.044,1.71c1.437,0,2.854-0.532,3.964-1.608l11.985-11.668
	c4.859,2.515,9.595,5.166,14.081,8.1L642.222,213.544z"/>
</svg>
