<?xml version="1.0" encoding="utf-8"?>
<!-- Generator: Adobe Illustrator 19.1.0, SVG Export Plug-In . SVG Version: 6.00 Build 0)  -->
<svg version="1.1" id="Layer_1" xmlns="http://www.w3.org/2000/svg" xmlns:xlink="http://www.w3.org/1999/xlink" x="0px" y="0px"
	 viewBox="-280 365.5 50 51.5" style="enable-background:new -280 365.5 50 51.5;" xml:space="preserve">
<style type="text/css">
	.st0{fill:#E44C2A;}
</style>
<g>
	<path class="st0" d="M-268,391.6c7.2,5.5,12.3,12.9,15,15.2c4.2,3.6,10.5,7.2,15.3,4.5c3.5-2,4.9-10.9-1.4-18.5
		c-0.1-0.2-12.9-15.3-20.3-19.3c-3.4-1.8-7.6-3-11.2-1.5c-0.1-0.1-3.5-3.2-3.6-3.3c-0.2-0.2-0.6-0.3-0.9-0.2c-2,0.5-3.2,1.7-3.6,3.5
		c-0.2,0.4,0.1,1,0.3,1.1c0.5,0.6,1.5,1.7,3.5,3.9C-275.8,380.7-274.6,386.6-268,391.6z M-260.3,375.1c7.1,3.8,19.7,18.7,19.8,18.8
		c5.6,6.8,4.3,15.4,1.9,16.7c-2.9,1.7-7.2-0.1-13.2-5.2c-2.6-2.2-7.7-9.7-15.1-15.3c-5.8-4.4-7.2-9.7-6.1-13.1
		c0.8-2.4,2.6-2.9,3-3.3C-266.9,372.4-263.2,373.6-260.3,375.1z M-275.1,370.4c1.9,1.8,2.7,2.5,2.8,2.6c-0.5,0.4-1.1,1-1.8,2
		c-0.8-0.9-2.1-2.3-2.7-3C-276.5,371.3-275.9,370.8-275.1,370.4z"/>
	<path class="st0" d="M-259.2,383.1c0.5,0.1,1-0.2,1.1-0.7c0.1-0.5-0.2-1-0.7-1.1c-0.5-0.2-2-1.9-3.2-3.4c-0.3-0.4-0.9-0.5-1.3-0.1
		c-0.4,0.3-0.5,0.9-0.1,1.3C-261.4,381.6-260,382.9-259.2,383.1z"/>
	<path class="st0" d="M-263.8,388.1c0.4,0.4,1,0.4,1.3,0c0.4-0.4,0.4-1,0-1.3c-0.5-0.4-1.8-1.5-2-1.9c-0.2-0.5-0.7-0.7-1.2-0.5
		c-0.5,0.2-0.7,0.7-0.5,1.2C-265.8,386.7-264.4,387.6-263.8,388.1z"/>
	<path class="st0" d="M-251.9,396c-0.5,0.1-0.8,0.6-0.7,1.1c0.1,0.4,0.5,0.7,0.9,0.7c0.6,0.3,2.4,2.3,2.8,2.9
		c0.1,0.4,0.5,0.7,0.9,0.7c0.5,0,0.9-0.4,0.9-0.8c0.1-1.1-2.9-3.8-2.9-3.9C-250.6,396.3-251.3,395.8-251.9,396z"/>
	<path class="st0" d="M-259.8,390.3c-0.3,0.4-0.2,1,0.3,1.3c0.5,0.3,1.5,1.2,1.8,1.7c0.2,0.5,0.8,0.7,1.2,0.5
		c0.5-0.2,0.7-0.8,0.5-1.2c-0.5-1.2-2.1-2.3-2.5-2.5C-258.9,389.8-259.5,389.9-259.8,390.3z"/>
	<path class="st0" d="M-252.4,388c0.2,0.5,0.8,0.7,1.2,0.5c0.5-0.2,0.7-0.8,0.5-1.2c-0.5-1.2-2.1-2.3-2.5-2.5
		c-0.4-0.3-1-0.2-1.3,0.3c-0.3,0.4-0.2,1,0.3,1.3C-253.7,386.6-252.6,387.5-252.4,388z"/>
	<path class="st0" d="M-270.9,378.1c-0.5,0.2-0.7,0.7-0.5,1.2c0.2,0.5,0.7,0.7,1.2,0.5c0.6-0.3,1.4-0.3,1.6-0.2c0.4,0.4,1,0.4,1.3,0
		c0.4-0.4,0.4-1,0-1.3C-268.5,377.2-270.5,378-270.9,378.1z"/>
	<path class="st0" d="M-240.7,402.9c0.4,0.3,1,0.3,1.3-0.1c0.3-0.4,0.3-1-0.1-1.3c-1.6-1.3-2-1.8-2.1-1.9c-0.1-0.3-0.4-0.6-0.8-0.6
		c-0.5-0.1-1,0.3-1,0.8C-243.5,400.1-243.5,400.6-240.7,402.9z"/>
	<path class="st0" d="M-245.4,403.4c-0.4-0.3-1-0.2-1.3,0.2c-0.3,0.4-0.2,1,0.2,1.3l2.2,1.5c0.4,0.3,1,0.2,1.3-0.2
		c0.3-0.4,0.2-1-0.2-1.3L-245.4,403.4z"/>
	<path class="st0" d="M-248.7,393.7c0.7,0.4,1.6,0.1,1.5,0.9c0,0.5,0.4,1,0.9,1c0.5,0,0.9-0.4,0.9-0.8c0.1-1.5-1.2-2.7-2.4-2.7
		c0,0-0.1-0.2-0.2-0.6c-0.1-0.5-0.5-0.9-1.1-0.8c-0.5,0.1-0.9,0.5-0.8,1.1C-249.7,392.2-249.6,393.2-248.7,393.7z"/>
</g>
</svg>
