<?xml version="1.0" encoding="utf-8"?>
<!-- Generator: Adobe Illustrator 16.0.0, SVG Export Plug-In . SVG Version: 6.00 Build 0)  -->
<!DOCTYPE svg PUBLIC "-//W3C//DTD SVG 1.1//EN" "http://www.w3.org/Graphics/SVG/1.1/DTD/svg11.dtd">
<svg version="1.1" id="Layer_1" xmlns="http://www.w3.org/2000/svg" xmlns:xlink="http://www.w3.org/1999/xlink" x="0px" y="0px"
	 width="500px" height="500px" viewBox="0 0 500 500" enable-background="new 0 0 500 500" xml:space="preserve">
<g>
	<path fill="#F38230" d="M143.786,262.119c69.903,53.397,119.418,125.242,145.632,147.572
		c40.776,34.952,101.941,69.903,148.543,43.689c33.98-19.417,47.573-105.825-13.592-179.611
		c-0.971-1.942-125.242-148.544-197.088-187.379c-33.009-17.476-73.786-29.126-108.737-14.563
		c-0.971-0.972-33.981-31.068-34.952-32.039c-1.941-1.941-5.825-2.912-8.737-1.941c-19.418,4.854-31.068,16.504-34.952,33.98
		c-1.942,3.883,0.971,9.708,2.913,10.68c4.854,5.825,14.563,16.505,33.98,37.863C68.059,156.293,79.709,213.575,143.786,262.119z
		 M218.544,101.925c68.932,36.893,191.262,181.554,192.233,182.524c54.368,66.019,41.747,149.514,18.446,162.136
		c-28.155,16.505-69.903-0.972-128.155-50.485c-25.243-21.359-74.758-94.176-146.603-148.544
		c-56.311-42.719-69.903-94.175-59.223-127.185c7.767-23.301,25.243-28.155,29.126-32.039
		C154.466,75.711,190.388,87.361,218.544,101.925z M74.854,56.293c18.446,17.477,26.214,24.272,27.184,25.243
		c-4.854,3.884-10.68,9.709-17.476,19.417c-7.767-8.737-20.388-22.33-26.213-29.126C61.262,65.031,67.087,60.177,74.854,56.293z"/>
	<path fill="#F38230" d="M229.223,179.595c4.854,0.971,9.708-1.942,10.679-6.796c0.972-4.855-1.941-9.709-6.796-10.68
		c-4.854-1.942-19.417-18.447-31.068-33.01c-2.913-3.884-8.738-4.854-12.622-0.972c-3.883,2.913-4.854,8.738-0.971,12.622
		C207.864,165.031,221.456,177.652,229.223,179.595z"/>
	<path fill="#F38230" d="M184.563,228.139c3.883,3.883,9.708,3.883,12.621,0c3.883-3.884,3.883-9.709,0-12.622
		c-4.854-3.883-17.476-14.563-19.417-18.446c-1.942-4.854-6.796-6.796-11.651-4.854c-4.854,1.942-6.796,6.796-4.854,11.651
		C165.146,214.546,178.738,223.283,184.563,228.139z"/>
	<path fill="#F38230" d="M300.098,304.837c-4.855,0.972-7.768,5.825-6.797,10.68c0.971,3.884,4.854,6.796,8.738,6.796
		c5.825,2.913,23.301,22.33,27.185,28.156c0.971,3.883,4.854,6.796,8.737,6.796c4.854,0,8.738-3.884,8.738-7.767
		c0.971-10.68-28.155-36.894-28.155-37.864C312.719,307.75,305.922,302.896,300.098,304.837z"/>
	<path fill="#F38230" d="M223.398,249.497c-2.913,3.884-1.942,9.709,2.912,12.621c4.854,2.913,14.563,11.651,17.476,16.505
		c1.942,4.854,7.767,6.797,11.651,4.854c4.854-1.941,6.795-7.767,4.854-11.65c-4.854-11.65-20.389-22.33-24.271-24.271
		C232.136,244.643,226.311,245.613,223.398,249.497z"/>
	<path fill="#F38230" d="M295.242,227.167c1.942,4.854,7.768,6.796,11.651,4.854c4.854-1.941,6.796-7.767,4.854-11.65
		c-4.854-11.65-20.389-22.33-24.272-24.271c-3.884-2.913-9.708-1.942-12.621,2.912c-2.913,3.883-1.942,9.709,2.913,12.621
		C282.621,213.575,293.301,222.313,295.242,227.167z"/>
	<path fill="#F38230" d="M115.631,131.051c-4.854,1.941-6.796,6.796-4.854,11.65s6.796,6.797,11.65,4.854
		c5.826-2.912,13.592-2.912,15.534-1.942c3.883,3.884,9.708,3.884,12.621,0c3.883-3.883,3.883-9.708,0-12.621
		C138.932,122.313,119.515,130.08,115.631,131.051z"/>
	<path fill="#F38230" d="M408.835,371.827c3.884,2.913,9.709,2.913,12.621-0.971c2.913-3.884,2.913-9.709-0.971-12.621
		c-15.534-12.621-19.417-17.476-20.389-18.446c-0.971-2.913-3.883-5.826-7.767-5.826c-4.854-0.971-9.709,2.913-9.709,7.768
		C381.65,344.643,381.65,349.497,408.835,371.827z"/>
	<path fill="#F38230" d="M363.204,376.682c-3.884-2.912-9.709-1.941-12.622,1.941c-2.912,3.884-1.941,9.709,1.942,12.622
		l21.359,14.563c3.883,2.913,9.708,1.942,12.621-1.941s1.941-9.709-1.941-12.621L363.204,376.682z"/>
	<path fill="#F38230" d="M331.165,282.507c6.796,3.884,15.534,0.972,14.563,8.738c0,4.854,3.883,9.708,8.737,9.708
		s8.738-3.883,8.738-7.767c0.971-14.563-11.651-26.214-23.302-26.214c0,0-0.971-1.941-1.941-5.825
		c-0.971-4.854-4.854-8.737-10.68-7.767c-4.854,0.971-8.737,4.854-7.767,10.68C321.456,267.944,322.428,277.652,331.165,282.507z"/>
</g>
</svg>
