<?xml version="1.0" encoding="utf-8"?>
<!-- Generator: Adobe Illustrator 16.0.0, SVG Export Plug-In . SVG Version: 6.00 Build 0)  -->
<!DOCTYPE svg PUBLIC "-//W3C//DTD SVG 1.1//EN" "http://www.w3.org/Graphics/SVG/1.1/DTD/svg11.dtd">
<svg version="1.1" id="Layer_1" xmlns="http://www.w3.org/2000/svg" xmlns:xlink="http://www.w3.org/1999/xlink" x="0px" y="0px"
	 width="500px" height="500px" viewBox="0 0 500 500" enable-background="new 0 0 500 500" xml:space="preserve">
<g>
	<path fill="#F38230" d="M443.711,233.811c-6.641-14.063-18.359-25.391-32.813-30.859c-4.297-1.563-8.594-2.734-13.281-3.125
		c2.344-3.906,4.297-7.422,5.469-11.719c13.672-36.719-4.688-77.344-41.406-91.016c-22.266-8.203-46.484-4.688-66.016,8.594
		c-4.297,3.516-5.859,9.766-2.344,14.453c3.516,4.297,9.766,5.859,14.453,2.344c13.281-9.766,31.25-12.109,46.484-6.25
		c25.781,9.766,39.063,38.672,29.297,64.453c-3.125,8.594-8.984,16.406-16.406,22.266c-3.125,2.344-4.297,5.859-3.906,9.766
		l0.391,1.563c0.391,3.125,2.344,5.859,4.688,7.422c2.734,1.563,5.859,1.953,8.594,1.172c8.594-3.125,17.578-3.125,25.781,0
		c9.766,3.516,16.797,10.547,21.484,19.531c4.297,9.375,4.297,19.531,1.172,28.906c-3.125,8.203-8.594,15.234-16.406,19.531
		c-4.688,2.734-6.641,9.375-3.906,14.063c1.953,3.516,5.469,5.078,8.984,5.078c1.563,0,3.516-0.391,5.078-1.563
		c11.719-7.031,20.703-17.578,25.391-30.078C450.742,264.279,450.352,248.264,443.711,233.811z"/>
	<path fill="#F38230" d="M328.086,418.576c6.25,0.781,12.5,1.172,18.75,1.172c22.266,0,42.578-4.297,59.766-13.281
		c13.672-7.031,23.438-17.578,28.516-31.25c5.469-14.844,4.688-31.25-1.563-45.703c-2.344-5.078-8.594-7.422-13.672-4.688
		c-5.078,2.344-7.422,8.594-4.688,13.672c4.297,9.375,4.688,19.531,1.563,29.297c-3.516,8.984-9.375,15.625-19.141,20.313
		c-18.75,9.766-41.016,13.281-66.797,10.547c-5.469-0.781-10.547,3.516-11.328,9.375
		C317.93,413.107,322.227,418.186,328.086,418.576z"/>
	<path fill="#F38230" d="M66.367,360.373L66.367,360.373C66.367,360.764,66.367,360.764,66.367,360.373
		C66.367,360.764,66.367,360.764,66.367,360.373C66.367,360.764,66.367,360.764,66.367,360.373
		c22.266,25.391,57.813,40.625,101.563,45.313c0.391,0,0.781,0,1.172,0c5.078,0,9.766-3.906,10.547-9.375
		s-3.516-10.547-9.375-11.328c-26.953-2.734-64.063-11.719-87.891-38.281l0,0l0,0c-7.031-7.422-10.547-16.016-10.547-25.391
		c0-21.094,16.797-37.891,37.891-37.891c1.563,0,5.078,0.391,7.031,0.781c5.078,0.781,10.547-2.734,11.328-7.813
		c1.563-5.078-1.563-10.547-6.641-12.109c-15.234-5.078-25.391-19.531-25.391-35.938c0-18.359,13.281-33.984,30.859-37.109
		c5.469-1.172,9.375-6.641,8.203-12.109s-6.641-9.375-12.109-8.203c-27.734,5.078-47.656,29.297-47.656,57.813
		c0,14.453,5.078,27.734,14.063,38.281c-22.266,8.203-38.281,29.688-38.281,55.078C50.352,336.154,55.43,349.045,66.367,360.373z"/>
	<path fill="#F38230" d="M365.977,360.373L365.977,360.373c10.547-11.328,16.016-24.609,16.016-39.453
		c0-25.391-16.016-46.484-38.281-55.078c8.984-10.547,14.063-23.828,14.063-38.281c0-32.422-26.172-58.594-58.594-58.594
		c-4.297,0-8.984,0.781-13.281,1.563c0.781-4.297,1.172-8.594,1.172-13.281c0-39.063-31.641-70.703-70.703-70.703
		s-70.703,31.641-70.703,70.703c0,16.016,5.078,31.25,15.234,43.359c1.953,2.734,5.078,3.906,8.203,3.906
		c1.953,0,4.297-0.781,6.25-1.953c4.297-3.516,5.078-10.156,1.563-14.453c-7.031-8.984-10.547-19.531-10.547-30.859
		c0-27.734,22.266-50,50-50s50,22.266,50,50c0,11.328-3.906,21.875-10.547,30.859c-3.516,4.297-2.734,10.547,1.563,14.063
		s10.547,3.125,14.063-0.781c7.422-7.813,17.188-12.109,27.734-12.109c21.094,0,37.891,16.797,37.891,37.891
		c0,16.406-10.547,30.859-25.391,35.938c-5.078,1.563-7.813,7.031-6.641,12.109c1.563,5.078,6.25,8.594,11.328,7.813
		c1.953-0.391,5.469-0.781,7.031-0.781c21.094,0,37.891,16.797,37.891,37.891c0,9.766-3.516,17.969-10.547,25.391l0,0l0,0
		c-35.156,39.063-99.219,40.234-124.219,39.453c-5.078-30.078-8.984-76.563-5.469-146.875l17.969-13.281
		c4.297-3.516,5.469-10.156,1.953-14.453s-10.156-5.469-14.453-1.953l-3.906,2.734c1.172-12.891,1.953-26.172,3.516-40.234
		c0.781-5.469-3.516-10.547-9.375-11.328c-5.469-0.781-10.547,3.516-11.328,9.375c-3.125,33.203-5.078,62.5-5.859,88.281
		l-23.828-19.531c-4.297-3.516-10.938-3.125-14.453,1.563c-3.516,4.297-3.125,10.938,1.563,14.453l33.984,27.734
		c1.172,0.781,1.563,1.563,2.734,1.563c-1.172,126.563,24.219,160.938,25.391,162.5c1.953,2.734,5.078,4.297,8.203,4.297
		c1.953,0,4.297-0.781,6.25-1.953c4.297-3.516,5.469-10.156,1.953-14.453c0-0.391-5.078-7.422-10.156-27.344c3.125,0,6.25,0,8.984,0
		C315.586,407.248,353.086,375.217,365.977,360.373z"/>
	<path fill="#F38230" d="M231.992,324.436c1.953,3.125,5.078,4.688,8.984,4.688c1.563,0,3.906-0.391,5.469-1.563l35.547-22.266
		c4.688-3.125,6.25-9.375,3.516-14.063c-3.125-4.688-9.375-6.25-14.063-3.516l-35.938,22.266
		C230.82,313.498,229.258,319.748,231.992,324.436z"/>
</g>
</svg>
