<?xml version="1.0" encoding="utf-8"?>
<!-- Generator: Adobe Illustrator 16.0.0, SVG Export Plug-In . SVG Version: 6.00 Build 0)  -->
<!DOCTYPE svg PUBLIC "-//W3C//DTD SVG 1.1//EN" "http://www.w3.org/Graphics/SVG/1.1/DTD/svg11.dtd">
<svg version="1.1" id="Layer_1" xmlns="http://www.w3.org/2000/svg" xmlns:xlink="http://www.w3.org/1999/xlink" x="0px" y="0px"
	 width="250px" height="250px" viewBox="0 0 250 250" enable-background="new 0 0 250 250" xml:space="preserve">
<g transform="translate(0,-1004.3622)">
	<g>
		<g>
			<path fill="#F38230" d="M114.343,1126.269c-0.153,0-0.306-0.035-0.446-0.105c-0.846-0.421-20.769-10.435-25.607-20.45
				c-3.75-7.764-0.23-24.913-0.079-25.64c0.064-0.307,0.269-0.566,0.552-0.7c0.283-0.133,0.613-0.127,0.891,0.018
				c0.871,0.456,21.387,11.279,26.221,21.285c3.762,7.787-0.386,24.148-0.564,24.841c-0.075,0.292-0.278,0.535-0.553,0.66
				C114.626,1126.239,114.485,1126.269,114.343,1126.269z M89.918,1081.812c-0.745,4.168-2.715,17.053,0.173,23.032
				c3.916,8.105,19.271,16.668,23.573,18.947c0.881-3.929,3.297-16.267,0.411-22.243
				C110.165,1093.453,94.399,1084.293,89.918,1081.812z"/>
			<path fill="#F38230" d="M114.343,1129.269c-0.616,0-1.232-0.145-1.784-0.42c-2.214-1.103-21.781-11.088-26.97-21.83
				c-4.112-8.512-0.715-25.633-0.314-27.557c0.257-1.224,1.082-2.269,2.208-2.8c1.117-0.526,2.475-0.498,3.564,0.073
				c2.274,1.191,22.366,11.947,27.531,22.637c4.167,8.626,0.115,25.051-0.361,26.896c-0.302,1.173-1.108,2.136-2.212,2.64
				C115.478,1129.148,114.919,1129.269,114.343,1129.269z M92.212,1086.594c-0.863,6.563-1.055,13.561,0.58,16.945
				c2.417,5.003,10.719,11.038,18.729,15.643c1.08-6.25,1.472-12.977-0.147-16.329
				C108.957,1097.849,100.458,1091.524,92.212,1086.594z"/>
		</g>
	</g>
	<g>
		<g>
			<path fill="#F38230" d="M126.57,1193.779c-0.144,0-0.286-0.03-0.42-0.093c-0.291-0.135-0.502-0.401-0.563-0.717
				c-0.141-0.727-3.406-17.854,0.069-25.601c4.489-10.009,23.555-20.839,24.364-21.295c0.281-0.157,0.617-0.173,0.91-0.036
				c0.291,0.135,0.502,0.4,0.563,0.717c0.141,0.727,3.404,17.854-0.069,25.6c-4.489,10.009-23.555,20.84-24.364,21.296
				C126.909,1193.736,126.74,1193.779,126.57,1193.779z M149.777,1148.537c-4.314,2.582-18.701,11.642-22.295,19.651
				c-2.675,5.964-0.879,18.754-0.176,23c4.313-2.582,18.7-11.643,22.295-19.651C152.275,1165.573,150.479,1152.783,149.777,1148.537
				z"/>
			<path fill="#F38230" d="M126.57,1196.779c-0.58,0-1.166-0.13-1.689-0.375c-1.156-0.535-1.997-1.609-2.238-2.869
				c-0.371-1.905-3.522-18.92,0.278-27.394c4.81-10.722,23.513-21.487,25.629-22.682c1.128-0.629,2.501-0.677,3.652-0.141
				c1.157,0.536,1.997,1.609,2.239,2.87c0.369,1.907,3.514,18.938-0.278,27.393c-4.81,10.722-23.513,21.488-25.629,22.683
				C127.938,1196.6,127.258,1196.779,126.57,1196.779z M147.456,1153.524c-7.463,4.865-15.05,11.019-17.235,15.892
				c-1.515,3.374-1.365,10.272-0.593,16.785c7.463-4.866,15.05-11.019,17.236-15.894
				C148.378,1166.934,148.229,1160.036,147.456,1153.524z"/>
		</g>
	</g>
	<g>
		<path fill="#F38230" d="M97.453,1130.287c-1.944,0.035-3.605,1.409-4.004,3.312c0,0-0.961,4.58-1.44,10.166
			c-0.27,3.142-0.435,6.563-0.122,9.928l8.382-8.383c0.019-0.274,0.018-0.561,0.041-0.829c0.151-1.757,0.255-1.804,0.456-3.206
			c0.931,0.537,1.553,0.869,2.262,1.277l6.022-6.022c-5.153-3.345-9.595-5.771-9.595-5.771
			C98.837,1130.436,98.149,1130.275,97.453,1130.287L97.453,1130.287z M122.306,1146.849l-6.063,6.063
			c1.481,1.536,2.745,3.008,3.312,4.183c1.039,2.15,1.4,8.131,0.968,13.159c-0.151,1.759-0.255,1.806-0.456,3.207
			c-1.988-1.147-2.617-1.375-5.526-3.354c-3.016-2.052-6.088-4.527-8.594-6.9l-6.038,6.039c3.062,2.918,6.611,5.479,9.944,7.746
			c6.074,4.131,11.523,6.981,11.523,6.981c2.041,1.064,4.558,0.273,5.622-1.768c0.177-0.338,0.307-0.699,0.385-1.072
			c0,0,0.961-4.58,1.439-10.164c0.479-5.584,0.842-12.101-1.766-17.496C125.9,1151.075,124.238,1148.878,122.306,1146.849z"/>
	</g>
	<g>
		<path fill="#F38230" d="M146.078,1096.954c-0.623,0.042-1.23,0.183-1.783,0.472c0,0-5.449,2.844-11.523,6.975
			c-6.073,4.131-12.923,9.205-16.081,15.739c-1.612,3.337,1.5-4.16,0.585,8.023l30.876-30.736
			C147.514,1097.092,146.799,1096.929,146.078,1096.954z M152.025,1117.128l-33.503,33.504c1.205,0.631,2.642,0.635,3.85,0
			c0,0,5.448-2.853,11.522-6.981c6.074-4.132,12.924-9.196,16.082-15.731c1.609-3.334,2.033-7.093,2.051-10.799v0.008H152.025z"/>
	</g>
	<g>
		<path fill="#F38230" stroke="#F38230" stroke-width="6" stroke-miterlimit="10" d="M129.156,1212.47
			c-0.485,0-0.911-0.354-0.987-0.848l-4.148-26.965c-0.084-0.546,0.291-1.057,0.836-1.141c0.538-0.084,1.057,0.289,1.141,0.836
			l4.146,26.965c0.084,0.546-0.289,1.057-0.836,1.141C129.258,1212.466,129.206,1212.47,129.156,1212.47z"/>
	</g>
	<g>
		<g>
			<path fill="#F38230" d="M118.442,1102.113c-0.091,0-0.184-0.013-0.273-0.038c-0.296-0.084-0.537-0.3-0.653-0.585
				c-0.342-0.84-8.334-20.701-5.19-30.548c2.705-8.473,18.098-18.184,18.752-18.593c0.247-0.155,0.553-0.194,0.83-0.106
				c0.279,0.088,0.506,0.293,0.619,0.563c0.324,0.76,7.884,18.713,5.394,27.853c-2.513,9.22-18.221,20.776-18.888,21.263
				C118.858,1102.047,118.651,1102.113,118.442,1102.113z M131.137,1054.695c-3.46,2.302-14.797,10.248-16.906,16.854
				c-2.502,7.837,2.98,23.485,4.666,27.964c3.562-2.753,15.121-12.135,17.094-19.382
				C137.965,1072.884,132.738,1058.748,131.137,1054.695z"/>
			<path fill="#F38230" d="M118.442,1105.113c-0.368,0-0.734-0.051-1.089-0.151c-1.197-0.34-2.15-1.194-2.617-2.344
				c-0.898-2.208-8.682-21.897-5.269-32.589c2.987-9.357,18.285-19.14,20.02-20.224c0.975-0.613,2.219-0.774,3.326-0.423
				c1.113,0.351,2.02,1.172,2.477,2.252c0.852,1.998,8.242,19.842,5.525,29.813c-2.74,10.054-18.254,21.613-20.015,22.897
				C120.11,1104.847,119.295,1105.113,118.442,1105.113z M129.678,1059.369c-5.586,4.076-11.378,9.297-12.589,13.092
				c-1.495,4.683,0.579,14.079,3.224,22.058c5.88-4.943,11.625-10.917,12.785-15.176
				C134.268,1075.047,132.202,1066.559,129.678,1059.369z"/>
		</g>
	</g>
	<g>
		<g>
			<path fill="#F38230" d="M99.981,1070.807c-0.419,0-0.809-0.265-0.949-0.684l-4.128-12.387c-0.175-0.524,0.108-1.09,0.632-1.265
				c0.527-0.177,1.091,0.109,1.265,0.632l4.128,12.387c0.175,0.524-0.108,1.09-0.632,1.265
				C100.192,1070.79,100.085,1070.807,99.981,1070.807z"/>
			<path fill="#F38230" d="M99.981,1073.807c-1.725,0-3.25-1.099-3.795-2.735l-4.128-12.387c-0.697-2.092,0.438-4.362,2.529-5.06
				c0.407-0.137,0.835-0.207,1.268-0.207c1.723,0,3.248,1.1,3.792,2.737l4.128,12.386c0.697,2.092-0.438,4.362-2.529,5.06
				C100.84,1073.737,100.413,1073.807,99.981,1073.807z"/>
		</g>
	</g>
	<g>
		<g>
			<path fill="#F38230" d="M154.186,1070.807c-0.104,0-0.211-0.017-0.315-0.052c-0.522-0.175-0.808-0.741-0.632-1.265l4.129-12.387
				c0.175-0.523,0.736-0.809,1.265-0.632c0.522,0.175,0.808,0.741,0.632,1.265l-4.129,12.387
				C154.994,1070.541,154.604,1070.807,154.186,1070.807z"/>
			<path fill="#F38230" d="M154.186,1073.807c-0.43,0-0.854-0.069-1.265-0.206c-2.094-0.699-3.228-2.969-2.528-5.061l4.129-12.387
				c0.547-1.637,2.069-2.736,3.791-2.736c0.433,0,0.859,0.07,1.271,0.207c2.09,0.698,3.224,2.968,2.524,5.06l-4.129,12.387
				C157.436,1072.707,155.909,1073.807,154.186,1073.807z"/>
		</g>
	</g>
	<g>
		<path fill="#F38230" d="M58.333,1200.028c-0.256,0-0.512-0.098-0.707-0.293c-0.391-0.391-0.391-1.023,0-1.414l133.333-133.333
			c0.391-0.391,1.023-0.391,1.414,0c0.391,0.391,0.391,1.023,0,1.414L59.041,1199.735
			C58.845,1199.931,58.589,1200.028,58.333,1200.028z"/>
	</g>
	<g>
		<g>
			<path fill="#F38230" d="M125,1229.196c-53.394,0-96.833-43.439-96.833-96.834c0-53.394,43.439-96.833,96.833-96.833
				c53.395,0,96.834,43.439,96.834,96.833C221.834,1185.757,178.395,1229.196,125,1229.196z M125,1037.529
				c-52.292,0-94.833,42.542-94.833,94.833c0,52.292,42.542,94.834,94.833,94.834c52.292,0,94.834-42.542,94.834-94.834
				C219.834,1080.071,177.292,1037.529,125,1037.529z"/>
			<path fill="#F38230" d="M125,1232.196c-55.048,0-99.833-44.785-99.833-99.834c0-55.048,44.785-99.833,99.833-99.833
				c55.049,0,99.834,44.785,99.834,99.833C224.834,1187.411,180.049,1232.196,125,1232.196z M125,1040.529
				c-50.637,0-91.833,41.196-91.833,91.833c0,50.638,41.196,91.834,91.833,91.834c50.639,0,91.834-41.196,91.834-91.834
				C216.834,1081.725,175.639,1040.529,125,1040.529z"/>
		</g>
	</g>
	<g>
		<g>
			<path fill="#F38230" d="M58.333,1200.028c-0.256,0-0.512-0.098-0.707-0.293c-0.391-0.391-0.391-1.023,0-1.414l133.333-133.333
				c0.391-0.391,1.023-0.391,1.414,0c0.391,0.391,0.391,1.023,0,1.414L59.041,1199.735
				C58.845,1199.931,58.589,1200.028,58.333,1200.028z"/>
			<path fill="#F38230" d="M58.333,1203.028c-1.068,0-2.073-0.416-2.828-1.172c-0.756-0.756-1.172-1.76-1.172-2.828
				s0.416-2.073,1.172-2.828l133.333-133.333c0.755-0.756,1.76-1.172,2.828-1.172l0,0c1.068,0,2.072,0.416,2.828,1.172
				c1.561,1.56,1.561,4.097,0,5.656L61.162,1201.856C60.406,1202.612,59.402,1203.028,58.333,1203.028z"/>
		</g>
	</g>
</g>
</svg>
