<?xml version="1.0" encoding="utf-8"?>
<!-- Generator: Adobe Illustrator 16.0.0, SVG Export Plug-In . SVG Version: 6.00 Build 0)  -->
<!DOCTYPE svg PUBLIC "-//W3C//DTD SVG 1.1//EN" "http://www.w3.org/Graphics/SVG/1.1/DTD/svg11.dtd">
<svg version="1.1" id="Layer_1" xmlns="http://www.w3.org/2000/svg" xmlns:xlink="http://www.w3.org/1999/xlink" x="0px" y="0px"
	 width="500px" height="500px" viewBox="350 0 500 500" enable-background="new 350 0 500 500" xml:space="preserve">
<path fill="#F38230" stroke="#F38230" stroke-width="4" stroke-miterlimit="10" d="M788.432,311.351l-25.425-25.426
	c-2.907-2.905-7.265-2.905-10.171,0c-2.906,2.906-2.906,7.265,0,10.17l13.439,13.439c-16.709-0.363-31.965-1.815-45.403-4.358
	l1.815-1.815c26.879-23.974,42.135-58.479,42.135-94.438c0-26.515-10.17-51.578-29.058-70.465l-0.363-0.364
	c-18.524-18.887-43.587-29.421-70.103-29.421l0,0c-25.789,0-50.124,9.807-69.011,27.605c-18.525-17.798-43.225-27.605-69.014-27.605
	c-26.516,0-51.577,10.534-70.828,29.421c-18.888,18.888-29.058,43.95-29.058,70.466c0,35.958,15.255,70.464,42.134,94.437
	l121.68,109.33c1.452,1.09,2.905,1.816,4.722,1.816s3.269-0.727,4.722-1.816l107.15-95.891c17.072,3.996,36.686,6.538,58.479,6.901
	l-13.439,13.439c-2.906,2.905-2.906,7.265,0,10.17c1.453,1.453,3.269,2.18,5.085,2.18s3.632-0.727,5.086-2.18l25.425-25.426
	C791.338,318.614,791.338,314.256,788.432,311.351z M595.924,397.434L478.966,292.463c-23.61-21.43-37.412-51.941-37.412-83.904
	c0-4.359,0.363-8.354,1.09-12.35c0.726,0,1.815,0,2.542,0l0,0c3.996,0,6.901-2.906,6.901-6.901c0-3.632-2.906-6.901-6.538-7.264
	c3.996-12.713,11.26-24.336,21.067-34.143c15.981-15.981,37.775-25.062,60.658-25.062c22.884,0,44.313,8.717,60.658,25.062
	l3.27,3.269c2.905,2.906,7.265,2.906,10.17,0l3.27-3.269c15.98-15.981,37.774-25.062,60.295-25.062l0,0
	c22.883,0,44.313,9.081,60.295,25.062l0.363,0.363l0,0c15.98,16.345,25.062,37.775,25.062,60.658
	c0,31.964-13.802,62.475-37.412,83.904l-9.444,8.354c-35.232-9.808-61.021-26.879-85.72-45.04c-0.362-0.362-1.089-0.362-1.453-0.726
	c-0.363-0.363-0.726-0.728-1.089-1.09l-5.086-3.996c-3.269-2.542-7.627-1.815-9.807,1.454c-2.542,3.269-1.815,7.627,1.453,9.807
	l5.448,3.995c0.364,0.362,1.09,0.726,1.452,0.726c0.364,0.363,0.727,0.728,1.091,1.091c23.245,17.071,48.308,34.143,81.725,44.676
	L595.924,397.434z"/>
<path fill="#F38230" stroke="#F38230" stroke-width="4" stroke-miterlimit="10" d="M489.012,188.218
	c-2.18-0.363-4.358-1.09-6.539-1.453c-3.995-0.726-7.626,1.816-8.354,5.449c-0.727,3.995,1.816,7.627,5.448,8.354
	c2.179,0.363,4.359,0.727,6.175,1.453c0.727,0,1.089,0.363,1.816,0.363c3.269,0,6.175-2.179,6.901-5.448
	C495.187,192.94,492.645,189.308,489.012,188.218z"/>
<path fill="#F38230" stroke="#F38230" stroke-width="4" stroke-miterlimit="10" d="M537.074,202.934
	c-1.817-1.089-3.996-2.179-6.175-3.269c-3.632-1.816-7.628-0.363-9.443,3.269c-1.816,3.632-0.363,7.628,3.269,9.444
	c1.816,1.09,3.632,1.816,5.812,2.905c1.089,0.727,2.179,0.727,3.269,0.727c2.543,0,5.085-1.453,6.175-3.632
	C541.795,209.109,540.706,204.75,537.074,202.934z"/>
<path fill="#F38230" stroke="#F38230" stroke-width="4" stroke-miterlimit="10" d="M571.749,222.581
	c-3.269-2.179-7.628-1.815-9.807,1.453c-2.18,3.269-1.816,7.628,1.452,9.807l5.086,3.995c1.452,1.091,2.905,1.453,4.358,1.453
	c2.179,0,4.358-1.09,5.812-2.906c2.542-3.269,1.816-7.628-1.453-9.807L571.749,222.581z"/>
</svg>
