<?xml version="1.0" encoding="utf-8"?>
<!-- Generator: Adobe Illustrator 16.0.0, SVG Export Plug-In . SVG Version: 6.00 Build 0)  -->
<!DOCTYPE svg PUBLIC "-//W3C//DTD SVG 1.1//EN" "http://www.w3.org/Graphics/SVG/1.1/DTD/svg11.dtd">
<svg version="1.1" id="Layer_1" xmlns="http://www.w3.org/2000/svg" xmlns:xlink="http://www.w3.org/1999/xlink" x="0px" y="0px"
	 width="400px" height="400px" viewBox="400 50 400 400" enable-background="new 400 50 400 400" xml:space="preserve">
<g>
	<path fill="#F38230" d="M676.345,197.551c0-24.328-27.795-83.393-37.352-89.478c-8.869-5.644-32.663-4.553-36.05-4.369
		c-3.384-0.184-27.192-1.274-36.05,4.369c-9.557,6.079-37.361,65.15-37.361,89.478c0,16.056,6.494,33.627,21.086,54.198
		c6.021-9.85,14.67-23.86,18.84-29.939c5.192-7.59,18.144-24.631,26.236-35.211c-5.234-7.438-9.671-13.784-12.293-17.718
		c-10.417-15.63-12.159-26.058-12.159-26.058h31.277h0.861h31.276c0,0-1.747,10.422-12.169,26.058
		c-10.428,15.636-49.504,69.499-53.857,78.185c-4.343,8.687-62.554,100.775-67.757,121.625l48.644,49.52
		c0,0,40.823-95.563,76.432-132.048C661.573,249.672,676.345,221.873,676.345,197.551z"/>
	<path fill="#F38230" d="M654.246,275.599c-8.052,8.178-18.72,19.208-23.174,24.699c-4.6,5.691-13.133,18.285-20.021,28.681
		c24.717,41.013,45.318,89.231,45.318,89.231l48.649-49.52C701.463,354.455,673.207,307.028,654.246,275.599z"/>
</g>
</svg>
