<?xml version="1.0" encoding="utf-8"?>
<!-- Generator: Adobe Illustrator 16.0.0, SVG Export Plug-In . SVG Version: 6.00 Build 0)  -->
<!DOCTYPE svg PUBLIC "-//W3C//DTD SVG 1.1//EN" "http://www.w3.org/Graphics/SVG/1.1/DTD/svg11.dtd">
<svg version="1.1" id="Layer_1" xmlns="http://www.w3.org/2000/svg" xmlns:xlink="http://www.w3.org/1999/xlink" x="0px" y="0px"
	 width="500px" height="500px" viewBox="350 0 500 500" enable-background="new 350 0 500 500" xml:space="preserve">
<title>Breast Cancer, Cancer, Ribbon, Aids, Hiv</title>
<path fill="#F38230" stroke="#F38230" stroke-width="5" stroke-miterlimit="10" d="M743.022,393.412
	c-31.466-44.109-58.429-84.264-82.359-122.6c20.496-33.641,39.914-67.464,58.255-101.47c0.518-0.787,0.834-1.689,0.924-2.627
	c0-0.145,0-0.289,0-0.462c0-0.173,0-0.375,0-0.549c-0.068-0.92-0.354-1.812-0.838-2.598c-2.627-5.34-26.442-53.607-35.247-71.563
	C677.695,79.16,648.221,70.5,612.107,70.5s-65.125,8.66-71.591,20.9c-9.238,17.378-32.707,66.28-35.218,71.736
	c-0.292,0.503-0.506,1.048-0.635,1.616l0,0c-0.026,0.317-0.026,0.636,0,0.953c0,0.173,0,0.375,0,0.549c0,0.173,0,0.289,0,0.433
	c0.098,0.94,0.425,1.843,0.953,2.627c17.984,33.978,37.557,68.041,57.938,101.47c-24.48,39.317-51.327,79.126-82.359,122.629
	c-1.845,2.602-1.233,6.205,1.368,8.05c0.072,0.052,0.145,0.102,0.22,0.149c19.457,12.509,38.836,25.018,58.139,37.527
	c2.57,1.66,5.989,1.026,7.794-1.443c21.958-29.868,43.128-60.092,63.508-90.673c20.208,30.427,41.512,60.882,63.509,90.673
	c1.806,2.47,5.225,3.104,7.795,1.443c19.244-12.471,38.624-24.98,58.139-37.527c2.683-1.725,3.461-5.296,1.737-7.979
	c-0.048-0.075-0.098-0.148-0.149-0.221H743.022z M550.764,96.77c2.685-5.139,23.44-14.723,61.343-14.723
	c37.903,0,58.861,9.642,61.286,14.578c5.398,10.999,16.454,33.429,24.797,50.374c-18.792-7.823-48.353-12.096-86.083-12.096
	c-40.616,0-68.012,3.147-85.39,10.306C534.887,128.408,545.395,107.018,550.764,96.77z M612.107,188.366
	c-7.563-13.597-14.953-27.337-22.372-41.541c7.679-0.289,15.271-0.375,22.344-0.375c7.968,0,15.386,0.183,22.257,0.548
	C627.042,160.99,619.633,174.779,612.107,188.366z M516.845,166.254c8.66-12.182,33.862-16.974,60.218-18.793
	c9.439,18.129,18.764,35.449,28.435,52.712c-11.258,19.948-22.892,39.693-35.103,59.554
	C551.688,228.896,533.704,197.517,516.845,166.254z M542.624,426.408c-16.108-10.411-32.274-20.832-48.498-31.264
	c30.369-42.724,56.754-82.157,80.858-120.897l0.202-0.317c14.723-23.671,28.58-47.083,41.945-70.87l0.202-0.375
	c10.104-17.984,19.918-36.171,29.646-54.848c35.449,3.175,54.155,11.027,60.392,18.533
	c-48.957,90.33-104.01,177.221-164.776,260.068L542.624,426.408z M681.621,426.408c-21.651-29.561-42.666-59.756-62.585-89.865
	c11.951-18.166,23.585-36.45,34.9-54.848c22.401,35.651,47.4,72.861,76.182,113.392c-16.242,10.489-32.408,20.938-48.497,31.351
	V426.408z"/>
</svg>
