<?xml version="1.0" encoding="utf-8"?>
<!-- Generator: Adobe Illustrator 17.0.0, SVG Export Plug-In . SVG Version: 6.00 Build 0)  -->
<!DOCTYPE svg PUBLIC "-//W3C//DTD SVG 1.1//EN" "http://www.w3.org/Graphics/SVG/1.1/DTD/svg11.dtd">
<svg version="1.1" id="Layer_1" xmlns="http://www.w3.org/2000/svg" xmlns:xlink="http://www.w3.org/1999/xlink" x="0px" y="0px"
	 width="250px" height="250px" viewBox="0 0 250 250" enable-background="new 0 0 250 250" xml:space="preserve">
<title>Gym Outline</title>
<path fill="#F38230" d="M179.19,143.377c-8.012-7.944-20.93-7.944-28.942,0l-11.255,11.325c-2.664,2.63-4.163,6.218-4.16,9.962
	c-0.028,3.029,0.929,5.985,2.726,8.424l-9.053,9.018l-9.612-9.473c3.286-6.891,1.887-15.104-3.495-20.518l-20.588-20.728
	c-1.359-1.371-3.573-1.38-4.943-0.02c-0.007,0.007-0.014,0.013-0.02,0.02l-24.013,24.013c-0.654,0.66-1.019,1.553-1.014,2.482
	c0.013,0.925,0.375,1.812,1.014,2.482l20.728,20.553c5.394,5.421,13.633,6.825,20.518,3.495l9.647,9.647l-21.532,21.497
	c-0.639,0.67-1.001,1.556-1.014,2.482c-0.005,0.929,0.359,1.822,1.014,2.482l6.991,6.991c1.359,1.371,3.573,1.38,4.943,0.02
	c0.007-0.007,0.014-0.013,0.02-0.02l21.357-21.462l21.462,21.497c1.359,1.371,3.573,1.38,4.943,0.02
	c0.007-0.007,0.014-0.013,0.02-0.02l6.991-6.991c1.371-1.359,1.38-3.573,0.02-4.943c-0.007-0.007-0.013-0.014-0.02-0.02
	l-21.497-21.497l9.053-9.018c5.642,4.106,13.429,3.514,18.386-1.398l11.325-11.325C187.176,164.346,187.176,151.385,179.19,143.377
	L179.19,143.377z M152.485,220.276l-19.015-19.05l2.097-2.097l19.015,18.945L152.485,220.276z M109.981,177.562
	c-0.66-0.654-1.553-1.019-2.482-1.014c-0.713,0.002-1.408,0.221-1.992,0.629c-4.343,3.029-10.231,2.514-13.982-1.223L73.28,157.883
	l2.971-2.971l12.059,12.059c0.651,0.646,1.53,1.01,2.447,1.014c0.929,0.005,1.822-0.359,2.482-1.014
	c1.355-1.363,1.355-3.565,0-4.928l-12.059-12.059l3.251-3.251l12.059,11.919c1.371,1.361,3.585,1.353,4.946-0.017
	c1.361-1.371,1.353-3.585-0.017-4.946l0,0l-12.059-11.919l2.971-2.971l18.106,18.071c3.697,3.769,4.209,9.628,1.223,13.982
	c-0.993,1.394-0.831,3.303,0.384,4.509l11.57,11.535l-2.097,2.097L109.981,177.562z M174.261,167.391l-11.325,11.325
	c-2.679,2.78-7.105,2.861-9.885,0.182c-0.062-0.06-0.122-0.12-0.182-0.182l-0.944-0.979c-0.648-0.68-1.542-1.071-2.482-1.084
	c-0.941-0.015-1.848,0.351-2.517,1.014l-13.982,13.982l0,0l-6.991,6.991l-21.671,21.671l-2.097-2.097l21.532-21.497l6.991-6.991
	l13.982-13.982c1.371-1.359,1.38-3.573,0.02-4.943c-0.007-0.007-0.013-0.014-0.02-0.02l-0.944-0.944
	c-1.36-1.333-2.118-3.164-2.097-5.068c-0.011-1.893,0.746-3.709,2.097-5.033l11.29-11.325c5.241-5.27,13.761-5.294,19.031-0.054
	c2.553,2.539,3.983,5.995,3.968,9.596C178.083,161.476,176.724,164.872,174.261,167.391z"/>
<path fill="#F38230" d="M121.516,136.107v15.345c0,1.93,1.565,3.495,3.495,3.495c1.93,0,3.495-1.565,3.495-3.495v-15.345
	c8.319-4.125,37.645-20.972,37.645-56.73c0-41.281-39.428-57.569-39.847-57.709c-0.83-0.331-1.756-0.331-2.587,0
	c-0.419,0-39.847,16.428-39.847,57.709C83.871,114.995,113.197,131.982,121.516,136.107z M125.011,28.729
	c6.362,3.006,34.15,18.071,34.15,50.648c0,28.662-20.972,43.553-30.655,48.935V103.39c16.708-8.704,19.469-19.155,19.609-19.609
	c0.473-1.873-0.662-3.774-2.534-4.247c-1.873-0.473-3.774,0.662-4.247,2.534c0,0-2.027,6.676-12.828,13.317V77.909
	c16.708-8.704,19.469-19.155,19.609-19.609c0.473-1.873-0.662-3.774-2.534-4.247c-1.873-0.473-3.774,0.662-4.247,2.534
	c0,0-2.027,6.746-12.828,13.317V57.286c0-1.93-1.565-3.495-3.495-3.495c-1.93,0-3.495,1.565-3.495,3.495v25.411
	c-10.696-6.501-12.758-13.073-12.828-13.317c-0.48-1.84-2.344-2.959-4.194-2.517c-1.884,0.422-3.068,2.292-2.646,4.175
	c0.017,0.077,0.037,0.153,0.059,0.229c0,0.454,2.901,10.906,19.609,19.609v16.988c-10.696-6.536-12.758-13.143-12.828-13.352
	c-0.48-1.84-2.344-2.959-4.194-2.517c-1.878,0.447-3.038,2.332-2.591,4.21c0.002,0.007,0.003,0.013,0.005,0.02
	c0,0.454,2.901,10.906,19.609,19.609v12.548c-9.682-5.418-30.655-20.483-30.655-48.935C90.861,46.485,118.475,31.735,125.011,28.729
	z"/>
</svg>
