<?xml version="1.0" encoding="utf-8"?>
<!-- Generator: Adobe Illustrator 16.0.0, SVG Export Plug-In . SVG Version: 6.00 Build 0)  -->
<!DOCTYPE svg PUBLIC "-//W3C//DTD SVG 1.1//EN" "http://www.w3.org/Graphics/SVG/1.1/DTD/svg11.dtd">
<svg version="1.1" id="Layer_1" xmlns="http://www.w3.org/2000/svg" xmlns:xlink="http://www.w3.org/1999/xlink" x="0px" y="0px"
	 width="250px" height="250px" viewBox="0 0 250 250" enable-background="new 0 0 250 250" xml:space="preserve">
<title>Watermelon</title>
<desc>Created with Sketch.</desc>
<g>
	<g transform="translate(-51.000000, -602.000000)">
		<g transform="translate(51.850841, 601.712130)">
			<path fill="#F38230" d="M97.862,94.028c-0.458,0-0.892,0.627-1.301,0.434c-0.99-0.571-1.443-1.758-1.084-2.843
				c0.369-1.047,1.04-1.961,1.928-2.627c3.352-2.847,7.654-4.327,12.048-4.145c0.902-0.052,1.781,0.291,2.41,0.94
				c0.419,0.79,0.334,1.753-0.217,2.458c-0.585,0.714-1.327,1.283-2.169,1.663C105.837,91.863,101.92,93.252,97.862,94.028
				L97.862,94.028z"/>
			<path fill="#F38230" d="M143.934,162.052c-0.819,0.651-2.241,0.988-2.771,0c-0.191-0.422-0.242-0.896-0.145-1.349l1.012-9.639
				c-0.02-1.281,0.416-2.527,1.229-3.519c0.916-0.867,2.819-0.675,3.061,0.578c0.584,2.404,0.835,4.877,0.747,7.35
				C146.98,158.007,145.846,160.389,143.934,162.052L143.934,162.052z"/>
			<path fill="#F38230" d="M124.368,136.921c-2.014,3.943-4.858,7.404-8.337,10.145c-0.747,0.578-1.952,0-2.169-1.036
				c-0.12-0.956,0.111-1.924,0.651-2.724c1.794-3.36,4.196-6.359,7.084-8.842c0.884-0.941,2.107-1.488,3.398-1.519
				C125.426,134.294,125.194,135.768,124.368,136.921L124.368,136.921z"/>
			<path fill="#F38230" d="M110.657,117.45c-2.423,3.155-5.54,5.711-9.108,7.47c-0.464,0.282-0.999,0.424-1.542,0.41
				c-1.07-0.261-1.727-1.339-1.47-2.41c0.271-1.012,0.853-1.914,1.663-2.578c2.608-2.512,5.769-4.377,9.229-5.446
				c0.474-0.219,1.02-0.219,1.494,0C111.717,115.426,111.26,116.679,110.657,117.45L110.657,117.45z"/>
			<path fill="#F38230" d="M69.573,200.1c-10.361-8.241-20.217-17.881-25.952-30.096c-2.476-5.516-4.28-11.309-5.373-17.254
				c-9.881-48.269,12-97.484,54.458-122.482c3.373-2.048,8.506-3.639,10.988-0.482c40.169,51.229,68.602,110.699,107.855,162.578
				c1.713,2.798,1.328,6.399-0.94,8.771c-2.249,2.261-4.985,3.975-8,5.013c-15.3,7.003-31.302,12.358-47.735,15.976
				c-16.506,3.205-33.855,3.374-49.855-1.783C92.078,215.791,80.068,208.932,69.573,200.1L69.573,200.1z M102.489,55.835
				C92.433,66.34,84.526,78.708,79.211,92.245c-5.297,13.603-6.141,28.537-2.41,42.651c5.807,19.854,22.554,35.565,42.072,42.386
				c19.519,6.82,41.398,5.277,60.796-1.88c1.672-0.289,3.118-1.328,3.928-2.819c0.283-1.64-0.166-3.322-1.229-4.602
				c-23.196-37.285-47.142-74.096-71.831-110.434c-1.349-1.976-3.349-4.217-5.639-3.566c-0.954,0.381-1.787,1.014-2.41,1.831v0.023
				H102.489z M83.356,43.907c-19.277,18.096-33.735,42.096-37.422,68.289c-3.687,26.193,4.217,54.482,23.253,72.867
				c4.249,4.002,8.81,7.66,13.639,10.939c12.723,8.867,26.771,16.506,42.169,18.603c6.174,0.756,12.408,0.86,18.602,0.313
				c18.219-1.365,36.02-6.13,52.482-14.049c1.354-0.486,2.508-1.41,3.277-2.626c0.555-1.792,0.326-3.733-0.627-5.349
				c-0.984-2.822-2.497-5.432-4.458-7.688c-2.025-2.287-5.177-3.223-8.12-2.41c-23.012,8.578-48.795,11.471-72.096,3.735
				c-23.301-7.735-43.373-26.867-48.313-50.892c-1.557-8.184-1.663-16.576-0.313-24.795C69.115,86.63,82.85,64.775,100.32,47.594
				c0.967-1.172,1.42-2.684,1.257-4.195c-0.163-1.511-0.929-2.891-2.124-3.829c-2.547-1.771-5.828-2.099-8.675-0.867
				C87.991,39.942,85.47,41.709,83.356,43.907L83.356,43.907z"/>
		</g>
	</g>
</g>
</svg>
