<?xml version="1.0" encoding="utf-8"?>
<!-- Generator: Adobe Illustrator 16.0.0, SVG Export Plug-In . SVG Version: 6.00 Build 0)  -->
<!DOCTYPE svg PUBLIC "-//W3C//DTD SVG 1.1//EN" "http://www.w3.org/Graphics/SVG/1.1/DTD/svg11.dtd">
<svg version="1.1"
	 id="Layer_1" xmlns:dc="http://purl.org/dc/elements/1.1/" xmlns:cc="http://creativecommons.org/ns#" xmlns:rdf="http://www.w3.org/1999/02/22-rdf-syntax-ns#" xmlns:sodipodi="http://sodipodi.sourceforge.net/DTD/sodipodi-0.dtd" xmlns:svg="http://www.w3.org/2000/svg" xmlns:inkscape="http://www.inkscape.org/namespaces/inkscape"
	 xmlns="http://www.w3.org/2000/svg" xmlns:xlink="http://www.w3.org/1999/xlink" x="0px" y="0px" width="500px" height="500px"
	 viewBox="350 0 500 500" enable-background="new 350 0 500 500" xml:space="preserve">
<path fill="#F38230" d="M568.949,76.901c-1.576-0.079-2.985,0.156-4.04,0.391c-2.188,0.625-4.373,1.249-6.873,1.874
	c-3.75,0.938-7.499,1.875-11.249,3.125c-13.438,4.375-29.377,10.311-43.127,20.936c-7.188,5.625-12.188,11.875-15.313,18.75
	c-3.438,7.5-7.185,15.626-11.872,23.126c-16.25,26.25-37.188,77.815-46.875,104.065c-6.875,18.75-13.125,59.996-14.063,74.683
	c-1.25,14.375,1.247,23.438,16.56,27.813c6.563,1.875,13.438,4.062,20.001,6.562c5.938,2.188,11.563,4.689,17.188,7.189
	c16.875,7.5,34.688,15.314,62.5,18.127c40.625,4.375,73.752-7.5,90.002-14.063c6.25,20.938,13.121,40.937,19.996,56.562
	c1.563,3.438,5.002,5.622,8.752,5.622c1.25,0,2.498-0.311,3.748-0.623c3.75-1.563,23.125-11.873,31.25-14.686
	c-9.375-9.375,0-37.191-15.625-62.816c-5.938-9.375-25.938-9.372-35.938-7.185c-0.313-0.313-26.561,9.063-36.561,12.188
	c-13.75,0-31.249-0.626-51.874-2.813c-40.625-4.375-54.062-15.626-76.874-24.688c-6.875-2.5-13.754-4.686-20.629-6.873
	c-2.5-0.625-4.372-1.564-5.622-2.502c1.563-21.563,6.876-55.939,24.688-90.002c15-29.063,31.56-79.999,46.247-103.436
	c4.688-7.5,50.314-22.499,57.189-26.874c2.188,2.5,4.374,5.313,6.562,7.813l2.186,2.502c2.188,2.5,3.127,5.622,2.502,8.747
	c-1.25,7.188-7.187,12.188-14.374,12.188h-19.378c-1.563,0-14.371-0.313-24.684,4.999c-4.063,1.875-7.813,5.002-10.626,8.752
	c-6.563,8.75-9.063,18.749-10.626,28.437c-2.188,14.063-3.124,22.188-3.437,46.875c0,12.188,1.56,33.439,2.497,46.252l0.316,2.186
	c-2.5,2.5-4.064,4.375-4.064,4.688c-3.125,4.063-2.188,9.998,1.874,13.123c1.563,1.25,3.752,1.879,5.627,1.879
	c2.813,0,5.626-1.253,7.501-3.753c0.938-1.563,26.562-34.999,76.874-11.249c4.688,2.188,10.313,0.312,12.5-4.376
	c1.25-2.5,1.249-5.001,0.312-7.501c13.125-6.563,24.687-10.309,36.249-12.184c20-3.125,35.313-0.001,48.438,9.687
	c1.25,0.938,2.503,2.188,3.753,3.125c0.625,0.625,1.249,1.25,1.874,1.563c2.813,2.5,6.872,2.813,10.31,1.251
	c2.188-0.938,6.254-3.128,11.254-5.315c34.375-17.188,43.749-22.188,47.187-26.563c3.125-4.063,2.5-9.998-1.563-13.123
	c-3.75-3.125-9.374-2.499-12.812,1.251c-4.375,3.438-29.688,15.624-40.625,20.624c-2.188,0.938-4.375,2.189-6.25,2.814
	c-0.625-0.625-1.254-0.938-1.879-1.563c-17.188-12.813-37.813-16.878-62.5-13.128c-16.875,2.5-33.746,9.063-52.809,20.001
	c-27.5-8.75-49.064-2.813-63.439,4.999c-0.938-11.875-1.875-26.249-1.563-34.687c0.313-23.438,1.25-30.937,3.125-44.062
	c1.25-8.125,3.123-14.689,6.873-19.689c0.938-1.25,2.502-2.812,4.064-3.437c5-2.5,13.124-2.813,15.937-2.813H567.1
	c16.563,0,30.313-11.875,32.813-28.125c1.25-8.75-0.94-17.186-6.878-24.061l-2.186-2.502c-4.375-5.313-9.064-10.313-13.439-15.625
	C574.675,78.03,571.577,77.032,568.949,76.901z"/>
</svg>
