<?xml version="1.0" encoding="utf-8"?>
<!-- Generator: Adobe Illustrator 16.0.0, SVG Export Plug-In . SVG Version: 6.00 Build 0)  -->
<!DOCTYPE svg PUBLIC "-//W3C//DTD SVG 1.1//EN" "http://www.w3.org/Graphics/SVG/1.1/DTD/svg11.dtd">
<svg version="1.1" id="Layer_1" xmlns="http://www.w3.org/2000/svg" xmlns:xlink="http://www.w3.org/1999/xlink" x="0px" y="0px"
	 width="500px" height="500px" viewBox="350 0 500 500" enable-background="new 350 0 500 500" xml:space="preserve">
<title>fitness-runner-sport-fit-jogging</title>
<g>
	<path fill="#F38230" stroke="#F38230" stroke-width="3" stroke-miterlimit="10" d="M627.113,150.001
		c24.162,0,43.75-19.587,43.75-43.75s-19.588-43.75-43.75-43.75s-43.75,19.587-43.75,43.75
		C583.391,130.403,602.962,149.974,627.113,150.001z M627.113,75.001c17.259,0,31.25,13.991,31.25,31.25s-13.991,31.25-31.25,31.25
		s-31.25-13.991-31.25-31.25C595.883,89,609.862,75.021,627.113,75.001z"/>
	<path fill="#F38230" stroke="#F38230" stroke-width="3" stroke-miterlimit="10" d="M651.147,261.343h32.216
		c3.452,0,6.25-2.799,6.25-6.25v-43.75c0-3.452-2.798-6.25-6.25-6.25h-25v-42.591c0-3.452-2.798-6.25-6.25-6.25h-40
		c-0.293,0-0.585-0.006-0.878,0h-21.622c-3.452,0-6.25,2.798-6.25,6.25v16.498l-15.84,34.849
		c-7.523,16.563-0.503,36.104,15.84,44.094v11.388l-25.554,61.338l-53.047,58.934c-2.31,2.566-2.103,6.518,0.462,8.828
		c0.001,0,0.002,0,0.002,0l32.523,29.266c2.566,2.309,6.518,2.1,8.826-0.467c0.001,0,0.001,0,0.002-0.002l58.742-65.273
		c0.473-0.523,0.853-1.125,1.124-1.777l13.383-32.115l13.499,29.473l-1.977,73.549c-0.093,3.449,2.629,6.322,6.079,6.414
		c0.057,0.002,0.114,0.004,0.171,0.004h43.75c3.395,0,6.169-2.709,6.25-6.102l2.016-84.609c0.021-0.949-0.173-1.891-0.567-2.754
		L651.147,261.343z M645.863,205.093h-12.572l4.125-9.073c4.021-8.864,3.175-19.176-2.238-27.266h10.686V205.093z M580.371,239.169
		c-3.897-6.025-4.451-13.623-1.468-20.149l18.684-41.104c3.57-7.856,12.834-11.33,20.69-7.759
		c7.855,3.571,11.329,12.834,7.759,20.69l-8.142,17.909c-1.429,3.142-0.039,6.848,3.103,8.276c0.813,0.369,1.694,0.56,2.587,0.56
		h53.529v31.25h-79.007C590.931,248.858,584.242,245.21,580.371,239.169z M595.316,354.386l-53.849,59.834l-23.23-20.904
		l49.577-55.078c0.473-0.523,0.853-1.125,1.123-1.777l26.072-62.581l17.729,38.7L595.316,354.386z M675.244,425.001h-31.227
		l1.846-68.582c0.025-0.955-0.168-1.902-0.565-2.77l-41.507-90.625l-7.928,3.629v-5.391c0.743,0.049,1.49,0.078,2.243,0.078h39.292
		l39.682,86.592L675.244,425.001z"/>
</g>
</svg>
