<?xml version="1.0" encoding="utf-8"?>
<!-- Generator: Adobe Illustrator 16.0.0, SVG Export Plug-In . SVG Version: 6.00 Build 0)  -->
<!DOCTYPE svg PUBLIC "-//W3C//DTD SVG 1.1//EN" "http://www.w3.org/Graphics/SVG/1.1/DTD/svg11.dtd">
<svg version="1.1" id="Layer_1" xmlns="http://www.w3.org/2000/svg" xmlns:xlink="http://www.w3.org/1999/xlink" x="0px" y="0px"
	 width="500px" height="500px" viewBox="0 0 500 500" enable-background="new 0 0 500 500" xml:space="preserve">
<g>
	<ellipse fill="#F38230" cx="245.652" cy="72.782" rx="42.361" ry="42.361"/>
	<path fill="#F38230" d="M164.055,148.477c5.208,2.431,9.722,4.166,13.542,5.556l22.222,94.097
		c-0.347,1.042-0.347,1.736-0.694,2.778l-34.028,200c-2.431,13.889,6.944,27.083,20.833,29.514c1.389,0.348,2.778,0.348,4.167,0.348
		c12.153,0,22.917-8.681,25-21.181l29.514-171.875h2.777l29.514,171.875c2.084,12.5,12.848,21.181,25,21.181
		c1.389,0,2.777,0,4.167-0.348c13.889-2.431,23.264-15.625,20.833-29.514l-34.027-200c0-1.042-0.348-1.736-0.695-2.778
		l22.223-94.097c6.598-2.431,16.319-6.597,26.389-12.153c9.028-5.208,18.403-11.458,26.389-19.791
		c7.986-8.334,14.584-20.139,14.584-34.027c0-12.153-5.209-24.307-14.584-35.07s-22.568-21.18-40.972-31.598
		c-7.985-4.514-18.403-1.735-23.264,6.25c-4.515,7.986-1.736,18.403,6.25,23.265c16.319,9.375,26.389,17.708,31.944,23.958
		c5.556,6.598,6.25,10.417,6.25,12.848c0,2.777-1.389,6.25-5.556,11.111c-6.25,6.943-18.403,13.889-28.472,18.75
		c-5.209,2.43-9.723,4.166-13.195,5.208c-1.041,0.347-1.736,0.694-2.777,1.042c-0.694,0-1.389,0-1.736,0h-100
		c-0.694,0-1.389,0-1.736,0c-5.208-1.736-17.708-6.25-28.82-13.195c-6.597-3.818-12.5-8.333-15.972-12.5
		c-3.819-4.514-4.861-7.639-4.861-10.068c0-2.432,0.694-6.25,6.25-12.848s15.625-14.931,31.944-23.959
		c7.986-4.514,11.111-14.93,6.25-23.264c-4.514-7.986-14.931-11.111-23.264-6.25c-18.403,10.417-31.598,20.834-40.973,31.598
		c-9.027,10.764-14.583,22.916-14.583,35.069c0,14.235,6.944,25.694,14.583,34.028C136.625,134.936,151.555,142.921,164.055,148.477
		z"/>
</g>
</svg>
