<?xml version="1.0" encoding="utf-8"?>
<!-- Generator: Adobe Illustrator 19.1.0, SVG Export Plug-In . SVG Version: 6.00 Build 0)  -->
<svg version="1.1" id="Layer_1" xmlns="http://www.w3.org/2000/svg" xmlns:xlink="http://www.w3.org/1999/xlink" x="0px" y="0px"
	 viewBox="-233 244.6 143.7 144" style="enable-background:new -233 244.6 143.7 144;" xml:space="preserve">
<style type="text/css">
	.st0{fill:#E44C2A;}
</style>
<g>
	<ellipse class="st0" cx="-161.2" cy="265.2" rx="12.2" ry="12.2"/>
	<path class="st0" d="M-184.7,287c1.5,0.7,2.8,1.2,3.9,1.6l6.4,27.1c-0.1,0.3-0.1,0.5-0.2,0.8l-9.8,57.6c-0.7,4,2,7.8,6,8.5
		c0.4,0.1,0.8,0.1,1.2,0.1c3.5,0,6.6-2.5,7.2-6.1l8.5-49.5h0.8l8.5,49.5c0.6,3.6,3.7,6.1,7.2,6.1c0.4,0,0.8,0,1.2-0.1
		c4-0.7,6.7-4.5,6-8.5l-9.8-57.6c0-0.3-0.1-0.5-0.2-0.8l6.4-27.1c1.9-0.7,4.7-1.9,7.6-3.5c2.6-1.5,5.3-3.3,7.6-5.7
		c2.3-2.4,4.2-5.8,4.2-9.8c0-3.5-1.5-7-4.2-10.1c-2.7-3.1-6.5-6.1-11.8-9.1c-2.3-1.3-5.3-0.5-6.7,1.8c-1.3,2.3-0.5,5.3,1.8,6.7
		c4.7,2.7,7.6,5.1,9.2,6.9c1.6,1.9,1.8,3,1.8,3.7c0,0.8-0.4,1.8-1.6,3.2c-1.8,2-5.3,4-8.2,5.4c-1.5,0.7-2.8,1.2-3.8,1.5
		c-0.3,0.1-0.5,0.2-0.8,0.3c-0.2,0-0.4,0-0.5,0h-28.8c-0.2,0-0.4,0-0.5,0c-1.5-0.5-5.1-1.8-8.3-3.8c-1.9-1.1-3.6-2.4-4.6-3.6
		c-1.1-1.3-1.4-2.2-1.4-2.9c0-0.7,0.2-1.8,1.8-3.7c1.6-1.9,4.5-4.3,9.2-6.9c2.3-1.3,3.2-4.3,1.8-6.7c-1.3-2.3-4.3-3.2-6.7-1.8
		c-5.3,3-9.1,6-11.8,9.1c-2.6,3.1-4.2,6.6-4.2,10.1c0,4.1,2,7.4,4.2,9.8C-192.6,283.1-188.3,285.4-184.7,287z"/>
</g>
</svg>
