<?xml version="1.0" encoding="utf-8"?>
<!-- Generator: Adobe Illustrator 16.0.0, SVG Export Plug-In . SVG Version: 6.00 Build 0)  -->
<!DOCTYPE svg PUBLIC "-//W3C//DTD SVG 1.1//EN" "http://www.w3.org/Graphics/SVG/1.1/DTD/svg11.dtd">
<svg version="1.1" id="Layer_1" xmlns="http://www.w3.org/2000/svg" xmlns:xlink="http://www.w3.org/1999/xlink" x="0px" y="0px"
	 width="500px" height="500px" viewBox="350 0 500 500" enable-background="new 350 0 500 500" xml:space="preserve">
<g>
	<g>
		<path fill="#F38230" d="M649.492,428.659H530.34c-4.023,0-7.498-2.818-8.328-6.753c-1.634-7.738-3.699-21.63-5.823-39.118
			c-5.381-42.641-11.382-107.717-11.382-132.858c0-2.601,0.008-5.107,0.196-7.609c3.183-106.299,75.43-190.22,78.501-193.74
			c3.234-3.698,9.591-3.698,12.825,0c3.071,3.52,75.322,87.441,78.523,194.115c0.166,2.127,0.174,4.634,0.174,7.235
			c0,25.164-6.001,90.233-11.382,132.897c-2.116,17.42-4.185,31.313-5.823,39.079C656.989,425.841,653.516,428.659,649.492,428.659z
			 M537.404,411.637h105.023c1.297-7.626,2.789-18.265,4.322-30.901c5.323-42.2,11.253-106.274,11.253-130.806
			c0-2.169,0.009-4.26-0.145-6.354c-2.494-82.77-50.344-152.753-67.938-175.78c-17.587,23.048-65.453,93.088-67.926,175.41
			c-0.174,2.464-0.165,4.555-0.165,6.724c0,24.511,5.93,88.589,11.253,130.769C534.62,393.377,536.112,404.024,537.404,411.637z"/>
	</g>
	<g>
		<path fill="#F38230" d="M436.719,454.193c-1.322,0-2.643-0.309-3.861-0.927c-2.854-1.455-4.65-4.385-4.65-7.585V335.039
			c0-49.411,35.229-91.663,83.764-100.465c2.584-0.482,5.256,0.287,7.21,2.049c1.957,1.758,2.988,4.326,2.792,6.953
			c-0.153,2.094-0.145,4.185-0.145,6.354c0,24.511,5.93,88.589,11.253,130.769c0.387,3.075-0.931,6.122-3.441,7.946l-87.918,63.92
			C440.243,453.645,438.485,454.193,436.719,454.193z M504.848,253.815c-35.095,10.929-59.618,43.581-59.618,81.224v93.932
			l70.344-51.14C510.617,337.347,505.359,280.154,504.848,253.815z"/>
	</g>
	<g>
		<path fill="#F38230" d="M743.113,454.193c-1.767,0-3.524-0.549-5.004-1.629l-87.915-63.92c-2.51-1.824-3.827-4.871-3.44-7.946
			c5.319-42.163,11.249-106.237,11.249-130.769c0-2.169,0.009-4.26-0.145-6.354c-0.195-2.627,0.835-5.195,2.792-6.953
			c1.958-1.766,4.643-2.506,7.21-2.049c48.536,8.798,83.764,51.05,83.764,100.465v110.643c0,3.2-1.795,6.13-4.65,7.585
			C745.756,453.885,744.431,454.193,743.113,454.193z M664.263,377.831l70.34,51.14v-93.932c0-37.643-24.522-70.295-59.618-81.224
			C674.473,280.172,669.216,337.357,664.263,377.831z"/>
	</g>
	<g>
		<path fill="#F38230" d="M589.916,266.968c-23.463,0-42.555-19.091-42.555-42.554c0-23.463,19.092-42.555,42.555-42.555
			s42.555,19.092,42.555,42.555C632.471,247.877,613.379,266.968,589.916,266.968z M589.916,198.881
			c-14.08,0-25.533,11.453-25.533,25.533s11.453,25.533,25.533,25.533s25.533-11.453,25.533-25.533S603.996,198.881,589.916,198.881
			z"/>
	</g>
</g>
</svg>
