<?xml version="1.0" encoding="utf-8"?>
<!-- Generator: Adobe Illustrator 16.0.0, SVG Export Plug-In . SVG Version: 6.00 Build 0)  -->
<!DOCTYPE svg PUBLIC "-//W3C//DTD SVG 1.1//EN" "http://www.w3.org/Graphics/SVG/1.1/DTD/svg11.dtd">
<svg version="1.1" id="Layer_1" xmlns="http://www.w3.org/2000/svg" xmlns:xlink="http://www.w3.org/1999/xlink" x="0px" y="0px"
	 width="500px" height="500px" viewBox="0 0 500 500" enable-background="new 0 0 500 500" xml:space="preserve">
<path fill="#F38230" d="M289.908,462.797c-14.245,13.295-29.915,19.468-48.433,19.468c-14.245,0-26.591-4.273-37.037-14.245
	c-4.749-4.273-9.022-6.172-15.195-5.697c-20.893,1.898-37.512-6.648-49.383-23.268c-7.597-10.921-14.245-23.267-18.993-35.612
	c-11.871-29.914-17.569-61.729-22.792-93.542c-4.273-23.742-7.598-47.483-10.921-71.226c-2.374-19.468-2.374-38.461,2.849-57.93
	c8.547-32.763,31.339-52.231,65.527-55.08c8.072-0.476,16.619-1.425,24.216,0.949c11.396,2.849,19.943-0.475,28.015-7.122
	c9.497-8.072,17.094-17.095,16.145-31.814c-0.475-8.547,0.475-17.094,1.899-25.166c4.273-17.568,17.094-27.54,35.138-28.49
	c10.446-0.475,20.893,1.425,31.813,5.698c-2.374,8.072-4.748,16.145-7.122,24.691c-3.799-0.95-7.123-1.425-9.972-1.899
	c-20.418-4.748-35.138,10.922-29.44,31.34c3.324,11.396,7.597,21.842,21.368,24.691c4.748,0.949,9.497,3.798,13.296,7.122
	c5.223,4.273,10.92,4.748,17.568,3.799c6.647-0.95,13.295-1.899,19.468-1.425c27.065,0.475,46.534,12.82,58.405,37.037
	c9.021,17.568,12.346,36.563,13.295,56.03c2.85,60.778-3.324,120.607-19.943,179.487c-4.273,15.194-10.445,29.439-19.468,42.26
	c-6.647,9.497-14.245,17.094-25.166,21.843C313.649,469.444,302.254,468.02,289.908,462.797z M175.473,410.09
	c0.95-0.475,1.899-0.475,3.324-0.949c1.899,3.324,3.324,6.647,5.223,9.972c6.647,12.82,13.77,25.166,24.691,35.138
	c8.072,7.122,17.094,12.346,28.015,13.295c22.792,1.425,42.26-6.173,55.556-25.641c5.224-7.598,8.547-16.619,12.346-24.691
	c0.949-1.899,1.899-4.273,2.849-6.173c1.899,14.245-2.374,27.065-7.598,39.411c10.922,4.748,19.943,2.849,27.066-3.799
	c5.697-4.748,11.396-10.921,14.72-17.569c5.698-10.446,10.446-21.842,14.245-32.763c8.547-24.217,12.346-49.857,15.194-75.024
	c4.273-36.087,8.072-72.649,3.323-109.212c-1.898-15.669-5.223-31.339-13.77-45.108c-12.346-20.893-37.986-29.915-59.829-21.368
	c10.446,27.066,10.921,28.016,9.022,38.937c-3.324-7.122-6.648-14.245-10.447-20.893c-22.792-43.685-85.47-48.907-115.384-9.021
	c-4.273,5.698-7.597,11.396-11.396,17.568c-1.425,2.374-2.849,4.273-5.698,8.548c0.95-15.67,7.598-26.592,13.295-37.987
	c-30.864-8.547-67.426,4.273-76.448,41.785c-3.798,15.195-5.223,30.864-2.849,46.06c5.224,34.662,9.972,69.8,16.619,104.463
	c4.273,21.843,10.446,42.735,17.094,64.103c3.799,12.82,9.972,24.217,18.994,34.188c8.547,9.496,18.993,15.194,32.763,14.72
	C183.07,434.781,179.271,422.436,175.473,410.09z"/>
</svg>
