<?xml version="1.0" encoding="utf-8"?>
<!-- Generator: Adobe Illustrator 16.0.0, SVG Export Plug-In . SVG Version: 6.00 Build 0)  -->
<!DOCTYPE svg PUBLIC "-//W3C//DTD SVG 1.1//EN" "http://www.w3.org/Graphics/SVG/1.1/DTD/svg11.dtd">
<svg version="1.1" id="Layer_1" xmlns="http://www.w3.org/2000/svg" xmlns:xlink="http://www.w3.org/1999/xlink" x="0px" y="0px"
	 width="400px" height="400px" viewBox="45.25 50 400 400" enable-background="new 45.25 50 400 400" xml:space="preserve">
<path fill="#F38230" d="M404.199,411.571c-25.91-23.427-49.335-45.431-70.276-65.662c13.133-9.229,33.364-27.33,40.107-51.819
	c7.099-26.975-4.259-54.659-11.002-68.501c-2.485-5.324-9.229-6.743-14.198-3.549c-13.132,8.518-36.203,27.33-43.301,54.304
	c-3.904,14.906-2.129,29.813,1.065,42.591c-14.197-14.196-26.975-27.685-38.332-40.106c14.197-8.518,34.428-24.135,42.946-47.205
	c9.229-26.265,0.71-54.659-4.968-69.21c-2.13-5.324-8.519-7.809-13.487-4.969c-13.843,7.453-38.688,24.135-47.916,50.044
	c-4.969,13.843-4.969,28.749-2.839,41.527c-10.293-11.712-19.167-22.36-27.329-32.298c13.131-9.229,34.072-27.329,40.461-52.529
	c6.743-26.975-4.259-54.659-11.358-68.501c-2.839-5.324-9.228-6.744-14.197-3.549c-12.777,8.518-36.202,27.329-42.946,54.304
	c-3.194,11.003-2.84,22.005-1.065,32.298c-16.681-23.07-26.62-39.397-34.783-50.754c-2.839-3.904-7.808-4.615-11.712-2.13
	c-3.904,2.839-4.969,8.163-2.129,12.068c7.808,11.002,17.746,26.974,33.717,48.98c-9.583-4.969-20.585-8.873-32.298-9.583
	c-27.685-1.419-52.529,14.907-64.952,24.845c-4.613,3.549-4.969,10.293-0.71,14.552c11.003,11.003,34.074,30.168,61.758,31.588
	c27.329,1.419,51.819-14.552,64.241-24.135c6.034,7.454,12.423,15.616,19.876,24.135c-4.259-1.42-8.519-2.484-12.777-2.839
	c-27.685-3.194-53.594,11.357-66.372,20.23c-4.614,3.194-5.679,9.938-1.774,14.552c10.293,11.713,31.943,32.299,59.627,35.494
	c26.265,3.193,51.11-10.294,64.597-19.168c8.873,9.229,18.102,19.168,28.04,29.46c-10.648-3.55-22.716-6.033-35.493-4.614
	c-27.684,3.195-49.334,23.779-59.627,35.492c-3.905,4.259-3.195,11.004,1.774,14.553c12.777,8.874,38.687,23.779,66.371,20.587
	c26.62-3.195,47.915-22.716,58.563-34.429c21.296,20.94,45.076,43.302,72.051,67.436c3.549,3.194,8.873,2.84,12.067-0.71
	C408.103,420.089,407.749,414.766,404.199,411.571z"/>
</svg>
