<?xml version="1.0" encoding="utf-8"?>
<!-- Generator: Adobe Illustrator 16.0.0, SVG Export Plug-In . SVG Version: 6.00 Build 0)  -->
<!DOCTYPE svg PUBLIC "-//W3C//DTD SVG 1.1//EN" "http://www.w3.org/Graphics/SVG/1.1/DTD/svg11.dtd">
<svg version="1.1" id="Layer_1" xmlns="http://www.w3.org/2000/svg" xmlns:xlink="http://www.w3.org/1999/xlink" x="0px" y="0px"
	 width="500px" height="500px" viewBox="350 0 500 500" enable-background="new 350 0 500 500" xml:space="preserve">
<path fill="#F38230" stroke="#F38230" stroke-width="2" stroke-miterlimit="10" d="M705.371,221.705
	c-0.362-2.863-2.615-5.115-5.478-5.477c-4.121-0.518-8.282-0.783-12.365-0.783c-1.456,0-2.88,0.13-4.315,0.197
	c17.511-18.188,25.593-44.084,22.158-71.336c-0.362-2.862-2.619-5.115-5.481-5.473c-4.113-0.518-8.26-0.783-12.331-0.783
	c-15.292,0-29.702,3.734-42.194,10.622c2.041-7.111,3.136-14.471,3.136-21.927c0-25.791-12.692-50.434-34.822-67.611
	c-2.277-1.768-5.468-1.768-7.746,0c-22.128,17.173-34.822,41.82-34.822,67.611c0,7.456,1.094,14.815,3.136,21.927
	c-12.496-6.892-26.907-10.622-42.194-10.622c-4.071,0-8.218,0.265-12.332,0.783c-2.864,0.357-5.12,2.61-5.481,5.473
	c-3.44,27.248,4.64,53.145,22.15,71.336c-1.437-0.067-2.859-0.197-4.307-0.197c-4.08,0-8.239,0.266-12.365,0.783
	c-2.864,0.362-5.116,2.614-5.478,5.477c-3.44,27.228,4.635,53.112,22.132,71.31c-1.431-0.065-2.85-0.196-4.299-0.196
	c-4.08,0-8.238,0.265-12.36,0.783c-2.863,0.361-5.116,2.614-5.478,5.472c-3.507,27.787,4.938,54.186,23.176,72.437
	c15.447,15.456,36.785,23.968,60.083,23.968c1.982,0,3.978-0.066,5.988-0.188v38.678c0,3.486,2.828,6.315,6.314,6.315
	c3.485,0,6.315-2.829,6.315-6.315v-38.678c1.999,0.122,3.991,0.188,5.97,0.188c0.004,0,0.004,0,0.004,0
	c23.307,0,44.649-8.512,60.084-23.968c18.242-18.243,26.695-44.645,23.188-72.431c-0.362-2.863-2.614-5.116-5.477-5.478
	c-4.122-0.519-8.277-0.783-12.361-0.783c-1.453,0-2.876,0.131-4.308,0.196C700.731,274.824,708.811,248.94,705.371,221.705z
	 M616.124,240.528c2.001,0.122,3.991,0.189,5.971,0.189c1.46,0,2.884-0.131,4.319-0.198c-3.906,4.063-7.347,8.505-10.29,13.262
	V240.528z M603.494,253.79c-2.942-4.77-6.392-9.212-10.294-13.271c1.44,0.067,2.858,0.198,4.312,0.198
	c1.983,0,3.978-0.067,5.982-0.189V253.79z M693.325,150.882c1.49,22.027-5.691,42.552-20.078,56.929
	c-14.311,14.328-34.813,21.582-56.93,20.079c-1.473-22.048,5.71-42.577,20.083-56.938
	C650.715,156.632,671.167,149.383,693.325,150.882z M609.81,72.308c16.626,14.517,26.061,34.115,26.061,54.445
	c0,20.335-9.435,39.929-26.061,54.458c-16.626-14.525-26.061-34.119-26.061-54.458C583.749,106.418,593.184,86.824,609.81,72.308z
	 M526.293,150.882c22.146-1.491,42.606,5.75,56.925,20.074c14.377,14.361,21.555,34.889,20.07,56.933
	c-22.1,1.503-42.606-5.75-56.93-20.082C531.976,193.429,524.803,172.901,526.293,150.882z M526.293,228.272
	c22.09-1.503,42.602,5.738,56.925,20.058c14.373,14.374,21.555,34.906,20.07,56.934c-22.125,1.494-42.611-5.743-56.93-20.07
	C531.98,270.812,524.803,250.287,526.293,228.272z M603.283,382.649c-22.124,1.5-42.61-5.746-56.929-20.073
	c-14.374-14.387-21.551-34.915-20.061-56.93c22.095-1.512,42.59,5.739,56.925,20.069
	C597.591,340.082,604.773,360.614,603.283,382.649z M593.2,317.902c1.436,0.068,2.858,0.197,4.308,0.197
	c1.983,0,3.978-0.071,5.986-0.193v13.262C600.552,326.402,597.103,321.96,593.2,317.902z M616.124,317.906
	c2.001,0.118,3.991,0.189,5.971,0.189c0.004,0,0.004,0,0.004,0c1.456,0,2.88-0.13,4.315-0.197c-3.906,4.062-7.347,8.5-10.29,13.257
	V317.906z M693.325,305.646c1.49,22.019-5.691,42.547-20.078,56.93c-13.055,13.068-31.218,20.268-51.148,20.268c0,0,0,0-0.004,0
	c-1.907,0-3.839-0.068-5.777-0.198c-1.473-22.044,5.71-42.572,20.083-56.934C650.731,311.39,671.219,304.135,693.325,305.646z
	 M673.247,285.202c-13.051,13.063-31.218,20.263-51.148,20.263c0,0,0,0-0.004,0c-1.907,0-3.839-0.07-5.777-0.201
	c-1.473-22.032,5.714-42.565,20.083-56.934c14.318-14.315,34.81-21.557,56.925-20.058
	C694.812,250.291,687.634,270.815,673.247,285.202z"/>
</svg>
