<?xml version="1.0" encoding="utf-8"?>
<!-- Generator: Adobe Illustrator 16.0.0, SVG Export Plug-In . SVG Version: 6.00 Build 0)  -->
<!DOCTYPE svg PUBLIC "-//W3C//DTD SVG 1.1//EN" "http://www.w3.org/Graphics/SVG/1.1/DTD/svg11.dtd">
<svg version="1.1" id="Layer_1" xmlns="http://www.w3.org/2000/svg" xmlns:xlink="http://www.w3.org/1999/xlink" x="0px" y="0px"
	 width="500px" height="500px" viewBox="0 0 500 500" enable-background="new 0 0 500 500" xml:space="preserve">
<title>1</title>
<path fill="#F38230" d="M319.468,198.101c-80.21-53.232-43.913-105.021-43.913-105.021c-77.977,44.896-95.24,113.422-76.139,200.063
	c-28.094-22.774-32.162-49.752-31.243-85.33c-35.773,38.268-42.205,78.765-39.843,122.613
	c3.603,71.796,64.723,127.075,136.518,123.476c67.311-3.378,120.909-57.576,123.537-124.919
	C391.145,271.682,366.856,229.541,319.468,198.101z M266.959,423.893c-17.919,0.063-35.444-5.215-50.346-15.161
	c3.544,0.352,7.088,0.524,10.632,0.524c63.955-0.288,115.679-52.156,115.786-116.111c0-3.545-0.176-7.09-0.525-10.635
	c9.958,14.784,15.302,32.192,15.358,50.016c0.071,50.39-40.717,91.298-91.105,91.367l0,0H266.959z"/>
</svg>
