<?xml version="1.0" encoding="utf-8"?>
<!-- Generator: Adobe Illustrator 17.0.0, SVG Export Plug-In . SVG Version: 6.00 Build 0)  -->
<!DOCTYPE svg PUBLIC "-//W3C//DTD SVG 1.1//EN" "http://www.w3.org/Graphics/SVG/1.1/DTD/svg11.dtd">
<svg version="1.1" id="Layer_1" xmlns="http://www.w3.org/2000/svg" xmlns:xlink="http://www.w3.org/1999/xlink" x="0px" y="0px"
	 width="250px" height="250px" viewBox="0 0 250 250" enable-background="new 0 0 250 250" xml:space="preserve">
<g>
	<path fill="#F38230" d="M212.273,159.909c0,11.055-8.945,20-20,20c-11.036,0-20-8.945-20-20c0-0.418,0.018-0.836,0.036-1.236
		v-0.018c0.02-0.255,0.038-0.527,0.073-0.798c0.02-0.218,0.055-0.436,0.093-0.655c0.036-0.364,0.091-0.709,0.164-1.073
		c0.073-0.382,0.164-0.745,0.255-1.127l-28.182-12.964c-0.182,0.291-0.382,0.582-0.6,0.855c-0.507,0.711-1.073,1.402-1.655,2.036
		c-0.236,0.273-0.491,0.527-0.744,0.784c-0.475,0.473-0.947,0.909-1.456,1.344c-0.362,0.291-0.725,0.6-1.107,0.873
		c-0.184,0.145-0.364,0.271-0.545,0.4c-0.184,0.127-0.384,0.255-0.565,0.382c-0.545,0.364-1.109,0.711-1.691,1.036
		c-0.038,0.018-0.055,0.018-0.073,0.036c-0.545,0.291-1.109,0.565-1.673,0.818c-0.364,0.145-0.711,0.291-1.073,0.436
		c-0.347,0.144-0.711,0.253-1.075,0.38c-0.327,0.109-0.671,0.218-1.018,0.309c-0.255,0.073-0.509,0.145-0.782,0.218
		c0.255-0.055,0.527-0.127,0.782-0.2L136,189.129l0.436,0.053c0.145,0.038,0.309,0.055,0.455,0.093
		c0.145,0.018,0.273,0.053,0.416,0.091c0.384,0.073,0.745,0.182,1.109,0.291c0.455,0.145,0.909,0.309,1.345,0.491
		c0.291,0.127,0.564,0.255,0.836,0.4c0.309,0.145,0.6,0.309,0.891,0.493c0.073,0.018,0.145,0.073,0.218,0.109
		c0.182,0.111,0.344,0.218,0.507,0.345c0.291,0.2,0.582,0.4,0.856,0.618c0.271,0.2,0.545,0.436,0.798,0.673
		c0.145,0.127,0.291,0.255,0.418,0.382c0.182,0.2,0.382,0.4,0.564,0.6c0.145,0.164,0.273,0.309,0.4,0.473
		c0.02,0.018,0.038,0.038,0.055,0.055c0.164,0.218,0.327,0.416,0.493,0.636c0.182,0.256,0.344,0.493,0.507,0.745
		c0.127,0.182,0.256,0.382,0.364,0.582c0.182,0.309,0.364,0.636,0.527,0.982c0.164,0.344,0.327,0.709,0.455,1.073
		c0.164,0.4,0.309,0.818,0.418,1.253c0.125,0.418,0.236,0.836,0.309,1.291c0.036,0.218,0.073,0.436,0.109,0.655
		c0.038,0.218,0.055,0.436,0.073,0.673c0.058,0.453,0.076,0.907,0.076,1.362c0,8.036-6.509,14.545-14.545,14.545
		s-14.545-6.509-14.545-14.545c0-0.145,0-0.291,0.018-0.436v-0.127c0-0.111,0-0.2,0.018-0.311c0-0.164,0.018-0.309,0.018-0.473
		c0.018-0.053,0.018-0.091,0.018-0.145c0.018-0.125,0.036-0.255,0.055-0.4c0.018-0.127,0.018-0.255,0.055-0.382
		c0.036-0.291,0.091-0.6,0.164-0.891c0.091-0.382,0.182-0.782,0.309-1.164c0.073-0.236,0.145-0.455,0.236-0.673
		c0.127-0.345,0.255-0.673,0.4-0.982c0.145-0.327,0.309-0.636,0.473-0.945c0.109-0.218,0.218-0.418,0.345-0.62
		c0.109-0.198,0.236-0.4,0.382-0.58c0.109-0.184,0.236-0.364,0.364-0.545c0.018-0.02,0.036-0.055,0.073-0.073
		c0.127-0.165,0.255-0.345,0.4-0.509c0.218-0.273,0.455-0.527,0.691-0.782c0.164-0.165,0.309-0.329,0.491-0.493
		c0.255-0.236,0.509-0.473,0.782-0.691c0.145-0.127,0.291-0.236,0.436-0.345c0.382-0.289,0.8-0.58,1.218-0.836
		c0.418-0.255,0.836-0.491,1.291-0.709c0.327-0.145,0.653-0.291,0.982-0.418l-4.564-37.396c-0.164,0-0.309-0.018-0.473-0.018
		c-0.382-0.02-0.764-0.055-1.145-0.093c-0.345-0.036-0.673-0.073-1.018-0.125c-0.273-0.038-0.545-0.073-0.818-0.127
		c-0.273-0.055-0.545-0.109-0.818-0.164c-0.873-0.2-1.745-0.436-2.582-0.727c-0.055-0.018-0.091-0.036-0.145-0.055
		c-0.236-0.071-0.491-0.164-0.727-0.271c-0.345-0.127-0.691-0.273-1.018-0.418c-0.345-0.145-0.673-0.309-1-0.473
		c-0.327-0.164-0.655-0.327-0.964-0.509c-0.255-0.145-0.509-0.289-0.745-0.435c-0.2-0.111-0.418-0.256-0.618-0.382
		c-0.018,0-0.018-0.02-0.036-0.038c-0.182-0.109-0.345-0.218-0.509-0.327c-0.164-0.111-0.327-0.218-0.473-0.345
		c-0.255-0.182-0.509-0.364-0.745-0.564c-0.236-0.184-0.491-0.382-0.709-0.582c-0.473-0.4-0.927-0.818-1.364-1.253l-32.527,23.724
		c1.255,2.618,1.964,5.545,1.964,8.655c0,11.055-8.945,20-20,20c-11.036,0-20-8.945-20-20s8.964-20,20-20
		c5.309,0,10.145,2.073,13.727,5.473l32.527-23.745c0-0.018-0.018-0.018-0.018-0.038v-0.018c-0.145-0.273-0.291-0.545-0.418-0.836
		c-0.018-0.036-0.055-0.091-0.073-0.145c-0.018-0.055-0.036-0.091-0.055-0.145c-0.218-0.455-0.4-0.927-0.582-1.418
		c-0.018-0.053-0.036-0.109-0.055-0.164c-0.127-0.344-0.236-0.673-0.345-1.018c-0.055-0.145-0.091-0.273-0.127-0.418
		c-0.018-0.073-0.036-0.145-0.055-0.218c-0.073-0.236-0.145-0.491-0.2-0.744c-0.109-0.418-0.2-0.836-0.273-1.255
		c-0.036-0.109-0.055-0.218-0.073-0.344c0-0.038-0.018-0.093-0.018-0.127c-0.055-0.327-0.091-0.638-0.127-0.982
		c-0.055-0.273-0.073-0.545-0.091-0.818c-0.036-0.309-0.055-0.6-0.073-0.909c-0.018-0.402-0.036-0.82-0.036-1.22
		c0-0.4,0.018-0.818,0.036-1.218c0.018-0.382,0.036-0.764,0.091-1.145c0.036-0.491,0.109-0.964,0.182-1.455
		c0.109-0.618,0.218-1.236,0.382-1.836c0.036-0.182,0.091-0.364,0.145-0.545c0.055-0.273,0.145-0.545,0.236-0.836
		c0.091-0.327,0.2-0.636,0.327-0.964c0.145-0.418,0.291-0.836,0.473-1.236L67.764,97.709c-0.364,0.345-0.727,0.673-1.127,0.964
		c-0.255,0.2-0.509,0.382-0.782,0.564c-0.073,0.055-0.164,0.127-0.255,0.164c-0.309,0.218-0.618,0.4-0.945,0.564
		c-0.091,0.055-0.164,0.109-0.255,0.127c-0.327,0.182-0.655,0.345-1,0.491c-0.473,0.2-0.964,0.382-1.473,0.527
		c-0.418,0.127-0.836,0.236-1.273,0.327c-0.036,0-0.091,0.018-0.145,0.018c-0.418,0.091-0.855,0.145-1.291,0.2h-0.055
		c-0.473,0.055-0.945,0.073-1.436,0.073c-8.036,0-14.545-6.509-14.545-14.545s6.509-14.545,14.545-14.545
		s14.545,6.509,14.545,14.545c0,0.764-0.055,1.491-0.164,2.218c-0.055,0.364-0.127,0.727-0.218,1.091
		c-0.055,0.273-0.127,0.564-0.218,0.836c-0.018,0.073-0.036,0.127-0.055,0.2l35.473,22.055c0.018-0.036,0.055-0.055,0.091-0.091
		c0.345-0.418,0.727-0.818,1.109-1.2c0.055-0.055,0.091-0.091,0.145-0.127c0.418-0.418,0.855-0.818,1.309-1.2
		c0.164-0.145,0.309-0.291,0.491-0.4c0.018-0.036,0.055-0.055,0.073-0.073c0.182-0.145,0.364-0.291,0.545-0.418
		c0.309-0.236,0.636-0.473,0.964-0.691c0.618-0.418,1.255-0.818,1.909-1.164c0.255-0.127,0.509-0.273,0.782-0.4
		c0.127-0.055,0.273-0.127,0.418-0.2c0.127-0.073,0.255-0.127,0.4-0.182c0.255-0.109,0.509-0.218,0.764-0.327
		c0.255-0.109,0.509-0.218,0.782-0.309c0.036-0.018,0.073-0.018,0.109-0.036c0.327-0.109,0.636-0.218,0.964-0.309
		c0,0,0.018-0.036,0.036-0.018c0.036-0.018,0.091-0.036,0.127-0.036c0.2-0.073,0.382-0.127,0.582-0.182
		c0.073,0,0.127-0.018,0.182-0.036c0.164-0.055,0.309-0.091,0.455-0.127c0.145-0.036,0.291-0.073,0.455-0.109
		c0.364-0.091,0.745-0.164,1.109-0.218c0.273-0.055,0.564-0.109,0.836-0.127c0.291-0.055,0.564-0.091,0.855-0.109
		c0.8-0.091,1.6-0.127,2.418-0.127c0.4,0,0.818,0.018,1.218,0.036c0.4,0.018,0.8,0.055,1.2,0.091
		c0.344,0.036,0.673,0.073,1.018,0.127c0.236,0.036,0.455,0.073,0.691,0.109l10.311-30.145c-0.073-0.036-0.145-0.091-0.218-0.127
		c-0.329-0.2-0.655-0.4-0.947-0.618c-0.182-0.109-0.344-0.236-0.509-0.364c-0.289-0.218-0.58-0.455-0.871-0.691
		c-0.164-0.127-0.327-0.273-0.473-0.418c-0.436-0.382-0.856-0.8-1.238-1.236c-0.164-0.182-0.327-0.364-0.507-0.564
		c-0.055-0.073-0.111-0.127-0.145-0.2c-0.164-0.182-0.309-0.382-0.455-0.582c-0.345-0.455-0.673-0.945-0.982-1.455
		c-0.127-0.2-0.236-0.4-0.364-0.6c-0.036-0.091-0.091-0.182-0.145-0.273c-0.109-0.218-0.218-0.436-0.327-0.673
		c-0.256-0.509-0.493-1.055-0.673-1.6c-0.218-0.564-0.4-1.145-0.545-1.727c-0.145-0.582-0.273-1.182-0.364-1.782
		c-0.038-0.218-0.073-0.436-0.091-0.673c-0.055-0.345-0.073-0.691-0.093-1.036c-0.036-0.345-0.036-0.691-0.036-1.055
		c0-10.036,8.145-18.182,18.182-18.182c10.055,0,18.182,8.145,18.182,18.182s-8.127,18.182-18.182,18.182
		c-0.4,0-0.782-0.018-1.164-0.036c-0.02,0-0.02,0-0.02,0H147.4c-0.364-0.036-0.727-0.073-1.093-0.127l-10.309,30.145
		c0.2,0.109,0.4,0.218,0.6,0.345c0.055,0.036,0.111,0.055,0.164,0.091c0.345,0.182,0.691,0.4,1.02,0.618
		c0.036,0.018,0.073,0.055,0.109,0.073c0.218,0.127,0.418,0.255,0.618,0.418c0.236,0.145,0.475,0.327,0.711,0.509
		c0.271,0.2,0.545,0.418,0.816,0.636c0.436,0.364,0.856,0.745,1.273,1.145c0.273,0.255,0.545,0.527,0.8,0.8
		c0.382,0.4,0.764,0.818,1.127,1.255c0.018,0.018,0.036,0.036,0.053,0.073c0.364,0.436,0.711,0.909,1.055,1.382
		c0,0.018,0.02,0.018,0.02,0.036v0.018c0.216,0.327,0.435,0.636,0.636,0.964c0.364,0.527,0.673,1.091,0.982,1.673
		c0,0.018,0.018,0.036,0.036,0.055c0.038,0.073,0.073,0.145,0.111,0.218c0.164,0.345,0.327,0.691,0.491,1.055
		c0.218,0.473,0.402,0.945,0.582,1.436c0.127,0.345,0.255,0.709,0.364,1.091c0.109,0.309,0.198,0.618,0.271,0.927
		c0.111,0.364,0.2,0.764,0.273,1.145c0.038,0.145,0.073,0.309,0.091,0.455c0.073,0.309,0.111,0.6,0.164,0.909
		c0.073,0.455,0.127,0.927,0.165,1.4c0.036,0.309,0.053,0.6,0.073,0.909c0.016,0.418,0.035,0.855,0.035,1.291
		s-0.018,0.873-0.036,1.309c-0.02,0.327-0.038,0.636-0.073,0.964c-0.02,0.109-0.02,0.218-0.038,0.309
		c-0.036,0.327-0.073,0.655-0.127,0.982c0,0.018,0,0.018,0,0.038c-0.073,0.435-0.145,0.855-0.236,1.271
		c-0.036,0.236-0.109,0.475-0.164,0.711c-0.055,0.236-0.127,0.455-0.182,0.691c0,0.055-0.02,0.109-0.038,0.164l28.182,12.964
		c0.218-0.327,0.455-0.636,0.711-0.945c0.236-0.309,0.491-0.6,0.744-0.891c0.038-0.038,0.073-0.073,0.093-0.111
		c0.236-0.255,0.473-0.507,0.725-0.744c0.273-0.273,0.565-0.547,0.856-0.8c0.289-0.255,0.598-0.509,0.909-0.764
		c0.309-0.236,0.618-0.473,0.945-0.691c0.055-0.038,0.127-0.073,0.182-0.127c0.309-0.2,0.638-0.416,0.964-0.6
		c0.382-0.236,0.764-0.455,1.182-0.653c0.236-0.127,0.473-0.238,0.709-0.364c0.038,0,0.073-0.018,0.127-0.055
		c0.255-0.109,0.507-0.218,0.782-0.327c0.909-0.364,1.873-0.673,2.855-0.891c0.018,0,0.036-0.018,0.053-0.018
		c0.055-0.02,0.111-0.02,0.165-0.038c0.218-0.036,0.416-0.091,0.636-0.125c0.236-0.038,0.455-0.093,0.691-0.111
		c0.327-0.055,0.655-0.109,0.964-0.127c0.271-0.036,0.545-0.053,0.818-0.073c0.402-0.02,0.82-0.038,1.238-0.038
		C203.327,139.909,212.273,148.855,212.273,159.909z"/>
</g>
</svg>
