<?xml version="1.0" encoding="utf-8"?>
<!-- Generator: Adobe Illustrator 16.0.0, SVG Export Plug-In . SVG Version: 6.00 Build 0)  -->
<!DOCTYPE svg PUBLIC "-//W3C//DTD SVG 1.1//EN" "http://www.w3.org/Graphics/SVG/1.1/DTD/svg11.dtd">
<svg version="1.1" id="Layer_1" xmlns="http://www.w3.org/2000/svg" xmlns:xlink="http://www.w3.org/1999/xlink" x="0px" y="0px"
	 width="250px" height="250px" viewBox="0 0 250 250" enable-background="new 0 0 250 250" xml:space="preserve">
<g>
	<g>
		<path fill="#F38230" stroke="#F38230" stroke-width="2" stroke-miterlimit="10" d="M196.212,81.515
			c-9.696-3.939-19.091,8.788-18.485,23.03l-0.303,36.667c-0.303,0-0.303,0-0.605,0h-0.606
			c-16.363-3.939-35.454,29.696-40.909,39.999c-0.908,1.818-1.515,3.939-1.515,5.758v33.637c0,1.818,1.212,3.03,3.03,3.03
			s3.03-1.212,3.03-3.03v-33.939c0-5.758,23.333-42.728,34.849-39.697h0.605c0.606,0,1.818,0.304,1.818,0.606
			c0,0,0.605,2.121-4.242,10.303c-1.818,3.03-10.909,18.182-10.909,24.243c0,3.938,6.061,3.938,6.061,0
			c0-3.334,5.758-14.243,10-21.213c7.575-12.728,4.243-7.272,5.758-56.667c-0.909-16.667,10.909-21.212,12.121-14.849
			c0.606,2.728,0.606,6.061,0.606,10.303c-0.91,90.909,6.363,40.909-23.637,110.606c-0.303,0.303-0.303,0.908-0.303,1.211V220
			c0,1.818,1.212,3.03,3.029,3.03c1.818,0,3.031-1.212,3.031-3.03v-7.878c19.697-42.122,23.939-44.85,23.939-55.152V100
			C202.879,92.424,202.879,84.243,196.212,81.515z"/>
	</g>
	<g>
		<path fill="#F38230" stroke="#F38230" stroke-width="2" stroke-miterlimit="10" d="M73.788,141.213h-0.606
			c-0.303,0-0.303,0-0.606,0l-0.303-36.667C72.879,90,63.485,77.273,53.788,81.212c-6.667,2.727-6.667,10.909-6.364,18.485
			c0.909,56.363-1.818,59.696,2.727,69.091l21.212,43.637c0.606,3.939-1.818,10.908,3.03,10.908c1.818,0,3.03-1.212,3.03-3.029
			c0-8.485,0.303-8.789-0.303-9.697c-20.606-44.242-23.636-45.152-23.636-53.334c0-63.939-0.303-63.03,0.606-67.575
			c1.212-6.97,12.728-1.515,12.121,14.848l0.606,41.818c-1.515,8.485,15.151,27.576,15.151,35.758c0,1.818,1.212,3.03,3.03,3.03
			c11.212,0-12.727-32.424-12.121-37.575l0,0c0.303-0.303,1.212-0.303,1.818-0.606h0.606c11.515-2.728,34.848,34.545,34.848,39.697
			v33.637c0,1.817,1.212,3.029,3.03,3.029c1.818,0,3.03-1.212,3.03-3.029c-0.303-33.334,1.212-34.546-1.515-39.395
			C109.242,170.606,90.151,137.273,73.788,141.213z"/>
	</g>
	<g>
		<path fill="#F38230" stroke="#F38230" stroke-width="2" stroke-miterlimit="10" d="M164.697,106.364
			c8.182-34.545-35.758-77.273-37.576-79.091c-1.212-1.212-3.03-1.212-4.242,0c-1.818,1.818-45.758,44.545-37.576,79.091
			c3.636,14.849,15.757,25.455,36.667,32.424c0.909,13.03-2.121,20.909,3.03,20.909s2.121-7.879,3.03-20.909
			C148.637,132.121,161.061,121.212,164.697,106.364z M125,33.637c8.484,8.788,40.303,43.939,33.637,71.212
			c-3.031,12.121-13.334,21.212-30.606,27.272v-11.818c6.667-6.667,13.939-9.697,10.606-13.333
			c-3.031-3.636-6.971,2.728-10.606,5.455V98.485c6.667-6.667,13.939-9.697,10.606-13.333c-3.031-3.637-6.971,2.727-10.606,5.455
			V67.273c0-1.818-1.212-3.03-3.03-3.03s-3.03,1.212-3.03,3.03v23.333l-6.364-5.758c-1.212-1.212-3.03-0.909-4.242,0.303
			c-1.212,1.212-0.909,3.03,0.303,4.242l10.303,9.091v13.939c-3.939-2.727-7.576-8.788-10.606-5.455
			c-3.333,3.939,4.242,6.667,10.606,13.333v11.818C70.758,114.545,89.242,70.909,125,33.637z"/>
	</g>
</g>
</svg>
