<svg xmlns="http://www.w3.org/2000/svg" data-name="Layer 1" viewBox="0 0 100 125" x="0px" y="0px"><title>Noun_Project_50Icon_5px_grid - diëten iconen line thick - samengesteld pad</title><path d="M50,8.75A41.25,41.25,0,1,0,91.25,50,41.3,41.3,0,0,0,50,8.75Zm0,3A38.11,38.11,0,0,1,77.1,23L55.6,42.82l-9.26-9.26a3.85,3.85,0,0,0,0-5.43L45.1,26.89a4,4,0,0,0-4.43-.72l-1.86-1.86a7.21,7.21,0,0,0-10.2,10.2l1.86,1.86a3.88,3.88,0,0,0-.4,1.72,3.82,3.82,0,0,0,1.12,2.71L32.43,42a3.85,3.85,0,0,0,5.43,0h0l8.91,8.91L20.87,74.75A38.22,38.22,0,0,1,50,11.75ZM65.4,58.11a3,3,0,0,1-5.11,2.12L55,54.92h8.47L64.53,56h0A3,3,0,0,1,65.4,58.11ZM52,51.92l-.9-.89L55.51,47l5,5Zm-3-3-9-9,4.23-4.24,9.18,9.17Zm-13.24-9a.83.83,0,0,1-.59.24.87.87,0,0,1-.59-.24l-1.24-1.24a.83.83,0,0,1-.24-.59.84.84,0,0,1,.25-.6l1.25-1.26-3.84-3.84a4.21,4.21,0,0,1,6-6l3.85,3.84L41.79,29A.86.86,0,0,1,43,29l1.23,1.24a.83.83,0,0,1,0,1.19ZM50,88.25A38.11,38.11,0,0,1,22.9,77l26-23.9,9.28,9.29a6,6,0,0,0,8.48-8.48l-8.93-8.93L79.13,25.25A38.22,38.22,0,0,1,50,88.25ZM64.07,64.77h0a1.49,1.49,0,0,0-1.29.74C62,66.87,58,73.87,60.08,77.46a4.22,4.22,0,0,0,4,2,4.24,4.24,0,0,0,4-2c2-3.6-1.92-10.58-2.74-11.94A1.5,1.5,0,0,0,64.07,64.77ZM65.48,76c-.07.13-.29.51-1.41.51s-1.31-.37-1.38-.5c-.65-1.12.24-4,1.38-6.46C65.23,72,66.12,74.83,65.48,76Z"/><text x="0" y="115" fill="#000000" font-size="5px" font-weight="bold" font-family="'Helvetica Neue', Helvetica, Arial-Unicode, Arial, Sans-serif">Created by RROOK</text><text x="0" y="120" fill="#000000" font-size="5px" font-weight="bold" font-family="'Helvetica Neue', Helvetica, Arial-Unicode, Arial, Sans-serif">from the Noun Project</text></svg>