<?xml version="1.0" encoding="utf-8"?>
<!-- Generator: Adobe Illustrator 16.0.0, SVG Export Plug-In . SVG Version: 6.00 Build 0)  -->
<!DOCTYPE svg PUBLIC "-//W3C//DTD SVG 1.1//EN" "http://www.w3.org/Graphics/SVG/1.1/DTD/svg11.dtd">
<svg version="1.1" id="Layer_1" xmlns="http://www.w3.org/2000/svg" xmlns:xlink="http://www.w3.org/1999/xlink" x="0px" y="0px"
	 width="250px" height="250px" viewBox="0 0 250 250" enable-background="new 0 0 250 250" xml:space="preserve">
<title>Noun_Project_50Icon_5px_grid - diëten iconen line thick - samengesteld pad</title>
<path fill="#F38230" stroke="#F38230" stroke-width="2" stroke-miterlimit="10" d="M126.52,33.48c-53.019,0-96,42.981-96,96
	c0,53.02,42.981,96,96,96c53.02,0,96-42.98,96-96C222.456,76.487,179.513,33.545,126.52,33.48z M126.52,40.463
	c23.676-0.041,46.383,9.386,63.069,26.181l-50.037,46.127l-21.55-21.551c3.478-3.495,3.478-9.142,0-12.637l-2.885-2.887
	c-2.771-2.615-6.855-3.278-10.311-1.675l-4.328-4.328c-6.555-6.556-17.184-6.556-23.738,0c-6.555,6.555-6.555,17.183,0,23.738l0,0
	l4.329,4.329c-0.614,1.244-0.933,2.614-0.93,4.003c-0.005,2.365,0.933,4.634,2.606,6.307l2.886,2.792
	c3.495,3.477,9.142,3.477,12.637,0l0,0l20.736,20.736l-60.276,55.482C26.875,149.68,31.375,93.541,68.777,61.69
	C84.886,47.972,105.359,40.445,126.52,40.463z M162.358,148.355c-0.015,3.854-3.153,6.969-7.009,6.951
	c-1.83-0.007-3.582-0.731-4.883-2.018l-12.311-12.357h19.712l2.468,2.514l0,0C161.632,144.751,162.357,146.516,162.358,148.355z
	 M131.175,133.949l-2.095-2.071l10.262-9.379l11.638,11.637L131.175,133.949z M124.191,126.967l-20.944-20.945l9.844-9.868
	l21.365,21.342L124.191,126.967z M93.379,106.021c-0.365,0.361-0.859,0.563-1.373,0.558c-0.512-0.005-1.003-0.206-1.373-0.558
	l-2.886-2.886c-0.361-0.365-0.563-0.859-0.558-1.373c-0.002-0.526,0.208-1.028,0.581-1.396l2.909-2.933l-8.937-8.937
	c-3.856-3.856-3.856-10.108,0-13.964c3.855-3.855,10.108-3.855,13.964,0l8.96,8.937l2.747-2.862c0.779-0.772,2.035-0.772,2.815,0
	l2.863,2.886c0.764,0.743,0.782,1.966,0.038,2.731c-0.013,0.012-0.025,0.025-0.038,0.038L93.379,106.021z M126.52,218.499
	c-23.674,0.041-46.383-9.387-63.069-26.183l60.509-55.62l21.595,21.618c5.645,5.259,14.479,4.946,19.737-0.694
	c4.996-5.363,4.996-13.678,0-19.041l-20.783-20.782l49.804-45.917c31.85,37.4,27.35,93.54-10.049,125.389
	C168.153,210.989,147.681,218.518,126.52,218.499z M159.265,163.854L159.265,163.854c-1.236-0.003-2.381,0.652-3.002,1.721
	c-1.816,3.167-11.125,19.458-6.284,27.813c1.958,3.202,5.571,5.01,9.31,4.654c3.735,0.345,7.342-1.459,9.309-4.654
	c4.654-8.378-4.468-24.624-6.377-27.788C161.607,164.54,160.487,163.879,159.265,163.854z M162.545,189.989
	c-0.161,0.303-0.675,1.187-3.28,1.187c-2.607,0-3.05-0.86-3.213-1.163c-1.512-2.608,0.56-9.309,3.213-15.034
	C161.963,180.682,164.036,187.268,162.545,189.989z"/>
</svg>
