<?xml version="1.0" encoding="utf-8"?>
<!-- Generator: Adobe Illustrator 16.0.0, SVG Export Plug-In . SVG Version: 6.00 Build 0)  -->
<!DOCTYPE svg PUBLIC "-//W3C//DTD SVG 1.1//EN" "http://www.w3.org/Graphics/SVG/1.1/DTD/svg11.dtd">
<svg version="1.1" id="Layer_1" xmlns="http://www.w3.org/2000/svg" xmlns:xlink="http://www.w3.org/1999/xlink" x="0px" y="0px"
	 width="250px" height="250px" viewBox="0 0 250 250" enable-background="new 0 0 250 250" xml:space="preserve">
<path fill="#F38230" d="M125,47.906c-19.4,0-38.4,6.8-53.4,19.2c-0.8,0.8-1.4,1.8-1.4,2.8c0,1.2,0.4,2.2,1.2,3l111.6,113.6
	c0.8,0.801,1.8,1.2,2.8,1.2c0,0,0,0,0.2,0c1.2,0,2.2-0.6,2.8-1.399c13-15.2,20-34.601,20-54.4C209,85.506,171.4,47.906,125,47.906z
	 M147.2,138.706l-4.2-4.2c0.2-1.6-0.6-3.199-2-4l-4.4-2.6l-10.8-11l21.4,12.4V138.706z M185.6,177.706l-30.399-30.8v-19.8
	c0-1.4-0.8-2.8-2-3.4l-23.601-13.6v-24.6l21.601-12l23.2,14c0.6,0.4,1.399,0.6,2,0.6c1.399,0,2.6-0.6,3.399-2
	c1.2-1.8,0.601-4.4-1.399-5.4l-25.2-15.2c-1.2-0.8-2.8-0.8-4,0l-24.2,13.4l-23.2-13.4c-2-1.2-4.4-0.4-5.4,1.4
	c-1.2,2-0.4,4.4,1.4,5.4l23.6,13.6v5.8l-20.2-11.6c-2-1.2-4.4-0.4-5.4,1.4c-1.2,2-0.4,4.4,1.4,5.4l24.2,14v9.2l-1.8,1L80,70.706
	c13-9.6,28.8-14.8,45-14.8c42,0,76,34,76,76C201,148.506,195.6,164.506,185.6,177.706z"/>
<path fill="#F38230" d="M125,31.906c-55.2,0-100,44.8-100,100s44.8,100,100,100s100-44.8,100-100S180.2,31.906,125,31.906z
	 M125,223.906c-50.8,0-92-41.2-92-92s41.2-92,92-92s92,41.2,92,92S175.8,223.906,125,223.906z"/>
<path fill="#F38230" d="M65.6,78.906c-0.8-0.8-1.8-1.2-3-1.2c-1.2,0-2.2,0.6-3,1.4c-12,15-18.6,33.6-18.6,52.8c0,46.4,37.6,84,84,84
	c19,0,36.8-6.2,51.8-18c0.8-0.8,1.4-1.8,1.601-2.8c0.199-1-0.4-2.2-1.2-3L65.6,78.906z M125.6,166.706L104,154.307v-25l0,0
	l4.2,4.199c0,0.2-0.2,0.4-0.2,0.601v15.399c0,2.2,1.8,4,4,4s4-1.8,4-4v-8l10.4,10.601l-2.8,1.8c-2,1.2-2.6,3.6-1.4,5.4
	c0.8,1.199,2,2,3.399,2c0.601,0,1.4-0.2,2-0.601l4.801-2.8l3,3L125.6,166.706z M125,207.906c-42,0-76-34-76-76
	c0-15.8,5-31.4,14.2-44.2l35.2,35.8l-0.2,0.2c-1.2,0.8-2,2-2,3.4v29.399c0,1.4,0.8,2.801,2,3.4l23.6,13.6v26.601c0,2.2,1.8,4,4,4
	c2.2,0,4-1.8,4-4v-26.601l11.601-6.6l27,27.4C155.4,203.307,140.6,207.906,125,207.906z"/>
</svg>
