<?xml version="1.0" encoding="utf-8"?>
<!-- Generator: Adobe Illustrator 16.0.0, SVG Export Plug-In . SVG Version: 6.00 Build 0)  -->
<!DOCTYPE svg PUBLIC "-//W3C//DTD SVG 1.1//EN" "http://www.w3.org/Graphics/SVG/1.1/DTD/svg11.dtd">
<svg version="1.1" id="Layer_1" xmlns="http://www.w3.org/2000/svg" xmlns:xlink="http://www.w3.org/1999/xlink" x="0px" y="0px"
	 width="250px" height="250px" viewBox="0 0 250 250" enable-background="new 0 0 250 250" xml:space="preserve">
<g>
	<path display="none" fill="none" d="M194.604,65.166l-5.033-5.033c-13.088-13.087-34.479-13.087-47.565,0l-44.796,45.048
		l52.346,52.346l45.049-45.048C207.689,99.644,207.689,78.252,194.604,65.166z M129.422,97.127l-1.762-1.762l24.915-24.915
		l1.762,1.762L129.422,97.127z"/>
	<path fill="#F38230" d="M196.365,63.404l-5.033-5.033c-14.094-14.093-36.995-14.093-51.088,0l-53.856,54.108l-27.18,27.18
		l-10.57,10.569c-7.047,7.047-10.57,16.61-10.57,25.922l0,0h0.252c0.252,9.06,3.775,18.119,10.57,24.914l5.033,5.033
		c6.795,6.795,15.855,10.318,24.915,10.57l0,0l0,0c9.312,0,18.875-3.523,25.921-10.57l26.677-26.676l64.928-64.929
		C210.458,100.399,210.458,77.497,196.365,63.404z M194.604,112.73l-45.049,45.047L97.209,105.18l45.048-45.048
		c13.087-13.087,34.478-13.087,47.565,0l5.033,5.033C207.689,78.252,207.689,99.644,194.604,112.73z"/>
	
		<rect x="123.386" y="82.497" transform="matrix(0.7071 -0.7071 0.7071 0.7071 -17.9255 124.2348)" fill="#F38230" width="35.232" height="2.517"/>
</g>
</svg>
