<?xml version="1.0" encoding="utf-8"?>
<!-- Generator: Adobe Illustrator 16.0.0, SVG Export Plug-In . SVG Version: 6.00 Build 0)  -->
<!DOCTYPE svg PUBLIC "-//W3C//DTD SVG 1.1//EN" "http://www.w3.org/Graphics/SVG/1.1/DTD/svg11.dtd">
<svg version="1.1" id="Layer_1" xmlns="http://www.w3.org/2000/svg" xmlns:xlink="http://www.w3.org/1999/xlink" x="0px" y="0px"
	 width="500px" height="500px" viewBox="350 0 500 500" enable-background="new 350 0 500 500" xml:space="preserve">
<g>
	<path fill="#F38230" stroke="#F38230" stroke-width="6" stroke-miterlimit="10" d="M564.99,152.599c-2-1.2-4.399-0.8-6,0.8
		c-1.6,1.6-2,4.4-0.8,6c0.4,0.4,24.8,40.4,4.8,74.8c0,0,0,0,0,0.4c-8,12-9.6,27.2-4.8,40.4c6,16.4,20.8,27.2,36.8,29.2
		c-7.2,22-18.399,36-18.8,36.4c-1.6,2-1.6,5.199,0.8,7.199c0.8,0.801,2,1.2,3.2,1.2c1.6,0,2.8-0.8,4-2c0.8-1.2,14-17.6,22-42.399
		c3.6-0.4,6.8-1.2,10-2.4c23.2-8.4,35.2-34.4,26.8-57.6C622.19,188.999,567.391,154.199,564.99,152.599z M612.19,292.199
		c-1.2,0.4-2.8,0.8-4,1.2c4-19.2,4.4-42-4.8-66.8c-0.8-2.4-4-4-6.4-2.8c-2.399,0.8-4,4-2.8,6.4c8.8,24,8,46.4,3.2,64.4
		c-13.2-0.801-25.2-9.601-30.4-22.801c-4-10.8-2.399-22.399,4-32c0-0.4,0.4-0.4,0.4-0.8c14-24,9.2-49.6,3.6-66.4
		c17.601,14.4,45.2,40.8,58,74.8C639.79,265.399,630.19,285.799,612.19,292.199z"/>
	<path fill="#F38230" stroke="#F38230" stroke-width="6" stroke-miterlimit="10" d="M710.99,377.399
		c19.2-31.601,30.4-77.601,30.4-127.2c0-49.6-11.2-96-30.4-127.2l6.8-6.8c9.601-9.6,9.601-25.6,0-35.2c-4.8-4.8-10.8-7.2-17.6-7.2
		s-12.8,2.4-17.6,7.2l-7.601,7.6c-3.2-1.2-6.399-2.4-9.6-2.8c0,0-0.4,0-0.8,0c-42.4-3.6-86.4-3.6-128.801-0.4
		c-0.399,0-0.399,0-0.8,0c-3.2,0.8-6.399,1.6-9.6,2.8l-7.601-7.6c-4.8-4.8-10.8-7.2-17.6-7.2s-12.8,2.4-17.6,7.2
		c-9.601,9.6-9.601,25.6,0,35.2l6.8,6.8c-19.2,31.6-30,78-30,127.6c0,49.6,11.2,96,30.399,127.2l-6.8,6.8c-9.6,9.6-9.6,25.6,0,35.2
		c4.8,4.8,10.8,7.2,17.601,7.2c6.8,0,12.8-2.4,17.6-7.2l7.6-7.601c3.2,1.2,6.4,2.4,9.601,2.801c0,0,0.399,0,0.8,0
		c42.4,3.199,86,3.199,128.8,0c0.4,0,0.4,0,0.8,0c3.2-0.801,6.4-1.601,9.601-2.801l7.6,7.601c4.8,4.8,10.8,7.2,17.601,7.2
		c6.8,0,12.8-2.4,17.6-7.2c9.6-9.601,9.6-25.601,0-35.2L710.99,377.399z M710.99,412.999c-5.6,5.601-15.6,5.601-21.2,0
		L679.391,402.6c-0.8-0.801-2.4-1.601-3.601-1.601c-0.8,0-1.6,0-2.399,0.4c-3.2,1.6-6.8,2.8-10,3.6c-42,3.2-84.8,3.2-126.8,0
		c-3.2-0.8-6.801-2-10-3.6c-2-0.8-4.4-0.8-5.601,0.8l-10.399,10.4c-5.601,5.6-15.601,5.6-21.2,0c-6-6-6-15.2,0-21.2l10-10
		c1.6-1.601,2-4.4,0.8-6.4c-19.6-30-30.8-75.6-30.8-125.2s11.2-95.6,30.8-125.2c1.2-2,1.2-4.4-0.8-6.4l-10-10c-6-6-6-15.2,0-21.2
		c5.6-5.6,15.6-5.6,21.2,0l10.399,10.4c1.601,1.6,4,2,5.601,0.8c3.199-1.6,6.8-2.8,10-3.6c42-3.2,84.8-3.2,126.8,0
		c3.2,0.8,6.8,2,10,3.6c2,0.8,4.399,0.8,5.6-0.8l10.4-10.4c5.6-5.6,15.6-5.6,21.2,0c6,6,6,15.2,0,21.2l-10,10
		c-1.601,1.6-2,4.4-0.801,6.4c19.601,30,30.801,75.6,30.801,125.2s-10.801,96-30.4,125.6c-1.2,2-1.2,4.399,0.8,6.399l10,10
		C716.591,397.399,716.591,406.999,710.99,412.999z"/>
</g>
</svg>
