<?xml version="1.0" encoding="utf-8"?>
<!-- Generator: Adobe Illustrator 16.0.0, SVG Export Plug-In . SVG Version: 6.00 Build 0)  -->
<!DOCTYPE svg PUBLIC "-//W3C//DTD SVG 1.1//EN" "http://www.w3.org/Graphics/SVG/1.1/DTD/svg11.dtd">
<svg version="1.1" id="Layer_1" xmlns="http://www.w3.org/2000/svg" xmlns:xlink="http://www.w3.org/1999/xlink" x="0px" y="0px"
	 width="500px" height="500px" viewBox="0 0 500 500" enable-background="new 0 0 500 500" xml:space="preserve">
<g>
	<path fill="#F38230" d="M176.705,238.681h135.827c4.921,0,9.843-3.937,10.826-8.858l16.732-86.613H150.13l16.732,86.613
		C166.862,235.729,171.784,238.681,176.705,238.681z"/>
	<path fill="#F38230" d="M51.705,407.973c0.984,4.921,5.906,8.857,10.827,8.857h135.826c4.922,0,9.843-3.937,10.827-8.857
		l16.732-86.614H35.958L51.705,407.973z"/>
	<path fill="#F38230" d="M295.8,407.973c0.984,4.921,5.905,8.857,10.827,8.857h135.826c4.922,0,9.843-3.937,10.827-8.857
		l16.732-86.614H279.067L295.8,407.973z"/>
	<path fill="#F38230" d="M474.934,261.318c0-0.984-0.984-0.984-1.969-0.984H275.131c-0.984,0-1.969,0-1.969,0.984l-10.827,38.386
		c-0.984,0.984,0,2.953,1.969,2.953h219.488c0.983,0,1.968-0.984,1.968-2.953L474.934,261.318z M393.24,288.878h-39.37
		c-3.937,0-7.874-2.952-7.874-7.874c0-3.938,2.953-7.874,7.874-7.874h39.37c3.938,0,7.874,2.953,7.874,7.874
		C401.114,284.941,398.162,288.878,393.24,288.878z"/>
	<path fill="#F38230" d="M228.871,260.334H31.036c-0.984,0-0.984,0-1.969,0.984L18.24,299.705c0,0.984,0,2.952,1.969,2.952h219.488
		c0.984,0,1.969-0.984,1.969-2.952l-10.827-38.387C229.854,260.334,229.854,260.334,228.871,260.334z M150.13,288.878h-39.37
		c-3.938,0-7.874-2.952-7.874-7.874c0-3.938,2.952-7.874,7.874-7.874h39.37c3.937,0,7.874,2.953,7.874,7.874
		C157.02,284.941,154.067,288.878,150.13,288.878z"/>
	<path fill="#F38230" d="M135.367,124.508h219.489c0.983,0,1.968-0.984,1.968-2.953l-10.827-37.401c0-0.984-0.984-0.984-1.968-0.984
		H146.193c-0.984,0-0.984,0-1.969,0.984l-10.827,38.386C133.398,123.523,133.398,124.508,135.367,124.508z M224.934,96.949h39.37
		c3.937,0,7.874,2.952,7.874,7.873c0,3.938-2.953,7.874-7.874,7.874h-39.37c-3.938,0-7.874-2.952-7.874-7.874
		C218.044,99.901,220.996,96.949,224.934,96.949z"/>
</g>
</svg>
