<?xml version="1.0" encoding="utf-8"?>
<!-- Generator: Adobe Illustrator 19.1.0, SVG Export Plug-In . SVG Version: 6.00 Build 0)  -->
<svg version="1.1" id="Layer_1" xmlns="http://www.w3.org/2000/svg" xmlns:xlink="http://www.w3.org/1999/xlink" x="0px" y="0px"
	 viewBox="-280 373.2 50.8 50.8" style="enable-background:new -280 373.2 50.8 50.8;" xml:space="preserve">
<style type="text/css">
	.st0{fill:#E44C2A;}
</style>
<g>
	<path class="st0" d="M-262.6,396.5h13.8c0.5,0,1-0.4,1.1-0.9l1.7-8.8h-19.3l1.7,8.8C-263.6,396.2-263.1,396.5-262.6,396.5z"/>
	<path class="st0" d="M-275.3,413.7c0.1,0.5,0.6,0.9,1.1,0.9h13.8c0.5,0,1-0.4,1.1-0.9l1.7-8.8h-19.3L-275.3,413.7z"/>
	<path class="st0" d="M-250.5,413.7c0.1,0.5,0.6,0.9,1.1,0.9h13.8c0.5,0,1-0.4,1.1-0.9l1.7-8.8h-19.4L-250.5,413.7z"/>
	<path class="st0" d="M-232.3,398.8c0-0.1-0.1-0.1-0.2-0.1h-20.1c-0.1,0-0.2,0-0.2,0.1l-1.1,3.9c-0.1,0.1,0,0.3,0.2,0.3h22.3
		c0.1,0,0.2-0.1,0.2-0.3L-232.3,398.8z M-240.6,401.6h-4c-0.4,0-0.8-0.3-0.8-0.8c0-0.4,0.3-0.8,0.8-0.8h4c0.4,0,0.8,0.3,0.8,0.8
		C-239.8,401.2-240.1,401.6-240.6,401.6z"/>
	<path class="st0" d="M-257.3,398.7h-20.1c-0.1,0-0.1,0-0.2,0.1l-1.1,3.9c0,0.1,0,0.3,0.2,0.3h22.3c0.1,0,0.2-0.1,0.2-0.3l-1.1-3.9
		C-257.2,398.7-257.2,398.7-257.3,398.7z M-265.3,401.6h-4c-0.4,0-0.8-0.3-0.8-0.8c0-0.4,0.3-0.8,0.8-0.8h4c0.4,0,0.8,0.3,0.8,0.8
		C-264.6,401.2-264.9,401.6-265.3,401.6z"/>
	<path class="st0" d="M-266.8,384.9h22.3c0.1,0,0.2-0.1,0.2-0.3l-1.1-3.8c0-0.1-0.1-0.1-0.2-0.1h-20.1c-0.1,0-0.1,0-0.2,0.1
		l-1.1,3.9C-267,384.8-267,384.9-266.8,384.9z M-257.7,382.1h4c0.4,0,0.8,0.3,0.8,0.8c0,0.4-0.3,0.8-0.8,0.8h-4
		c-0.4,0-0.8-0.3-0.8-0.8C-258.4,382.4-258.1,382.1-257.7,382.1z"/>
</g>
</svg>
