<?xml version="1.0" encoding="utf-8"?>
<!-- Generator: Adobe Illustrator 19.1.0, SVG Export Plug-In . SVG Version: 6.00 Build 0)  -->
<svg version="1.1" id="Layer_1" xmlns="http://www.w3.org/2000/svg" xmlns:xlink="http://www.w3.org/1999/xlink" x="0px" y="0px"
	 viewBox="-255 334 100 100.5" style="enable-background:new -255 334 100 100.5;" xml:space="preserve">
<style type="text/css">
	.st0{fill:#E44C2A;}
</style>
<g>
	<path class="st0" d="M-168.5,356.3c5.9-5.9,5.5-15.8,5.5-15.8s-10-0.4-15.8,5.5c-5.8,5.8-5.5,15.8-5.5,15.8
		S-174.4,362.3-168.5,356.3z"/>
	<path class="st0" d="M-188.7,360c1.7-8.2-4-16.3-4-16.3s-8.5,5.1-10.3,13.3c-1.7,8.2,4,16.3,4,16.3S-190.4,368.2-188.7,360z"/>
	<path class="st0" d="M-182.5,366.1c-8.2,1.7-13.3,10.3-13.3,10.3s8.1,5.8,16.3,4c8.2-1.7,13.3-10.3,13.3-10.3
		S-174.3,364.5-182.5,366.1z"/>
	<path class="st0" d="M-205.7,376.9c1.7-8.1-4-16.2-4-16.2s-8.5,5.1-10.3,13.3c-1.7,8.2,4,16.3,4,16.3S-207.4,385.1-205.7,376.9z"/>
	<path class="st0" d="M-199.5,383.2c-8.2,1.7-13.3,10.3-13.3,10.3s8.1,5.8,16.3,4c8.1-1.7,13.2-10.3,13.2-10.3
		S-191.4,381.4-199.5,383.2z"/>
	<path class="st0" d="M-222.6,394c1.7-8.2-4-16.3-4-16.3s-8.5,5.1-10.3,13.3c-1.7,8.2,4,16.3,4,16.3S-224.3,402.1-222.6,394z"/>
	<path class="st0" d="M-216.5,400.1c-8.2,1.7-13.3,10.3-13.3,10.3s8.1,5.8,16.3,4s13.3-10.3,13.3-10.3S-208.3,398.4-216.5,400.1z"/>
	
		<rect x="-248.7" y="414" transform="matrix(-0.7071 0.7071 -0.7071 -0.7071 -114.3654 882.1762)" class="st0" width="17.5" height="6.7"/>
</g>
</svg>
