<?xml version="1.0" encoding="utf-8"?>
<!-- Generator: Adobe Illustrator 16.0.0, SVG Export Plug-In . SVG Version: 6.00 Build 0)  -->
<!DOCTYPE svg PUBLIC "-//W3C//DTD SVG 1.1//EN" "http://www.w3.org/Graphics/SVG/1.1/DTD/svg11.dtd">
<svg version="1.1" id="Layer_1" xmlns="http://www.w3.org/2000/svg" xmlns:xlink="http://www.w3.org/1999/xlink" x="0px" y="0px"
	 width="500px" height="500px" viewBox="350 0 500 500" enable-background="new 350 0 500 500" xml:space="preserve">
<path fill="#F38230" d="M609.366,273.817c-11.327-48.36-6.584-79.416-0.605-96.935c4.052-11.873,9.187-19.266,12.408-23.092
	c5.586,2.127,11.445,3.186,17.292,3.186c14.166,0,28.216-6.145,37.83-17.994l20.478-25.209l-12.609-10.232l10.245-12.599
	c2.816-3.482,2.294-8.593-1.188-11.421c-3.484-2.829-8.594-2.294-11.423,1.189L671.56,93.307l-27.336-22.201l2.14,1.735
	l10.233-12.61c2.829-3.47,2.294-8.593-1.189-11.41c-3.481-2.829-8.593-2.305-11.421,1.177l-10.232,12.598l-12.598-10.233
	L600.69,77.572c-16.757,20.62-13.858,50.796,6.348,67.875c-4.291,5.551-9.711,14.333-13.942,27.111
	c-4.492-7.072-10.887-13.063-18.909-17.103c-11.374-5.753-24.638-7.773-37.676-7.773c-31.257,0-61.279,11.636-61.279,11.636
	s17.02,62.385,55.669,81.9c6.952,3.506,14.345,5.17,21.644,5.17c12.668,0,25.018-5.04,34.086-14.132
	c0.773,12.468,2.698,26.374,6.157,41.859h-92.479l32.47,162.337h129.867l32.471-162.338H608.13L609.366,273.817z M613.288,87.804
	l10.232-12.598l50.405,40.932l-10.233,12.599c-6.192,7.63-15.391,12.004-25.231,12.004c-7.512,0-14.582-2.508-20.442-7.262
	c-6.727-5.467-10.935-13.229-11.825-21.856C605.302,102.994,607.821,94.531,613.288,87.804z M538.222,226.717
	c-12.562-6.335-24.626-20.36-34.881-40.54c-2.995-5.895-5.432-11.541-7.333-16.377c10.578-2.829,25.505-5.883,40.503-5.883
	c12.219,0,22.439,2.021,30.367,6.026c14.476,7.309,20.977,24.258,15.652,39.161c-3.41-2.365-7.439-5.004-12.075-7.904
	c-12.516-7.844-25.006-14.868-25.529-15.153l0,0c-1.807-1.022-4.006-1.344-6.156-0.737c-4.326,1.212-6.833,5.681-5.634,10.006
	c0.607,2.151,2.033,3.862,3.851,4.873v0.012c0.095,0.06,10.602,5.966,21.701,12.8c6.419,3.958,11.148,7.06,14.643,9.472
	c-5.669,4.885-12.979,7.678-20.787,7.678C547.54,230.151,542.726,228.999,538.222,226.717z M649.336,420.217H546.09l-19.492-97.41
	h142.215L649.336,420.217z M672.071,306.572H523.354l-3.245-16.235h155.207L672.071,306.572z"/>
</svg>
