<?xml version="1.0" encoding="utf-8"?>
<!-- Generator: Adobe Illustrator 16.0.0, SVG Export Plug-In . SVG Version: 6.00 Build 0)  -->
<!DOCTYPE svg PUBLIC "-//W3C//DTD SVG 1.1//EN" "http://www.w3.org/Graphics/SVG/1.1/DTD/svg11.dtd">
<svg version="1.1" id="Layer_1" xmlns="http://www.w3.org/2000/svg" xmlns:xlink="http://www.w3.org/1999/xlink" x="0px" y="0px"
	 width="500px" height="500px" viewBox="0 0 500 500" enable-background="new 0 0 500 500" xml:space="preserve">
<g>
	<path fill="#F38230" d="M427.592,130.146c29.354-29.354,27.363-78.607,27.363-78.607s-49.751-1.99-78.607,27.363
		c-28.855,28.855-27.362,78.607-27.362,78.607S398.238,159.996,427.592,130.146z"/>
	<path fill="#F38230" d="M327.095,148.554c8.458-40.797-19.9-81.095-19.9-81.095s-42.289,25.373-51.244,66.169
		c-8.458,40.796,19.9,81.095,19.9,81.095S318.637,189.35,327.095,148.554z"/>
	<path fill="#F38230" d="M357.94,178.901c-40.796,8.458-66.169,51.244-66.169,51.244s40.299,28.855,81.094,19.9
		c40.797-8.458,66.17-51.244,66.17-51.244S398.736,170.941,357.94,178.901z"/>
	<path fill="#F38230" d="M242.518,232.633c8.457-40.298-19.9-80.597-19.9-80.597s-42.289,25.373-51.244,66.169
		c-8.458,40.796,19.9,81.095,19.9,81.095S234.06,273.429,242.518,232.633z"/>
	<path fill="#F38230" d="M273.363,263.977c-40.796,8.458-66.169,51.243-66.169,51.243s40.298,28.856,81.095,19.9
		c40.298-8.457,65.671-51.243,65.671-51.243S313.662,255.021,273.363,263.977z"/>
	<path fill="#F38230" d="M158.438,317.708c8.458-40.797-19.9-81.095-19.9-81.095s-42.288,25.373-51.244,66.169
		c-8.458,40.796,19.9,81.095,19.9,81.095S149.98,358.006,158.438,317.708z"/>
	<path fill="#F38230" d="M188.786,348.056c-40.796,8.458-66.169,51.244-66.169,51.244s40.298,28.855,81.094,19.9
		s66.169-51.244,66.169-51.244S229.582,339.599,188.786,348.056z"/>
	
		<rect x="29.309" y="417.457" transform="matrix(0.7071 -0.7071 0.7071 0.7071 -285.6367 178.6581)" fill="#F38230" width="87.064" height="33.332"/>
</g>
</svg>
