<?xml version="1.0" encoding="utf-8"?>
<!-- Generator: Adobe Illustrator 17.0.0, SVG Export Plug-In . SVG Version: 6.00 Build 0)  -->
<!DOCTYPE svg PUBLIC "-//W3C//DTD SVG 1.1//EN" "http://www.w3.org/Graphics/SVG/1.1/DTD/svg11.dtd">
<svg version="1.1" id="Layer_1" xmlns="http://www.w3.org/2000/svg" xmlns:xlink="http://www.w3.org/1999/xlink" x="0px" y="0px"
	 width="250px" height="250px" viewBox="0 0 250 250" enable-background="new 0 0 250 250" xml:space="preserve">
<g>
	<path fill="#E44C2A" d="M175.6,144.4c-2-9.2-11.2-14.4-19.6-18.8c-5.6-2.8-12-6.4-12-9.2c0-2.4,0.8-4.8,2-7.6
		c1.2-3.2,2.8-7.2,3.6-12c0.8-6.8-2-14.4-5.2-20c1.2-0.8,2.4-2,2.4-3.6v-40c0-2.4-1.6-4-4-4h-37.2c-2.4,0-4,1.6-4,4v40.4
		c0,1.6,0.8,2.8,2.4,3.6c-3.6,6-6,14-5.2,20c0.8,4.8,2.4,8.4,3.6,11.6s2,5.6,2.4,8c0,2-4,4-8.4,6c-8,3.6-18.8,8.8-22.8,21.2
		c-6,18,7.2,68.4,8.4,74c0.4,1.6,2,2.8,4,2.8h74.8c2,0,3.6-1.2,4-3.2C165.6,212,178.4,159.2,175.6,144.4z M109.6,69.6V66h29.2v3.6
		H109.6z M138.8,37.2V58h-29.2V37.2H138.8z M156.8,213.2H88.4c-4.4-16.8-12-54-8-66.8c3.2-9.2,11.2-13.2,18.8-16.4
		c6.8-3.2,13.6-6.4,13.2-13.6c0-4-1.6-7.2-2.8-10.8c-1.2-2.8-2.4-6-3.2-10c-0.8-5.2,2.4-13.2,6.4-18.4h22c3.6,4.4,7.2,12.4,6.4,18.4
		c-0.4,4-1.6,7.2-2.8,10c-1.2,3.2-2.8,6.8-2.8,10.4c0,8,8,12.4,16,16.4c7.2,3.6,14.4,7.6,15.6,13.2
		C169.6,156.4,161.2,195.6,156.8,213.2z"/>
	<path fill="#E44C2A" d="M122.8,144.4c-21.6,0-38.4,12-38.4,27.2s16.8,27.2,38.4,27.2s38.4-12,38.4-27.2S144.4,144.4,122.8,144.4z
		 M122.8,190c-16.4,0-30.4-8.8-30.4-19.2s14-19.2,30.4-19.2s30.4,8.8,30.4,19.2S139.2,190,122.8,190z"/>
</g>
</svg>
