<?xml version="1.0" encoding="utf-8"?>
<!-- Generator: Adobe Illustrator 16.0.0, SVG Export Plug-In . SVG Version: 6.00 Build 0)  -->
<!DOCTYPE svg PUBLIC "-//W3C//DTD SVG 1.1//EN" "http://www.w3.org/Graphics/SVG/1.1/DTD/svg11.dtd">
<svg version="1.1" id="Layer_1" xmlns="http://www.w3.org/2000/svg" xmlns:xlink="http://www.w3.org/1999/xlink" x="0px" y="0px"
	 width="500px" height="500px" viewBox="350 0 500 500" enable-background="new 350 0 500 500" xml:space="preserve">
<g>
	<g>
		<path fill="#F38230" d="M632.647,381.754c-40,0-79.412-15.295-110-45.295c-60.589-60.588-60.589-159.412,0-220
			c60.588-60.588,159.411-60.588,220,0c60.588,60.588,60.588,159.412,0,220l0,0C712.059,366.459,672.059,381.754,632.647,381.754z
			 M632.647,82.341c-37.059,0-74.118,14.118-101.765,42.353c-55.883,55.882-55.883,147.06,0,203.53
			c55.882,55.881,147.059,55.881,203.529,0c56.471-55.883,55.882-147.06,0-203.53C706.177,96.459,669.118,82.341,632.647,82.341z"/>
	</g>
	<g>
		<path fill="#F38230" d="M632.059,381.754c-72.353,0-137.059-50.588-152.353-123.53c-14.117-67.647,29.412-134.706,97.059-148.823
			c54.706-11.177,108.824,24.118,120.589,78.823c9.411,44.706-19.412,88.235-64.118,97.647c-17.646,3.529-35.294,0-50.588-9.412
			c-15.294-10-25.294-24.705-28.824-42.353c-6.47-29.412,12.941-58.823,42.354-65.294c24.117-5.294,48.235,10.588,53.529,34.706
			c1.765,10,0,19.412-5.294,28.235c-5.294,8.235-13.529,14.117-23.529,15.882c-17.06,3.529-32.941-7.059-36.471-24.118
			c-2.941-14.118,5.882-27.647,20-30.588l2.353,11.765c-7.646,1.765-12.353,9.412-11.176,17.059
			c2.353,10.588,12.353,17.059,22.94,14.706c13.529-2.941,22.354-16.471,20-30c-3.529-18.235-21.176-30-39.411-26.471
			c-23.529,4.706-38.235,27.647-33.529,51.177c6.47,30,35.882,49.411,65.882,42.94c38.235-8.234,62.941-45.293,54.706-83.529
			c-10-48.823-57.647-80-106.471-70c-61.177,12.941-101.177,73.529-88.235,134.707c16.471,77.646,92.353,127.646,170,111.176
			l2.353,11.766C653.823,380.576,642.647,381.754,632.059,381.754z"/>
	</g>
	<g>
		<path fill="#F38230" d="M446.177,447.047c-9.412,0-17.647-3.529-24.118-10c-13.529-13.529-13.529-35.293,0-48.822l82.354-82.354
			l8.235,8.234l0,0l-82.354,82.354c-8.823,8.824-8.823,22.941,0,31.766c8.824,8.822,23.529,8.822,31.765,0l82.354-82.354
			l8.235,8.234l-82.354,82.354C463.823,443.518,455,447.047,446.177,447.047z"/>
	</g>
</g>
</svg>
