<?xml version="1.0" encoding="utf-8"?>
<!-- Generator: Adobe Illustrator 16.0.0, SVG Export Plug-In . SVG Version: 6.00 Build 0)  -->
<!DOCTYPE svg PUBLIC "-//W3C//DTD SVG 1.1//EN" "http://www.w3.org/Graphics/SVG/1.1/DTD/svg11.dtd">
<svg version="1.1" id="Layer_1" xmlns="http://www.w3.org/2000/svg" xmlns:xlink="http://www.w3.org/1999/xlink" x="0px" y="0px"
	 width="500px" height="500px" viewBox="0 0 500 500" enable-background="new 0 0 500 500" xml:space="preserve">
<path fill="#F38230" d="M391.876,153.391c4.346,3.613,10.791,3.027,14.404-1.318l0,0l39.209-47.119
	c3.613-4.346,3.027-10.791-1.318-14.404s-10.791-3.027-14.404,1.318l-39.209,47.119
	C386.993,143.332,387.579,149.777,391.876,153.391L391.876,153.391z M412.823,221.799c-0.781-22.314-11.035-43.262-28.223-57.568
	l-0.049-0.049c-33.35-27.686-82.813-23.145-110.596,10.156l-18.408,22.119c-39.404,47.266-81.982,91.699-127.49,133.057
	l-69.922,63.428c-5.811,5.176-7.617,13.477-4.443,20.605c1.123,2.588,2.881,4.883,5.078,6.689c3.662,3.027,8.35,4.443,13.037,4.004
	c59.033-4.98,116.748-20.02,170.752-44.385c53.955-24.316,103.369-57.715,146.143-98.682
	C404.815,265.744,413.604,244.113,412.823,221.799L412.823,221.799z M374.542,266.428
	C293.438,343.869,188.751,392.063,77.13,403.293l64.648-58.691c46.24-41.992,89.502-87.109,129.492-135.107l18.408-22.119
	c20.557-24.658,57.178-27.979,81.836-7.471l0.098,0.049c24.609,20.508,27.979,57.08,7.471,81.689
	C377.667,263.352,376.153,264.914,374.542,266.428L374.542,266.428z"/>
</svg>
