<?xml version="1.0" encoding="utf-8"?>
<!-- Generator: Adobe Illustrator 16.0.0, SVG Export Plug-In . SVG Version: 6.00 Build 0)  -->
<!DOCTYPE svg PUBLIC "-//W3C//DTD SVG 1.1//EN" "http://www.w3.org/Graphics/SVG/1.1/DTD/svg11.dtd">
<svg version="1.1" id="Layer_1" xmlns="http://www.w3.org/2000/svg" xmlns:xlink="http://www.w3.org/1999/xlink" x="0px" y="0px"
	 width="500px" height="500px" viewBox="0 0 500 500" enable-background="new 0 0 500 500" xml:space="preserve">
<title>Ресурс 2</title>
<g>
	<path fill="#F38230" d="M408.68,351.631c-43.894,96.564-99.236,70.611-181.68,86.641c-44.656,8.398-97.71,41.604-145.801,8.779
		c-16.794-11.451-27.863-32.824-28.245-62.596c-0.381-25.191,10.306-51.145,16.413-74.809
		c22.137-87.787-0.764-153.435,71.374-195.801c88.931-52.672,155.343,42.748,221.755,109.541
		c10.688,10.688,37.023,33.969,42.367,48.473C412.114,292.09,416.313,330.258,408.68,351.631L408.68,351.631z M119.748,398.578
		c11.832,6.869,35.115-2.291,43.893-12.215c8.779-10.305,7.634-25.572-2.671-34.352c-9.924-8.396-24.428-7.633-33.588,1.527
		C118.603,363.844,112.878,387.51,119.748,398.578L119.748,398.578z M218.603,367.662c11.832,6.869,35.115-2.291,43.893-12.215
		c8.779-10.305,7.634-25.572-2.672-34.352c-9.923-8.396-24.427-7.633-33.587,1.527C217.458,332.93,211.733,356.594,218.603,367.662
		L218.603,367.662z M134.252,303.539c11.832,6.871,35.114-2.289,43.893-12.213c8.779-10.307,7.633-25.572-2.672-34.352
		c-9.923-8.397-24.427-7.633-33.588,1.527C133.107,268.426,127.382,292.09,134.252,303.539L134.252,303.539z M310.588,342.471
		c11.832,6.871,35.114-2.291,43.893-12.213c8.779-10.307,7.634-25.574-2.672-34.352c-9.923-8.398-24.427-7.635-33.588,1.525
		C309.443,307.355,303.718,331.02,310.588,342.471L310.588,342.471z M242.267,263.082c11.833,6.869,35.115-2.291,44.275-12.215
		c8.778-10.305,7.634-25.573-2.672-34.351c-9.924-8.396-24.427-7.634-33.588,1.526C241.504,227.966,235.779,252.012,242.267,263.082
		L242.267,263.082z M158.298,198.959c11.832,6.87,35.114-2.29,43.893-12.214c8.778-10.306,7.633-25.572-2.672-34.352
		c-9.924-8.396-24.427-7.634-33.588,1.527C157.153,163.844,151.427,187.509,158.298,198.959L158.298,198.959z M330.053,114.99
		c-21.755-24.81,12.596-39.313-20.992-68.702c-9.16,19.847-16.03,46.183-8.778,69.847c11.832,39.695,112.978,144.657,156.489,94.657
		c-22.52-16.412-57.252-11.832-70.229-21.756c-1.526-36.26,41.985-4.58,51.146-50c-17.558-0.382-30.153-3.436-41.985,4.962
		c0,0-32.824,33.587-33.588,4.961c-0.763-23.282,20.229-3.435,26.718-73.282C346.848,83.31,358.298,124.532,330.053,114.99z
		 M194.557,80.638c-37.786,0.764-73.664,17.558-98.473,46.565c-37.023,41.984-27.863,107.252-44.275,175.955
		c-4.962,20.609-13.359,40.457-16.412,59.924c-10.687,70.992,30.152,114.504,97.71,114.504c39.694,0,59.923-15.65,85.878-18.703
		c29.771-3.816,50.763-9.16,79.007-9.924c113.359-2.672,167.939-116.029,109.16-208.778c74.428,6.106,77.863-43.512,70.611-51.146
		c-10.306-3.436-5.726,5.344-43.512-7.634c10.305-9.542,10.688-7.634,17.939-23.664c20.61-45.038-10.306-37.786-50.764-37.404
		c4.198-16.031,9.16-46.184,6.106-64.122c-28.244-8.397-51.908,13.358-64.504,25.19c1.146-30.916-15.648-61.832-43.511-58.778
		c-15.649,16.03-22.138,61.068-20.992,87.022C254.48,99.341,248.756,82.166,194.557,80.638z"/>
</g>
</svg>
