<?xml version="1.0" encoding="utf-8"?>
<!-- Generator: Adobe Illustrator 16.0.0, SVG Export Plug-In . SVG Version: 6.00 Build 0)  -->
<!DOCTYPE svg PUBLIC "-//W3C//DTD SVG 1.1//EN" "http://www.w3.org/Graphics/SVG/1.1/DTD/svg11.dtd">
<svg version="1.1" id="Layer_1" xmlns="http://www.w3.org/2000/svg" xmlns:xlink="http://www.w3.org/1999/xlink" x="0px" y="0px"
	 width="500px" height="500px" viewBox="0 0 500 500" enable-background="new 0 0 500 500" xml:space="preserve">
<g>
	<path fill="#F38230" d="M169.447,365.317c3.976,0.994,7.952-0.994,8.946-4.971c0.994-3.976-0.994-7.952-4.97-8.946
		c-12.922-3.976-23.857-12.922-31.809-23.856c-1.988-2.981-6.958-3.976-10.935-1.988c-2.982,1.988-3.976,6.958-1.988,10.935
		C139.626,349.412,153.543,360.347,169.447,365.317z"/>
	<path fill="#F38230" d="M181.376,399.114l-3.977,19.881c-1.988,9.94,5.965,19.881,15.905,19.881h91.451
		c9.94,0,17.893-9.94,15.904-19.881l-3.977-19.881c64.613-22.862,113.32-90.457,116.303-164.016
		c0.994-9.94-6.958-16.899-15.904-16.899h-46.72l59.642-85.486c6.959-9.94,2.982-23.857-7.952-30.815s-24.851-5.964-31.81,3.976
		l-78.528,112.326H80.979c-8.946,0-16.899,7.952-15.905,16.898C68.056,308.657,116.764,376.252,181.376,399.114z M284.756,423.965
		h-91.452c-0.994,0-0.994-0.994-0.994-1.988l3.976-17.893c12.922,2.982,29.821,5.965,46.72,4.971
		c12.922,0,25.845-1.988,39.762-4.971l3.976,17.893C285.75,422.971,285.75,423.965,284.756,423.965z M382.171,113.826
		c1.988-2.982,6.958-1.988,10.935,0c2.982,1.988,5.964,6.958,3.976,9.94l-65.606,93.438h-21.868L382.171,113.826z M79.984,234.104
		c0,0,0,0,0.994,0c69.583,0,252.485,0,316.104,0c0.994,0,0.994,0.994,0.994,0.994C394.1,304.681,347.38,369.293,285.75,388.18
		C179.388,419.989,84.954,337.484,79.984,234.104L79.984,234.104z"/>
	<path fill="#F38230" d="M122.728,186.391c-2.982,2.982-2.982,7.952,0,10.935c2.982,2.981,7.952,2.981,10.935,0
		c9.94-9.94,9.94-26.839,0-36.779s5.964-20.875,6.958-22.862c2.982-2.982,2.982-7.953,0-10.936c-2.982-2.981-7.952-2.981-10.935,0
		c0,0.994-28.827,21.869-6.958,43.738C126.704,174.462,126.704,181.42,122.728,186.391z"/>
	<path fill="#F38230" d="M192.31,186.391c-2.982,2.982-2.982,7.952,0,10.935c2.982,2.981,7.952,2.981,10.934,0
		c9.94-9.94,9.94-26.839,0-36.779s5.965-20.875,6.959-22.862c2.981-2.982,2.981-7.953,0-10.936c-2.982-2.981-7.953-2.981-10.935,0
		c0,0.994-28.827,21.869-6.958,43.738C197.28,174.462,197.28,181.42,192.31,186.391z"/>
	<path fill="#F38230" d="M157.519,137.684c-2.982,2.981-2.982,7.951,0,10.934c2.982,2.982,7.952,2.982,10.935,0
		c9.94-9.94,9.94-26.839,0-36.779s5.964-20.875,6.958-22.862c2.982-2.982,2.982-7.952,0-10.935s-7.952-2.982-10.935,0
		c0,0.994-28.827,21.869-6.958,43.737C161.495,126.748,161.495,133.707,157.519,137.684z"/>
</g>
</svg>
