<?xml version="1.0" standalone="no"?>
<!DOCTYPE svg PUBLIC "-//W3C//DTD SVG 1.1//EN" "http://www.w3.org/Graphics/SVG/1.1/DTD/svg11.dtd" >
<svg xmlns="http://www.w3.org/2000/svg" xmlns:xlink="http://www.w3.org/1999/xlink" version="1.1">
<metadata>
Created by FontForge 20180930 at Mon Oct  8 19:16:48 2018
 By root
Copyright (c) 2015 by Zetafonts. All rights reserved.
</metadata>
<defs>
<font id="KittenSlant" horiz-adv-x="2048" >
  <font-face 
    font-family="Kitten Slant"
    font-weight="400"
    font-stretch="normal"
    units-per-em="1000"
    panose-1="0 0 0 0 0 0 0 0 0 0"
    ascent="800"
    descent="-200"
    x-height="407"
    cap-height="718"
    bbox="-324 -413.044 2249.36 1263"
    underline-thickness="50"
    underline-position="-100"
    unicode-range="U+0020-2122"
  />
    <missing-glyph />
    <glyph glyph-name="t_i" unicode="ti" horiz-adv-x="516" 
d="M528 162q4 -11 1.5 -23t-7.5 -26q-10 -23 -28 -45t-40.5 -39.5t-47.5 -28.5t-48 -11q-45 0 -67 19.5t-35 64.5q-12 -18 -29 -33.5t-37.5 -27t-43 -18t-44.5 -6.5q-31 0 -62.5 21t-48.5 56q-3 10 -6.5 19.5t-5.5 20.5q-2 19 -4 47.5t-3.5 62t-1.5 71.5t2 77
q-23 6 -40 16.5t-22 27.5q-5 15 -2 24.5t12.5 14t25 6t35.5 1.5q4 33 11.5 63t17.5 53t24 37.5t32 18.5q21 0 41 -7q24 -8 47 -24.5t29 -36.5q3 -8 3 -15t-8 -15q-8 -15 -15.5 -32t-15.5 -40h49q11 0 22.5 -10.5t16.5 -18.5q7 -20 2 -33.5t-16.5 -21.5t-26.5 -12t-29 -5
q-10 -1 -21.5 -1t-21.5 -1q-6 -32 -9.5 -64t-6 -62t-2.5 -56.5t2 -45.5q-1 -6 0 -10.5t3 -8.5q4 -13 15 -18.5t26 -5.5q17 0 36.5 14t39.5 46q7 13 13 27q-1 17 -2 41.5t-0.5 51t3.5 53.5t11.5 48t22.5 34t36 13q35 0 52 -9.5t25 -20.5q3 -8 5 -13.5t0 -11.5h1q-1 0 -1 -1
q3 -7 4 -12.5t2 -10.5q-1 -17 -4 -34t-6.5 -38t-7 -47t-4.5 -60q0 -11 -0.5 -23t0.5 -24q3 -14 24 -14t43.5 26t45.5 61q5 5 11 9q7 -2 16 -8.5t12 -15.5zM280 529q-9 27 -8.5 49.5t7.5 38.5t19 25t26 9q13 0 31.5 -4t35.5 -11t30.5 -17t17.5 -22q5 -9 -1 -16l-8 -10
q-8 -9 -13 -22.5t-9 -27.5l-6 -14q-5 -14 -11 -23.5t-15 -10.5h1q-2 0 -5.5 -0.5t-5.5 -0.5q-12 0 -24.5 2t-24 8t-21 17.5t-16.5 29.5z" />
    <glyph glyph-name="space" unicode=" " horiz-adv-x="269" 
 />
    <glyph glyph-name="R" unicode="R" horiz-adv-x="660" 
d="M593 101q13 16 25 16t20 -9t10.5 -23t-3.5 -25q-10 -19 -25 -36t-35 -30.5t-45 -21.5t-55 -8q-54 0 -87.5 26t-61.5 71q-30 43 -48 78.5t-36 62t-41 44t-62 25.5q0 -42 0.5 -84t3.5 -84q3 -33 6 -58.5t1.5 -42.5t-10 -26t-27.5 -9q-21 0 -34.5 6t-23 17t-16.5 26.5
t-13 35.5q-14 52 -22.5 111.5t-13 118t-3.5 112t7 93.5q10 63 27.5 99t53.5 41q18 2 43 -1.5t40 -21.5q7 -7 10 -14t4 -10q2 -4 3 -9.5t0 -10.5q-2 -21 -6.5 -47t-10 -54.5t-10.5 -58.5t-7 -60q34 -5 47 -7t22 -2q38 0 67.5 15t48.5 39t24.5 54.5t-4.5 61.5
q-14 43 -56.5 72.5t-119.5 29.5q-24 0 -53 -7t-56.5 -8.5t-49.5 8t-33 42.5q-14 38 -2 57.5t39.5 27.5t67.5 9t84 1q40 0 76 -3q55 -5 102.5 -21t83.5 -41.5t58.5 -58.5t29.5 -70q9 -44 -3.5 -85t-41.5 -74.5t-70.5 -58t-90.5 -35.5q20 -11 40.5 -31t40 -44.5t38 -50t35 -46
t30.5 -34t25 -13.5q21 0 37 10.5t26 23.5z" />
    <glyph glyph-name="z" unicode="z" horiz-adv-x="406" 
d="M244 -36h-17t-18 2q-19 2 -58 15t-81 34t-77 49.5t-46 61.5q-10 32 10.5 56t62.5 27q14 2 19.5 -1.5t15.5 -10.5q9 8 21.5 20.5t25 26.5t25.5 29t24 27q-23 4 -39 8.5t-27.5 7.5t-20.5 5t-18 2q-17 1 -30 -7.5t-23 -14.5q-4 -3 -8.5 -4.5t-8.5 -2.5q-8 4 -12.5 12
t-7.5 18q-5 20 -2.5 39.5t11.5 35t24.5 24.5t38.5 9q29 -1 72.5 -17.5t94.5 -38.5q18 23 31.5 31t24.5 8q7 0 16 -4.5t17 -12t15 -16.5t10 -18q1 -2 1 -9q-9 -39 -59 -93.5t-130 -121.5q9 -9 25.5 -21.5t34 -24t34 -20.5t25.5 -10q16 -1 35.5 10.5t32.5 20.5q19 10 34 13
q19 5 30.5 8t19.5 -6q1 0 3 -3q7 -24 -6 -49t-36.5 -46t-53.5 -34.5t-55 -13.5z" />
    <glyph glyph-name="y" unicode="y" horiz-adv-x="484" 
d="M212 -237q-14 -3 -28 -5q-62 -7 -95.5 16t-40.5 61q-6 29 4 56t32.5 49.5t56.5 39t76 25.5q2 22 1.5 36t1.5 34q-11 -15 -25.5 -30t-32 -27t-38 -19.5t-42.5 -7.5q-56 0 -85 35.5t-38 95.5q-6 38 -7 87.5t6.5 94t25.5 75t51 30.5q28 0 44.5 -6t25 -14.5t11.5 -18.5t4 -18
q3 -19 0 -36.5t-8.5 -38t-12 -46t-9.5 -59.5q-1 -6 -1.5 -20.5t1.5 -29.5q2 -14 7.5 -24t16.5 -10q22 0 38.5 16.5t28.5 44.5t20.5 63.5t15.5 73.5q4 49 18.5 79t53.5 30q36 0 57.5 -15.5t29.5 -50.5q1 -27 -1.5 -53t-7.5 -60t-12 -81t-13 -116q31 3 70 0t74.5 -15t62 -34
t32.5 -56q4 -19 -3 -36.5t-30 -20.5q-17 -2 -39 5.5t-36 27.5q-32 41 -61.5 53.5t-64.5 12.5l-9 -1q-8 -76 -35 -125t-91 -67zM142 -141q-2 -3 1 -6q2 -10 8.5 -18.5t17.5 -6.5q16 2 25.5 11t14.5 23.5t7 33.5t2 40q-31 -10 -53 -27.5t-23 -49.5z" />
    <glyph glyph-name="ampersand" unicode="&#x26;" horiz-adv-x="778" 
d="M744 -30q24 -5 39.5 -18.5t22.5 -31.5q5 -15 4.5 -31.5t-7 -30t-19 -22.5t-30.5 -9q-9 1 -17.5 2t-18.5 4q-50 19 -109 65.5t-148 123.5q-36 -18 -86 -30t-110 -13q-42 0 -82 7t-74.5 24.5t-61 47t-41.5 73.5q-10 31 -6 59t19 53t41 49t61 48q-12 12 -20.5 23t-15 21.5
t-12 22t-11.5 24.5q-4 8 -6 17.5t-4 19.5q-3 25 2.5 52t21.5 48.5t44.5 35.5t71.5 14q13 0 33 -6q27 9 54 11q62 0 104 -29.5t59 -77.5q6 -21 -4.5 -43t-34.5 -46t-60 -50.5t-80 -55.5q41 -36 94.5 -80t105.5 -82q18 29 27 65.5t4 74.5l-47 -2q-15 -3 -31 -3q-14 0 -23 4
t-14 18q1 30 21.5 46.5t53 25t72.5 10t81 1.5q19 0 38.5 -0.5t36.5 -4t31 -10.5t22 -20q-10 -38 -26 -52t-45 -18q-9 -1 -20 -1.5t-21 -0.5q-11 0 -20 0.5t-22 1.5q0 -25 -1.5 -52t-5.5 -53.5t-11 -50.5t-19 -43q35 -29 63 -49.5t51.5 -35t44 -24t41.5 -16.5zM290 75
q24 0 47.5 5.5t40.5 16.5q-43 36 -86 75.5t-87 84.5l-23.5 -23.5t-22 -27.5t-13.5 -32t2 -36q9 -28 49 -45.5t93 -17.5zM173 448q2 -9 10.5 -24t21.5 -31q14 12 28 22t28 19l19 13q20 14 31.5 28.5t6.5 30.5q-7 23 -34 35.5t-54 21.5q-4 -2 -7.5 -4.5t-7.5 -5.5
q-32 -17 -42 -47t0 -58z" />
    <glyph glyph-name="acute" unicode="&#xb4;" horiz-adv-x="363" 
d="M265 632q6 -27 -6.5 -50.5t-35 -42t-51.5 -31t-55 -17.5q-5 -1 -12.5 -3t-15.5 -2t-14.5 2.5t-9.5 9.5q-5 14 3 27.5t20 27t25.5 27.5t21.5 29q5 11 10 19.5t9 15.5q6 9 15 15t33 6q8 0 18 -3t19.5 -7.5t16.5 -10.5t9 -12z" />
    <glyph glyph-name="grave" unicode="`" horiz-adv-x="371" 
d="M193 492q4 -11 -13 -11q-16 0 -41 5.5t-53.5 15t-57.5 23t-54 30t-43.5 35.5t-25.5 40q-3 9 3 16t17 10q38 10 64 -5t52 -39q16 -15 40.5 -31t48.5 -32t42 -30.5t21 -26.5z" />
    <glyph glyph-name="tilde" unicode="&#x2dc;" horiz-adv-x="487" 
d="M172 632q13 -2 28 -5.5t31 -7.5q7 -2 12 -3l10 -2q12 -3 21 -5.5t17 -2.5q19 0 26.5 3t9.5 6.5t2.5 6.5t6.5 4q13 0 25 -7t21 -17t14.5 -22t6.5 -22q1 -2 1 -7v1q0 -23 -17 -36.5t-44 -15.5q-18 -2 -36 3.5t-40 13t-48.5 15t-60.5 10.5q-17 1 -28 -1t-22 -2
q-5 0 -7.5 -0.5t-6.5 -0.5q-12 0 -18.5 10.5t-8.5 23.5t2 25.5t15 21.5t30.5 13.5t49.5 0.5q5 0 8 -1z" />
    <glyph glyph-name="circumflex" unicode="&#x2c6;" horiz-adv-x="398" 
d="M238 529q3 -8 4 -15.5t0 -12.5q2 -7 -2 -11t-11 -5.5t-16 -1.5t-17 2q-18 3 -30.5 16.5t-23.5 30t-23 32t-29 23.5q-9 -4 -19.5 -20t-23.5 -34t-26.5 -33t-28.5 -16q-17 0 -31 11t-15 24q-2 17 9.5 40t30 45t43 39.5t49.5 23.5q31 8 58 -8q12 -6 25.5 -19.5t27 -31.5
t26 -38.5t23.5 -40.5z" />
    <glyph glyph-name="dieresis" unicode="&#xa8;" horiz-adv-x="428" 
d="M219 622q26 -2 51 -16t38 -34q17 -20 11.5 -41.5t-24.5 -32.5q-24 -12 -54 -3.5t-48 38.5q-11 15 -15 31.5t-1 29.5t13 21t29 7zM-5 545q-6 15 -8.5 29t0.5 25t12 17.5t27 6.5q15 0 30.5 -4.5t28.5 -12.5t23 -18.5t14 -22.5q6 -18 3 -36t-14.5 -29t-31 -12.5t-45.5 13.5
q-12 7 -22.5 18t-16.5 26z" />
    <glyph glyph-name="period" unicode="." horiz-adv-x="282" 
d="M151 -7q-9 0 -17.5 1t-16.5 3q-24 7 -42.5 23.5t-25.5 38.5q-9 26 6.5 46t50.5 20q32 0 56 -12t31 -32q5 -15 4.5 -30.5t-6 -28t-16 -20.5t-24.5 -9z" />
    <glyph glyph-name="comma" unicode="," horiz-adv-x="287" 
d="M91 10q-2 3 -9.5 7t-15.5 9.5t-16 13t-11 18.5q-11 29 4 48.5t50 19.5q34 0 63.5 -23t40.5 -55q9 -27 -1.5 -55t-28.5 -51t-38.5 -38t-32.5 -15q-17 0 -32 11t-20 24q-2 5 3 8q23 18 34.5 41t9.5 37z" />
    <glyph glyph-name="cedilla" unicode="&#xb8;" horiz-adv-x="358" 
d="M164 -87q-2 4 -6 14q-4 6 -8 24t-3.5 38t8 36t27.5 18q11 1 19 -5.5t10 -12.5q2 1 5.5 -2t4.5 -8q2 -12 2.5 -32.5t4.5 -31.5q49 -46 62 -80q11 -34 -7.5 -58t-74.5 -26q-7 0 -13 -0.5t-12 1.5q-32 4 -62.5 19.5t-38.5 37.5q-11 32 31 33q46 -20 67 -23q11 0 19 3
q12 3 9 14q-3 9 -15 20.5t-29 20.5z" />
    <glyph glyph-name="Thorn" unicode="&#xde;" horiz-adv-x="546" 
d="M-48 584q7 0 12.5 0.5t12.5 0.5q6 31 12 55t15 41t22.5 26t34.5 9q9 0 24.5 -6t32 -15.5t30.5 -22.5t20 -27q3 -11 -1.5 -31.5t-10.5 -39.5q58 -6 107.5 -28t88 -53t64 -66t34.5 -67q17 -59 -0.5 -112t-59 -93t-100.5 -63.5t-125 -23.5q-11 0 -22.5 1t-25.5 4v-20
q3 -24 6.5 -42t2 -31t-9.5 -19.5t-26 -6.5q-39 0 -61 26.5t-33 78.5q-7 44 -12.5 92.5t-9 98.5t-4.5 99.5t0 95.5q-24 13 -37 30q-8 20 -8.5 39t3 34t10.5 24.5t14 11.5zM132 452q-12 -75 -16.5 -151.5t-3.5 -148.5q14 -2 26 -3.5t20 -1.5q40 0 72.5 16t53.5 42.5t28.5 60.5
t-2.5 69q-6 20 -21.5 40.5t-38.5 37.5t-53.5 28t-64.5 11z" />
    <glyph glyph-name="thorn" unicode="&#xfe;" horiz-adv-x="426" 
d="M139 58q-2 9 0 22t22 14q9 24 14 52.5t6.5 54t0.5 45.5t-4 29q-5 21 -25 21q-40 0 -59.5 -24.5t-24.5 -64t1 -90.5t16 -104.5t20 -104.5t13.5 -90.5t-3 -64t-29.5 -24.5q-9 0 -23.5 4.5t-29.5 15.5t-29.5 30t-24.5 48q-22 66 -29 142t-8 145q-2 34 -2.5 86t1.5 110.5
t8.5 119t18 111.5t30.5 86.5t46 44.5q17 4 42.5 -5t46 -24.5t30 -35.5t-5.5 -39q-11 -17 -21 -42t-19.5 -55.5t-17 -64t-13.5 -66.5q46 66 93 67q11 1 20.5 -0.5t17.5 -3.5q30 -6 48.5 -25.5t27.5 -45.5q11 -33 10.5 -72.5t-6.5 -75t-14 -62.5t-13 -35q51 8 79 34t46 61
q6 11 11.5 18.5t12.5 7.5q10 0 18 -8.5t13 -19.5q1 -3 1.5 -7.5t-1.5 -9.5v-2l-6 -22q-11 -24 -31 -49.5t-47.5 -47t-63 -35.5t-76.5 -14q-38 0 -62 17.5t-26 47.5z" />
    <glyph glyph-name="exclam" unicode="!" horiz-adv-x="340" 
d="M139 -12q-14 0 -29 4.5t-28.5 12.5t-23.5 19.5t-13 26.5q-8 29 11.5 50.5t61.5 21.5q27 0 45 -12.5t26 -33.5q5 -16 4.5 -32t-7 -28.5t-18.5 -20.5t-29 -8zM82 647q17 43 37 63.5t59 17.5q4 -1 11 -2.5t14 -4.5q9 -3 19.5 -8t20.5 -11.5t17 -15t10 -17.5q2 -8 -4 -24
t-14 -30q-18 -38 -32 -82.5t-24 -92t-15.5 -95t-6.5 -91.5q1 -19 2.5 -35t-1.5 -27t-12 -17t-29 -4q-45 3 -63 33q-8 9 -11 20t-5 24q-6 49 -6.5 104t3 108.5t11.5 102t19 84.5z" />
    <glyph glyph-name="slash" unicode="/" horiz-adv-x="551" 
d="M146 -57q-9 -10 -26 -12q-20 -3 -42 10t-37 33q4 15 20 49t39.5 80t52 101t57 112.5t54.5 113.5t45 104q5 11 9.5 20t7.5 16q9 3 20 3.5t23 -3t24 -12t21 -23.5q-8 -16 -27.5 -51.5t-46 -83.5t-56.5 -105.5t-57.5 -118t-49 -120.5t-31.5 -113z" />
    <glyph glyph-name="bar" unicode="|" horiz-adv-x="434" 
d="M80 -60q0 5 1 10l2 10q7 64 14.5 143t13.5 161.5t10 164t4 149.5q-2 23 -2 43v35q1 7 14.5 5t24.5 -8q19 0 37.5 -12t30.5 -34q0 -19 -6.5 -55.5t-15 -84.5t-16 -105t-9.5 -117l-2 -68q-2 -38 -2 -86.5t-1 -91t-3.5 -72.5t-8.5 -32q-1 -2 -11.5 -1t-18.5 9q-3 0 -11 2.5
t-17 7.5t-17 11.5t-11 15.5z" />
    <glyph glyph-name="backslash" unicode="\" horiz-adv-x="249" 
d="M129 -66q-11 56 -34 123.5t-51.5 136.5t-60 136.5t-60 124.5t-50.5 98.5t-32 59.5q10 12 22 16.5t24 3.5t23 -5t20 -10q3 -8 7 -18t9 -23q20 -54 48 -118.5t58 -131t60.5 -131t55.5 -118.5t42.5 -93t22.5 -54q-14 -14 -36.5 -20.5t-42.5 3.5q-8 3 -14.5 8t-10.5 12z" />
    <glyph glyph-name="hyphen" unicode="-" horiz-adv-x="407" 
d="M56 235q53 4 98.5 14.5t87.5 22.5q12 -2 26.5 -15.5t19.5 -25.5q6 -17 -12 -28.5t-50 -19t-73.5 -12t-81.5 -7.5q-10 4 -19 12t-14 17q-5 14 -1.5 25.5t19.5 16.5z" />
    <glyph glyph-name="colon" unicode=":" horiz-adv-x="349" 
d="M196 60q2 -5 2 -10.5t1 -10.5q0 -21 -15.5 -37t-41.5 -16q-35 0 -61.5 21t-36.5 50q-9 29 0 47.5t43 18.5q17 0 35 -6t33 -15.5t26 -20.5t15 -21zM164 247q-16 0 -31.5 7t-29 18t-24 25t-15.5 28q-8 26 3 44t49 18q33 0 59.5 -16.5t34.5 -41.5q13 -35 -1 -58.5t-45 -23.5
z" />
    <glyph glyph-name="semicolon" unicode=";" horiz-adv-x="349" 
d="M210 326q6 -13 4 -25q1 -21 -13 -36.5t-39 -15.5q-17 0 -33 7.5t-29 19t-23 26t-15 29.5q-7 22 3.5 39.5t43.5 17.5q35 0 64 -19.5t37 -42.5zM92 -2q-2 4 -9.5 10t-16 13.5t-16.5 16.5t-11 19q-6 23 7 42t47 19q16 0 32 -5t30 -14t24.5 -21.5t15.5 -27.5q9 -28 3 -53
t-20.5 -45t-35.5 -34.5t-42 -20.5q-12 -1 -24 2q-11 5 -19 13t-12 16q0 6 4 8q20 17 32 32.5t11 29.5z" />
    <glyph glyph-name="quotesingle" unicode="'" horiz-adv-x="200" 
d="M83 595q4 -15 0.5 -44t-12.5 -59.5t-23 -57.5t-31 -38q-17 -2 -28.5 0.5t-16.5 11.5q-5 32 -8 66t-5 65q-2 17 -4.5 34t-0.5 31t12 22.5t33 8.5q12 0 25.5 -4.5t26 -10.5t21.5 -13t11 -12z" />
    <glyph glyph-name="quotedbl" unicode="&#x22;" horiz-adv-x="413" 
d="M284 571q4 -2 6.5 -4.5l5.5 -5.5q2 -2 2.5 -3t1.5 -2q1 -7 0.5 -25.5t-3.5 -42t-9 -49t-14 -46.5t-19.5 -35t-25.5 -14q-16 0 -22.5 8.5t-13.5 15.5q0 33 -5.5 69.5t-8 68.5t3 56t27.5 30q15 3 29 0t24.5 -8t20.5 -13zM19 392q-1 5 -0.5 11t-0.5 11l-4 39q-2 32 -6 63
t-8 60q12 17 38.5 20t53.5 -5q11 -3 20 -9t13 -16q3 -8 2.5 -26t-3 -40.5t-8.5 -46.5t-14 -44.5t-19 -35t-24 -16.5q-21 -2 -32 11q-2 5 -4 11t-3 12z" />
    <glyph glyph-name="quotedblbase" unicode="&#x201e;" horiz-adv-x="486" 
d="M90 7q-3 6 -10.5 11.5t-15.5 11t-15.5 12t-11.5 16.5q-9 28 7 47.5t46 19.5q41 0 70 -23t42 -52q7 -24 1 -50t-20 -48.5t-35 -38t-44 -18.5q-6 0 -12 0.5t-12 1.5q-11 3 -20.5 10t-12.5 15q-1 2 -1 7q4 2 7 5l5 5q39 31 32 68zM300 20q-3 6 -11 11.5t-16 11.5t-16 13
t-11 17q-9 29 6.5 49.5t45.5 20.5q40 0 69.5 -24.5t42.5 -54.5q7 -24 1.5 -51.5t-19 -50.5t-34 -39.5t-43.5 -18.5q-11 -2 -23 2t-21.5 11t-12.5 15q-1 2 -1 7q4 2 7 5l5 5q36 33 31 71z" />
    <glyph glyph-name="quotesinglbase" unicode="&#x201a;" horiz-adv-x="285" 
d="M90 7q-3 6 -10.5 11.5t-16 11t-16 12t-10.5 16.5q-9 26 5.5 45t42.5 21q13 1 30 -2q31 -6 54 -27t33 -45q7 -24 1 -50t-20 -48.5t-35 -38t-44 -18.5q-11 0 -22 2.5t-19 7.5q-5 3 -9.5 7.5t-6.5 9.5q-1 2 -1 7q5 4 10 7.5t9 7.5q16 14 21.5 30t3.5 33z" />
    <glyph glyph-name="ellipsis" unicode="&#x2026;" horiz-adv-x="727" 
d="M147 -10q-16 -1 -32 3q-23 6 -41.5 22.5t-26.5 39.5q-8 26 7.5 46t50.5 20q32 0 55 -12t31 -32q5 -15 4.5 -30.5t-6.5 -28t-16.5 -20.5t-25.5 -8zM363 -10q-15 -2 -29 3q-23 6 -43 23.5t-29 43.5t6 43.5t49 17.5t60 -15t34 -35q4 -14 3.5 -28t-6.5 -26t-17.5 -19.5
t-27.5 -7.5zM500 47q-6 19 -2 33t14.5 23t26 13t32.5 4q31 -2 48.5 -17t23.5 -32q11 -33 -4 -59t-50 -26q-30 0 -54 16t-35 45z" />
    <glyph glyph-name="quotedblright" unicode="&#x201d;" horiz-adv-x="441" 
d="M12 475q-2 3 -9.5 7t-15.5 9.5t-16 13t-11 18.5q-11 29 4 48.5t50 19.5q34 0 63.5 -23t40.5 -55q9 -27 -1.5 -55t-28.5 -51t-38.5 -38t-32.5 -15q-17 0 -32 11t-20 24q-2 5 3 8q23 18 34.5 41t9.5 37zM201 495q-2 3 -9.5 7t-15.5 9.5t-16 13t-11 18.5q-11 29 4 48.5
t50 19.5q34 0 63.5 -23t40.5 -55q9 -27 -1.5 -55t-28.5 -51t-38.5 -38t-32.5 -15q-17 0 -32 11t-20 24q-2 5 3 8q23 18 34.5 41t9.5 37z" />
    <glyph glyph-name="quotedblleft" unicode="&#x201c;" horiz-adv-x="441" 
d="M259 469q32 -15 40.5 -36t1.5 -40t-26 -31t-41 -8q-29 6 -53 26t-32 45q-9 24 -4 50.5t19.5 49t35 38t43.5 18.5q6 0 12 -0.5t11 -1.5q12 -3 23 -10.5t15 -14.5q1 -4 -1.5 -6t-4.5 -4q-48 -35 -39 -75zM118 396q8 -25 2 -43.5t-29 -23.5q-11 -3 -21 -3q-38 0 -67 23.5
t-39 52.5q-9 27 -4 54t19.5 49.5t36 38.5t45.5 23q11 -1 27 -11t21 -21l-1 -1q-2 -5 -8 -13t-12 -17.5t-10.5 -19t-4.5 -18.5q0 -11 5.5 -18.5t13 -15t15 -16t11.5 -20.5z" />
    <glyph glyph-name="plus" unicode="+" horiz-adv-x="507" 
d="M237 54q-10 -10 -27 -10q-18 0 -30.5 12.5t-19.5 34.5q-4 14 -2 33.5t0 42.5h-33.5t-36.5 0.5t-34 1.5t-26 3q-16 14 -12 28q-2 16 11.5 23.5t35 10.5t46.5 3t48 1q0 14 -1 31.5t-1.5 34.5t-0.5 31t1 22q7 7 19 8t24.5 -3.5t23 -14.5t15.5 -24q4 -15 5 -34t0 -47
q29 0 56 2.5t51 5.5q14 -4 26.5 -11t17.5 -19q4 -12 -6.5 -21t-31 -16t-49.5 -11t-63 -5z" />
    <glyph glyph-name="endash" unicode="&#x2013;" horiz-adv-x="566" 
d="M309 174h-56.5t-66 0.5t-66 0.5h-56.5q-18 10 -22 23q-5 12 2.5 24t21.5 15q8 0 16 0.5t15 -0.5q105 4 179.5 9.5t134.5 13.5q12 -3 19 -10.5t11 -18.5q7 -20 -1.5 -31.5t-28 -17t-46.5 -7t-56 -1.5z" />
    <glyph glyph-name="emdash" unicode="&#x2014;" horiz-adv-x="680" 
d="M3 211q-20 0 -25 5.5t-10 16.5q-3 12 3.5 26t35.5 14q81 2 160 6t151 9.5t134 11t109 9.5q11 -4 22 -13t16 -21q3 -10 -3 -17.5t-28 -13.5t-63.5 -10.5t-108.5 -8.5t-164 -7.5t-229 -6.5z" />
    <glyph glyph-name="macron" unicode="&#xaf;" horiz-adv-x="602" 
d="M18 534q-3 9 1 16.5t11.5 13.5t16 10t16.5 4q40 1 71.5 3t59 4.5t53 6.5t53.5 9q16 -5 26.5 -15t14.5 -23q8 -23 -5 -35.5t-38.5 -18t-59.5 -6.5t-68 -1q-11 0 -35 1t-48.5 4t-44.5 9.5t-24 17.5z" />
    <glyph glyph-name="degree" unicode="&#xb0;" horiz-adv-x="401" 
d="M-7 595q8 8 20 11t23 3q20 0 40.5 -8t38.5 -21.5t31.5 -31.5t19.5 -37q9 -27 5 -49.5t-17.5 -38t-33.5 -24t-43 -8.5q-27 0 -50.5 8.5t-42 22.5t-32 32t-19.5 37t-5.5 37.5t8.5 33t22 23.5t35 10zM21 537q-20 -11 -22 -27.5t8 -30.5q11 -17 29 -22.5t36 2.5q23 8 28 26
t-8 35q-11 16 -33 19.5t-38 -2.5z" />
    <glyph glyph-name="quoteleft" unicode="&#x2018;" horiz-adv-x="243" 
d="M116 422q8 -24 2 -42.5t-29 -24.5q-5 -1 -11 -1.5t-11 -0.5q-38 0 -66.5 23.5t-39.5 52.5q-9 27 -3.5 53.5t20 49t36 39t45.5 22.5q5 0 12.5 -2.5t14.5 -7t12 -10t7 -11.5q1 -1 1 -2q-2 -5 -8 -13t-12 -17.5t-10.5 -19t-4.5 -18.5q0 -11 5 -18.5t12.5 -15t15 -16
t12.5 -20.5z" />
    <glyph glyph-name="quoteright" unicode="&#x2019;" horiz-adv-x="244" 
d="M27 483q-3 6 -10 11t-15 11t-15 12.5t-10 15.5q-10 28 4.5 46.5t42.5 20.5q13 1 28 -2q31 -6 54 -27t33 -46q8 -24 2 -50t-20.5 -48.5t-35.5 -38t-44 -17.5t-41 10q-5 2 -12.5 11t-1.5 14q26 18 36 36.5t5 40.5z" />
    <glyph glyph-name="asciicircum" unicode="^" horiz-adv-x="406" 
d="M306 384q4 -9 1 -15.5t-10.5 -10.5t-18 -6t-20.5 -2q-23 0 -38.5 15.5t-29.5 36.5t-29 41.5t-36 31.5q-10 -5 -22 -23t-26.5 -38.5t-31.5 -37.5t-35 -18q-16 1 -33 12t-18 27q-2 19 11 46t35.5 53t51.5 46.5t58 26.5q17 2 32.5 0t30.5 -11q16 -9 32.5 -27t33 -41.5
t32.5 -50.5t30 -55z" />
    <glyph glyph-name="less" unicode="&#x3c;" horiz-adv-x="437" 
d="M258 27q-15 9 -58.5 43.5t-107.5 79.5q-21 7 -39.5 16t-27.5 26q-7 20 11.5 37t50.5 28q16 11 39.5 30.5t47.5 38.5t45 33t34 15q10 0 17 -10t9 -17q6 -16 -4 -35t-29 -38.5t-42.5 -38.5t-44.5 -35q45 -32 79 -63.5t48 -58.5q5 -23 -4.5 -37t-23.5 -14z" />
    <glyph glyph-name="greater" unicode="&#x3e;" horiz-adv-x="462" 
d="M86 365q9 -7 28.5 -20l43.5 -29t50 -34t49 -33.5t40 -27.5t23 -17q6 -20 -12.5 -36t-47.5 -27q-19 -12 -38.5 -28.5l-39 -33t-39.5 -32t-39 -25.5q-9 2 -16 7.5t-12 13.5q-3 4 -5 10.5t-3 11.5q2 22 19 43.5t40 45.5q13 14 29 24.5t30 18.5q-21 15 -42 31.5t-39 33.5
t-32 32.5t-20 27.5q-5 18 1 33t20 15q6 0 12 -5z" />
    <glyph glyph-name="guilsinglleft" unicode="&#x2039;" horiz-adv-x="492" 
d="M69 188q-1 5 -2 9.5t1 8.5q2 17 19.5 29t41.5 21h-2q35 24 67 48.5t61 50.5q3 2 8.5 6t12.5 7q11 -2 20 -11.5t13 -20.5q3 -11 -2 -23.5t-16 -26.5t-26.5 -28.5t-33.5 -29.5l-15 -13q-5 -4 -9.5 -7.5t-9.5 -7.5q38 -31 69.5 -60.5t42.5 -56.5q6 -15 4 -28
q-1 -11 -6.5 -16.5t-12.5 -5.5q-14 0 -32.5 13.5t-39.5 32t-43 37.5t-41 30q-23 7 -42 15t-27 27z" />
    <glyph glyph-name="guilsinglright" unicode="&#x203a;" horiz-adv-x="500" 
d="M98 321q-6 20 3 35t31 14l38 -27q20 -15 43 -30t45 -31t42 -34t35 -40q4 -16 -7.5 -31.5t-29.5 -30.5t-38.5 -28t-32.5 -24l-28 -26q-11 -9 -22 -18.5t-22 -14.5q-7 -3 -14.5 -0.5t-12.5 6.5q-10 8 -16.5 17.5t-6.5 14.5q0 14 9 29.5t24 31.5t35 32.5t41 33.5
q-36 31 -68 61.5t-48 59.5z" />
    <glyph glyph-name="guillemotleft" unicode="&#xab;" horiz-adv-x="709" 
d="M81 192q-8 23 9 37.5t46 25.5h-1q32 24 61.5 48.5t56.5 50.5q8 8 19 13q11 -2 20 -11.5t13 -20.5q8 -22 -10 -45.5t-49 -52.5q-10 -10 -21 -20t-19 -18q18 -14 35.5 -28t33 -27.5t27 -27t16.5 -25.5q6 -16 4 -26q0 -12 -6 -19t-14 -7q-12 0 -34 16t-43 33
q-23 19 -47.5 33.5t-45 26.5t-35 21.5t-16.5 17.5q-3 2 0 5zM501 42q-4 1 -8.5 4t-9.5 5l-54 38q-12 9 -33.5 23t-43 29.5t-38.5 30.5t-20 26q-7 18 0.5 26.5t24.5 20.5l14 9h-1q19 14 34.5 29.5t30.5 29.5q13 13 30 29.5t32 24.5q10 5 21 -2t19 -16q4 -6 6.5 -11.5
t0.5 -10.5q-1 -17 -9.5 -33t-22.5 -31.5t-31 -30.5t-35 -29q15 -12 33 -26.5t34.5 -30t30 -31.5t19.5 -30q4 -17 -3 -29.5t-21 -13.5z" />
    <glyph glyph-name="guillemotright" unicode="&#xbb;" horiz-adv-x="656" 
d="M481 214q7 -23 -10.5 -37.5t-44.5 -25.5h2q-32 -24 -62.5 -48.5t-57.5 -50.5q-6 -6 -18 -13q-11 2 -20 11.5t-13 20.5q-8 22 9.5 45.5t49.5 52.5q8 10 19 20t19 18q-17 13 -34 27.5t-32 28t-27 27t-17 25.5q-4 8 -4.5 14t-0.5 12q1 12 7 19t14 7q12 0 34 -16t42 -33
q23 -19 47.5 -33.5t45.5 -26.5t35 -21.5t17 -17.5v-5zM61 364q4 -2 8.5 -4.5t9.5 -4.5l54 -38q13 -9 34.5 -22.5t42.5 -29t38 -31t20 -26.5q6 -18 -2 -26.5t-24 -20.5l-13 -9q-19 -14 -34.5 -29.5t-31.5 -29.5q-12 -13 -28.5 -29.5t-31.5 -24.5q-10 -5 -21 2t-19 16
q-10 13 -7 22q1 16 9.5 32.5t22 32t30.5 30.5t35 29q-15 12 -32.5 26.5t-34 30t-30 31.5t-19.5 30q-5 17 2 29.5t22 13.5z" />
    <glyph glyph-name="dollar" unicode="$" horiz-adv-x="478" 
d="M189 227q-28 24 -52.5 50.5t-43 53.5t-29.5 53.5t-12 51.5q-2 16 4.5 34.5t19.5 33t32 23t43 5.5q0 10 -2.5 28t-2.5 36t3.5 32t15.5 14q13 -1 26 -9t22 -21q7 -9 12 -23q6 -29 3 -67q40 -9 71 -31t47 -49q4 -8 7 -16t5 -16q5 -17 2 -30t-10.5 -22.5t-17 -14.5t-17.5 -6
q-6 -1 -20 2.5t-28.5 10t-25.5 15.5t-12 18q0 7 3.5 11t8 7t9 7.5t6.5 13.5q-7 11 -20.5 16t-26.5 5q-20 1 -35 -7t-10 -25q5 -15 21.5 -34t48.5 -48q61 -57 100.5 -95t50.5 -75q12 -37 8.5 -69t-22 -56t-53 -39.5t-85.5 -19.5q1 -17 4.5 -37.5t5 -38.5t-1 -30.5
t-14.5 -12.5q-23 0 -39 15.5t-22 35.5q-10 30 -9 69q-44 6 -80 21.5t-63.5 37t-46 47.5t-27.5 54q-8 24 -5 48.5t15.5 44t33.5 32t49 14.5q10 0 24 -2t27.5 -7t24.5 -14t15 -23q5 -11 1 -16t-12 -9q-14 -4 -31 -8t-30.5 -10.5t-20.5 -16.5t-2 -26q5 -18 20.5 -35t36.5 -29.5
t47 -20.5t52 -9q39 -2 63 16.5t20 50.5q-2 11 -6 22.5t-12 25.5q-10 14 -24.5 29.5t-36.5 33.5z" />
    <glyph glyph-name="perthousand" unicode="&#x2030;" horiz-adv-x="1072" 
d="M82 475q-16 -18 -24.5 -42.5t-3.5 -46.5q1 -5 4.5 -14t9 -18t13 -16t18.5 -7q13 0 21.5 8.5t12.5 22t4 30.5t-4 34q-11 14 -21.5 27.5t-23.5 21.5h-6zM387 60q-7 14 -11 29t-4 31q-1 28 7 54.5t23 47t36 33t47 14.5h10.5t10.5 -2q8 -1 22 -10q5 2 12.5 3t12.5 -1
q35 -2 57.5 -25t33.5 -53q13 -35 12 -66.5t-9 -59.5v1q-7 -18 -20 -34t-30 -28t-36.5 -18.5t-40.5 -6.5q-20 0 -40.5 7t-38.5 19t-32.5 28.5t-21.5 36.5zM520 186q-9 -7 -18.5 -19t-16 -26t-8 -30t5.5 -31q9 -25 20 -28q7 -2 17 -1q12 2 21 13t14.5 27t5.5 34t-6 33
q-5 11 -15.5 18t-19.5 10zM704 60q-7 14 -11 29t-5 31q-1 28 7.5 54.5t23.5 47t36 33t46 14.5h11.5t10.5 -2q9 -1 21 -10q6 2 13 3t13 -1q34 -2 57 -25t34 -53q13 -35 12 -66.5t-9 -59.5v1q-7 -18 -20 -34t-30 -28t-37 -18.5t-41 -6.5q-20 0 -40.5 7t-38.5 19t-32 28.5
t-21 36.5zM837 186q-9 -7 -18.5 -19t-16 -26t-8 -30t5.5 -31q9 -25 19 -28q8 -2 18 -1q12 2 21 13t14.5 27t5.5 34t-6 33q-5 11 -16 18t-19 10zM-35 340q-6 12 -9.5 25t-5.5 27q-3 31 5 60.5t24 52.5t39.5 36.5t50.5 13.5q18 0 36 -10q4 1 12 1h4h9q24 -1 40.5 -12t28.5 -27
t20 -34.5t14 -34t11 -26t11 -10.5t14.5 4.5t16.5 11t13.5 14t5.5 12.5q8 19 15.5 46t16 52t19.5 42.5t26 17.5q32 0 60.5 -24t40.5 -60q2 -4 3.5 -9.5t-2.5 -7.5q-24 -30 -56 -92.5t-65 -142t-64.5 -167.5t-56.5 -169v1q-2 -17 -9.5 -23.5t-19.5 -6.5l-7 2t-17 6.5t-21.5 12
t-20.5 18.5q-12 14 -18 31q-2 1 -1.5 5t1.5 5h-1q15 33 32.5 74t36 86.5t37.5 94t37 96.5q-11 -2 -21.5 -1.5t-30.5 14.5q-7 -19 -19 -36t-28 -30t-35 -21t-40 -8q-20 0 -41 7t-39 19t-31.5 28.5t-20.5 35.5z" />
    <glyph glyph-name="equal" unicode="=" horiz-adv-x="492" 
d="M96 131q61 3 117 7t110 9q14 -3 24.5 -10.5t18.5 -18.5q3 0 3 -4q9 -26 0 -39.5t-30 -19t-49.5 -6t-57.5 -0.5q-17 0 -35 0.5t-38 1.5l-36 1q-20 2 -31.5 6t-19.5 26q-5 14 -0.5 28t24.5 19zM39 299q74 4 129 8t114 12q14 -4 22 -13t13 -23q8 -24 1 -37t-25.5 -19
t-46.5 -7t-62 -1h-48t-42 1h-20.5t-18 1.5t-15.5 7t-12 16.5q-15 18 -6 37q3 14 17 17z" />
    <glyph glyph-name="parenleft" unicode="(" horiz-adv-x="458" 
d="M307 -150q-29 4 -63 23.5t-65.5 50.5t-57.5 70t-41 81q-30 90 -27.5 179t38.5 163t105 126.5t171 68.5q20 1 34 -7t17 -17q1 -4 -2.5 -8.5t-9.5 -8t-13 -7t-11 -6.5q-61 -37 -101.5 -92.5t-61 -120.5t-19.5 -136t24 -139q14 -41 37.5 -81.5t47.5 -69.5q7 -10 14.5 -17.5
t14.5 -13.5q8 -7 9 -14t-3.5 -12.5t-13.5 -9t-19 -3.5q-2 0 -2.5 0.5t-1.5 0.5z" />
    <glyph glyph-name="parenright" unicode=")" horiz-adv-x="473" 
d="M65 610q29 -3 62.5 -22.5t65 -50t57.5 -69t40 -80.5q20 -59 26 -119.5t-2.5 -116.5t-31.5 -106.5t-61 -91t-91.5 -68t-122.5 -38.5q-20 0 -34 8.5t-17 17.5t4 11q71 34 118 91t70 127t22.5 147t-24.5 150q-8 24 -20.5 48t-27.5 46.5t-31 41.5t-32 32q-9 7 -10.5 14.5
t3 14t13.5 10.5t20 4q3 0 4 -1z" />
    <glyph glyph-name="bracketright" unicode="]" horiz-adv-x="447" 
d="M180 -148q-11 -7 -29 -8t-34 1q-26 3 -53.5 10t-50.5 15.5t-39.5 18t-19.5 18.5q-2 7 1 15.5t13 8.5h73l40 -2t42 -3q9 57 15.5 129.5t10 151.5t6 160t4.5 156q-28 2 -57 3.5t-53.5 6t-42.5 13.5t-24 26q-3 11 6 18t25.5 11t38 6t43.5 3q21 0 50.5 0.5t58 -2.5t51.5 -12
t29 -28q2 -18 3.5 -52t1 -79t-2 -98.5t-4 -109t-7 -111.5t-10.5 -106q-4 -34 -8 -61.5t-13 -47.5t-24 -33t-40 -18z" />
    <glyph glyph-name="bracketleft" unicode="[" horiz-adv-x="438" 
d="M215 -155q-45 0 -79.5 12t-57.5 31q-7 17 -10 63.5t-2 108.5t5.5 134.5t12 143t17 132.5t21.5 103q5 27 23.5 32.5t47.5 5.5h4q23 -1 51.5 -1h54.5t45.5 -0.5t24.5 -0.5q13 -5 22 -12t13 -19q5 -14 -9.5 -24t-38.5 -16.5t-52 -9.5t-49 -3l-9 -41q-11 -60 -18.5 -124.5
t-13.5 -127.5t-10.5 -123t-7.5 -112l-5 -66q5 -1 14.5 -1t19.5 -1l120 -7q12 -5 16 -11t6 -12q5 -14 -5 -24.5t-31 -17t-52 -9.5t-68 -3z" />
    <glyph glyph-name="braceleft" unicode="{" horiz-adv-x="470" 
d="M133 -30q-10 28 -9.5 54.5t2.5 51.5q-2 15 -1 32.5t3 35.5t3 33.5t-2 25.5t-13.5 13.5t-22.5 6t-24 7.5t-19 19q-14 27 -1 43t42 18q13 2 24 -2t25 1q11 10 13.5 23t1.5 28.5t-4 35t-3 42.5q1 28 10 58.5t30 56t56.5 43.5t89.5 21q25 0 44.5 -9t24.5 -26q2 -6 1 -13
t-5 -10q-25 -3 -39 -10q-35 -13 -43 -42.5t-9 -70.5q-1 -26 -4.5 -55.5t-12.5 -56t-26.5 -47.5t-46.5 -31q13 -11 22.5 -23t15.5 -28q6 -17 5.5 -37t-4.5 -42l-3 -26q-5 -29 -4 -57.5t8 -49.5q5 -15 22.5 -32.5t33.5 -35t23.5 -33t-7.5 -25.5q-4 -5 -10 -8.5t-17 -3.5
q-26 0 -53 13t-50.5 32t-41.5 40.5t-25 39.5z" />
    <glyph glyph-name="braceright" unicode="}" horiz-adv-x="512" 
d="M262 496q9 -27 10 -54t-1 -52q1 -14 -0.5 -32t-3.5 -36t-2.5 -33.5t1.5 -24.5q3 -10 13.5 -13.5t23 -6.5t24.5 -8t19 -18q14 -28 0.5 -43.5t-41.5 -17.5q-14 -2 -25.5 2t-24.5 -1q-11 -11 -14 -24t-2 -28.5t4 -34.5t4 -43l-1 1q0 -29 -9 -59t-30 -55.5t-56.5 -43.5
t-88.5 -21q-24 0 -43 9t-24 26q-2 5 -1 12t5 10q11 2 20 4.5t17 6.5q35 12 43 41.5t10 71.5q1 26 4 55.5t13 56t27.5 47.5t47.5 31q-13 11 -22 23t-14 28q-7 17 -6.5 36.5t4.5 42.5l4 26q5 28 2.5 60.5t-9.5 52.5q-3 21 -18 39.5t-30 33.5t-23 27t4 20q3 4 9 7.5t17 3.5
q26 0 52 -13t48.5 -31.5t39 -40.5t23.5 -40z" />
    <glyph glyph-name="asciitilde" unicode="~" horiz-adv-x="529" 
d="M106 420q13 -2 28 -5.5t31 -7.5q7 -2 12 -3l10 -2q12 -3 21 -5.5t17 -2.5q19 0 26.5 3t9.5 6.5t2.5 6.5t6.5 4q13 0 25 -7t21 -17t14.5 -22t6.5 -22q1 -2 1 -7v1q0 -23 -17 -36.5t-44 -15.5q-18 -2 -36 3.5t-40 13t-48.5 15t-60.5 10.5q-17 1 -28 -1t-22 -2
q-5 0 -7.5 -0.5t-6.5 -0.5q-12 0 -18.5 10.5t-8.5 23.5t2 25.5t15 21.5t30.5 13.5t49.5 0.5q5 0 8 -1z" />
    <glyph glyph-name="underscore" unicode="_" horiz-adv-x="421" 
d="M9 -11q-4 9 4.5 21t19.5 13q14 2 26.5 4.5t26.5 3.5q36 1 66.5 3t58 4t54 5.5t55.5 7.5q13 -4 23 -12.5t13 -19.5q7 -22 -7.5 -33.5t-43 -17t-65.5 -6.5t-74 -1q-13 0 -37 0.5t-49 3.5t-45.5 8.5t-25.5 15.5z" />
    <glyph glyph-name="eth" unicode="&#xf0;" horiz-adv-x="447" 
d="M107 566q-13 15 -25 29t-17 27q-5 17 1.5 28t18.5 17q13 8 31 9.5t34 1.5q22 -3 45.5 -24.5t46.5 -54.5q13 4 24 11t25 8q7 1 15 -3t15.5 -10t13.5 -14.5t9 -16.5q7 -22 -10 -37t-46 -26q5 -10 9 -20t8 -21q15 -46 27 -100t14.5 -108t-5.5 -104t-31.5 -88t-65 -61
t-105.5 -23q-48 0 -92.5 24t-66.5 71q-41 75 -39.5 136.5t28 105.5t70.5 68t89 24q14 0 26.5 -7.5t17.5 -20.5q5 -14 1 -19q-5 -5 -16 -8q-26 -8 -45 -31.5t-29 -56.5t-9.5 -72t13.5 -78q8 -25 30.5 -34t39.5 -5q25 6 40.5 38t21 80t-1 107t-26.5 119q-6 17 -12 31.5
t-14 28.5q-16 -3 -30.5 -5.5t-30.5 -4.5q-12 -1 -22.5 11t-15.5 23q-5 14 2 28.5t24 20.5z" />
    <glyph glyph-name="asterisk" unicode="*" horiz-adv-x="513" 
d="M167 307q-5 -8 -12.5 -18.5t-16 -20t-17 -16t-15.5 -6.5q-17 0 -36.5 10t-24.5 26q-2 6 3 16.5t14 22.5t20.5 24.5t21.5 23.5q-24 8 -42.5 12t-32 8t-22.5 10t-15 17l-4 12t-1 12q1 14 7.5 25t18.5 11q41 -4 108 -35q-3 11 -13.5 29.5t-15.5 38.5t2 34.5t31 19.5
q10 2 32 1.5t44.5 -5.5t41 -15.5t21.5 -28.5q2 -11 -2.5 -32.5t-18.5 -52.5q23 6 42 13t36 9q17 1 29 -6.5t17 -18.5q7 -7 7 -17q-2 -20 -34.5 -31t-80.5 -19q20 -20 42 -38.5t37 -38.5q6 -4 9 -11q0 -11 -6.5 -20t-14.5 -14q-12 -3 -28 3q-28 5 -54.5 28.5t-57.5 62.5z" />
    <glyph glyph-name="question" unicode="?" horiz-adv-x="510" 
d="M144 -8q-28 0 -55 13.5t-44 37.5q-3 5 -6 11t-5 13q-6 24 13.5 43t51.5 19t54 -14.5t29 -36.5q13 -38 3.5 -62t-41.5 -24zM187 514q4 -11 -1.5 -22t-17 -19t-27 -13.5t-31.5 -5.5q-21 1 -41.5 12t-38.5 28.5t-32 39t-22 45.5q-9 30 -2.5 58t27 49.5t54.5 34t80 12.5
q55 0 101 -13t81.5 -36.5t60 -55.5t36.5 -71q12 -38 5.5 -68.5t-30 -60t-63.5 -61t-94 -71.5q-14 -11 -24 -23t-17 -24q-8 -11 -13 -23.5t-10 -23.5t-12 -18.5t-19 -7.5q-9 0 -19.5 3.5t-21 10t-19 15.5t-12.5 20q-12 37 11 74t65 72q34 26 62 48.5t47.5 43t28 41t2.5 41.5
q-5 15 -14.5 30t-23 27.5t-29.5 20.5t-34 8q-22 0 -36 -10.5t-20.5 -24t-5 -27t11.5 -18.5q7 -4 15.5 -5t16.5 -4t14.5 -9t10.5 -19z" />
    <glyph glyph-name="at" unicode="@" horiz-adv-x="1933" 
d="M2122 313q9 13 23.5 8.5t29 -18t25.5 -31t14 -30.5q4 -15 2 -29t-6.5 -28.5t-9 -30t-4.5 -32.5q-5 -71 -5.5 -135.5t-5 -120t-18 -100t-46 -76t-88 -48t-144.5 -15.5q-58 0 -133.5 10t-159.5 25.5t-171.5 33.5t-171 35.5t-158.5 32t-132 22.5q-49 4 -92 4t-75 -12
t-51 -39.5t-20 -79.5q-2 -9 -1.5 -21.5t-1.5 -24t-8.5 -19t-21.5 -7.5q-19 -1 -43 20.5t-34 60.5q-14 60 5 110.5t64.5 87t113.5 57.5t151 22q32 0 81.5 -7.5t110.5 -21t130.5 -30.5t141.5 -35t143 -36t135 -32.5t118 -24t92 -11.5q74 -5 118.5 18.5t67 64.5t28.5 95.5
t5 112t-5.5 113.5t-2.5 101q2 20 3 38t7 23zM925 592q15 -20 18 -37t-1 -33.5t-12 -34.5t-13 -42q36 -1 59.5 1t44.5 2q0 44 4.5 84.5t14.5 73t26.5 54t40.5 27.5q20 3 41 -3t43.5 -20.5t33.5 -32.5q8 -12 6 -28t-8.5 -36.5t-16 -47t-16.5 -59.5q8 0 15 -0.5t15 -1.5
q24 -5 41.5 -21t25.5 -39q9 -20 -1 -30t-29 -14.5t-41.5 -4.5t-39.5 -1q-7 -64 -8 -121.5t1 -94.5q2 -21 14.5 -34.5t35.5 -13.5q17 0 39.5 15.5t40.5 47.5q8 14 14 29.5t15 15.5q16 0 24 -25q8 -27 -5 -58.5t-39 -58.5t-60 -44.5t-68 -17.5q-18 0 -35.5 5.5t-33.5 15.5
t-29.5 23.5t-21.5 28.5q-26 -28 -61.5 -47.5t-70.5 -19.5q-40 -2 -73 20.5t-47 75.5q-12 -19 -30 -37t-38.5 -32.5t-42.5 -23t-41 -8.5q-46 0 -67.5 17.5t-34.5 58.5q-7 21 -13.5 51.5t-10.5 63.5t-4 67t6.5 62t20.5 47.5t38 24.5q16 2 29.5 -0.5t22.5 -6.5q23 -10 29 -28.5
t9 -39.5q1 -14 0 -28t-2.5 -33.5t-3.5 -46t-2 -65.5q-1 -14 3.5 -28.5t24.5 -14.5q20 5 42.5 28.5t42.5 55.5q-7 43 -12.5 91.5t-9.5 98.5q-32 1 -66.5 13.5t-64.5 31.5t-52.5 42.5t-30.5 46.5q-23 53 -3.5 84.5t76.5 27.5q4 0 13 -1t17.5 -4t15.5 -8t8 -12q2 -2 1.5 -3.5
t0.5 -3.5q1 -7 -0.5 -21t-3.5 -28.5t-1.5 -27t6.5 -16.5q14 -11 32.5 -20t45.5 -9q-1 34 1 64.5t8 55t16 41t25 22.5q8 2 17 2t20 -2q21 -5 43.5 -17.5t36.5 -29.5zM1038 138q-4 41 -8.5 95t-5.5 115q-28 0 -57 0.5t-59 3.5q-3 -53 -1 -102.5t7 -91.5q2 -25 9 -40
q10 -31 39 -31q15 0 38.5 13t37.5 38zM576 91q11 9 23 7.5t20 -9.5t11.5 -18.5t-1.5 -19.5q-27 -29 -69.5 -50.5t-82.5 -27.5q-18 -3 -37 -3q-37 4 -68.5 26t-54.5 57q-27 40 -46.5 76t-39 65t-42.5 50t-57 32q-2 -50 -1 -98t5 -93q3 -25 4.5 -44t-2 -32t-14 -19t-29.5 -4
q-24 2 -42 11.5t-31 29.5q-15 24 -22 60q-14 64 -20.5 135t-6.5 140t4.5 131.5t12.5 109.5q8 59 27 86t61 24q7 0 21.5 -5.5t30.5 -15.5t30.5 -24t21.5 -31q2 -8 -1 -22.5t-8 -29.5q-14 -54 -24 -117t-14 -131q3 0 6 0.5t7 0.5q8 1 19 5q24 18 43 48t37 64t37 69.5t43 65.5
t55 50.5t73 25.5q14 2 37.5 -2.5t41.5 -12.5q25 -9 29 -21q7 -15 -23 -26q-28 -15 -49 -41t-39.5 -56.5t-37.5 -63t-43.5 -61t-57.5 -50t-79 -30.5q34 -9 58.5 -26.5t47.5 -40.5q22 -23 43 -53t42 -58t42 -47.5t43 -20.5q17 1 34.5 10.5t31.5 24.5zM1679 201q3 5 10 5
q17 0 25.5 -10t8.5 -24q0 -32 -18 -64t-50 -58.5t-75 -43t-93 -16.5q-36 0 -69 9.5t-60 27.5t-47.5 43t-31.5 57q-17 46 -18.5 96t13.5 90q8 21 23.5 40t38.5 33.5t54 23t71 8.5q57 0 91.5 -23.5t48.5 -62.5q12 -36 1.5 -67.5t-37 -55t-65.5 -37.5t-85 -14q9 -34 29.5 -55.5
t63.5 -24.5q59 2 101.5 37t69.5 86zM1400 218q24 -3 43.5 5.5t32.5 23.5t18 34.5t-1 37.5q-5 12 -12.5 20t-21.5 8t-26 -10t-20 -27.5t-12 -41t-1 -50.5zM2177 155q3 -23 -14 -51.5t-45 -54t-62.5 -42.5t-65.5 -17q-42 0 -73 17.5t-43 50.5q-8 26 -4.5 59.5t10 65.5
t11.5 59.5t1 41.5q-14 3 -30 -3q-29 -11 -44.5 -43t-21.5 -72t-5 -80.5t4 -67.5q2 -15 -8.5 -20.5t-40.5 -5.5q-8 0 -28 8t-37 36q-6 11 -12 25t-10 31v-1q-8 34 -11 73t-2 77t6 73t13.5 61.5t20 42.5t26.5 16q12 0 27.5 -2t29 -6.5t24 -11.5t13.5 -16q1 -4 -1 -13t-5 -20.5
t-6 -24.5t-3 -25q12 19 28 36.5t34 30.5t37 21t37 8q15 0 31 -4t31 -11.5t26.5 -18.5t16.5 -26q7 -24 1.5 -58t-14.5 -70t-15 -69.5t1 -55.5q5 -17 23 -17q19 0 43.5 19.5t42.5 51.5l18 32q1 1 3.5 4t6.5 3q13 0 22.5 -12.5t12.5 -23.5z" />
    <glyph glyph-name="sterling" unicode="&#xa3;" horiz-adv-x="679" 
d="M67 290q13 0 27 0.5t31 2.5q-5 68 5 131t38.5 111t79 77t128.5 29q35 0 65.5 -9.5t55.5 -25.5t43 -36t28 -41q6 -12 9 -24q7 -26 2 -47t-18.5 -36.5t-34 -24t-44.5 -8.5q-29 0 -52 11.5t-31 34.5q-3 6 -2 11t4 8q4 5 12 7t18 2l12 -3q8 5 11 15t-1 20q-6 19 -22.5 32
t-41.5 13q-50 0 -75.5 -23.5t-36 -58.5t-12 -76.5t-3.5 -77.5l52 8l17 3q14 -4 23 -13.5t13 -21.5q6 -17 -1 -28t-22 -17.5t-36 -10t-45 -4.5q-4 -51 -15.5 -84t-40.5 -54q20 1 51 -5t65 -13t65.5 -13.5t52.5 -7.5q16 -1 33 2q22 3 36.5 20t22.5 33q4 7 10.5 8t13.5 -3.5
t13 -12t9 -16.5q12 -33 2.5 -60.5t-32 -47t-55 -30.5t-67.5 -11q-40 1 -81 12t-84.5 24.5t-90.5 26t-99 15.5q-10 1 -22 2t-22.5 3.5t-18.5 5.5t-9 8q-4 12 1.5 24t17 22.5t27 19t32.5 15.5q7 10 14 19t13 21.5t11 32t8 49.5q-11 1 -22.5 2.5t-22 3.5t-18 6t-10.5 11
q-3 6 -4 13t0 14t6 11t14 4z" />
    <glyph glyph-name="florin" unicode="&#x192;" horiz-adv-x="469" 
d="M-22 347q22 5 34.5 5.5t20.5 1.5q0 64 4 123.5t21 107t51 78.5t94 40q14 2 28.5 3t31.5 0q23 -2 49 -10t48.5 -20.5t40 -29.5t24.5 -36q4 -12 -0.5 -31.5t-14.5 -38.5t-24 -33.5t-29 -15.5q-11 -1 -20 4.5t-17 19.5q-14 22 -30 44.5t-31 31.5q-2 1 -8.5 6.5t-23.5 5.5
q-25 0 -35.5 -20t-12.5 -51.5t-0.5 -72t0.5 -80.5l41 7q5 1 11 2t12 3q20 -2 39 -14t25 -30q4 -13 -4 -22.5t-24.5 -17t-40 -13t-49.5 -9.5q1 -53 3 -113t0 -119t-10.5 -113t-29 -95t-55 -66t-88.5 -26h-7q-23 1 -47 6.5t-45.5 16t-38 25.5t-23.5 36q-5 16 -2 33.5
t11.5 31.5t21 22.5t26.5 8.5q14 -2 24.5 -11t17.5 -20q2 -9 8.5 -21.5t17 -23t24 -15t29.5 4.5q15 9 23 33t10 58.5t0 76t-5.5 85.5t-7.5 87.5t-5 81.5l-54 -4q-16 5 -27.5 14t-15.5 20q-5 15 2.5 29t31.5 19z" />
    <glyph glyph-name="dagger" unicode="&#x2020;" horiz-adv-x="425" 
d="M49 530q13 0 25.5 -0.5t25.5 0.5q-1 51 -3 95.5t-4 81.5q3 5 7 9.5t9 6.5q2 1 9 3.5t16.5 3t20 -3t19.5 -13.5q6 0 11 -10v-6q-3 -32 -4.5 -71.5t-3.5 -93.5l73 6q20 -5 36.5 -20t18.5 -31q1 -21 -24.5 -31t-69.5 -12q-8 -1 -17 -1h-19q0 -45 -0.5 -96.5t0.5 -114.5
q-2 -90 1.5 -151t12.5 -109q-8 -26 -27 -29q-14 -5 -30.5 1t-33.5 17l-2.5 5t-2.5 7q-6 14 -4 45t3 60h-1q1 14 0.5 29t1.5 34l1 40q3 60 4.5 127.5t1.5 136.5l-52 4t-53 4q-17 7 -26 18t-10 21q-2 16 8 27t36 13z" />
    <glyph glyph-name="daggerdbl" unicode="&#x2021;" horiz-adv-x="425" 
d="M41 530q14 0 27 -0.5t26 0.5q-2 51 -4.5 95.5t-6.5 81.5q4 5 7.5 9.5t8.5 6.5q2 1 9 3.5t16.5 3t20.5 -3t20 -13.5q5 0 10 -10q0 -4 1 -6q-2 -32 -3.5 -71.5t-2.5 -92.5q19 1 37 2t36 3q19 -5 36 -19.5t19 -31.5q2 -21 -23.5 -31t-69.5 -12q-8 -1 -17 -1h-18v-42.5
t1 -46.5q44 1 86 6q20 -5 36.5 -19.5t18.5 -30.5q2 -21 -24 -30t-71 -12q-11 -1 -22 -1h-23q0 -9 0.5 -17.5t0.5 -17.5q-1 -90 4 -151t15 -109q-8 -26 -27 -29q-14 -5 -30.5 1t-33.5 17q-1 2 -3 5t-3 7q-6 14 -4 45t2 60h-1v63l1 40q1 21 1.5 43t0.5 45q-23 2 -47.5 4
t-49.5 4q-17 7 -26.5 18t-9.5 20q-2 15 8 26t37 13q20 -2 39.5 -1.5t39.5 -0.5h10v46.5t-1 46.5q-26 2 -52.5 4t-53.5 4q-17 7 -26.5 18t-9.5 21q-2 16 8 27t36 13z" />
    <glyph glyph-name="OE" unicode="&#x152;" horiz-adv-x="1169" 
d="M-8 193q-38 113 -23.5 210.5t70 169t147.5 110t211 34.5q106 -4 179 -50q14 30 67 41.5t129 11.5q52 0 101 -2t88.5 -6.5t67 -12t36.5 -19.5q6 -17 5 -36.5t-7 -37t-17 -30.5t-26 -17q-61 7 -114 9.5t-101 2.5h-26l-10 -44q-8 -30 -14.5 -62.5t-10.5 -66.5q57 3 99 4
t69 1q36 0 58.5 -6t29.5 -24q9 -27 4.5 -47t-14 -33t-20 -19.5t-12.5 -6.5q-31 0 -61 4t-62 4q-26 1 -48.5 1h-44.5l-2 -11q-1 -42 1 -82.5t6 -78.5q22 2 44 3t48 1q92 0 153 -7t76 -28q5 -15 5 -30.5t-5 -29.5t-14.5 -24.5t-22.5 -13.5q-45 5 -81.5 7.5t-71.5 2.5t-70 -3
t-68 -3h-24.5t-23.5 2q-13 2 -23.5 6t-17.5 13q-16 22 -25 56q-56 -51 -128 -80t-153 -29q-54 0 -108.5 17t-102.5 48.5t-85.5 77t-56.5 103.5zM560 212q18 54 26 114t-8 129q-6 27 -21 59.5t-40.5 59.5t-63 44.5t-88.5 15.5q-62 0 -111.5 -35t-80.5 -92t-41 -128t8 -141
q13 -52 35.5 -89.5t51.5 -61.5t62.5 -35.5t69.5 -11.5t68 14.5t58 38.5t45 55t30 64z" />
    <glyph glyph-name="oe" unicode="&#x153;" horiz-adv-x="649" 
d="M627 200q3 4 11 4q17 0 27 -10.5t14 -24.5q-8 -29 -28.5 -61t-52 -58.5t-72.5 -43.5t-91 -17q-36 0 -69 9.5t-60.5 27.5t-48 43t-32.5 57q-17 47 -18.5 96t14.5 90q8 21 23.5 40t38.5 33.5t54 23t71 8.5q57 0 88.5 -23.5t45.5 -62.5q11 -35 2.5 -66.5t-33 -55.5
t-62.5 -38t-86 -13q8 -34 29.5 -57t63.5 -26q30 0 55 10.5t46.5 27.5t38.5 39.5t31 47.5zM348 219q15 -1 32 2q19 5 32.5 15t21 23.5t9.5 28.5t-3 30q-3 12 -11 20t-22 8t-26 -10t-20 -27t-12 -40t-1 -50zM305 129q-9 -24 -23.5 -49t-36 -45t-50 -32.5t-63.5 -12.5
q-32 0 -61 10t-52.5 27t-40.5 40t-26 50q-17 48 -10.5 100t29.5 95.5t59.5 71.5t80.5 28q12 0 25.5 -3.5t24.5 -10.5q8 2 15 3.5t15 1.5q46 0 78 -30.5t44 -72.5q7 -26 8 -52t-5 -55q14 6 19 3t4.5 -11.5t-5 -19.5t-10.5 -20.5t-11.5 -14.5t-7.5 -1zM141 78q20 1 35.5 11.5
t24.5 27.5t10.5 40t-6.5 48q-11 9 -22.5 26.5t-20.5 37t-14.5 38t-6.5 29.5q-18 -10 -33 -28.5t-24.5 -42.5t-12.5 -52.5t4 -59.5q3 -12 8 -25t13 -24t19 -18.5t26 -7.5zM207 297q-2 5 -4.5 15.5t-6.5 19.5q-4 7 -7.5 12.5t-8.5 6.5q-1 1 0.5 -4.5t4.5 -14.5t8.5 -19
t13.5 -16z" />
    <glyph glyph-name="trademark" unicode="&#x2122;" horiz-adv-x="660" 
d="M-69 574q-26 0 -31 14q-6 18 -1 29.5t17 18t29.5 9t37.5 2.5q43 0 75 -5t37 -20q5 -19 -1.5 -33.5t-27.5 -15.5l-37 2q-5 -18 -6.5 -40t-1.5 -43.5t2.5 -42.5t6.5 -37q5 -21 1.5 -29t-21.5 -8q-22 0 -29 16q-4 6 -6 12.5t-4 14.5q-9 37 -10.5 81t1.5 75h-31zM141 425
q-1 73 -2 115.5t1 64t9 27.5t22 6q9 0 24.5 -11.5t19.5 -23.5q3 -5 -1 -9q13 -23 27.5 -44t27.5 -37l12 20q12 22 33.5 44t44.5 51q7 12 24 12q7 0 21.5 -8.5t21.5 -25.5q2 -6 1 -14t-3 -16q-6 -31 -7 -73t3 -77q4 -24 5 -39.5t-19 -15.5q-15 0 -26 8t-18 28q-8 23 -10 53
t-3 61l-29 -39q-4 -6 -6.5 -14t-5.5 -15t-8 -12t-15 -5q-6 0 -15 7.5t-19.5 20.5t-22 28.5t-22.5 32.5q-2 -28 0.5 -55.5t3.5 -49.5t-2.5 -35.5t-16.5 -13.5q-20 0 -31 13t-19 41z" />
    <glyph glyph-name="bullet" unicode="&#x2022;" horiz-adv-x="474" 
d="M291 214q10 -19 12 -37t-4.5 -33t-22 -25t-40.5 -12h-21.5t-21.5 2q-43 6 -73.5 27.5t-39.5 47.5q-8 22 -5 42.5t13.5 36.5t28 25.5t40.5 9.5q46 0 82 -25t52 -59z" />
    <glyph glyph-name="questiondown" unicode="&#xbf;" horiz-adv-x="506" 
d="M302.009 463q27.998 0 54.9971 -13.5q26.998 -13.499 43.9971 -37.4971q3 -5 5.99902 -11q3 -5.99902 5 -12.999q6 -23.998 -13.499 -42.9971t-51.4971 -18.999t-53.9961 14.499q-21.999 14.499 -28.999 36.498q-12.999 37.9971 -3.49902 61.9961
q9.49902 23.999 41.4971 23.999zM259.012 -58.9688q-4 10.999 1.5 21.999q5.49902 10.999 16.999 18.999q11.499 7.99902 26.998 13.499q15.499 5.49902 31.498 5.49902q20.999 -1 41.4971 -11.999q20.499 -10.999 38.498 -28.498t31.998 -38.998
q13.999 -21.498 21.998 -45.4971q9 -29.998 2.5 -57.9961q-6.49902 -27.998 -26.998 -49.4971t-54.4971 -33.998q-33.9971 -12.499 -79.9951 -12.499q-54.9961 0 -100.993 12.999t-81.4951 36.498q-35.498 23.498 -59.9961 55.4961q-24.499 31.998 -36.498 70.9961
q-11.999 37.9971 -5.5 68.4961q6.5 30.498 29.998 59.9961q23.499 29.498 63.4961 60.9961q39.998 31.498 93.9941 71.4951q14 11 23.999 22.999t16.999 23.999q7.99902 10.999 12.999 23.498t9.99902 23.499q5 10.999 12 18.498q6.99902 7.5 18.999 7.5
q8.99902 0 19.498 -3.5q10.5 -3.5 20.999 -9.99902q10.499 -6.5 18.999 -15.499q8.49902 -9 12.499 -19.999q11.999 -36.998 -10.999 -73.9951q-22.999 -36.998 -64.9961 -71.9961q-33.998 -25.998 -61.9961 -48.4971q-27.999 -22.498 -47.4971 -42.9971
q-19.499 -20.499 -27.999 -40.998q-8.49902 -20.498 -2.49902 -41.4971q4.99902 -14.999 14.499 -29.998q9.49902 -14.999 22.998 -27.498q13.499 -12.5 29.498 -20.499q15.999 -8 33.998 -8q21.999 0 35.998 10.5q13.999 10.499 20.499 23.998
q6.49902 13.499 4.99902 26.999q-1.49902 13.499 -11.499 18.498q-6.99902 4 -15.499 5q-8.49902 1 -16.499 4q-7.99902 3 -14.499 8.99902q-6.5 6 -10.499 18.999z" />
    <glyph glyph-name="exclamdown" unicode="&#xa1;" horiz-adv-x="362" 
d="M142.009 467.999q13.999 0 28.998 -4.49902q14.999 -4.5 28.498 -12.5q13.499 -7.99902 23.499 -19.498q9.99902 -11.5 12.999 -26.499q7.99902 -28.998 -11.499 -50.4971q-19.499 -21.498 -61.4971 -21.498q-26.998 0 -44.9971 12.499t-25.998 33.498
q-5 15.999 -4.5 31.998t7 28.498q6.49902 12.499 18.498 20.499q12 7.99902 28.999 7.99902zM199.005 -190.961q-16.999 -42.9971 -36.998 -63.4961q-19.998 -20.498 -58.9961 -17.498q-4 0.999023 -10.999 2.49902q-7 1.5 -13.999 4.5q-9 3 -19.499 8
q-10.499 4.99902 -20.499 11.499q-9.99902 6.49902 -16.999 14.999q-6.99902 8.49902 -9.99902 17.499q-2 7.99902 4 23.998q5.99902 15.999 13.999 29.998q17.999 37.998 31.998 82.4951t23.998 91.9951q10 47.4971 15.499 94.9941q5.5 47.4971 6.5 91.4941
q-1 18.999 -2.5 34.998t1.5 26.998t11.999 16.999q9 6 28.998 4q44.998 -3 62.9961 -32.998q8 -9 11 -19.999t4.99902 -23.998q6 -48.9971 6.5 -103.994t-3 -108.493q-3.5 -53.4971 -11.499 -101.994q-8 -48.4971 -18.999 -84.4951z" />
    <glyph glyph-name="cent" unicode="&#xa2;" horiz-adv-x="413" 
d="M133 302q0 2 -0.5 2.5t-0.5 2.5q1 7 3.5 14t9.5 15l30 37q-14 17 -32 17t-32 -10.5t-23.5 -29t-15 -43t-5.5 -51.5q0 -38 8.5 -71t25 -58t39 -39.5t51.5 -15.5q28 0 45 4t28.5 13.5t21 27.5t21.5 47q0 5 4 8t8 3q10 0 17 -6.5t11 -16t5.5 -19.5t1.5 -17
q0 -41 -31.5 -79.5t-102.5 -55.5q-6 -2 -13 -2t-13 -1t-10 -4t-4 -9q0 -26 3.5 -52.5t3.5 -46.5q0 -14 -3.5 -22t-11.5 -8q-11 0 -21.5 5.5t-19 15t-15 22t-7.5 25.5q0 25 0.5 40.5t1.5 38.5q-37 9 -68.5 32.5t-54.5 58t-36 78t-13 92.5q0 39 9.5 75.5t28.5 67t47 52.5
t65 30q0 25 -3 57.5t-3 60.5q0 26 6.5 37t15.5 11q10 0 22 -9t22 -23t16.5 -30t6.5 -29q0 -17 -2.5 -33t-3.5 -39q21 -3 42 -11.5t38.5 -25.5t28.5 -43.5t11 -63.5q0 -38 -14 -60.5t-36 -22.5q-11 0 -27 4t-31 11t-27.5 17.5t-17.5 24.5z" />
    <glyph glyph-name="copyright" unicode="&#xa9;" horiz-adv-x="755" 
d="M607 283q25 -76 13.5 -137t-51.5 -104t-104 -66.5t-143 -23.5q-65 0 -119.5 15.5t-96.5 43.5t-71.5 66.5t-43.5 83.5q-24 72 -17 136t41 113t93 77.5t139 28.5q143 0 233 -62t127 -171zM42 227q4 -23 12 -46q16 -48 44 -80.5t64 -52t78 -28t87 -8.5q61 0 110.5 20
t80 55.5t39 85.5t-11.5 110q-29 84 -102.5 134.5t-186.5 50.5q-56 0 -99 -19t-71.5 -51.5t-40 -76.5t-3.5 -94zM479 172q-12 -34 -48.5 -63t-99.5 -35q-11 -2 -21.5 -2t-21.5 1q-66 6 -106 36.5t-52 66.5q-14 42 -11 83t22.5 73.5t55.5 53t89 22.5q43 -2 77.5 -21t45.5 -47
q4 -12 2 -25.5t-10 -24.5t-23 -18.5t-38 -8.5q-19 0 -29.5 7.5t-13.5 15.5q-4 11 0.5 17.5t11 10.5t12 7t4.5 6q-7 12 -19 13q-19 0 -30 -5q-35 -11 -42.5 -48t6.5 -79q8 -27 30 -44t54 -19q40 0 64 20t40 42q5 7 15.5 7.5t20 -4.5t14.5 -15t1 -23z" />
    <glyph glyph-name="registered" unicode="&#xae;" horiz-adv-x="817" 
d="M171 406q1 8 2 14t3 12q-14 10 -18 24q-11 34 1.5 43.5t44.5 10.5q6 0 12 -0.5t12 -0.5h35q63 0 96.5 -18.5t44.5 -49.5q6 -17 4.5 -36t-9 -36t-21.5 -31t-33 -21q13 -11 24 -23.5t25 -28.5l-1 1l11 -13q8 -13 13 -13q2 0 5 5.5t8 11.5t12.5 11.5t18.5 5.5q9 0 13 -4
t6 -9q3 -10 -0.5 -25t-14 -29t-27.5 -24t-40 -10q-26 0 -41 10t-28 32v-1q-20 26 -32 48t-35 36q0 -27 3 -50t3.5 -40.5t-3.5 -27t-19 -9.5q-26 0 -37 11.5t-19 35.5q-8 22 -12.5 48t-6.5 51.5t-2 48.5t2 40zM287 350q17 8 23 26.5t4 36.5v-1q-4 10 -13.5 18.5t-30.5 9.5
q3 -9 2 -21t-4 -25l-4 -18q-2 -7 -3 -13.5t-2 -14.5h10q8 0 19 3zM606 384q26 -76 14 -137.5t-53 -104.5t-105.5 -66.5t-143.5 -23.5q-66 0 -120 15.5t-95 43.5t-69.5 66.5t-43.5 84.5q-24 73 -16.5 137.5t41.5 113t92.5 76.5t136.5 28q144 0 234.5 -62t127.5 -171zM42 326
q9 -62 36.5 -103.5t66.5 -66t86 -35t95 -10.5q61 0 110 20t80 55.5t39.5 85.5t-11.5 110q-28 84 -102.5 134.5t-187.5 50.5q-55 0 -98.5 -19t-71.5 -51.5t-39.5 -76.5t-2.5 -94z" />
    <glyph glyph-name="ordfeminine" unicode="&#xaa;" horiz-adv-x="476" 
d="M155 602q2 1 4.5 2t5.5 2q9 1 23 -0.5t28.5 -7t26 -13.5t16.5 -18q-3 -20 -3 -67.5t-7 -135.5q9 -3 26 7q13 5 24 14t19 18q8 1 13.5 -3.5t8.5 -10.5q6 -11 4 -27q0 -15 -7 -30t-21 -27.5t-34 -20t-45 -7.5q-26 0 -42.5 8t-26.5 34q-15 -23 -35.5 -34.5t-39.5 -12.5
q-38 0 -66.5 20t-42.5 65q-13 37 -5 78t29 75.5t51.5 56.5t62.5 22q15 0 30 -6zM154 503q0 6 -2.5 15.5t-7.5 12.5q-16 -4 -28.5 -21t-20.5 -39t-10 -45.5t3 -41.5q5 -14 15 -18q6 -1 14 1t14 5q7 2 11.5 9t7.5 15z" />
    <glyph glyph-name="logicalnot" unicode="&#xac;" horiz-adv-x="631" 
d="M344 205h-307q-8 1 -11 5.5t-5 8.5q-2 6 -4 14t-2.5 16t1 13.5t6.5 5.5h139h95.5h60.5h34t16 -0.5t6 -1.5q13 -1 20 -2.5t11.5 -5t6.5 -11t4 -19.5l15 -90q4 -20 -7.5 -26t-35.5 -3q-10 0 -20 1t-12 9z" />
    <glyph glyph-name="plusminus" unicode="&#xb1;" horiz-adv-x="553" 
d="M217 164q-5 -5 -13.5 -7t-18.5 -2q-35 0 -50 43q-1 4 -2.5 13t-2.5 20.5t-1.5 22t1.5 17.5h-30t-32.5 0.5t-32 1t-26.5 0.5q-17 10 -22 26q-6 19 8 27.5t37 11.5t49.5 3t45.5 1q0 12 -1 27t-2 30.5t-2 29.5t-2 23q5 7 14 9.5t20 2.5q20 0 33.5 -6.5t21.5 -29.5
q5 -12 6.5 -34t1.5 -47q26 0 59 2.5t53 5.5q14 -5 22 -13.5t12 -18.5q4 -11 -7 -20t-31.5 -15.5t-48 -11t-57.5 -5.5zM191 78q48 2 90 3.5t87 9.5q24 -6 32 -29q7 -20 -4.5 -31.5t-34 -17t-53 -7t-62.5 -1.5q-14 0 -30 1t-32 1q-10 0 -20 -0.5t-18 -0.5q-12 0 -24.5 0.5
t-24 3t-20.5 8t-12 16.5q-4 11 5 24.5t26 15.5z" />
    <glyph glyph-name="divide" unicode="&#xf7;" horiz-adv-x="533" 
d="M276 73q8 -26 -7 -43.5t-49 -17.5q-16 0 -31.5 5t-28.5 13t-22 19t-12 23q-3 9 -2 19.5t7.5 20t19 15.5t33.5 6q32 0 57.5 -18t34.5 -42zM194 325q-30 2 -57.5 18t-37.5 43q-2 6 -1 16.5t6.5 20t17 17t32.5 7.5q34 0 61 -18t37 -47q6 -18 -7.5 -37.5t-50.5 -19.5z
M261 200h-56.5t-66.5 0.5t-66.5 1t-56.5 0.5q-9 4 -14 10.5t-7 11.5q-4 12 3 24.5t19 15.5h33q104 3 178.5 8.5t133.5 14.5q26 -8 32 -30q7 -20 -2 -31.5t-28 -17t-46 -7t-56 -1.5z" />
    <glyph glyph-name="multiply" unicode="&#xd7;" horiz-adv-x="494" 
d="M118 103q-17 -1 -32 9t-20 25q-3 9 3 19.5t16.5 22t24 22.5t25.5 21l13 10q-9 10 -20.5 23.5t-23.5 27t-23.5 26t-19.5 21.5q-4 15 8 26.5t29 11.5q24 0 50 -26.5t53 -60.5l16 16q17 16 37 33t32 30q20 -1 38.5 -14.5t23.5 -30.5q0 -18 -22 -41t-47 -46l-20 -18l43 -55
q9 -11 17 -21.5t15 -18.5q2 -13 -8 -22t-24 -10q-11 1 -24 9t-26.5 20t-25.5 26t-22 27q-13 -9 -28 -20t-26 -19z" />
    <glyph glyph-name="threequarters" unicode="&#xbe;" horiz-adv-x="945" 
d="M479 580q7 6 21 6q3 0 14.5 -2t24.5 -7.5t23 -15t12 -24.5q-18 -33 -38 -70t-43 -82.5t-49.5 -100.5t-58.5 -122q-28 -54 -51 -108t-35 -112q-2 -10 -18.5 -9.5t-34.5 6.5t-33 15t-14 17q-5 3 0 18t14 34.5t20 39.5t19 34l23 47q5 12 11.5 24.5t13.5 25.5
q25 49 50.5 100.5t49.5 102t44.5 97.5t34.5 86zM1998.43 -28.3516q3.67383 -6.48047 5.96973 -13.3662t2.2959 -15.7959q0 -4.86133 -2.75488 -14.582t-10.1025 -19.4414q-7.34668 -9.7207 -20.2041 -17.0107t-33.0625 -7.29004q-15.6133 0 -27.5518 5.26465
q-11.9395 5.26562 -20.6641 13.3662t-13.3164 18.6309q-4.59277 10.5312 -4.59277 21.0625q0 26.7314 20.6641 42.5273q20.6641 15.7969 45.4609 15.7969q21.123 0 35.8174 -8.91113t22.041 -20.251zM1361.07 -28.3516q3.67383 -6.48047 5.96973 -13.3662t2.2959 -15.7959
q0 -25.9219 -19.7461 -42.123q-19.7451 -16.2012 -46.3789 -16.2012q-15.6123 0 -28.0107 5.26465q-12.3984 5.26562 -20.6641 13.7715q-8.26562 8.50488 -12.8574 18.6309t-4.5918 20.6572q0 14.5801 5.96973 25.5166q5.96875 10.9355 15.6123 18.2256
q9.64355 7.29102 21.582 10.9365q11.9395 3.64551 22.96 3.64551q21.123 0 35.8174 -8.91113t22.042 -20.251zM2140.79 -0.810547q1.83691 0 2.2959 0.405273q0.459961 0.405273 2.2959 0.405273h23.8789v-115.028h-23.8789v84.2461q-0.917969 -1.62012 -0.917969 -2.83496
t-0.917969 -2.83594q-9.18457 -20.251 -17.4502 -39.6924t-18.3672 -38.8828h-22.042l-33.9805 72.9053q-1.83691 3.24023 -1.83691 5.66992l-1.83691 4.86133v-83.4365h-23.8779v115.028h22.96q8.26562 0 13.7754 -5.66992l2.75488 -3.24023
q3.67383 -8.91113 7.34766 -17.417q3.67383 -8.50488 8.26562 -17.416l15.6123 -34.833q1.83691 -1.61914 1.83691 -7.29004v-0.80957q0 1.61914 0.918945 4.0498q0.917969 2.43066 0.917969 4.0498l4.5918 8.10156l26.6338 61.5645q3.67383 5.66992 11.0205 8.09961z
M1478.62 0h23.8779v-115.028h-22.041l-62.4512 76.9561q-0.918945 0.80957 -0.918945 1.21484q0 0.404297 -0.917969 1.21484l-1.83691 3.24023q-1.83691 1.62012 -1.83691 2.42969l-1.83691 2.43066v-87.4863h-23.8779v115.028h21.123q10.1025 0 19.7461 -12.9609
q9.64258 -12.9609 19.7451 -25.9219l27.5518 -33.2129q3.67383 -6.48047 3.67383 -8.91016v81.0059zM1083.71 0l56.9404 -115.028h-14.6943q-9.18457 0 -15.6133 8.91113l-7.34668 15.3906h-59.6963l-7.34668 -15.3906q-1.83691 -3.24023 -5.96973 -6.07617
q-4.13281 -2.83496 -9.64258 -2.83496h-14.6953l56.9414 115.028h21.123zM1860.68 162.012q-4.5918 -8.91016 -13.7764 -19.4414q-9.18359 -10.5312 -32.1436 -10.5312q-18.3682 0 -32.6035 10.9365q-14.2344 10.9355 -14.2344 29.5674q0 13.7705 11.4795 27.9463
q11.4805 14.1768 35.3584 14.1768q18.3682 0 32.6025 -11.3418q14.2354 -11.3398 14.2354 -30.7812q0 -6.48047 -0.917969 -10.5312zM724.62 0h96.4316v-9.7207q0 -4.05078 -0.918945 -5.66992l-2.75488 -4.86133l-64.2881 -76.1445q0.918945 0 1.83691 0.80957
q0.918945 0.80957 3.67383 0.80957h61.5322v-20.251h-99.1865v6.48047q0 6.48047 2.75488 10.5303l2.75586 4.86133q2.75488 2.42969 3.67285 4.0498l56.9404 68.8545h-62.4502v20.252zM1183.82 162.012q-4.5918 -10.5312 -14.2344 -20.252
q-9.64355 -9.7207 -30.7666 -9.7207q-18.3682 0 -33.0625 11.3418q-14.6943 11.3398 -14.6943 29.1621q0 17.0107 14.2354 29.5664q14.2354 12.5566 33.5215 12.5566q20.2051 0 33.5215 -12.5566q13.3164 -12.5557 13.3164 -29.5664q0 -2.43066 -0.458984 -4.86133
q-0.458984 -2.42969 -1.37793 -5.66992zM836.664 0h83.5742v-20.252h-59.6963v-26.7314h48.6758v-20.251h-48.6758v-27.543h59.6963v-20.251h-83.5742v115.028zM1784.45 -30.7822q-5.51074 -5.6709 -9.18457 -12.5557q-3.67383 -6.88574 -3.67383 -14.1758
q0 -15.3916 12.8584 -26.3271q12.8574 -10.9365 30.3066 -10.9365q11.9395 0 17.9082 4.45605q5.96973 4.45508 15.1543 4.45508q7.34668 0 12.8574 -4.86035l4.5918 -4.05078q-10.1025 -11.3398 -23.4189 -16.2012q-13.3174 -4.85938 -27.0928 -4.85938
q-30.3066 0 -48.2158 18.2256q-17.9092 18.2266 -17.9092 40.0986q0 21.8711 17.9092 40.0977t48.2158 18.2266q12.8574 0 26.6338 -5.26562q13.7754 -5.26562 23.8779 -15.7969l-4.5918 -4.85938q-4.5918 -4.05078 -12.8574 -4.05078q-7.34766 0 -15.1543 4.45508
q-7.80566 4.45508 -17.9082 4.45508q-8.26562 0 -16.0723 -3.24023q-7.80566 -3.24023 -14.2344 -7.29004zM1695.36 -59.1348q8.26562 -6.48047 8.26562 -20.251q0 -17.8213 -15.1533 -27.1367t-30.7666 -9.31543q-18.3682 0 -28.4697 8.50488
q-10.1025 8.50586 -14.6943 16.6064q1.83594 0.810547 3.21387 1.62012t3.21484 1.62012l3.67285 0.810547q1.83691 0 2.2959 0.404297q0.459961 0.405273 2.29688 0.405273q9.18359 0 14.2344 -4.45508q5.05176 -4.45605 14.2354 -4.45605q4.5918 0 7.34766 0.810547
l7.34668 2.42969q8.26562 5.6709 8.26562 12.1514q0 5.6709 -8.26562 9.7207q-7.34668 4.0498 -16.0723 6.48047q-8.72461 2.43066 -16.5303 6.0752q-7.80664 3.64551 -13.3174 9.7207q-5.50977 6.07617 -5.50977 16.6064q0 17.0107 13.7754 24.3018
q13.7764 7.29102 26.6338 7.29102q9.18359 0 19.2861 -4.86133q10.1025 -4.85938 17.4492 -13.7705l-4.5918 -3.24023q-7.34668 -4.0498 -13.7754 -4.0498h-2.75586q-3.67285 0.80957 -7.34668 2.83496q-3.67383 2.02441 -8.26562 2.02441q-16.5312 0 -16.5312 -10.5303
q0 -4.86035 3.67383 -6.88574q3.67285 -2.02539 8.26562 -3.64453l15.6123 -4.86133q15.6133 -4.0498 22.96 -12.9609zM1627.4 38.8828q-5.51074 5.66992 -9.18457 12.5557q-3.67285 6.88574 -3.67285 14.1768q0 17.0107 13.7754 27.541q13.7764 10.5312 29.3887 10.5312
q18.3682 0 30.7666 -11.7461t12.3984 -26.3262q0 -18.6318 -13.7764 -27.9473q-13.7754 -9.31641 -29.3887 -9.31641q-18.3682 0 -30.3066 10.5312zM2050.78 38.8828q-11.9385 -10.5312 -30.3066 -10.5312q-17.4492 0 -30.3066 10.5312q-12.8584 10.5312 -12.8584 26.7324
q0 11.3398 11.0215 24.7061q11.0205 13.3662 32.1436 13.3662q15.6123 0 29.3887 -10.126q13.7754 -10.126 13.7754 -27.9463q0 -15.3916 -12.8574 -26.7324zM1980.07 -72.0957q1.83691 4.05078 2.75488 7.29102t0.917969 7.29102q0 17.0107 -13.7754 27.1367
q-13.7764 10.125 -29.3887 10.125q-15.6133 0 -28.9297 -10.5303t-13.3164 -26.7314t12.8574 -26.7324t29.3887 -10.5312q14.6943 0 23.8779 6.07617q9.18457 6.0752 15.6133 16.6055zM1342.7 -72.0957q1.83691 4.05078 2.75488 7.29102q0.918945 3.24023 0.918945 7.29102
q0 16.2012 -12.8574 26.7314t-30.3076 10.5303q-15.6123 0 -28.9297 -10.125q-13.3164 -10.126 -13.3164 -27.1367q0 -16.2012 12.8574 -26.7324t29.3887 -10.5312q27.5518 0 39.4912 22.6816zM1146.16 0h82.6562v-20.252h-59.6963v-29.1621h50.5117v-20.251h-50.5117
v-45.3633h-22.96v115.028zM1513.52 0h100.105v-20.252h-38.5723v-94.7764h-23.8789v94.7764h-37.6543v20.252zM1024.94 -20.252h-37.6543v-94.7764h-23.8789v94.7764h-38.5723v20.252h100.105v-20.252zM1008.4 132.85q-9.18457 0 -11.0205 4.86035l-23.8789 28.3525
h-13.7754v-33.2129h-12.8584v81.0059h33.0625q11.0215 0 18.8271 -6.88574q7.80664 -6.88574 7.80664 -17.416q0 -16.2012 -18.3682 -21.8721l28.4707 -34.832h-8.26562zM1839.55 194.414q-10.1025 8.91016 -24.7969 8.91016q-12.8574 0 -23.4189 -8.50488
q-10.5615 -8.50586 -10.5615 -22.2764q0 -8.91113 8.26562 -19.4414q8.26562 -10.5312 25.7148 -10.5312q13.7754 0 24.3379 8.91016q10.5615 8.91113 10.5615 21.0625q0 14.5801 -10.1025 21.8711zM1162.69 194.414q-8.26562 8.91016 -23.8779 8.91016
q-12.8574 0 -23.8779 -8.50488q-11.0215 -8.50586 -11.0215 -22.2764q0 -8.91113 8.26562 -19.4414q8.26562 -10.5312 26.6338 -10.5312q12.8574 0 23.4189 8.50586t10.5615 21.4668t-10.1025 21.8711zM1374.84 132.85q-6.42871 0 -9.18359 4.86035l-6.42871 12.9609
h-46.8379l-6.42871 -12.9609q-2.75586 -4.86035 -9.18457 -4.86035h-7.34668l40.4092 81.0059h11.9395l40.4092 -81.0059h-7.34766zM858.705 178.213q-2.75488 -6.48047 -9.64258 -10.9355t-16.9902 -4.45508h-20.2051v-29.9727h-11.9395v81.0059h32.1445
q12.8574 0 21.123 -8.10059t8.26562 -17.8213q0 -4.86035 -2.75586 -9.7207zM2020.48 36.4531q15.6123 0 24.3379 8.91016q8.72461 8.91016 8.72461 20.252q0 14.5801 -10.5615 21.8711t-22.501 7.29102q-12.8574 0 -22.96 -8.10156q-10.1025 -8.09961 -10.1025 -21.0605
q0 -8.91113 8.26562 -19.0371q8.26562 -10.125 24.7969 -10.125zM1627.4 76.9551q-2.75586 -4.85938 -2.75586 -11.3398q0 -12.1514 9.64355 -20.6572q9.64355 -8.50488 23.4189 -8.50488q16.5312 0 24.7969 9.31543t8.26562 19.8467q0 11.3398 -8.72461 20.251
t-24.3379 8.91113q-9.18359 0 -17.4492 -4.05078t-12.8574 -13.7715zM1280.25 132.85h-10.1025l-52.3477 63.1846q-0.918945 0.80957 -1.83691 3.24023v-66.4248h-12.8574v81.0059h9.18359q6.42871 0 9.18359 -3.24023l44.083 -54.2734q1.83691 -3.24023 1.83691 -5.6709
v63.1846h12.8574v-81.0059zM1957.11 132.85h-11.0215l-52.3477 63.1846q-0.918945 0 -0.918945 3.24023l-0.917969 1.62012v-68.0449h-12.8574v81.0059h9.18359q5.51074 0 9.18359 -3.24023l44.083 -54.2734q1.83691 -1.62109 1.83691 -2.83594t0.918945 -2.83496v63.1846
h12.8574v-81.0059zM1487.81 63.1846q-1.83691 -0.80957 -7.34668 -2.43066l27.5518 -31.5918h-5.51074q-7.34668 0 -10.1025 4.05078l-22.96 27.541h-14.6943v-31.5918h-9.18359v73.7148h29.3887q11.0205 0 17.4492 -6.88477q6.42871 -6.88574 6.42871 -14.1758
q0 -6.48047 -3.21387 -10.9365q-3.21484 -4.45508 -7.80664 -7.69531zM1955.27 68.0449q-4.5918 -5.66992 -12.8574 -7.29102l26.6328 -31.5918h-5.50977q-7.34766 0 -9.18457 4.05078l-22.959 27.541h-15.6133v-31.5918h-9.18359v73.7148h29.3887
q11.0205 0 17.9082 -6.48047q6.88867 -6.48047 6.88867 -14.5801q0 -8.91113 -5.51074 -13.7715zM2157.32 101.258q3.67383 1.61914 4.5918 1.61914h7.34766v-73.7148h-9.18457v60.7539l-0.917969 -1.61914v-0.810547v-0.810547l-8.26562 -16.2012
q-3.67383 -8.09961 -7.80664 -14.9854t-5.96875 -13.3662l-7.34766 -12.9609h-9.18359q-4.59277 6.48047 -7.80664 13.7715q-3.21484 7.29004 -6.8877 14.5801l-14.6943 29.1621v0.810547q0 0.810547 -0.459961 0.810547q-0.458984 0 -0.458984 0.80957v-59.9443h-9.18359
v73.7148h7.34668q1.83691 0 4.5918 -1.61914q2.75586 -1.62109 2.75586 -3.24023l28.4697 -56.7051v-1.61914q0 -0.810547 0.918945 -0.810547q0 0.810547 0.458984 1.62012t0.458984 1.62012l28.4707 55.8945q0.917969 1.61914 2.75488 3.24023zM927.585 202.515h-44.083
v-23.4912h35.8174v-11.3418h-35.8174v-24.3008h44.083v-10.5312h-56.9404v81.0059h56.9404v-11.3408zM1715.57 202.515l-44.083 0.80957v-24.3008h35.8174v-11.3418h-35.8174v-24.3008h44.083v-10.5312h-56.9404v81.0059h56.9404v-11.3408zM1569.54 164.441
q0 -9.7207 -4.13281 -15.7959t-10.1025 -10.126q-5.96875 -4.0498 -12.3984 -5.66992q-6.42871 -1.62012 -10.1016 -1.62012q-18.3682 0 -27.5527 10.9355q-9.18359 10.9365 -9.18359 22.2764v49.4141h11.9395v-49.4141q0 -8.91016 7.34668 -15.3906
q7.34766 -6.48047 17.4502 -6.48047q9.18359 0 16.5312 6.0752q7.34668 6.0752 7.34668 15.7959v49.4141h12.8574v-49.4141zM1725.67 29.1621h-9.18457v73.7148h6.42871q4.5918 0 7.34766 -3.24023l43.1641 -53.4629q1.83691 -1.62109 1.83691 -4.05078v60.7539h9.18457
v-73.7148h-8.26562l-49.5938 60.7539q-0.917969 0 -0.458984 1.21582q0.458984 1.21484 -0.458984 2.02441v-63.9941zM1079.12 146.621q-10.1025 -14.582 -29.3887 -14.582q-7.34766 0 -17.4502 3.64551t-10.1025 10.126q-0.917969 0 -0.917969 1.62012l2.75488 0.80957
q1.83691 1.62109 5.51074 1.62109t6.42871 -2.43066l1.83691 -0.80957q2.75488 -4.05078 11.9395 -4.05078q4.5918 0 11.4795 3.24023t6.8877 10.5312q0 7.29004 -5.50977 9.31543q-5.51074 2.02441 -12.8574 4.45508l-9.18457 4.0498q-15.6123 5.6709 -15.6123 19.4414
q0 12.9609 10.1016 17.0117q10.1025 4.05078 17.4502 4.05078q3.67383 0 7.80664 -1.21582q4.13184 -1.21484 5.96875 -2.83496l6.42871 -4.05078q1.83691 -1.61914 2.75586 -2.02441q0.917969 -0.405273 1.83691 -2.02539l-3.67383 -1.62012
q-2.75488 -2.42969 -6.42871 -2.42969q-4.5918 0 -7.34766 2.42969q-2.75488 2.42969 -7.34668 2.42969q-3.67383 0 -5.51074 -0.80957l-5.50977 -1.62012q-3.67383 -2.42969 -3.67383 -7.29102q0 -4.0498 1.37695 -6.0752q1.37793 -2.02441 6.88867 -3.64551
l8.26562 -2.42969q1.83691 -0.810547 4.13281 -1.62012t5.05078 -1.62012l3.67383 -1.62012q7.34668 -2.43066 10.5615 -8.10059q3.21387 -5.66992 3.21387 -12.1504q0 -3.24023 -1.83594 -9.7207zM1640.26 146.621q-9.18457 -14.582 -28.4707 -14.582
q-10.1025 0 -15.6123 3.24023q-5.51074 3.24023 -11.0205 8.10156l-2.75586 4.0498l3.67383 0.80957q1.83691 1.62109 4.5918 1.62109q4.5918 0 7.34766 -2.43066l0.917969 -0.80957q4.5918 -4.05078 12.8574 -4.05078q7.34766 0 12.8574 4.05078
q5.51074 4.0498 5.51074 9.7207q0 4.85938 -5.51074 9.7207l-12.8574 4.0498l-9.18359 4.0498q-16.5312 5.6709 -16.5312 19.4414q0 11.3418 9.64355 16.2012q9.64258 4.86133 18.8271 4.86133q7.34668 0 13.7754 -4.05078l6.42871 -4.05078l4.5918 -4.0498
l-3.67285 -1.62012q-2.75586 -2.42969 -6.42871 -2.42969q-4.59277 0 -8.26562 2.42969q-3.67383 2.42969 -6.42871 2.42969q-4.59277 0 -6.42871 -0.80957l-4.59277 -1.62012q-4.5918 -2.42969 -4.5918 -7.29102q0 -5.66992 9.18457 -9.7207l7.34668 -2.42969
q3.67383 -1.62012 4.5918 -1.62012l9.18457 -3.24023q7.34668 -2.43066 10.5615 -8.10059q3.21387 -5.66992 3.21387 -12.1504q0 -4.86133 -2.75488 -9.7207zM727.375 46.9834q-3.67383 3.24023 -5.05078 8.50586q-1.37793 5.26465 -1.37793 10.126
q0 16.2012 12.8574 27.1367t30.3066 10.9355q8.26562 0 16.5312 -2.83496t13.7764 -8.50586l-1.83691 -1.62012q-1.83691 -1.62012 -3.67383 -1.62012h-1.83691q-5.50977 0 -10.5615 2.83496q-5.05078 2.83594 -12.3984 2.83594q-13.7754 0 -23.8779 -8.50586
t-10.1025 -20.6562q0 -13.7715 11.0205 -21.4668q11.0215 -7.69531 22.96 -7.69531q11.0215 0 21.124 4.85938v15.3916h-6.42969q-3.67285 0 -5.96875 2.43066q-2.29688 2.42969 -2.29688 4.85938v0.810547h23.8789v-28.3516q-6.42871 -6.48047 -22.042 -8.10156h-8.26562
q-13.7754 0 -22.96 5.26562q-9.18359 5.26562 -13.7754 13.3662zM2071.91 174.162q-3.67285 -3.24023 -2.75488 -3.24023l-0.917969 -1.61914v-2.43066v-34.0225h-12.8574v36.4531q-0.918945 0.80957 -0.918945 1.61914l-2.75488 3.24023l-33.0625 39.6934h9.18359
q7.34766 0 11.0215 -5.66992l22.041 -25.9219l0.918945 -0.810547v-1.62012v0.80957q0 1.62109 0.917969 1.62109l22.042 25.9219q2.75488 5.66992 11.0205 5.66992h9.18359zM1384.03 93.9668v-23.4922h33.9805v-8.09961h-33.9805v-25.1123h41.3271v-8.10059h-50.5117
v73.7148h50.5117v-8.91016h-41.3271zM824.725 93.9668v-23.4922h33.0625v-8.09961h-33.0625v-25.1123h41.3281v-8.10059h-51.4297v73.7148l51.4297 -0.80957v-8.10059h-41.3281zM1067.18 102.877v-45.3633q0 -8.91016 6.8877 -14.9854t16.9902 -6.0752
q9.18457 0 16.9902 5.66992q7.80664 5.66992 7.80664 15.3906v45.3633h9.18359v-45.3633q0 -15.3906 -11.4795 -22.2764q-11.4805 -6.88574 -22.501 -6.88574q-13.7754 0 -23.4189 8.10156q-9.64355 8.09961 -9.64355 21.0605v45.3633h9.18457zM1322.5 29.1621
l-36.7354 73.7148h5.51074q1.83594 0 4.13281 -1.21484q2.2959 -1.21484 3.21387 -3.64453l27.5518 -55.084q0 -1.62109 0.458984 -2.43066q0.459961 -0.80957 0.459961 -1.62012v1.62012q0 0.80957 0.458984 1.21484t0.458984 1.21582l27.5518 55.084
q1.83691 4.85938 7.34766 4.85938h4.5918l-35.8174 -73.7148h-9.18457zM1443.72 132.85h-52.3486v81.0059h11.9395v-70.4746h40.4092v-10.5312zM1552.09 39.6934q5.50977 3.24023 5.50977 9.7207q0 8.91016 -11.0205 12.9609l-6.42871 1.61914
q-6.42871 1.62109 -14.2354 5.26562q-7.80566 3.64551 -7.80566 14.9863q0 7.29102 6.8877 13.3662t16.9902 6.0752q1.83691 0 3.67383 -0.405273t3.67383 -0.405273l5.50977 -2.42969q1.83691 -1.62012 2.75488 -2.02539q0.918945 -0.404297 1.83691 -1.21484
l4.5918 -3.24023l-2.75488 -1.62012q-0.917969 -1.62012 -4.5918 -1.62012q-2.75488 0 -4.5918 0.810547l-4.5918 2.42969q-1.83691 0 -2.75586 0.405273q-0.917969 0.405273 -2.75488 0.405273q-14.6943 0 -14.6943 -10.5312q0 -6.48047 8.26562 -9.7207l8.26562 -2.42969
q1.83691 -1.62109 5.51074 -2.43066q3.67285 -0.80957 6.42871 -2.43066l3.67285 -1.61914q8.26562 -7.29102 8.26562 -16.2012q0 -11.3418 -9.18359 -16.2012q-9.18359 -4.86133 -19.2861 -4.86133q-9.18457 0 -16.9902 4.45605q-7.80664 4.45508 -7.80664 8.50488
l1.83691 0.810547q0.917969 0.810547 3.67383 0.810547q4.5918 0 9.18359 -3.24023t10.1025 -3.24023q8.26562 0 12.8574 3.24023zM1001.06 93.9668v-25.1113h34.8994v-8.10156h-34.8994v-31.5918h-10.1016v73.7148h51.4297v-8.91016h-41.3281zM1855.17 93.9668v-25.1113
h34.8994v-8.10156h-34.8994v-31.5918h-9.18359v73.7148h50.5117v-8.91016h-41.3281zM902.789 29.1621v64.8047h-26.6338v8.91016h62.4512v-8.91016h-26.6338v-64.8047h-9.18359zM1151.67 102.877v-65.6143h37.6543v-8.10059h-46.8379v73.7148h9.18359zM1208.61 102.877
v-65.6143h37.6543v-8.10059h-46.8379v73.7148h9.18359zM844.012 198.465q-6.42969 4.0498 -11.9395 4.0498h-20.2051v-29.1621h20.2051q7.34668 0 11.9395 4.45508q4.5918 4.45605 4.5918 10.126q0 6.48047 -4.5918 10.5312zM1942.41 69.665q4.5918 1.62012 6.42871 4.86035
t1.83691 7.29102q0 4.85938 -3.67383 8.50488t-11.0205 3.64551h-20.2051v-25.1113h20.2051q4.5918 0 6.42871 0.80957zM1474.95 68.8555q4.5918 0 9.64355 3.24023q5.05078 3.24023 5.05078 9.7207q0 4.85938 -4.5918 8.50488t-10.1025 3.64551h-20.2051v-25.1113h20.2051z
M992.791 184.693q0.918945 1.62012 0.918945 4.86035q0 4.86035 -3.67383 8.91113q-3.67383 4.0498 -10.1025 4.0498h-20.2041v-25.1123h20.2041q3.67383 0 5.51074 0.810547l4.5918 2.42969zM1091.98 -69.665l-16.5312 34.833q-1.83691 2.42969 -1.83691 4.0498
t-0.918945 3.24023q0 -0.80957 -1.83594 -7.29004l-16.5312 -34.833h37.6543zM1595.26 102.877v-73.7148h-9.18359v73.7148h9.18359zM1335.35 197.654l-17.4502 -35.6426h35.8174l-17.4492 34.0225q0 0.80957 -0.458984 1.62012t-0.458984 2.42969v-2.42969z
M1735.77 -94.7773q3.67383 -3.24023 3.67383 -8.91016q0 -12.1504 -14.6943 -12.1504q-4.5918 0 -9.18359 2.83496q-4.59277 2.83496 -4.59277 9.31543q0 4.86035 3.67383 8.91016q3.67383 4.05078 10.1025 4.05078t11.0205 -4.05078zM766.866 386.398
q6.42871 25.9219 18.8271 56.2988t27.5518 61.1592t32.6025 59.5391q17.4502 28.7568 33.9814 51.4385q11.9385 16.2012 16.5303 27.543q4.59277 11.3398 4.59277 20.251q-0.918945 13.7705 -14.2354 19.0361t-28.9297 10.9355q-15.6123 5.6709 -28.9297 15.7969
q-13.3164 10.125 -14.2344 33.6172q0 10.5312 4.13184 21.4668q4.13281 10.9355 16.9912 22.2764q0.917969 24.3018 14.6943 40.9082q13.7754 16.6064 31.2246 17.416q5.51074 0 5.51074 -1.62012q0 -3.24023 -4.5918 -10.5312q-4.5918 -7.29004 -4.5918 -17.0107
q5.50977 2.43066 14.2344 5.26562q8.72559 2.83496 17.9092 5.26465q9.18359 2.43066 16.0723 4.05078l6.8877 1.62012q14.6943 11.3408 31.6846 18.2266t22.501 6.88574q3.67383 3.24023 5.50977 -10.5312q0 -10.5312 -1.83594 -17.0117q37.6533 -8.91016 53.7256 -25.5166
t16.9902 -32.8076q1.83691 -17.0107 -11.0205 -31.9971q-12.8574 -14.9854 -30.3066 -23.8965q4.5918 -8.10059 17.9082 -31.5928q13.3164 -23.4912 26.1738 -56.7031q10.1025 5.66992 23.4199 10.5303q13.3164 4.86035 28.0107 5.6709q22.96 0 37.6543 -12.5566
q14.6943 -12.5557 15.6123 -21.4668q0 -9.7207 -11.9385 -18.6309q-11.9395 -8.91016 -24.7969 -8.91016q-6.42871 0 -11.0205 2.83496q-4.59277 2.83496 -9.18457 6.48047t-9.18359 6.48047t-11.0205 2.83496q-2.75586 -0.810547 -6.42871 -2.02539
q-3.67383 -1.21484 -8.26562 -4.45508q2.75488 -11.3408 5.50977 -21.8711q2.75586 -10.5312 4.5918 -21.8721q18.3682 -1.62012 28.4707 -13.7705q10.1025 -12.1514 11.0205 -17.8223q0.918945 -10.5303 -11.0205 -19.4414q-11.9395 -8.91016 -24.7969 -9.7207
q-1.83691 -14.5801 -5.50977 -28.7568q-3.67383 -14.1758 -6.88867 -27.542q-3.21387 -13.3652 -5.50977 -25.9219q-2.2959 -12.5557 -1.37793 -23.8965q0 -15.3906 4.13281 -27.9473q4.13281 -12.5557 11.4795 -23.8965q22.96 -13.7715 53.2676 -23.0869
q30.3066 -9.31543 64.2871 -14.1758q33.9814 -4.86035 69.7988 -6.0752t69.7979 0.404297q53.2666 1.62109 112.044 20.6572t121.688 46.1729t128.576 58.7295q65.665 31.5928 131.33 58.7295t131.331 46.5781q65.665 19.4414 128.116 21.8711
q54.1846 2.43066 94.1357 -20.251q39.9502 -22.6816 55.5625 -79.3857q0.917969 -4.05078 1.37793 -7.29102q0.458984 -3.24023 0.458984 -6.48047q0.917969 -12.1504 -2.2959 -18.6309q-3.21484 -6.48047 -6.88867 -9.31543q-3.67285 -2.83496 -7.34668 -3.64551
t-4.5918 -0.810547q-12.8574 -0.80957 -17.9092 7.69629q-5.05078 8.50488 -12.8574 19.0361t-22.96 18.6309q-15.1533 8.10156 -46.3789 7.29102q-38.5723 -1.62012 -93.6768 -17.416q-55.1035 -15.7969 -119.851 -39.2881q-64.7461 -23.4912 -136.382 -50.2236
q-71.6348 -26.7324 -142.811 -50.2236t-137.759 -40.0977q-66.584 -16.6064 -121.688 -18.2266q-34.8994 -1.62012 -73.0127 0.405273t-74.8496 7.29004q-36.7354 5.26562 -69.7979 13.7715q-33.0625 8.50488 -58.7773 19.8467q-8.26562 3.24023 -23.8779 1.61914
q10.1025 0.810547 10.1025 0q0 -0.80957 -10.5615 -2.83496q-10.5625 -2.02441 -28.0117 -4.0498t-40.8682 -4.05078t-49.1348 -2.83496q-33.9805 -1.62012 -69.7979 -0.80957q-35.8174 0.80957 -64.7471 5.66992t-47.7568 14.9863q-18.8262 10.125 -19.7451 26.3262
q-1.83691 18.6318 2.75488 39.6934q4.59277 21.0615 9.18457 39.6934zM1018.51 752.545q1.83691 -3.24023 7.34668 -3.24023q6.42871 0 6.42871 5.66992t-5.50977 4.86035q-8.26562 0 -8.26562 -7.29004zM979.016 717.712q0.917969 -2.43066 3.67383 -5.26562
q2.75488 -2.83496 5.50977 -2.83496q11.0205 2.42969 11.0205 11.3408q0 4.0498 -6.42871 4.0498q-6.42871 -0.80957 -10.1016 -2.02441q-3.67383 -1.21582 -3.67383 -5.26562zM891.768 729.053q0 -4.05078 3.21484 -4.86035q3.21387 -0.80957 6.8877 -0.80957
q7.34766 0 7.34766 5.66992q0 6.48047 -10.1025 6.48047q-7.34766 0 -7.34766 -6.48047zM2031.5 132.85h-52.3486v81.0059h12.8574v-70.4746h39.4912v-10.5312zM99 661q70 0 119 -24t70 -61q7 -15 12 -30q7 -38 -16.5 -72t-80.5 -53q39 -18 61.5 -42t30.5 -48
q13 -40 1.5 -69t-38.5 -47.5t-65 -27.5t-77 -9q-77 0 -127 30.5t-71 79.5q-9 35 9.5 61t63.5 26q10 0 21 -4.5t21 -10.5t16.5 -13t8.5 -12q0 -9 -7 -13.5t-14.5 -9t-13 -11.5t-1.5 -19q8 -23 29.5 -33t51.5 -8q20 1 37 8.5t28 18.5t15.5 24.5t0.5 27.5q-7 21 -32.5 40.5
t-82.5 33.5q-6 1 -13 3.5t-9 8.5q-7 18 2.5 33.5t32.5 10.5q8 2 17 5t16 7q17 8 30.5 20t22.5 25t12 26.5t0 25.5q-6 16 -22 26t-39 10q-39 0 -52 -18.5t-8 -44.5q-1 -8 1.5 -12.5t4.5 -14.5q4 -10 -9 -14.5t-29 -4.5q-28 0 -46.5 13.5t-27.5 33t-7.5 40t13.5 34.5
q7 12 21 22t33 17t41 11t45 4z" />
    <glyph glyph-name="germandbls" unicode="&#xdf;" horiz-adv-x="463" 
d="M-5 2q-7 77 -18 158t-17.5 158.5t-5 146t17.5 120.5t50.5 82t94.5 30q67 0 122 -25.5t83 -63.5q19 -27 23.5 -50.5t0 -44.5t-15 -41t-22.5 -39q-7 -12 -15.5 -25.5t-17.5 -26.5t-16.5 -24.5t-11.5 -18.5q25 -21 51.5 -44.5t50.5 -48.5t42.5 -50t26.5 -49q16 -46 5 -80
t-38.5 -53.5t-65 -24.5t-75.5 6.5t-70 40t-48 75.5q-6 17 -5 33t7 28t16 19.5t22 7.5q36 0 52 -12.5t21 -28.5q3 -9 2.5 -15.5t-1.5 -12.5t-1.5 -12t2.5 -15q6 -18 19 -24t27 -6q13 0 20.5 4.5t11 11t4 15t-0.5 17.5q-3 14 -10.5 26t-17.5 23q-19 26 -47.5 46.5t-54.5 40
t-44.5 41.5t-17.5 51q-2 25 12 50.5t30.5 50.5t28.5 48.5t5 44.5q-5 14 -16 22t-31 8q-31 0 -48 -36t-20 -96q-2 -41 0 -89.5t4.5 -100t5 -103.5t2 -100.5t-5.5 -91.5t-17 -75q-9 -25 -26 -40t-44 -15q-30 0 -55.5 15t-35.5 46q-5 13 -3.5 29.5t10.5 27.5q9 10 17 9t22 -9
q16 -8 23 -3t8.5 16t0 24t-1.5 22z" />
    <glyph glyph-name="mu" unicode="&#xb5;" horiz-adv-x="480" 
d="M450 163q2 3 5.5 7.5t5.5 7.5q7 7 12 6q8 -2 16.5 -8.5t13.5 -17.5q0 -25 -16.5 -54t-42.5 -54t-57.5 -41.5t-62.5 -16.5q-59 0 -82 38q-4 7 -8 16t-7 20q-14 -47 -39 -66t-53 -19q-18 0 -37.5 4t-44.5 22l10 -41q8 -17 13.5 -35.5t10.5 -35.5q11 -35 9 -60.5t-26 -25.5
q-32 0 -59 30q-11 14 -20.5 31.5t-14.5 37.5q-10 45 -15 93.5t-6 95.5t1 91t6 80q0 24 3.5 46.5t11.5 41.5t20.5 32t31.5 17q27 5 43.5 2.5t27.5 -9.5q16 -7 19 -23q6 -25 5 -46t-5 -42.5t-9.5 -46.5t-8.5 -59q-2 -16 -2 -34t1 -39q7 -17 27 -17q17 0 29.5 12.5t21 32t14 44
t8.5 49.5t5 47.5t4 37.5q5 46 22 67.5t33 26.5q10 1 23 1t26 -3t23.5 -8.5t14.5 -14.5q7 -8 10 -22.5t4 -27.5q0 -27 -3.5 -55t-7.5 -50q-7 -37 -15.5 -72t-3.5 -54q2 -7 9.5 -11t16.5 -4q20 0 41.5 16t47.5 60z" />
    <glyph glyph-name="section" unicode="&#xa7;" horiz-adv-x="488" 
d="M96 118q19 -12 28 -24t11.5 -23t0.5 -21t-5 -17q-5 -15 9 -37q9 -15 23.5 -28t32.5 -13q14 0 24.5 6t16.5 16t7.5 21t-1.5 22q-4 13 -21 33t-40 43.5t-50 49t-51 51.5t-42.5 51t-25.5 46q-8 24 -8.5 46t7.5 40.5t25 32.5t45 23q-14 15 -23.5 36t-13.5 41q-3 24 2.5 49.5
t21.5 47t43 35t66 13.5q26 0 50.5 -8t45 -22.5t35.5 -35t23 -44.5q14 -40 0.5 -63.5t-45.5 -23.5q-20 0 -32 13.5t-15 24.5q-2 7 0 11.5t5 8.5t6 7.5t2 8.5q-1 3 -3.5 8t-7.5 10t-12.5 8.5t-19.5 3.5q-34 0 -47 -18.5t-7 -41.5q8 -27 36 -59t60.5 -66.5t62 -69.5t40.5 -68
q11 -41 -3.5 -67t-42.5 -41q16 -20 34.5 -53t21.5 -72q2 -22 -3.5 -45t-20.5 -41.5t-41.5 -31.5t-67.5 -16q-24 -1 -51 3q-58 9 -104 45.5t-65 85.5q-10 33 -8 61t13.5 44.5t32 19t46.5 -15.5zM237 213q2 6 0 16t-12 27q-2 3 -9.5 13t-18.5 23t-24 26t-24 22t-19 11.5
t-9 -6.5q-4 -8 -4.5 -17t4.5 -18q10 -17 36.5 -47.5t69.5 -55.5q5 0 7.5 0.5t2.5 5.5z" />
    <glyph glyph-name="brokenbar" unicode="&#xa6;" horiz-adv-x="421" 
d="M196 92l-5 -50q-3 -28 -1.5 -57t1 -53t-6.5 -39t-23 -14q-16 0 -32 12t-30 32v45t1 46q1 9 1.5 22t2 37t4 63.5t6.5 101.5q5 6 13 7.5t13 1.5q14 0 33 -14.5t32 -45.5zM116 524q0 16 -1 35t-1 38t1 35t4 25q10 5 26 5.5t31 -6.5t25.5 -22t9.5 -40v1l-3 -22
q-6 -51 -6.5 -109.5t-2.5 -129.5q-1 -7 -1 -13t-2 -11t-6.5 -8t-14.5 -3q-26 1 -40 12t-21 31q-5 12 -2 31t4 25v126z" />
    <glyph glyph-name="twosuperior" unicode="&#xb2;" horiz-adv-x="460" 
d="M258 141q-28 0 -63.5 6t-93.5 6l-22 1h-10h-10t-16 1t-20.5 3.5t-22.5 7t-20 11.5t-12 18q-5 16 12 24t40 18q52 21 95 53.5t72 67t42.5 67t6.5 53.5q-7 23 -22.5 36t-44.5 13q-20 0 -38.5 -6.5t-31.5 -18t-19 -26.5t0 -33q7 -18 17 -32t16 -22q4 -9 -2 -15t-17 -9
t-24 -3t-23 3q-20 5 -40 23.5t-28 41.5q-9 27 -3 55.5t27 52t56.5 38.5t85.5 15q88 0 139.5 -31.5t69.5 -84.5q10 -30 0 -59.5t-37 -59t-69 -58t-96 -55.5q21 -1 35 -2.5t24.5 -3t18 -2.5t14.5 -1q32 0 65 16q11 6 25.5 0t17.5 -14q7 -21 1 -38.5t-20 -30t-34 -19.5t-41 -7z
" />
    <glyph glyph-name="threesuperior" unicode="&#xb3;" horiz-adv-x="453" 
d="M142 561q70 0 119 -24t70 -61q7 -15 12 -30q7 -38 -16.5 -72t-80.5 -53q39 -18 61.5 -42t30.5 -48q13 -40 1.5 -69t-38.5 -47.5t-65 -27.5t-77 -9q-77 0 -127 30.5t-71 79.5q-9 35 9.5 61t63.5 26q10 0 21 -4.5t21 -10.5t16.5 -13t8.5 -12q0 -9 -7 -13.5t-14.5 -9
t-13 -11.5t-1.5 -19q8 -23 29.5 -33t51.5 -8q20 1 37 8.5t28 18.5t15.5 24.5t0.5 27.5q-7 21 -32.5 40.5t-82.5 33.5q-6 1 -13 3.5t-9 8.5q-7 18 2.5 33.5t32.5 10.5q8 2 17 5t16 7q17 8 30.5 20t22.5 25t12 26.5t0 25.5q-6 16 -22 26t-39 10q-39 0 -52 -18.5t-8 -44.5
q-1 -8 1.5 -12.5t4.5 -14.5q4 -10 -9 -14.5t-29 -4.5q-28 0 -46.5 13.5t-27.5 33t-7.5 40t13.5 34.5q7 12 21 22t33 17t41 11t45 4z" />
    <glyph glyph-name="onesuperior" unicode="&#xb9;" horiz-adv-x="307" 
d="M97 162q-42 1 -66 4.5t-31 29.5q10 46 13 96.5t15 106.5v-1q1 8 1.5 13.5t2.5 11.5q-12 -3 -19.5 -4t-12.5 -1q-21 0 -35 28q-3 4 0 9q29 30 49.5 58t32.5 57q4 6 20 7t34.5 -2t35.5 -10t23 -17v-5q-2 -26 -9 -66t-14.5 -88.5t-12.5 -102t-3 -105.5l-1 1q2 -20 -23 -20z
" />
    <glyph glyph-name="ordmasculine" unicode="&#xba;" horiz-adv-x="509" 
d="M286 369q-14 -1 -25.5 3.5t-25.5 10.5q-8 -22 -22.5 -40t-32.5 -31t-38.5 -20t-39.5 -7q-23 0 -45 7.5t-41 21t-34 32t-23 40.5q-12 38 -7.5 78t21.5 73t45 54t63 21q9 0 19 -2.5t19 -6.5q6 1 9 1h8q37 0 61.5 -23.5t38.5 -56.5q4 -10 4 -21t-0.5 -21.5t0.5 -20.5t8 -18
q1 -5 6.5 -6.5t12 -0.5t11.5 3.5t6 6.5q5 20 16 22.5t22 -6t18.5 -23.5t6 -30.5t-15 -27t-45.5 -12.5zM105 365q15 0 25.5 10.5t16.5 25.5t7 32t-4 30q-1 2 -7.5 9.5t-14 18.5t-14 23.5t-8.5 24.5q-14 -8 -25 -22t-18 -31.5t-9 -36.5t4 -36q5 -16 16 -32t31 -16z" />
    <glyph glyph-name="periodcentered" unicode="&#xb7;" horiz-adv-x="384" 
d="M221 227q4 -15 3.5 -31.5t-7.5 -29.5t-19.5 -21.5t-30.5 -8.5q-38 0 -65.5 22t-36.5 50q-4 32 12.5 48.5t61.5 16.5q63 -5 82 -46z" />
    <glyph glyph-name="paragraph" unicode="&#xb6;" horiz-adv-x="560" 
d="M-84 329q-18 54 -14 95t24 70.5t52 47.5t71 26.5t80.5 8.5t79.5 -7q2 18 8.5 28.5t14.5 16t16.5 7.5t15.5 2q6 0 17 -2t23.5 -8t24 -15.5t17.5 -24.5q31 1 49 4.5t41 7.5q15 -4 26 -12t16 -22q7 -21 2 -33t-21 -18.5t-40.5 -8.5t-55.5 -1q-5 -48 -5.5 -96t-0.5 -99
q0 -48 -1 -99.5t-7 -100t-18.5 -91.5t-35.5 -75.5t-58 -51.5t-86 -19q-26 0 -56 8.5t-57 23.5t-48 35t-29 43q-4 10 0.5 24t14.5 27.5t24 23t30 11.5q19 -29 40.5 -47t42.5 -24q32 -12 55.5 -3t38 30.5t20 52t2.5 61.5q-11 0 -22 1t-22 3q-33 3 -72 14t-76.5 33.5
t-69.5 59.5t-51 93zM105 320q13 -38 42 -72t77 -57q-2 78 -5 155t-5 155q-11 2 -21.5 3.5t-19.5 2.5q-35 0 -54 -17.5t-25.5 -45t-3 -60.5t14.5 -64z" />
    <glyph glyph-name="Eth" unicode="&#xd0;" horiz-adv-x="672" 
d="M210 76q5 -1 10 -1.5t10 -0.5q74 0 127 24t82 68.5t32 108t-24 143.5q-12 34 -30.5 65.5t-43.5 55.5t-57 40t-71 19q-18 1 -34 1.5t-33 -1.5q-28 -2 -55.5 -4t-60.5 -3q-22 3 -36.5 16.5t-21 30.5t-5.5 34t10 27q13 17 45 24.5t90 7.5q78 0 148 -17t127.5 -51.5
t100.5 -85.5t66 -118q33 -96 26.5 -182t-47.5 -151t-112.5 -103.5t-168.5 -38.5q-26 0 -65 3t-76.5 11t-66.5 22t-36 35q-7 17 4 24t38 7q9 0 26 -1.5t36.5 -3t37.5 -3.5t28 -2zM119 621q9 11 29 14.5t43 -4.5q10 -5 21.5 -13.5t18.5 -22.5q5 -12 3.5 -32t-7.5 -40
q-15 -57 -20.5 -121.5t-5.5 -131t3.5 -132t6.5 -124.5q0 -23 -4.5 -34.5t-18.5 -11.5q-31 0 -52 7.5t-36 31.5q-11 15 -18.5 36t-10.5 43q-22 87 -31 174.5t-4 161t25 127t58 72.5zM-25.8594 318.241q-2.85645 8.54883 0.952148 15.6729q3.80957 7.125 10.9512 12.8242
q7.14258 5.69922 15.2363 9.49902q8.09473 3.79883 15.7129 3.79883q38.0908 0.950195 68.0869 2.84961q29.9971 1.90039 56.1846 4.27539q26.1875 2.37402 50.4697 6.17383q24.2832 3.7998 50.9473 8.54883q15.2363 -4.74902 25.2344 -14.248
q9.99902 -9.49902 13.8086 -21.8477q7.61816 -21.8477 -4.76172 -33.7207q-12.3799 -11.874 -36.6621 -17.0986q-24.2832 -5.22461 -56.6602 -6.17383q-32.377 -0.950195 -64.7549 -0.950195q-10.4746 0 -33.3291 0.950195q-22.8545 0.949219 -46.1855 3.7998
q-23.3301 2.84961 -42.376 9.02344q-19.0449 6.1748 -22.8545 16.623z" />
    <glyph glyph-name="ae" unicode="&#xe6;" horiz-adv-x="631" 
d="M629 200q15 0 24.5 -9t14.5 -22q-11 -29 -31.5 -60.5t-50.5 -57.5t-70.5 -43.5t-90.5 -17.5q-51 0 -95.5 20t-77.5 58q-19 -33 -51.5 -58t-86.5 -25q-49 0 -86 25.5t-56 84.5q-23 65 -14.5 120t37.5 95.5t73 64.5t94 28q30 3 51 -6l11 47q10 4 22 4q13 0 22 -2.5t17 -6.5
q11 -4 19 -12.5t14 -19.5q19 5 39.5 8t40.5 3q45 0 74 -16t44 -43q5 -9 9 -19t7 -20q16 -62 -27.5 -104.5t-149.5 -57.5q8 -33 27.5 -56t63.5 -24q29 0 54.5 10t47 27t38.5 39.5t30 47.5q2 2 6.5 1t6.5 -3zM146 98q17 0 36.5 10.5t30.5 26.5q-6 19 -9 39q-7 36 -4 76.5
t11 85.5q-4 3 -10.5 4t-12.5 0q-23 -5 -42 -28t-31 -54.5t-16 -65.5t4 -61q7 -18 17.5 -25.5t25.5 -7.5zM338 220q16 0 25 3q40 8 59 36.5t9 59.5q-3 11 -10.5 18.5t-21.5 7.5q-15 0 -27.5 -9t-21 -25.5t-12 -39.5t-0.5 -51z" />
    <glyph glyph-name="egrave" unicode="&#xe8;" horiz-adv-x="392" 
d="M367 201q3 5 10 5q17 0 25.5 -10t8.5 -24q0 -32 -18 -64t-50 -58.5t-75 -43t-93 -16.5q-36 0 -69 9.5t-60 27.5t-47.5 43t-31.5 57q-17 46 -18.5 96t13.5 90q8 21 23.5 40t38.5 33.5t54 23t71 8.5q57 0 91.5 -23.5t48.5 -62.5q12 -36 1.5 -67.5t-37 -55t-65.5 -37.5
t-85 -14q9 -34 29.5 -55.5t63.5 -24.5q59 2 101.5 37t69.5 86zM88 218q24 -3 43.5 5.5t32.5 23.5t18 34.5t-1 37.5q-5 12 -12.5 20t-21.5 8t-26 -10t-20 -27.5t-12 -41t-1 -50.5zM202 484q4 -11 -13 -11q-16 0 -41 5.5t-53.5 15t-57.5 23t-54 30t-43.5 35.5t-25.5 40
q-3 9 3 16t17 10q38 10 64 -5t52 -39q16 -15 40.5 -31t48.5 -32t42 -30.5t21 -26.5z" />
    <glyph glyph-name="eacute" unicode="&#xe9;" horiz-adv-x="392" 
d="M372 201q3 5 10 5q17 0 25.5 -10t8.5 -24q0 -32 -18 -64t-50 -58.5t-75 -43t-93 -16.5q-36 0 -69 9.5t-60 27.5t-47.5 43t-31.5 57q-17 46 -18.5 96t13.5 90q8 21 23.5 40t38.5 33.5t54 23t71 8.5q57 0 91.5 -23.5t48.5 -62.5q12 -36 1.5 -67.5t-37 -55t-65.5 -37.5
t-85 -14q9 -34 29.5 -55.5t63.5 -24.5q59 2 101.5 37t69.5 86zM93 218q24 -3 43.5 5.5t32.5 23.5t18 34.5t-1 37.5q-5 12 -12.5 20t-21.5 8t-26 -10t-20 -27.5t-12 -41t-1 -50.5zM279 615q6 -27 -6.5 -50.5t-35 -42t-51.5 -31t-55 -17.5q-5 -1 -12.5 -3t-15.5 -2t-14.5 2.5
t-9.5 9.5q-5 14 3 27.5t20 27t25.5 27.5t21.5 29q5 11 10 19.5t9 15.5q6 9 15 15t33 6q8 0 18 -3t19.5 -7.5t16.5 -10.5t9 -12z" />
    <glyph glyph-name="ecircumflex" unicode="&#xea;" horiz-adv-x="392" 
d="M372 201q3 5 10 5q17 0 25.5 -10t8.5 -24q0 -32 -18 -64t-50 -58.5t-75 -43t-93 -16.5q-36 0 -69 9.5t-60 27.5t-47.5 43t-31.5 57q-17 46 -18.5 96t13.5 90q8 21 23.5 40t38.5 33.5t54 23t71 8.5q57 0 91.5 -23.5t48.5 -62.5q12 -36 1.5 -67.5t-37 -55t-65.5 -37.5
t-85 -14q9 -34 29.5 -55.5t63.5 -24.5q59 2 101.5 37t69.5 86zM93 218q24 -3 43.5 5.5t32.5 23.5t18 34.5t-1 37.5q-5 12 -12.5 20t-21.5 8t-26 -10t-20 -27.5t-12 -41t-1 -50.5zM289 504q3 -8 4 -15.5t0 -12.5q2 -7 -2 -11t-11 -5.5t-16 -1.5t-17 2q-18 3 -30.5 16.5
t-23.5 30t-23 32t-29 23.5q-9 -4 -19.5 -20t-23.5 -34t-26.5 -33t-28.5 -16q-17 0 -31 11t-15 24q-2 17 9.5 40t30 45t43 39.5t49.5 23.5q31 8 58 -8q12 -6 25.5 -19.5t27 -31.5t26 -38.5t23.5 -40.5z" />
    <glyph glyph-name="edieresis" unicode="&#xeb;" horiz-adv-x="392" 
d="M372 201q3 5 10 5q17 0 25.5 -10t8.5 -24q0 -32 -18 -64t-50 -58.5t-75 -43t-93 -16.5q-36 0 -69 9.5t-60 27.5t-47.5 43t-31.5 57q-17 46 -18.5 96t13.5 90q8 21 23.5 40t38.5 33.5t54 23t71 8.5q57 0 91.5 -23.5t48.5 -62.5q12 -36 1.5 -67.5t-37 -55t-65.5 -37.5
t-85 -14q9 -34 29.5 -55.5t63.5 -24.5q59 2 101.5 37t69.5 86zM93 218q24 -3 43.5 5.5t32.5 23.5t18 34.5t-1 37.5q-5 12 -12.5 20t-21.5 8t-26 -10t-20 -27.5t-12 -41t-1 -50.5zM207 607q26 -2 51 -16t38 -34q17 -20 11.5 -41.5t-24.5 -32.5q-24 -12 -54 -3.5t-48 38.5
q-11 15 -15 31.5t-1 29.5t13 21t29 7zM-17 530q-6 15 -8.5 29t0.5 25t12 17.5t27 6.5q15 0 30.5 -4.5t28.5 -12.5t23 -18.5t14 -22.5q6 -18 3 -36t-14.5 -29t-31 -12.5t-45.5 13.5q-12 7 -22.5 18t-16.5 26z" />
    <glyph glyph-name="iacute" unicode="&#xed;" horiz-adv-x="237" 
d="M250 162q7 -24 -8.5 -54t-42.5 -56.5t-60.5 -44.5t-63.5 -18q-45 0 -66 18t-34 57q-7 20 -13 52.5t-8.5 69t-1 74t9.5 69t23.5 53t40.5 25.5q14 1 24.5 -0.5t18.5 -3.5q20 -5 29 -14.5t12 -18.5q4 -10 5 -14q3 -29 -2 -54t-11 -63q-4 -25 -7.5 -59t0.5 -75q5 -16 22 -16
q21 0 44.5 26.5t48.5 61.5q2 2 4.5 6.5t4.5 4.5q9 -1 18.5 -8t12.5 -18zM178 632q6 -27 -6.5 -50.5t-35 -42t-51.5 -31t-55 -17.5q-5 -1 -12.5 -3t-15.5 -2t-14.5 2.5t-9.5 9.5q-5 14 3 27.5t20 27t25.5 27.5t21.5 29q5 11 10 19.5t9 15.5q6 9 15 15t33 6q8 0 18 -3
t19.5 -7.5t16.5 -10.5t9 -12z" />
    <glyph glyph-name="otilde" unicode="&#xf5;" horiz-adv-x="445" 
d="M315 128q-9 -24 -25.5 -49.5t-39.5 -45.5t-52.5 -33t-64.5 -13q-30 0 -58 10.5t-51 28t-40.5 41t-26.5 50.5q-17 51 -10.5 103t30 95t60 70t80.5 27q12 0 25.5 -3.5t24.5 -10.5q8 2 15.5 3.5t15.5 1.5q42 0 69.5 -23t43 -55.5t19.5 -69t-3 -63.5q14 -11 29 -11
q21 0 32.5 15t24.5 35q9 12 13 12q12 -2 19.5 -8.5t11.5 -15.5q4 -17 -0.5 -35.5t-16.5 -34t-30 -25.5t-40 -10q-28 0 -55 14zM146 79q21 1 36 14.5t23.5 34t11 46t-1.5 50.5q-8 6 -18 17t-19 24t-17 27.5t-12 28.5q-2 5 -1.5 9.5t0.5 7.5q-20 -9 -36.5 -30t-26 -47.5
t-11.5 -55.5t6 -55t24.5 -48.5t41.5 -22.5zM134 558q13 -2 28 -5.5t31 -7.5q7 -2 12 -3l10 -2q12 -3 21 -5.5t17 -2.5q19 0 26.5 3t9.5 6.5t2.5 6.5t6.5 4q13 0 25 -7t21 -17t14.5 -22t6.5 -22q1 -2 1 -7v1q0 -23 -17 -36.5t-44 -15.5q-18 -2 -36 3.5t-40 13t-48.5 15
t-60.5 10.5q-17 1 -28 -1t-22 -2q-5 0 -7.5 -0.5t-6.5 -0.5q-12 0 -18.5 10.5t-8.5 23.5t2 25.5t15 21.5t30.5 13.5t49.5 0.5q5 0 8 -1z" />
    <glyph glyph-name="uni00AD" unicode="&#xad;" horiz-adv-x="470" 
d="M111 239q45 5 86.5 10.5t86.5 15.5q17 0 32 -12t20 -26q8 -23 -13 -35.5t-58.5 -18.5t-86 -8t-95.5 -4q-14 4 -23.5 11.5t-12.5 17.5q-5 13 0 22t15 14.5t23.5 8t25.5 4.5z" />
    <glyph glyph-name="one" unicode="1" 
d="M1649 -35q4 -8 6.5 -16.5t2.5 -19.5q0 -6 -3 -18t-11 -24t-22 -21t-36 -9q-17 0 -30 6.5t-22.5 16.5t-14.5 23t-5 26q0 33 22.5 52.5t49.5 19.5q23 0 39 -11t24 -25zM955 -35q4 -8 6.5 -16.5t2.5 -19.5q0 -32 -21.5 -52t-50.5 -20q-17 0 -30.5 6.5t-22.5 17t-14 23
t-5 25.5q0 18 6.5 31.5t17 22.5t23.5 13.5t25 4.5q23 0 39 -11t24 -25zM1804 -1q2 0 2.5 0.5t2.5 0.5h26v-142h-26v104q-1 -2 -1 -3.5t-1 -3.5q-10 -25 -19 -49t-20 -48h-24l-37 90q-2 4 -2 7l-2 6v-103h-26v142h25q9 0 15 -7l3 -4q4 -11 8 -21.5t9 -21.5l17 -43q2 -2 2 -9
v-1q0 2 1 5t1 5l5 10l29 76q4 7 12 10zM1083 0h26v-142h-24l-68 95q-1 1 -1 1.5t-1 1.5l-2 4q-2 2 -2 3l-2 3v-108h-26v142h23q11 0 21.5 -16t21.5 -32l30 -41q4 -8 4 -11v100zM653 0l62 -142h-16q-10 0 -17 11l-8 19h-65l-8 -19q-2 -4 -6.5 -7.5t-10.5 -3.5h-16l62 142h23z
M1499 200q-5 -11 -15 -24t-35 -13q-20 0 -35.5 13.5t-15.5 36.5q0 17 12.5 34.5t38.5 17.5q20 0 35.5 -14t15.5 -38q0 -8 -1 -13zM262 0h105v-12q0 -5 -1 -7l-3 -6l-70 -94q1 0 2 1t4 1h67v-25h-108v8q0 8 3 13l3 6q3 3 4 5l62 85h-68v25zM762 200q-5 -13 -15.5 -25
t-33.5 -12q-20 0 -36 14t-16 36q0 21 15.5 36.5t36.5 15.5q22 0 36.5 -15.5t14.5 -36.5q0 -3 -0.5 -6t-1.5 -7zM384 0h91v-25h-65v-33h53v-25h-53v-34h65v-25h-91v142zM1416 -38q-6 -7 -10 -15.5t-4 -17.5q0 -19 14 -32.5t33 -13.5q13 0 19.5 5.5t16.5 5.5q8 0 14 -6l5 -5
q-11 -14 -25.5 -20t-29.5 -6q-33 0 -52.5 22.5t-19.5 49.5t19.5 49.5t52.5 22.5q14 0 29 -6.5t26 -19.5l-5 -6q-5 -5 -14 -5q-8 0 -16.5 5.5t-19.5 5.5q-9 0 -17.5 -4t-15.5 -9zM1319 -73q9 -8 9 -25q0 -22 -16.5 -33.5t-33.5 -11.5q-20 0 -31 10.5t-16 20.5q2 1 3.5 2
t3.5 2l4 1q2 0 2.5 0.5t2.5 0.5q10 0 15.5 -5.5t15.5 -5.5q5 0 8 1l8 3q9 7 9 15q0 7 -9 12q-8 5 -17.5 8t-18 7.5t-14.5 12t-6 20.5q0 21 15 30t29 9q10 0 21 -6t19 -17l-5 -4q-8 -5 -15 -5h-3q-4 1 -8 3.5t-9 2.5q-18 0 -18 -13q0 -6 4 -8.5t9 -4.5l17 -6q17 -5 25 -16z
M1245 48q-6 7 -10 15.5t-4 17.5q0 21 15 34t32 13q20 0 33.5 -14.5t13.5 -32.5q0 -23 -15 -34.5t-32 -11.5q-20 0 -33 13zM1706 48q-13 -13 -33 -13q-19 0 -33 13t-14 33q0 14 12 30.5t35 16.5q17 0 32 -12.5t15 -34.5q0 -19 -14 -33zM1629 -89q2 5 3 9t1 9q0 21 -15 33.5
t-32 12.5t-31.5 -13t-14.5 -33t14 -33t32 -13q16 0 26 7.5t17 20.5zM935 -89q2 5 3 9t1 9q0 20 -14 33t-33 13q-17 0 -31.5 -12.5t-14.5 -33.5q0 -20 14 -33t32 -13q30 0 43 28zM721 0h90v-25h-65v-36h55v-25h-55v-56h-25v142zM1121 0h109v-25h-42v-117h-26v117h-41v25z
M589 -25h-41v-117h-26v117h-42v25h109v-25zM571 164q-10 0 -12 6l-26 35h-15v-41h-14v100h36q12 0 20.5 -8.5t8.5 -21.5q0 -20 -20 -27l31 -43h-9zM1476 240q-11 11 -27 11q-14 0 -25.5 -10.5t-11.5 -27.5q0 -11 9 -24t28 -13q15 0 26.5 11t11.5 26q0 18 -11 27zM739 240
q-9 11 -26 11q-14 0 -26 -10.5t-12 -27.5q0 -11 9 -24t29 -13q14 0 25.5 10.5t11.5 26.5t-11 27zM970 164q-7 0 -10 6l-7 16h-51l-7 -16q-3 -6 -10 -6h-8l44 100h13l44 -100h-8zM408 220q-3 -8 -10.5 -13.5t-18.5 -5.5h-22v-37h-13v100h35q14 0 23 -10t9 -22q0 -6 -3 -12z
M1673 45q17 0 26.5 11t9.5 25q0 18 -11.5 27t-24.5 9q-14 0 -25 -10t-11 -26q0 -11 9 -23.5t27 -12.5zM1245 95q-3 -6 -3 -14q0 -15 10.5 -25.5t25.5 -10.5q18 0 27 11.5t9 24.5q0 14 -9.5 25t-26.5 11q-10 0 -19 -5t-14 -17zM867 164h-11l-57 78q-1 1 -2 4v-82h-14v100h10
q7 0 10 -4l48 -67q2 -4 2 -7v78h14v-100zM1604 164h-12l-57 78q-1 0 -1 4l-1 2v-84h-14v100h10q6 0 10 -4l48 -67q2 -2 2 -3.5t1 -3.5v78h14v-100zM1093 78q-2 -1 -8 -3l30 -39h-6q-8 0 -11 5l-25 34h-16v-39h-10v91h32q12 0 19 -8.5t7 -17.5q0 -8 -3.5 -13.5t-8.5 -9.5z
M1602 84q-5 -7 -14 -9l29 -39h-6q-8 0 -10 5l-25 34h-17v-39h-10v91h32q12 0 19.5 -8t7.5 -18q0 -11 -6 -17zM1822 125q4 2 5 2h8v-91h-10v75l-1 -2v-1v-1l-9 -20q-4 -10 -8.5 -18.5t-6.5 -16.5l-8 -16h-10q-5 8 -8.5 17t-7.5 18l-16 36v1q0 1 -0.5 1t-0.5 1v-74h-10v91h8
q2 0 5 -2t3 -4l31 -70v-2q0 -1 1 -1q0 1 0.5 2t0.5 2l31 69q1 2 3 4zM483 250h-48v-29h39v-14h-39v-30h48v-13h-62v100h62v-14zM1341 250l-48 1v-30h39v-14h-39v-30h48v-13h-62v100h62v-14zM1182 203q0 -12 -4.5 -19.5t-11 -12.5t-13.5 -7t-11 -2q-20 0 -30 13.5t-10 27.5
v61h13v-61q0 -11 8 -19t19 -8q10 0 18 7.5t8 19.5v61h14v-61zM1352 36h-10v91h7q5 0 8 -4l47 -66q2 -2 2 -5v75h10v-91h-9l-54 75q-1 0 -0.5 1.5t-0.5 2.5v-79zM648 181q-11 -18 -32 -18q-8 0 -19 4.5t-11 12.5q-1 0 -1 2l3 1q2 2 6 2t7 -3l2 -1q3 -5 13 -5q5 0 12.5 4
t7.5 13t-6 11.5t-14 5.5l-10 5q-17 7 -17 24q0 16 11 21t19 5q4 0 8.5 -1.5t6.5 -3.5l7 -5q2 -2 3 -2.5t2 -2.5l-4 -2q-3 -3 -7 -3q-5 0 -8 3t-8 3q-4 0 -6 -1l-6 -2q-4 -3 -4 -9q0 -5 1.5 -7.5t7.5 -4.5l9 -3q2 -1 4.5 -2t5.5 -2l4 -2q8 -3 11.5 -10t3.5 -15q0 -4 -2 -12z
M1259 181q-10 -18 -31 -18q-11 0 -17 4t-12 10l-3 5l4 1q2 2 5 2q5 0 8 -3l1 -1q5 -5 14 -5q8 0 14 5t6 12q0 6 -6 12l-14 5l-10 5q-18 7 -18 24q0 14 10.5 20t20.5 6q8 0 15 -5l7 -5l5 -5l-4 -2q-3 -3 -7 -3q-5 0 -9 3t-7 3q-5 0 -7 -1l-5 -2q-5 -3 -5 -9q0 -7 10 -12l8 -3
q4 -2 5 -2l10 -4q8 -3 11.5 -10t3.5 -15q0 -6 -3 -12zM265 58q-4 4 -5.5 10.5t-1.5 12.5q0 20 14 33.5t33 13.5q9 0 18 -3.5t15 -10.5l-2 -2q-2 -2 -4 -2h-2q-6 0 -11.5 3.5t-13.5 3.5q-15 0 -26 -10.5t-11 -25.5q0 -17 12 -26.5t25 -9.5q12 0 23 6v19h-7q-4 0 -6.5 3
t-2.5 6v1h26v-35q-7 -8 -24 -10h-9q-15 0 -25 6.5t-15 16.5zM1729 215q-4 -4 -3 -4l-1 -2v-3v-42h-14v45q-1 1 -1 2l-3 4l-36 49h10q8 0 12 -7l24 -32l1 -1v-2v1q0 2 1 2l24 32q3 7 12 7h10zM980 116v-29h37v-10h-37v-31h45v-10h-55v91h55v-11h-45zM371 116v-29h36v-10h-36
v-31h45v-10h-56v91l56 -1v-10h-45zM635 127v-56q0 -11 7.5 -18.5t18.5 -7.5q10 0 18.5 7t8.5 19v56h10v-56q0 -19 -12.5 -27.5t-24.5 -8.5q-15 0 -25.5 10t-10.5 26v56h10zM913 36l-40 91h6q2 0 4.5 -1.5t3.5 -4.5l30 -68q0 -2 0.5 -3t0.5 -2v2q0 1 0.5 1.5t0.5 1.5l30 68
q2 6 8 6h5l-39 -91h-10zM1045 164h-57v100h13v-87h44v-13zM1163 49q6 4 6 12q0 11 -12 16l-7 2q-7 2 -15.5 6.5t-8.5 18.5q0 9 7.5 16.5t18.5 7.5q2 0 4 -0.5t4 -0.5l6 -3q2 -2 3 -2.5t2 -1.5l5 -4l-3 -2q-1 -2 -5 -2q-3 0 -5 1l-5 3q-2 0 -3 0.5t-3 0.5q-16 0 -16 -13
q0 -8 9 -12l9 -3q2 -2 6 -3t7 -3l4 -2q9 -9 9 -20q0 -14 -10 -20t-21 -6q-10 0 -18.5 5.5t-8.5 10.5l2 1q1 1 4 1q5 0 10 -4t11 -4q9 0 14 4zM563 116v-31h38v-10h-38v-39h-11v91h56v-11h-45zM1493 116v-31h38v-10h-38v-39h-10v91h55v-11h-45zM456 36v80h-29v11h68v-11h-29
v-80h-10zM727 127v-81h41v-10h-51v91h10zM789 127v-81h41v-10h-51v91h10zM392 245q-7 5 -13 5h-22v-36h22q8 0 13 5.5t5 12.5q0 8 -5 13zM1588 86q5 2 7 6t2 9q0 6 -4 10.5t-12 4.5h-22v-31h22q5 0 7 1zM1079 85q5 0 10.5 4t5.5 12q0 6 -5 10.5t-11 4.5h-22v-31h22zM554 228
q1 2 1 6q0 6 -4 11t-11 5h-22v-31h22q4 0 6 1l5 3zM662 -86l-18 43q-2 3 -2 5t-1 4q0 -1 -2 -9l-18 -43h41zM1210 127v-91h-10v91h10zM927 244l-19 -44h39l-19 42q0 1 -0.5 2t-0.5 3v-3zM1363 -117q4 -4 4 -11q0 -15 -16 -15q-5 0 -10 3.5t-5 11.5q0 6 4 11t11 5t12 -5z
M2013 738q20 -17 35 -43.5t19.5 -54.5t-3 -53.5t-32.5 -41.5q-14 -9 -23 -7t-16 10.5t-13 21t-12 24.5q-5 11 -11.5 21t-11.5 17q-13 17 -33.5 24.5t-39.5 4.5q-74 -11 -162 -42t-184 -70t-197 -81t-201 -74.5t-196.5 -49.5t-182.5 -7q-2 -5 -3 -8t-2 -5q-1 -3 -1 -5
q-26 -5 -46.5 -6.5t-47.5 6.5q-23 2 -48 2t-53 -4q2 -5 -23.5 -7.5t-61.5 -2.5t-75 3t-64 9q-7 5 -15 25t-14 48.5t-9 62.5t1 68t16 64.5t36 52.5q36 33 56.5 66.5t31.5 61.5t16 49t8 30q4 8 5 26t15 38q0 2 -0.5 4t-0.5 4v8t1 10q0 12 3 21q0 8 4 18q3 9 5 10q4 1 8 -8
q2 -3 3.5 -6t4.5 -5l10 -10q1 -2 3 -3.5t4 -3.5q14 5 32 8.5t41 3.5h15.5t14.5 -1q10 -2 18.5 -4t13.5 -4q4 3 9.5 5.5t7.5 3.5q3 2 6.5 3t6.5 3q4 1 11 8t10 4q2 -2 2 -11q0 -4 -0.5 -8.5t-1.5 -9.5q-2 -5 -2.5 -10.5t-2.5 -10.5v-1q11 -12 17.5 -25.5t9.5 -26.5t3.5 -24
t0.5 -16q0 -3 -2 -7q-1 -4 -6 -10q-2 -3 -4.5 -5.5t-4.5 -5.5q-3 -2 -5 -4t-4 -3v-1q-15 -26 -22.5 -61t-5.5 -70t15 -66.5t39 -50.5q29 -22 36 -58.5t3 -73.5q69 9 142.5 39.5t153 71t165 85t178 83t192.5 65t208 30.5q58 0 112 -11t95 -46zM559 882q0 11 -9 15
q-12 0 -12 -14q-2 -12 10 -14q9 0 11 13zM682 884q0 12 -11 14q-9 0 -11 -12q0 -14 10 -14q5 -2 8 2.5t4 9.5zM644 833q0 6 -11 6q-9 0 -9 -6q0 -4 4 -8.5t5 -4.5q2 0 6.5 4.5t4.5 8.5zM1685 164h-57v100h14v-87h43v-13z" />
    <glyph glyph-name="two" unicode="2" 
d="M1649 -35q4 -8 6.5 -16.5t2.5 -19.5q0 -6 -3 -18t-11 -24t-22 -21t-36 -9q-17 0 -30 6.5t-22.5 16.5t-14.5 23t-5 26q0 33 22.5 52.5t49.5 19.5q23 0 39 -11t24 -25zM955 -35q4 -8 6.5 -16.5t2.5 -19.5q0 -32 -21.5 -52t-50.5 -20q-17 0 -30.5 6.5t-22.5 17t-14 23
t-5 25.5q0 18 6.5 31.5t17 22.5t23.5 13.5t25 4.5q23 0 39 -11t24 -25zM1804 -1q2 0 2.5 0.5t2.5 0.5h26v-142h-26v104q-1 -2 -1 -3.5t-1 -3.5q-10 -25 -19 -49t-20 -48h-24l-37 90q-2 4 -2 7l-2 6v-103h-26v142h25q9 0 15 -7l3 -4q4 -11 8 -21.5t9 -21.5l17 -43q2 -2 2 -9
v-1q0 2 1 5t1 5l5 10l29 76q4 7 12 10zM1083 0h26v-142h-24l-68 95q-1 1 -1 1.5t-1 1.5l-2 4q-2 2 -2 3l-2 3v-108h-26v142h23q11 0 21.5 -16t21.5 -32l30 -41q4 -8 4 -11v100zM653 0l62 -142h-16q-10 0 -17 11l-8 19h-65l-8 -19q-2 -4 -6.5 -7.5t-10.5 -3.5h-16l62 142h23z
M1499 200q-5 -11 -15 -24t-35 -13q-20 0 -35.5 13.5t-15.5 36.5q0 17 12.5 34.5t38.5 17.5q20 0 35.5 -14t15.5 -38q0 -8 -1 -13zM262 0h105v-12q0 -5 -1 -7l-3 -6l-70 -94q1 0 2 1t4 1h67v-25h-108v8q0 8 3 13l3 6q3 3 4 5l62 85h-68v25zM762 200q-5 -13 -15.5 -25
t-33.5 -12q-20 0 -36 14t-16 36q0 21 15.5 36.5t36.5 15.5q22 0 36.5 -15.5t14.5 -36.5q0 -3 -0.5 -6t-1.5 -7zM384 0h91v-25h-65v-33h53v-25h-53v-34h65v-25h-91v142zM1416 -38q-6 -7 -10 -15.5t-4 -17.5q0 -19 14 -32.5t33 -13.5q13 0 19.5 5.5t16.5 5.5q8 0 14 -6l5 -5
q-11 -14 -25.5 -20t-29.5 -6q-33 0 -52.5 22.5t-19.5 49.5t19.5 49.5t52.5 22.5q14 0 29 -6.5t26 -19.5l-5 -6q-5 -5 -14 -5q-8 0 -16.5 5.5t-19.5 5.5q-9 0 -17.5 -4t-15.5 -9zM1319 -73q9 -8 9 -25q0 -22 -16.5 -33.5t-33.5 -11.5q-20 0 -31 10.5t-16 20.5q2 1 3.5 2
t3.5 2l4 1q2 0 2.5 0.5t2.5 0.5q10 0 15.5 -5.5t15.5 -5.5q5 0 8 1l8 3q9 7 9 15q0 7 -9 12q-8 5 -17.5 8t-18 7.5t-14.5 12t-6 20.5q0 21 15 30t29 9q10 0 21 -6t19 -17l-5 -4q-8 -5 -15 -5h-3q-4 1 -8 3.5t-9 2.5q-18 0 -18 -13q0 -6 4 -8.5t9 -4.5l17 -6q17 -5 25 -16z
M1245 48q-6 7 -10 15.5t-4 17.5q0 21 15 34t32 13q20 0 33.5 -14.5t13.5 -32.5q0 -23 -15 -34.5t-32 -11.5q-20 0 -33 13zM1706 48q-13 -13 -33 -13q-19 0 -33 13t-14 33q0 14 12 30.5t35 16.5q17 0 32 -12.5t15 -34.5q0 -19 -14 -33zM1629 -89q2 5 3 9t1 9q0 21 -15 33.5
t-32 12.5t-31.5 -13t-14.5 -33t14 -33t32 -13q16 0 26 7.5t17 20.5zM935 -89q2 5 3 9t1 9q0 20 -14 33t-33 13q-17 0 -31.5 -12.5t-14.5 -33.5q0 -20 14 -33t32 -13q30 0 43 28zM721 0h90v-25h-65v-36h55v-25h-55v-56h-25v142zM1121 0h109v-25h-42v-117h-26v117h-41v25z
M589 -25h-41v-117h-26v117h-42v25h109v-25zM571 164q-10 0 -12 6l-26 35h-15v-41h-14v100h36q12 0 20.5 -8.5t8.5 -21.5q0 -20 -20 -27l31 -43h-9zM1476 240q-11 11 -27 11q-14 0 -25.5 -10.5t-11.5 -27.5q0 -11 9 -24t28 -13q15 0 26.5 11t11.5 26q0 18 -11 27zM739 240
q-9 11 -26 11q-14 0 -26 -10.5t-12 -27.5q0 -11 9 -24t29 -13q14 0 25.5 10.5t11.5 26.5t-11 27zM970 164q-7 0 -10 6l-7 16h-51l-7 -16q-3 -6 -10 -6h-8l44 100h13l44 -100h-8zM408 220q-3 -8 -10.5 -13.5t-18.5 -5.5h-22v-37h-13v100h35q14 0 23 -10t9 -22q0 -6 -3 -12z
M1673 45q17 0 26.5 11t9.5 25q0 18 -11.5 27t-24.5 9q-14 0 -25 -10t-11 -26q0 -11 9 -23.5t27 -12.5zM1245 95q-3 -6 -3 -14q0 -15 10.5 -25.5t25.5 -10.5q18 0 27 11.5t9 24.5q0 14 -9.5 25t-26.5 11q-10 0 -19 -5t-14 -17zM867 164h-11l-57 78q-1 1 -2 4v-82h-14v100h10
q7 0 10 -4l48 -67q2 -4 2 -7v78h14v-100zM1604 164h-12l-57 78q-1 0 -1 4l-1 2v-84h-14v100h10q6 0 10 -4l48 -67q2 -2 2 -3.5t1 -3.5v78h14v-100zM1093 78q-2 -1 -8 -3l30 -39h-6q-8 0 -11 5l-25 34h-16v-39h-10v91h32q12 0 19 -8.5t7 -17.5q0 -8 -3.5 -13.5t-8.5 -9.5z
M1602 84q-5 -7 -14 -9l29 -39h-6q-8 0 -10 5l-25 34h-17v-39h-10v91h32q12 0 19.5 -8t7.5 -18q0 -11 -6 -17zM1822 125q4 2 5 2h8v-91h-10v75l-1 -2v-1v-1l-9 -20q-4 -10 -8.5 -18.5t-6.5 -16.5l-8 -16h-10q-5 8 -8.5 17t-7.5 18l-16 36v1q0 1 -0.5 1t-0.5 1v-74h-10v91h8
q2 0 5 -2t3 -4l31 -70v-2q0 -1 1 -1q0 1 0.5 2t0.5 2l31 69q1 2 3 4zM483 250h-48v-29h39v-14h-39v-30h48v-13h-62v100h62v-14zM1341 250l-48 1v-30h39v-14h-39v-30h48v-13h-62v100h62v-14zM1182 203q0 -12 -4.5 -19.5t-11 -12.5t-13.5 -7t-11 -2q-20 0 -30 13.5t-10 27.5
v61h13v-61q0 -11 8 -19t19 -8q10 0 18 7.5t8 19.5v61h14v-61zM1352 36h-10v91h7q5 0 8 -4l47 -66q2 -2 2 -5v75h10v-91h-9l-54 75q-1 0 -0.5 1.5t-0.5 2.5v-79zM648 181q-11 -18 -32 -18q-8 0 -19 4.5t-11 12.5q-1 0 -1 2l3 1q2 2 6 2t7 -3l2 -1q3 -5 13 -5q5 0 12.5 4
t7.5 13t-6 11.5t-14 5.5l-10 5q-17 7 -17 24q0 16 11 21t19 5q4 0 8.5 -1.5t6.5 -3.5l7 -5q2 -2 3 -2.5t2 -2.5l-4 -2q-3 -3 -7 -3q-5 0 -8 3t-8 3q-4 0 -6 -1l-6 -2q-4 -3 -4 -9q0 -5 1.5 -7.5t7.5 -4.5l9 -3q2 -1 4.5 -2t5.5 -2l4 -2q8 -3 11.5 -10t3.5 -15q0 -4 -2 -12z
M1259 181q-10 -18 -31 -18q-11 0 -17 4t-12 10l-3 5l4 1q2 2 5 2q5 0 8 -3l1 -1q5 -5 14 -5q8 0 14 5t6 12q0 6 -6 12l-14 5l-10 5q-18 7 -18 24q0 14 10.5 20t20.5 6q8 0 15 -5l7 -5l5 -5l-4 -2q-3 -3 -7 -3q-5 0 -9 3t-7 3q-5 0 -7 -1l-5 -2q-5 -3 -5 -9q0 -7 10 -12l8 -3
q4 -2 5 -2l10 -4q8 -3 11.5 -10t3.5 -15q0 -6 -3 -12zM265 58q-4 4 -5.5 10.5t-1.5 12.5q0 20 14 33.5t33 13.5q9 0 18 -3.5t15 -10.5l-2 -2q-2 -2 -4 -2h-2q-6 0 -11.5 3.5t-13.5 3.5q-15 0 -26 -10.5t-11 -25.5q0 -17 12 -26.5t25 -9.5q12 0 23 6v19h-7q-4 0 -6.5 3
t-2.5 6v1h26v-35q-7 -8 -24 -10h-9q-15 0 -25 6.5t-15 16.5zM1729 215q-4 -4 -3 -4l-1 -2v-3v-42h-14v45q-1 1 -1 2l-3 4l-36 49h10q8 0 12 -7l24 -32l1 -1v-2v1q0 2 1 2l24 32q3 7 12 7h10zM980 116v-29h37v-10h-37v-31h45v-10h-55v91h55v-11h-45zM371 116v-29h36v-10h-36
v-31h45v-10h-56v91l56 -1v-10h-45zM635 127v-56q0 -11 7.5 -18.5t18.5 -7.5q10 0 18.5 7t8.5 19v56h10v-56q0 -19 -12.5 -27.5t-24.5 -8.5q-15 0 -25.5 10t-10.5 26v56h10zM913 36l-40 91h6q2 0 4.5 -1.5t3.5 -4.5l30 -68q0 -2 0.5 -3t0.5 -2v2q0 1 0.5 1.5t0.5 1.5l30 68
q2 6 8 6h5l-39 -91h-10zM1045 164h-57v100h13v-87h44v-13zM1163 49q6 4 6 12q0 11 -12 16l-7 2q-7 2 -15.5 6.5t-8.5 18.5q0 9 7.5 16.5t18.5 7.5q2 0 4 -0.5t4 -0.5l6 -3q2 -2 3 -2.5t2 -1.5l5 -4l-3 -2q-1 -2 -5 -2q-3 0 -5 1l-5 3q-2 0 -3 0.5t-3 0.5q-16 0 -16 -13
q0 -8 9 -12l9 -3q2 -2 6 -3t7 -3l4 -2q9 -9 9 -20q0 -14 -10 -20t-21 -6q-10 0 -18.5 5.5t-8.5 10.5l2 1q1 1 4 1q5 0 10 -4t11 -4q9 0 14 4zM563 116v-31h38v-10h-38v-39h-11v91h56v-11h-45zM1493 116v-31h38v-10h-38v-39h-10v91h55v-11h-45zM456 36v80h-29v11h68v-11h-29
v-80h-10zM727 127v-81h41v-10h-51v91h10zM789 127v-81h41v-10h-51v91h10zM392 245q-7 5 -13 5h-22v-36h22q8 0 13 5.5t5 12.5q0 8 -5 13zM1588 86q5 2 7 6t2 9q0 6 -4 10.5t-12 4.5h-22v-31h22q5 0 7 1zM1079 85q5 0 10.5 4t5.5 12q0 6 -5 10.5t-11 4.5h-22v-31h22zM554 228
q1 2 1 6q0 6 -4 11t-11 5h-22v-31h22q4 0 6 1l5 3zM662 -86l-18 43q-2 3 -2 5t-1 4q0 -1 -2 -9l-18 -43h41zM1210 127v-91h-10v91h10zM927 244l-19 -44h39l-19 42q0 1 -0.5 2t-0.5 3v-3zM1363 -117q4 -4 4 -11q0 -15 -16 -15q-5 0 -10 3.5t-5 11.5q0 6 4 11t11 5t12 -5z
M1851 638q8 -19 11.5 -35.5t3.5 -30.5q0 -26 -16.5 -46.5t-46.5 -20.5q-13 0 -23 8t-21.5 20.5t-25.5 27t-35 27t-50 20.5t-71 8q-57 0 -152 -17t-226 -56q8 -10 14.5 -21t10.5 -23q0 -11 12.5 -31.5t30.5 -41t39 -35.5t39 -15q24 0 39 -3.5t24 -9.5t13.5 -13.5t9.5 -15.5
h-262v-16q0 -35 -6.5 -42.5t-16.5 -7.5q-9 0 -16.5 4t-12.5 9.5t-8 10.5t-3 7q-17 5 -28.5 11t-22.5 14q-28 -1 -61 -1.5t-68.5 -1t-71.5 -0.5h-69h-158q-21 -3 -43.5 -7t-44 -8t-41 -7t-33.5 -3q-19 0 -38.5 2t-35 9t-25 21t-9.5 38q0 16 3 32.5t13 30.5q16 27 34 53
t49 47.5t81.5 36t132.5 16.5q49 0 88 -13.5t81 -30.5q25 13 54 26.5t60 30.5q-27 33 -27 52q0 14 4 27.5t11 25.5q-5 14 -12 37t-7 45q0 8 0.5 14.5t3.5 11.5q15 -9 31 -19q14 -8 30 -17t31 -16q14 5 29.5 7.5t30.5 2.5q18 0 33 -2.5t29 -7.5q15 7 31.5 16t30.5 17
q16 10 32 19q1 -5 3 -11.5t2 -12.5q0 -19 -6 -40.5t-12 -37.5q76 23 165 40t186 17q45 0 89.5 -9t82 -25.5t66 -39.5t41.5 -51zM1009 692q-1 6 -8 6q-8 -2 -8 -6q0 -5 3 -7.5t5 -2.5q4 0 6 3.5t2 6.5zM1081 655q0 6 -12 6q-6 0 -9 -0.5t-5 -5.5q0 -5 4 -9.5t9 -4.5t9 4.5
t4 9.5zM1167 693q-2 8 -11 8q-8 -5 -8 -10q1 -9 8 -9q5 0 8 3.5t3 7.5zM1685 164h-57v100h14v-87h43v-13z" />
    <glyph glyph-name="three" unicode="3" 
d="M1649 -35q4 -8 6.5 -16.5t2.5 -19.5q0 -6 -3 -18t-11 -24t-22 -21t-36 -9q-17 0 -30 6.5t-22.5 16.5t-14.5 23t-5 26q0 33 22.5 52.5t49.5 19.5q23 0 39 -11t24 -25zM955 -35q4 -8 6.5 -16.5t2.5 -19.5q0 -32 -21.5 -52t-50.5 -20q-17 0 -30.5 6.5t-22.5 17t-14 23
t-5 25.5q0 18 6.5 31.5t17 22.5t23.5 13.5t25 4.5q23 0 39 -11t24 -25zM1804 -1q2 0 2.5 0.5t2.5 0.5h26v-142h-26v104q-1 -2 -1 -3.5t-1 -3.5q-10 -25 -19 -49t-20 -48h-24l-37 90q-2 4 -2 7l-2 6v-103h-26v142h25q9 0 15 -7l3 -4q4 -11 8 -21.5t9 -21.5l17 -43q2 -2 2 -9
v-1q0 2 1 5t1 5l5 10l29 76q4 7 12 10zM1083 0h26v-142h-24l-68 95q-1 1 -1 1.5t-1 1.5l-2 4q-2 2 -2 3l-2 3v-108h-26v142h23q11 0 21.5 -16t21.5 -32l30 -41q4 -8 4 -11v100zM653 0l62 -142h-16q-10 0 -17 11l-8 19h-65l-8 -19q-2 -4 -6.5 -7.5t-10.5 -3.5h-16l62 142h23z
M1499 200q-5 -11 -15 -24t-35 -13q-20 0 -35.5 13.5t-15.5 36.5q0 17 12.5 34.5t38.5 17.5q20 0 35.5 -14t15.5 -38q0 -8 -1 -13zM262 0h105v-12q0 -5 -1 -7l-3 -6l-70 -94q1 0 2 1t4 1h67v-25h-108v8q0 8 3 13l3 6q3 3 4 5l62 85h-68v25zM762 200q-5 -13 -15.5 -25
t-33.5 -12q-20 0 -36 14t-16 36q0 21 15.5 36.5t36.5 15.5q22 0 36.5 -15.5t14.5 -36.5q0 -3 -0.5 -6t-1.5 -7zM384 0h91v-25h-65v-33h53v-25h-53v-34h65v-25h-91v142zM1416 -38q-6 -7 -10 -15.5t-4 -17.5q0 -19 14 -32.5t33 -13.5q13 0 19.5 5.5t16.5 5.5q8 0 14 -6l5 -5
q-11 -14 -25.5 -20t-29.5 -6q-33 0 -52.5 22.5t-19.5 49.5t19.5 49.5t52.5 22.5q14 0 29 -6.5t26 -19.5l-5 -6q-5 -5 -14 -5q-8 0 -16.5 5.5t-19.5 5.5q-9 0 -17.5 -4t-15.5 -9zM1319 -73q9 -8 9 -25q0 -22 -16.5 -33.5t-33.5 -11.5q-20 0 -31 10.5t-16 20.5q2 1 3.5 2
t3.5 2l4 1q2 0 2.5 0.5t2.5 0.5q10 0 15.5 -5.5t15.5 -5.5q5 0 8 1l8 3q9 7 9 15q0 7 -9 12q-8 5 -17.5 8t-18 7.5t-14.5 12t-6 20.5q0 21 15 30t29 9q10 0 21 -6t19 -17l-5 -4q-8 -5 -15 -5h-3q-4 1 -8 3.5t-9 2.5q-18 0 -18 -13q0 -6 4 -8.5t9 -4.5l17 -6q17 -5 25 -16z
M1245 48q-6 7 -10 15.5t-4 17.5q0 21 15 34t32 13q20 0 33.5 -14.5t13.5 -32.5q0 -23 -15 -34.5t-32 -11.5q-20 0 -33 13zM1706 48q-13 -13 -33 -13q-19 0 -33 13t-14 33q0 14 12 30.5t35 16.5q17 0 32 -12.5t15 -34.5q0 -19 -14 -33zM1629 -89q2 5 3 9t1 9q0 21 -15 33.5
t-32 12.5t-31.5 -13t-14.5 -33t14 -33t32 -13q16 0 26 7.5t17 20.5zM935 -89q2 5 3 9t1 9q0 20 -14 33t-33 13q-17 0 -31.5 -12.5t-14.5 -33.5q0 -20 14 -33t32 -13q30 0 43 28zM721 0h90v-25h-65v-36h55v-25h-55v-56h-25v142zM1121 0h109v-25h-42v-117h-26v117h-41v25z
M589 -25h-41v-117h-26v117h-42v25h109v-25zM571 164q-10 0 -12 6l-26 35h-15v-41h-14v100h36q12 0 20.5 -8.5t8.5 -21.5q0 -20 -20 -27l31 -43h-9zM1476 240q-11 11 -27 11q-14 0 -25.5 -10.5t-11.5 -27.5q0 -11 9 -24t28 -13q15 0 26.5 11t11.5 26q0 18 -11 27zM739 240
q-9 11 -26 11q-14 0 -26 -10.5t-12 -27.5q0 -11 9 -24t29 -13q14 0 25.5 10.5t11.5 26.5t-11 27zM970 164q-7 0 -10 6l-7 16h-51l-7 -16q-3 -6 -10 -6h-8l44 100h13l44 -100h-8zM408 220q-3 -8 -10.5 -13.5t-18.5 -5.5h-22v-37h-13v100h35q14 0 23 -10t9 -22q0 -6 -3 -12z
M1673 45q17 0 26.5 11t9.5 25q0 18 -11.5 27t-24.5 9q-14 0 -25 -10t-11 -26q0 -11 9 -23.5t27 -12.5zM1245 95q-3 -6 -3 -14q0 -15 10.5 -25.5t25.5 -10.5q18 0 27 11.5t9 24.5q0 14 -9.5 25t-26.5 11q-10 0 -19 -5t-14 -17zM867 164h-11l-57 78q-1 1 -2 4v-82h-14v100h10
q7 0 10 -4l48 -67q2 -4 2 -7v78h14v-100zM1604 164h-12l-57 78q-1 0 -1 4l-1 2v-84h-14v100h10q6 0 10 -4l48 -67q2 -2 2 -3.5t1 -3.5v78h14v-100zM1093 78q-2 -1 -8 -3l30 -39h-6q-8 0 -11 5l-25 34h-16v-39h-10v91h32q12 0 19 -8.5t7 -17.5q0 -8 -3.5 -13.5t-8.5 -9.5z
M1602 84q-5 -7 -14 -9l29 -39h-6q-8 0 -10 5l-25 34h-17v-39h-10v91h32q12 0 19.5 -8t7.5 -18q0 -11 -6 -17zM1822 125q4 2 5 2h8v-91h-10v75l-1 -2v-1v-1l-9 -20q-4 -10 -8.5 -18.5t-6.5 -16.5l-8 -16h-10q-5 8 -8.5 17t-7.5 18l-16 36v1q0 1 -0.5 1t-0.5 1v-74h-10v91h8
q2 0 5 -2t3 -4l31 -70v-2q0 -1 1 -1q0 1 0.5 2t0.5 2l31 69q1 2 3 4zM483 250h-48v-29h39v-14h-39v-30h48v-13h-62v100h62v-14zM1341 250l-48 1v-30h39v-14h-39v-30h48v-13h-62v100h62v-14zM1182 203q0 -12 -4.5 -19.5t-11 -12.5t-13.5 -7t-11 -2q-20 0 -30 13.5t-10 27.5
v61h13v-61q0 -11 8 -19t19 -8q10 0 18 7.5t8 19.5v61h14v-61zM1352 36h-10v91h7q5 0 8 -4l47 -66q2 -2 2 -5v75h10v-91h-9l-54 75q-1 0 -0.5 1.5t-0.5 2.5v-79zM648 181q-11 -18 -32 -18q-8 0 -19 4.5t-11 12.5q-1 0 -1 2l3 1q2 2 6 2t7 -3l2 -1q3 -5 13 -5q5 0 12.5 4
t7.5 13t-6 11.5t-14 5.5l-10 5q-17 7 -17 24q0 16 11 21t19 5q4 0 8.5 -1.5t6.5 -3.5l7 -5q2 -2 3 -2.5t2 -2.5l-4 -2q-3 -3 -7 -3q-5 0 -8 3t-8 3q-4 0 -6 -1l-6 -2q-4 -3 -4 -9q0 -5 1.5 -7.5t7.5 -4.5l9 -3q2 -1 4.5 -2t5.5 -2l4 -2q8 -3 11.5 -10t3.5 -15q0 -4 -2 -12z
M1259 181q-10 -18 -31 -18q-11 0 -17 4t-12 10l-3 5l4 1q2 2 5 2q5 0 8 -3l1 -1q5 -5 14 -5q8 0 14 5t6 12q0 6 -6 12l-14 5l-10 5q-18 7 -18 24q0 14 10.5 20t20.5 6q8 0 15 -5l7 -5l5 -5l-4 -2q-3 -3 -7 -3q-5 0 -9 3t-7 3q-5 0 -7 -1l-5 -2q-5 -3 -5 -9q0 -7 10 -12l8 -3
q4 -2 5 -2l10 -4q8 -3 11.5 -10t3.5 -15q0 -6 -3 -12zM265 58q-4 4 -5.5 10.5t-1.5 12.5q0 20 14 33.5t33 13.5q9 0 18 -3.5t15 -10.5l-2 -2q-2 -2 -4 -2h-2q-6 0 -11.5 3.5t-13.5 3.5q-15 0 -26 -10.5t-11 -25.5q0 -17 12 -26.5t25 -9.5q12 0 23 6v19h-7q-4 0 -6.5 3
t-2.5 6v1h26v-35q-7 -8 -24 -10h-9q-15 0 -25 6.5t-15 16.5zM1729 215q-4 -4 -3 -4l-1 -2v-3v-42h-14v45q-1 1 -1 2l-3 4l-36 49h10q8 0 12 -7l24 -32l1 -1v-2v1q0 2 1 2l24 32q3 7 12 7h10zM980 116v-29h37v-10h-37v-31h45v-10h-55v91h55v-11h-45zM371 116v-29h36v-10h-36
v-31h45v-10h-56v91l56 -1v-10h-45zM635 127v-56q0 -11 7.5 -18.5t18.5 -7.5q10 0 18.5 7t8.5 19v56h10v-56q0 -19 -12.5 -27.5t-24.5 -8.5q-15 0 -25.5 10t-10.5 26v56h10zM913 36l-40 91h6q2 0 4.5 -1.5t3.5 -4.5l30 -68q0 -2 0.5 -3t0.5 -2v2q0 1 0.5 1.5t0.5 1.5l30 68
q2 6 8 6h5l-39 -91h-10zM1045 164h-57v100h13v-87h44v-13zM1163 49q6 4 6 12q0 11 -12 16l-7 2q-7 2 -15.5 6.5t-8.5 18.5q0 9 7.5 16.5t18.5 7.5q2 0 4 -0.5t4 -0.5l6 -3q2 -2 3 -2.5t2 -1.5l5 -4l-3 -2q-1 -2 -5 -2q-3 0 -5 1l-5 3q-2 0 -3 0.5t-3 0.5q-16 0 -16 -13
q0 -8 9 -12l9 -3q2 -2 6 -3t7 -3l4 -2q9 -9 9 -20q0 -14 -10 -20t-21 -6q-10 0 -18.5 5.5t-8.5 10.5l2 1q1 1 4 1q5 0 10 -4t11 -4q9 0 14 4zM563 116v-31h38v-10h-38v-39h-11v91h56v-11h-45zM1493 116v-31h38v-10h-38v-39h-10v91h55v-11h-45zM456 36v80h-29v11h68v-11h-29
v-80h-10zM727 127v-81h41v-10h-51v91h10zM789 127v-81h41v-10h-51v91h10zM392 245q-7 5 -13 5h-22v-36h22q8 0 13 5.5t5 12.5q0 8 -5 13zM1588 86q5 2 7 6t2 9q0 6 -4 10.5t-12 4.5h-22v-31h22q5 0 7 1zM1079 85q5 0 10.5 4t5.5 12q0 6 -5 10.5t-11 4.5h-22v-31h22zM554 228
q1 2 1 6q0 6 -4 11t-11 5h-22v-31h22q4 0 6 1l5 3zM662 -86l-18 43q-2 3 -2 5t-1 4q0 -1 -2 -9l-18 -43h41zM1210 127v-91h-10v91h10zM927 244l-19 -44h39l-19 42q0 1 -0.5 2t-0.5 3v-3zM1363 -117q4 -4 4 -11q0 -15 -16 -15q-5 0 -10 3.5t-5 11.5q0 6 4 11t11 5t12 -5z
M1455 786q33 -14 55 -35t35 -46t18 -53.5t4 -58.5q-2 -40 -16 -89.5t-34 -93t-42 -73t-40 -28.5q-8 0 -8 15q0 6 10.5 27.5t23 50.5t23 62.5t11.5 64.5q2 29 -9.5 53t-41.5 35q5 -11 6.5 -24t1.5 -27q-2 -26 -9 -54.5t-17 -55.5t-21 -50t-20 -39q-16 -29 -25 -37t-15 -7
q-5 0 -6.5 4.5t-1.5 8.5q1 5 2 5.5t3 2.5q8 15 17.5 38t17.5 49t13.5 54t6.5 53q1 31 -6.5 54t-27.5 31q-26 -4 -54 -15t-59 -32t-65 -54t-70 -79q-44 -56 -87.5 -86t-83.5 -43.5t-75.5 -15t-63.5 -0.5q-27 2 -66 2.5t-76 1.5q-43 1 -88 2q-3 3 -3 7q0 8 15.5 16.5t47.5 9.5
q6 0 30 -2t57.5 -4t71.5 -1.5t72.5 5t60.5 15.5t36 31q2 4 4 6t2 4q0 6 -10 9t-25 4q-22 -12 -46 -19.5t-44 -6.5q-18 1 -32 10q-36 -9 -70 -9q-28 1 -55 14.5t-52 33t-48 42t-44 42.5q-14 14 -22.5 19.5t-15.5 5.5q-5 0 -11.5 -2.5t-14.5 -1.5q-19 0 -19 16q2 6 12 16t33 9
q14 0 27 -6t23.5 -13.5t19 -15.5t13.5 -12q26 -24 50 -46.5t47 -37.5t46 -21t47 3q-16 25 -25 57t-8 61q1 22 9.5 41.5t19 33.5t21.5 21.5t17 7.5q2 0 5 -7.5t5.5 -18t4.5 -22t3 -19.5q28 -10 51.5 -20.5t43.5 -20.5l10 10t12.5 12t12 10t8.5 4q4 -1 11.5 -11t12.5 -26
q12 14 26 33.5t34 42.5q30 36 71.5 70.5t87 61.5t91 43t83.5 15q11 -1 21 -3t21 -4q39 53 55.5 84t17.5 54q3 23 -16 42q-35 32 -70 54.5t-63 43t-45 43.5t-16 57q1 1 4.5 15.5t10 31t16 29.5t21.5 13q5 0 10.5 -3.5t5.5 -11.5q0 -3 -2 -6t-4 -5q-14 -18 -22 -34.5
t-10 -33.5q2 -25 18 -45t46 -41q41 -30 69.5 -49.5t46.5 -35t26 -30.5t7 -36q-1 -29 -21 -62.5t-57 -83.5zM790 489q0 3 -1.5 6t-5.5 4q-10 0 -10 -8q0 -9 9 -9q7 0 8 7zM825 423q0 4 -5 7t-11 3q-6 1 -6 -5q0 -5 2 -10t8 -5q4 0 7 3t5 6v1zM907 454q0 10 -10 10
q-8 0 -8 -10q0 -7 9 -7q7 0 9 6v1zM1685 164h-57v100h14v-87h43v-13z" />
    <glyph glyph-name="four" unicode="4" 
d="M1649 -35q4 -8 6.5 -16.5t2.5 -19.5q0 -6 -3 -18t-11 -24t-22 -21t-36 -9q-17 0 -30 6.5t-22.5 16.5t-14.5 23t-5 26q0 33 22.5 52.5t49.5 19.5q23 0 39 -11t24 -25zM955 -35q4 -8 6.5 -16.5t2.5 -19.5q0 -32 -21.5 -52t-50.5 -20q-17 0 -30.5 6.5t-22.5 17t-14 23
t-5 25.5q0 18 6.5 31.5t17 22.5t23.5 13.5t25 4.5q23 0 39 -11t24 -25zM1804 -1q2 0 2.5 0.5t2.5 0.5h26v-142h-26v104q-1 -2 -1 -3.5t-1 -3.5q-10 -25 -19 -49t-20 -48h-24l-37 90q-2 4 -2 7l-2 6v-103h-26v142h25q9 0 15 -7l3 -4q4 -11 8 -21.5t9 -21.5l17 -43q2 -2 2 -9
v-1q0 2 1 5t1 5l5 10l29 76q4 7 12 10zM1083 0h26v-142h-24l-68 95q-1 1 -1 1.5t-1 1.5l-2 4q-2 2 -2 3l-2 3v-108h-26v142h23q11 0 21.5 -16t21.5 -32l30 -41q4 -8 4 -11v100zM653 0l62 -142h-16q-10 0 -17 11l-8 19h-65l-8 -19q-2 -4 -6.5 -7.5t-10.5 -3.5h-16l62 142h23z
M1499 200q-5 -11 -15 -24t-35 -13q-20 0 -35.5 13.5t-15.5 36.5q0 17 12.5 34.5t38.5 17.5q20 0 35.5 -14t15.5 -38q0 -8 -1 -13zM262 0h105v-12q0 -5 -1 -7l-3 -6l-70 -94q1 0 2 1t4 1h67v-25h-108v8q0 8 3 13l3 6q3 3 4 5l62 85h-68v25zM762 200q-5 -13 -15.5 -25
t-33.5 -12q-20 0 -36 14t-16 36q0 21 15.5 36.5t36.5 15.5q22 0 36.5 -15.5t14.5 -36.5q0 -3 -0.5 -6t-1.5 -7zM384 0h91v-25h-65v-33h53v-25h-53v-34h65v-25h-91v142zM1416 -38q-6 -7 -10 -15.5t-4 -17.5q0 -19 14 -32.5t33 -13.5q13 0 19.5 5.5t16.5 5.5q8 0 14 -6l5 -5
q-11 -14 -25.5 -20t-29.5 -6q-33 0 -52.5 22.5t-19.5 49.5t19.5 49.5t52.5 22.5q14 0 29 -6.5t26 -19.5l-5 -6q-5 -5 -14 -5q-8 0 -16.5 5.5t-19.5 5.5q-9 0 -17.5 -4t-15.5 -9zM1319 -73q9 -8 9 -25q0 -22 -16.5 -33.5t-33.5 -11.5q-20 0 -31 10.5t-16 20.5q2 1 3.5 2
t3.5 2l4 1q2 0 2.5 0.5t2.5 0.5q10 0 15.5 -5.5t15.5 -5.5q5 0 8 1l8 3q9 7 9 15q0 7 -9 12q-8 5 -17.5 8t-18 7.5t-14.5 12t-6 20.5q0 21 15 30t29 9q10 0 21 -6t19 -17l-5 -4q-8 -5 -15 -5h-3q-4 1 -8 3.5t-9 2.5q-18 0 -18 -13q0 -6 4 -8.5t9 -4.5l17 -6q17 -5 25 -16z
M1245 48q-6 7 -10 15.5t-4 17.5q0 21 15 34t32 13q20 0 33.5 -14.5t13.5 -32.5q0 -23 -15 -34.5t-32 -11.5q-20 0 -33 13zM1706 48q-13 -13 -33 -13q-19 0 -33 13t-14 33q0 14 12 30.5t35 16.5q17 0 32 -12.5t15 -34.5q0 -19 -14 -33zM1629 -89q2 5 3 9t1 9q0 21 -15 33.5
t-32 12.5t-31.5 -13t-14.5 -33t14 -33t32 -13q16 0 26 7.5t17 20.5zM935 -89q2 5 3 9t1 9q0 20 -14 33t-33 13q-17 0 -31.5 -12.5t-14.5 -33.5q0 -20 14 -33t32 -13q30 0 43 28zM721 0h90v-25h-65v-36h55v-25h-55v-56h-25v142zM1121 0h109v-25h-42v-117h-26v117h-41v25z
M589 -25h-41v-117h-26v117h-42v25h109v-25zM571 164q-10 0 -12 6l-26 35h-15v-41h-14v100h36q12 0 20.5 -8.5t8.5 -21.5q0 -20 -20 -27l31 -43h-9zM1476 240q-11 11 -27 11q-14 0 -25.5 -10.5t-11.5 -27.5q0 -11 9 -24t28 -13q15 0 26.5 11t11.5 26q0 18 -11 27zM739 240
q-9 11 -26 11q-14 0 -26 -10.5t-12 -27.5q0 -11 9 -24t29 -13q14 0 25.5 10.5t11.5 26.5t-11 27zM970 164q-7 0 -10 6l-7 16h-51l-7 -16q-3 -6 -10 -6h-8l44 100h13l44 -100h-8zM408 220q-3 -8 -10.5 -13.5t-18.5 -5.5h-22v-37h-13v100h35q14 0 23 -10t9 -22q0 -6 -3 -12z
M1673 45q17 0 26.5 11t9.5 25q0 18 -11.5 27t-24.5 9q-14 0 -25 -10t-11 -26q0 -11 9 -23.5t27 -12.5zM1245 95q-3 -6 -3 -14q0 -15 10.5 -25.5t25.5 -10.5q18 0 27 11.5t9 24.5q0 14 -9.5 25t-26.5 11q-10 0 -19 -5t-14 -17zM867 164h-11l-57 78q-1 1 -2 4v-82h-14v100h10
q7 0 10 -4l48 -67q2 -4 2 -7v78h14v-100zM1604 164h-12l-57 78q-1 0 -1 4l-1 2v-84h-14v100h10q6 0 10 -4l48 -67q2 -2 2 -3.5t1 -3.5v78h14v-100zM1093 78q-2 -1 -8 -3l30 -39h-6q-8 0 -11 5l-25 34h-16v-39h-10v91h32q12 0 19 -8.5t7 -17.5q0 -8 -3.5 -13.5t-8.5 -9.5z
M1602 84q-5 -7 -14 -9l29 -39h-6q-8 0 -10 5l-25 34h-17v-39h-10v91h32q12 0 19.5 -8t7.5 -18q0 -11 -6 -17zM1822 125q4 2 5 2h8v-91h-10v75l-1 -2v-1v-1l-9 -20q-4 -10 -8.5 -18.5t-6.5 -16.5l-8 -16h-10q-5 8 -8.5 17t-7.5 18l-16 36v1q0 1 -0.5 1t-0.5 1v-74h-10v91h8
q2 0 5 -2t3 -4l31 -70v-2q0 -1 1 -1q0 1 0.5 2t0.5 2l31 69q1 2 3 4zM483 250h-48v-29h39v-14h-39v-30h48v-13h-62v100h62v-14zM1341 250l-48 1v-30h39v-14h-39v-30h48v-13h-62v100h62v-14zM1182 203q0 -12 -4.5 -19.5t-11 -12.5t-13.5 -7t-11 -2q-20 0 -30 13.5t-10 27.5
v61h13v-61q0 -11 8 -19t19 -8q10 0 18 7.5t8 19.5v61h14v-61zM1352 36h-10v91h7q5 0 8 -4l47 -66q2 -2 2 -5v75h10v-91h-9l-54 75q-1 0 -0.5 1.5t-0.5 2.5v-79zM648 181q-11 -18 -32 -18q-8 0 -19 4.5t-11 12.5q-1 0 -1 2l3 1q2 2 6 2t7 -3l2 -1q3 -5 13 -5q5 0 12.5 4
t7.5 13t-6 11.5t-14 5.5l-10 5q-17 7 -17 24q0 16 11 21t19 5q4 0 8.5 -1.5t6.5 -3.5l7 -5q2 -2 3 -2.5t2 -2.5l-4 -2q-3 -3 -7 -3q-5 0 -8 3t-8 3q-4 0 -6 -1l-6 -2q-4 -3 -4 -9q0 -5 1.5 -7.5t7.5 -4.5l9 -3q2 -1 4.5 -2t5.5 -2l4 -2q8 -3 11.5 -10t3.5 -15q0 -4 -2 -12z
M1259 181q-10 -18 -31 -18q-11 0 -17 4t-12 10l-3 5l4 1q2 2 5 2q5 0 8 -3l1 -1q5 -5 14 -5q8 0 14 5t6 12q0 6 -6 12l-14 5l-10 5q-18 7 -18 24q0 14 10.5 20t20.5 6q8 0 15 -5l7 -5l5 -5l-4 -2q-3 -3 -7 -3q-5 0 -9 3t-7 3q-5 0 -7 -1l-5 -2q-5 -3 -5 -9q0 -7 10 -12l8 -3
q4 -2 5 -2l10 -4q8 -3 11.5 -10t3.5 -15q0 -6 -3 -12zM265 58q-4 4 -5.5 10.5t-1.5 12.5q0 20 14 33.5t33 13.5q9 0 18 -3.5t15 -10.5l-2 -2q-2 -2 -4 -2h-2q-6 0 -11.5 3.5t-13.5 3.5q-15 0 -26 -10.5t-11 -25.5q0 -17 12 -26.5t25 -9.5q12 0 23 6v19h-7q-4 0 -6.5 3
t-2.5 6v1h26v-35q-7 -8 -24 -10h-9q-15 0 -25 6.5t-15 16.5zM1729 215q-4 -4 -3 -4l-1 -2v-3v-42h-14v45q-1 1 -1 2l-3 4l-36 49h10q8 0 12 -7l24 -32l1 -1v-2v1q0 2 1 2l24 32q3 7 12 7h10zM980 116v-29h37v-10h-37v-31h45v-10h-55v91h55v-11h-45zM371 116v-29h36v-10h-36
v-31h45v-10h-56v91l56 -1v-10h-45zM635 127v-56q0 -11 7.5 -18.5t18.5 -7.5q10 0 18.5 7t8.5 19v56h10v-56q0 -19 -12.5 -27.5t-24.5 -8.5q-15 0 -25.5 10t-10.5 26v56h10zM913 36l-40 91h6q2 0 4.5 -1.5t3.5 -4.5l30 -68q0 -2 0.5 -3t0.5 -2v2q0 1 0.5 1.5t0.5 1.5l30 68
q2 6 8 6h5l-39 -91h-10zM1045 164h-57v100h13v-87h44v-13zM1163 49q6 4 6 12q0 11 -12 16l-7 2q-7 2 -15.5 6.5t-8.5 18.5q0 9 7.5 16.5t18.5 7.5q2 0 4 -0.5t4 -0.5l6 -3q2 -2 3 -2.5t2 -1.5l5 -4l-3 -2q-1 -2 -5 -2q-3 0 -5 1l-5 3q-2 0 -3 0.5t-3 0.5q-16 0 -16 -13
q0 -8 9 -12l9 -3q2 -2 6 -3t7 -3l4 -2q9 -9 9 -20q0 -14 -10 -20t-21 -6q-10 0 -18.5 5.5t-8.5 10.5l2 1q1 1 4 1q5 0 10 -4t11 -4q9 0 14 4zM563 116v-31h38v-10h-38v-39h-11v91h56v-11h-45zM1493 116v-31h38v-10h-38v-39h-10v91h55v-11h-45zM456 36v80h-29v11h68v-11h-29
v-80h-10zM727 127v-81h41v-10h-51v91h10zM789 127v-81h41v-10h-51v91h10zM392 245q-7 5 -13 5h-22v-36h22q8 0 13 5.5t5 12.5q0 8 -5 13zM1588 86q5 2 7 6t2 9q0 6 -4 10.5t-12 4.5h-22v-31h22q5 0 7 1zM1079 85q5 0 10.5 4t5.5 12q0 6 -5 10.5t-11 4.5h-22v-31h22zM554 228
q1 2 1 6q0 6 -4 11t-11 5h-22v-31h22q4 0 6 1l5 3zM662 -86l-18 43q-2 3 -2 5t-1 4q0 -1 -2 -9l-18 -43h41zM1210 127v-91h-10v91h10zM927 244l-19 -44h39l-19 42q0 1 -0.5 2t-0.5 3v-3zM1363 -117q4 -4 4 -11q0 -15 -16 -15q-5 0 -10 3.5t-5 11.5q0 6 4 11t11 5t12 -5z
M308 477q7 32 20.5 69.5t30 75.5t35.5 73.5t37 63.5q13 20 18 34t5 25q-1 17 -15.5 23.5t-31.5 13.5t-31.5 19.5t-15.5 41.5q0 13 4.5 26.5t18.5 27.5q1 30 16 50.5t34 21.5q6 0 6 -2q0 -4 -5 -13t-5 -21q6 3 15.5 6.5t19.5 6.5t17.5 5l7.5 2q16 14 34.5 22.5t24.5 8.5
q4 4 6 -13q0 -13 -2 -21q41 -11 58.5 -31.5t18.5 -40.5q2 -21 -12 -39.5t-33 -29.5l19.5 -39t28.5 -70q11 7 25.5 13t30.5 7q25 0 41 -15.5t17 -26.5q0 -12 -13 -23t-27 -11q-7 0 -12 3.5t-10 8t-10 8t-12 3.5q-3 -1 -7 -2.5t-9 -5.5q3 -14 6 -27t5 -27q20 -2 31 -17t12 -22
q1 -13 -12 -24t-27 -12q-2 -18 -6 -35.5t-7.5 -34t-6 -32t-1.5 -29.5q0 -19 4.5 -34.5t12.5 -29.5q25 -17 58 -28.5t70 -17.5t76 -7.5t76 0.5q58 2 122 25.5t132.5 57t140 72.5t143 72.5t143 57.5t139.5 27q59 3 102.5 -25t60.5 -98q1 -5 1.5 -9t0.5 -8q1 -15 -2.5 -23
t-7.5 -11.5t-8 -4.5t-5 -1q-14 -1 -19.5 9.5t-14 23.5t-25 23t-50.5 9q-42 -2 -102 -21.5t-130.5 -48.5t-148.5 -62t-155.5 -62t-150 -49.5t-132.5 -22.5q-38 -2 -79.5 0.5t-81.5 9t-76 17t-64 24.5q-9 4 -26 2q11 1 11 0t-11.5 -3.5t-30.5 -5t-44.5 -5t-53.5 -3.5
q-37 -2 -76 -1t-70.5 7t-52 18.5t-21.5 32.5q-2 23 3 49t10 49zM582 929q2 -4 8 -4q7 0 7 7t-6 6q-9 0 -9 -9zM539 886q1 -3 4 -6.5t6 -3.5q12 3 12 14q0 5 -7 5q-7 -1 -11 -2.5t-4 -6.5zM444 900q0 -5 3.5 -6t7.5 -1q8 0 8 7q0 8 -11 8q-8 0 -8 -8zM1685 164h-57v100h14
v-87h43v-13z" />
    <glyph glyph-name="five" unicode="5" 
d="M1649 -35q4 -8 6.5 -16.5t2.5 -19.5q0 -6 -3 -18t-11 -24t-22 -21t-36 -9q-17 0 -30 6.5t-22.5 16.5t-14.5 23t-5 26q0 33 22.5 52.5t49.5 19.5q23 0 39 -11t24 -25zM955 -35q4 -8 6.5 -16.5t2.5 -19.5q0 -32 -21.5 -52t-50.5 -20q-17 0 -30.5 6.5t-22.5 17t-14 23
t-5 25.5q0 18 6.5 31.5t17 22.5t23.5 13.5t25 4.5q23 0 39 -11t24 -25zM1804 -1q2 0 2.5 0.5t2.5 0.5h26v-142h-26v104q-1 -2 -1 -3.5t-1 -3.5q-10 -25 -19 -49t-20 -48h-24l-37 90q-2 4 -2 7l-2 6v-103h-26v142h25q9 0 15 -7l3 -4q4 -11 8 -21.5t9 -21.5l17 -43q2 -2 2 -9
v-1q0 2 1 5t1 5l5 10l29 76q4 7 12 10zM1083 0h26v-142h-24l-68 95q-1 1 -1 1.5t-1 1.5l-2 4q-2 2 -2 3l-2 3v-108h-26v142h23q11 0 21.5 -16t21.5 -32l30 -41q4 -8 4 -11v100zM653 0l62 -142h-16q-10 0 -17 11l-8 19h-65l-8 -19q-2 -4 -6.5 -7.5t-10.5 -3.5h-16l62 142h23z
M1499 200q-5 -11 -15 -24t-35 -13q-20 0 -35.5 13.5t-15.5 36.5q0 17 12.5 34.5t38.5 17.5q20 0 35.5 -14t15.5 -38q0 -8 -1 -13zM262 0h105v-12q0 -5 -1 -7l-3 -6l-70 -94q1 0 2 1t4 1h67v-25h-108v8q0 8 3 13l3 6q3 3 4 5l62 85h-68v25zM762 200q-5 -13 -15.5 -25
t-33.5 -12q-20 0 -36 14t-16 36q0 21 15.5 36.5t36.5 15.5q22 0 36.5 -15.5t14.5 -36.5q0 -3 -0.5 -6t-1.5 -7zM384 0h91v-25h-65v-33h53v-25h-53v-34h65v-25h-91v142zM1416 -38q-6 -7 -10 -15.5t-4 -17.5q0 -19 14 -32.5t33 -13.5q13 0 19.5 5.5t16.5 5.5q8 0 14 -6l5 -5
q-11 -14 -25.5 -20t-29.5 -6q-33 0 -52.5 22.5t-19.5 49.5t19.5 49.5t52.5 22.5q14 0 29 -6.5t26 -19.5l-5 -6q-5 -5 -14 -5q-8 0 -16.5 5.5t-19.5 5.5q-9 0 -17.5 -4t-15.5 -9zM1319 -73q9 -8 9 -25q0 -22 -16.5 -33.5t-33.5 -11.5q-20 0 -31 10.5t-16 20.5q2 1 3.5 2
t3.5 2l4 1q2 0 2.5 0.5t2.5 0.5q10 0 15.5 -5.5t15.5 -5.5q5 0 8 1l8 3q9 7 9 15q0 7 -9 12q-8 5 -17.5 8t-18 7.5t-14.5 12t-6 20.5q0 21 15 30t29 9q10 0 21 -6t19 -17l-5 -4q-8 -5 -15 -5h-3q-4 1 -8 3.5t-9 2.5q-18 0 -18 -13q0 -6 4 -8.5t9 -4.5l17 -6q17 -5 25 -16z
M1245 48q-6 7 -10 15.5t-4 17.5q0 21 15 34t32 13q20 0 33.5 -14.5t13.5 -32.5q0 -23 -15 -34.5t-32 -11.5q-20 0 -33 13zM1706 48q-13 -13 -33 -13q-19 0 -33 13t-14 33q0 14 12 30.5t35 16.5q17 0 32 -12.5t15 -34.5q0 -19 -14 -33zM1629 -89q2 5 3 9t1 9q0 21 -15 33.5
t-32 12.5t-31.5 -13t-14.5 -33t14 -33t32 -13q16 0 26 7.5t17 20.5zM935 -89q2 5 3 9t1 9q0 20 -14 33t-33 13q-17 0 -31.5 -12.5t-14.5 -33.5q0 -20 14 -33t32 -13q30 0 43 28zM721 0h90v-25h-65v-36h55v-25h-55v-56h-25v142zM1121 0h109v-25h-42v-117h-26v117h-41v25z
M589 -25h-41v-117h-26v117h-42v25h109v-25zM571 164q-10 0 -12 6l-26 35h-15v-41h-14v100h36q12 0 20.5 -8.5t8.5 -21.5q0 -20 -20 -27l31 -43h-9zM1476 240q-11 11 -27 11q-14 0 -25.5 -10.5t-11.5 -27.5q0 -11 9 -24t28 -13q15 0 26.5 11t11.5 26q0 18 -11 27zM739 240
q-9 11 -26 11q-14 0 -26 -10.5t-12 -27.5q0 -11 9 -24t29 -13q14 0 25.5 10.5t11.5 26.5t-11 27zM970 164q-7 0 -10 6l-7 16h-51l-7 -16q-3 -6 -10 -6h-8l44 100h13l44 -100h-8zM408 220q-3 -8 -10.5 -13.5t-18.5 -5.5h-22v-37h-13v100h35q14 0 23 -10t9 -22q0 -6 -3 -12z
M1673 45q17 0 26.5 11t9.5 25q0 18 -11.5 27t-24.5 9q-14 0 -25 -10t-11 -26q0 -11 9 -23.5t27 -12.5zM1245 95q-3 -6 -3 -14q0 -15 10.5 -25.5t25.5 -10.5q18 0 27 11.5t9 24.5q0 14 -9.5 25t-26.5 11q-10 0 -19 -5t-14 -17zM867 164h-11l-57 78q-1 1 -2 4v-82h-14v100h10
q7 0 10 -4l48 -67q2 -4 2 -7v78h14v-100zM1604 164h-12l-57 78q-1 0 -1 4l-1 2v-84h-14v100h10q6 0 10 -4l48 -67q2 -2 2 -3.5t1 -3.5v78h14v-100zM1093 78q-2 -1 -8 -3l30 -39h-6q-8 0 -11 5l-25 34h-16v-39h-10v91h32q12 0 19 -8.5t7 -17.5q0 -8 -3.5 -13.5t-8.5 -9.5z
M1602 84q-5 -7 -14 -9l29 -39h-6q-8 0 -10 5l-25 34h-17v-39h-10v91h32q12 0 19.5 -8t7.5 -18q0 -11 -6 -17zM1822 125q4 2 5 2h8v-91h-10v75l-1 -2v-1v-1l-9 -20q-4 -10 -8.5 -18.5t-6.5 -16.5l-8 -16h-10q-5 8 -8.5 17t-7.5 18l-16 36v1q0 1 -0.5 1t-0.5 1v-74h-10v91h8
q2 0 5 -2t3 -4l31 -70v-2q0 -1 1 -1q0 1 0.5 2t0.5 2l31 69q1 2 3 4zM483 250h-48v-29h39v-14h-39v-30h48v-13h-62v100h62v-14zM1341 250l-48 1v-30h39v-14h-39v-30h48v-13h-62v100h62v-14zM1182 203q0 -12 -4.5 -19.5t-11 -12.5t-13.5 -7t-11 -2q-20 0 -30 13.5t-10 27.5
v61h13v-61q0 -11 8 -19t19 -8q10 0 18 7.5t8 19.5v61h14v-61zM1352 36h-10v91h7q5 0 8 -4l47 -66q2 -2 2 -5v75h10v-91h-9l-54 75q-1 0 -0.5 1.5t-0.5 2.5v-79zM648 181q-11 -18 -32 -18q-8 0 -19 4.5t-11 12.5q-1 0 -1 2l3 1q2 2 6 2t7 -3l2 -1q3 -5 13 -5q5 0 12.5 4
t7.5 13t-6 11.5t-14 5.5l-10 5q-17 7 -17 24q0 16 11 21t19 5q4 0 8.5 -1.5t6.5 -3.5l7 -5q2 -2 3 -2.5t2 -2.5l-4 -2q-3 -3 -7 -3q-5 0 -8 3t-8 3q-4 0 -6 -1l-6 -2q-4 -3 -4 -9q0 -5 1.5 -7.5t7.5 -4.5l9 -3q2 -1 4.5 -2t5.5 -2l4 -2q8 -3 11.5 -10t3.5 -15q0 -4 -2 -12z
M1259 181q-10 -18 -31 -18q-11 0 -17 4t-12 10l-3 5l4 1q2 2 5 2q5 0 8 -3l1 -1q5 -5 14 -5q8 0 14 5t6 12q0 6 -6 12l-14 5l-10 5q-18 7 -18 24q0 14 10.5 20t20.5 6q8 0 15 -5l7 -5l5 -5l-4 -2q-3 -3 -7 -3q-5 0 -9 3t-7 3q-5 0 -7 -1l-5 -2q-5 -3 -5 -9q0 -7 10 -12l8 -3
q4 -2 5 -2l10 -4q8 -3 11.5 -10t3.5 -15q0 -6 -3 -12zM265 58q-4 4 -5.5 10.5t-1.5 12.5q0 20 14 33.5t33 13.5q9 0 18 -3.5t15 -10.5l-2 -2q-2 -2 -4 -2h-2q-6 0 -11.5 3.5t-13.5 3.5q-15 0 -26 -10.5t-11 -25.5q0 -17 12 -26.5t25 -9.5q12 0 23 6v19h-7q-4 0 -6.5 3
t-2.5 6v1h26v-35q-7 -8 -24 -10h-9q-15 0 -25 6.5t-15 16.5zM1729 215q-4 -4 -3 -4l-1 -2v-3v-42h-14v45q-1 1 -1 2l-3 4l-36 49h10q8 0 12 -7l24 -32l1 -1v-2v1q0 2 1 2l24 32q3 7 12 7h10zM980 116v-29h37v-10h-37v-31h45v-10h-55v91h55v-11h-45zM371 116v-29h36v-10h-36
v-31h45v-10h-56v91l56 -1v-10h-45zM635 127v-56q0 -11 7.5 -18.5t18.5 -7.5q10 0 18.5 7t8.5 19v56h10v-56q0 -19 -12.5 -27.5t-24.5 -8.5q-15 0 -25.5 10t-10.5 26v56h10zM913 36l-40 91h6q2 0 4.5 -1.5t3.5 -4.5l30 -68q0 -2 0.5 -3t0.5 -2v2q0 1 0.5 1.5t0.5 1.5l30 68
q2 6 8 6h5l-39 -91h-10zM1045 164h-57v100h13v-87h44v-13zM1163 49q6 4 6 12q0 11 -12 16l-7 2q-7 2 -15.5 6.5t-8.5 18.5q0 9 7.5 16.5t18.5 7.5q2 0 4 -0.5t4 -0.5l6 -3q2 -2 3 -2.5t2 -1.5l5 -4l-3 -2q-1 -2 -5 -2q-3 0 -5 1l-5 3q-2 0 -3 0.5t-3 0.5q-16 0 -16 -13
q0 -8 9 -12l9 -3q2 -2 6 -3t7 -3l4 -2q9 -9 9 -20q0 -14 -10 -20t-21 -6q-10 0 -18.5 5.5t-8.5 10.5l2 1q1 1 4 1q5 0 10 -4t11 -4q9 0 14 4zM563 116v-31h38v-10h-38v-39h-11v91h56v-11h-45zM1493 116v-31h38v-10h-38v-39h-10v91h55v-11h-45zM456 36v80h-29v11h68v-11h-29
v-80h-10zM727 127v-81h41v-10h-51v91h10zM789 127v-81h41v-10h-51v91h10zM392 245q-7 5 -13 5h-22v-36h22q8 0 13 5.5t5 12.5q0 8 -5 13zM1588 86q5 2 7 6t2 9q0 6 -4 10.5t-12 4.5h-22v-31h22q5 0 7 1zM1079 85q5 0 10.5 4t5.5 12q0 6 -5 10.5t-11 4.5h-22v-31h22zM554 228
q1 2 1 6q0 6 -4 11t-11 5h-22v-31h22q4 0 6 1l5 3zM662 -86l-18 43q-2 3 -2 5t-1 4q0 -1 -2 -9l-18 -43h41zM1210 127v-91h-10v91h10zM927 244l-19 -44h39l-19 42q0 1 -0.5 2t-0.5 3v-3zM1363 -117q4 -4 4 -11q0 -15 -16 -15q-5 0 -10 3.5t-5 11.5q0 6 4 11t11 5t12 -5z
M1363 1053q0 -55 -14 -87t-38 -49t-55.5 -23t-65.5 -9q-32 0 -71 1.5t-76 1.5q-65 0 -109 -10t-72 -28.5t-40 -44.5t-12 -57q0 -60 7 -89.5t15.5 -45t15.5 -27t7 -35.5t-6 -47t-17 -42q12 -6 23 -17t20 -23.5t14 -24.5t5 -21q0 -16 -10 -16q-5 0 -9.5 4.5l-10.5 10.5
t-12.5 10.5t-13.5 4.5q-14 0 -30.5 -7t-30.5 -7q-19 0 -35.5 5.5t-28.5 14.5q-17 -4 -33 -9t-33 -11q3 -12 5.5 -24t2.5 -22q0 -14 -5 -22.5t-13 -8.5q-6 0 -9 7.5t-6.5 16t-9.5 16t-18 7.5q-19 0 -39.5 -15t-37.5 -30q-44 -56 -78.5 -126.5t-62 -144t-49 -145t-37.5 -128.5
q-11 0 -17 21.5t-6 56.5q0 42 7.5 94.5t18.5 103.5q-8 -4 -17 -6l-18 -4q-8 -31 -13.5 -59.5t-9 -51.5t-5.5 -39.5t-3 -22.5q-2 -12 -5 -27t-7.5 -29t-10 -23.5t-10.5 -9.5t-9 20t-7 55.5t-5.5 84t-5.5 105.5q-48 14 -72 45t-24 74q0 23 7.5 50t24.5 59q0 12 5 31t12 36.5
t15 30t15 12.5t9.5 -8.5t7.5 -13.5q11 18 35.5 52t58.5 74t77.5 82t94 76t107 56t116.5 22q43 0 73.5 -8t54.5 -20q-5 23 -16.5 54t-11.5 63q0 49 26.5 83.5t66.5 57t86.5 35t86.5 18.5q76 8 129 8t86.5 5t48.5 20.5t15 55.5v13t-1 13q2 3 8.5 9.5t15.5 6.5q14 0 22 -7
t11.5 -17t4.5 -21.5t1 -19.5zM122 137q0 12 -10 12q-4 0 -6 -4t-2 -9t2 -8.5t6 -3.5q10 0 10 13zM201 71q0 6 -3.5 7.5t-9.5 1.5t-10 -1t-4 -7q0 -5 4 -9.5t10 -5.5q6 0 9.5 4.5t3.5 9.5zM271 141q0 10 -8 10t-8 -9q0 -5 2 -8.5t7 -3.5q3 0 5 3.5t2 7.5zM1685 164h-57v100
h14v-87h43v-13z" />
    <glyph glyph-name="six" unicode="6" 
d="M1493 116v-31h28q22 44 62 90l-48 67q-1 0 -1 4l-1 2v-84h-14v100h10q6 0 10 -4l48 -67q2 -2 2 -3.5t1 -3.5v78h14v-67q3 4 6.5 7t7.5 7l10 9v44h14v-31q8 8 16 14t16 13l-3 4h8q36 28 67 50t54 41t36.5 38t13.5 42t-6 40.5t-16 31.5q-18 -75 -65.5 -113.5t-107.5 -38.5
q-51 0 -100 1.5t-91.5 3t-75.5 3t-51 1.5h-48.5t-55.5 -4t-47.5 -13t-25.5 -27q-2 -9 -3.5 -18.5t-3.5 -18t-6.5 -14t-12.5 -5.5q-11 2 -20 18t-9 40q0 15 5 28t13 27q-34 -11 -65 -17q-9 -19 -12.5 -34.5t-3.5 -26.5q0 -14 6 -25t13 -20t13 -16.5t6 -15.5q0 -5 -5.5 -10
t-13.5 -5q-34 0 -60 29v-59h44v-13h-57v90q-7 13 -11 28t-4 32q0 11 2 22.5t5 24.5q-54 11 -86 43.5t-32 80.5q0 38 19 73t46 61q-5 13 -5 30q0 10 2.5 20.5t6.5 10.5q7 0 15 -11.5t14 -16.5l9 -5q18 7 38 9.5t40 2.5q14 0 29 -1.5t27 -4.5t20 -6t8 -6q8 5 19.5 9.5
t22.5 4.5q6 0 6 -4q0 -12 -8.5 -26t-8.5 -24q0 1 0 -2.5t2.5 -8t9 -8.5t19.5 -4q10 0 24 5t33 17.5t43.5 35t54.5 58.5q44 51 101 73t117 22q43 0 84.5 -10.5t76.5 -29.5t60.5 -45t36.5 -56q8 -20 10 -40t2 -40q11 -11 21.5 -28.5t19 -36.5t13.5 -38t5 -33q0 -36 -14 -70.5
t-34 -65.5t-42 -56.5t-38 -44.5q-17 -20 -33 -39.5t-31 -38.5l2 -2q15 -12 15 -34q0 -19 -14 -33q-13 -13 -33 -13q-13 0 -23 5q-8 -12 -15 -24.5t-13 -23.5l3 -2q16 -11 24 -25q4 -8 6.5 -16.5t2.5 -19.5q0 -6 -3 -18t-11 -24t-22 -21q-10 -6 -24 -8q6 -13 15.5 -24t18 -22
t15 -22.5t6.5 -23.5t-12.5 -18.5t-27.5 -6.5q-21 0 -41.5 9.5t-38.5 26t-31 39.5t-19 50q-2 -2 -5 -3q-14 -6 -29 -6q-33 0 -52.5 22.5t-19.5 49.5t19.5 49.5t52.5 22.5q14 0 29 -6q5 -2 9 -5q5 20 11.5 41t17.5 44h-23v-39h-10v91h55v-11h-45zM955 -35q4 -8 6.5 -16.5
t2.5 -19.5q0 -32 -21.5 -52t-50.5 -20q-17 0 -30.5 6.5t-22.5 17t-14 23t-5 25.5q0 18 6.5 31.5t17 22.5t23.5 13.5t25 4.5q23 0 39 -11t24 -25zM1804 -1q2 0 2.5 0.5t2.5 0.5h26v-142h-26v104q-1 -2 -1 -3.5t-1 -3.5q-10 -25 -19 -49t-20 -48h-24l-37 90q-2 4 -2 7l-2 6
v-103h-26v142h25q9 0 15 -7l3 -4q4 -11 8 -21.5t9 -21.5l17 -43q1 -1 2 -7l1 2q1 3 1 5l5 10l29 76q4 7 12 10zM1083 0h26v-142h-24l-68 95l-2 3l-2 4q-2 2 -2 3l-2 3v-108h-26v142h23q11 0 21.5 -16t21.5 -32l30 -41q4 -8 4 -11v100zM653 0l62 -142h-16q-10 0 -17 11l-8 19
h-65l-8 -19q-2 -4 -6.5 -7.5t-10.5 -3.5h-16l62 142h23zM1499 200q-5 -11 -15 -24t-35 -13q-20 0 -35.5 13.5t-15.5 36.5q0 17 12.5 34.5t38.5 17.5q20 0 35.5 -14t15.5 -38q0 -8 -1 -13zM762 200q-5 -13 -15.5 -25t-33.5 -12q-20 0 -36 14t-16 36q0 21 15.5 36.5t36.5 15.5
q22 0 36.5 -15.5t14.5 -36.5q0 -3 -0.5 -6t-1.5 -7zM384 0h91v-25h-65v-33h53v-25h-53v-34h65v-25h-91v142zM262 0h105v-12q0 -5 -1 -7l-3 -6l-70 -94q1 0 2 1t4 1h67v-25h-108v8q0 8 3 13l3 6q3 3 4 5l62 85h-68v25zM1319 -73q9 -8 9 -25q0 -22 -16.5 -33.5t-33.5 -11.5
q-20 0 -31 10.5t-16 20.5q2 1 3.5 2t3.5 2l4 1q2 0 2.5 0.5t2.5 0.5q10 0 15.5 -5.5t15.5 -5.5q5 0 8 1l8 3q9 7 9 15q0 7 -9 12q-8 5 -17.5 8t-18 7.5t-14.5 12t-6 20.5q0 21 15 30t29 9q10 0 21 -6t19 -17l-5 -4q-8 -5 -15 -5h-3q-4 1 -8 3.5t-9 2.5q-18 0 -18 -13
q0 -6 4 -8.5t9 -4.5l17 -6q17 -5 25 -16zM1245 48q-6 7 -10 15.5t-4 17.5q0 21 15 34t32 13q20 0 33.5 -14.5t13.5 -32.5q0 -23 -15 -34.5t-32 -11.5q-20 0 -33 13zM935 -89q2 5 3 9t1 9q0 20 -14 33t-33 13q-17 0 -31.5 -12.5t-14.5 -33.5q0 -20 14 -33t32 -13q30 0 43 28z
M721 0h90v-25h-65v-36h55v-25h-55v-56h-25v142zM1416 -38q-6 -7 -10 -15.5t-4 -17.5q0 -19 14 -32.5t33 -13.5q13 0 19 6q5 4 11 5v10q0 14 1 29t3 31q-7 1 -15 6t-19 5q-9 0 -17.5 -4t-15.5 -9zM1121 0h109v-25h-42v-117h-26v117h-41v25zM589 -25h-41v-117h-26v117h-42v25
h109v-25zM571 164q-10 0 -12 6l-26 35h-15v-41h-14v100h36q12 0 20.5 -8.5t8.5 -21.5q0 -20 -20 -27l31 -43h-9zM1476 240q-11 11 -27 11q-14 0 -25.5 -10.5t-11.5 -27.5q0 -11 9 -24t28 -13q15 0 26.5 11t11.5 26q0 18 -11 27zM739 240q-9 11 -26 11q-14 0 -26 -10.5
t-12 -27.5q0 -11 9 -24t29 -13q14 0 25.5 10.5t11.5 26.5t-11 27zM970 164q-7 0 -10 6l-7 16h-51l-7 -16q-3 -6 -10 -6h-8l44 100h13l44 -100h-8zM408 220q-3 -8 -10.5 -13.5t-18.5 -5.5h-22v-37h-13v100h35q14 0 23 -10t9 -22q0 -6 -3 -12zM1245 95q-3 -6 -3 -14
q0 -15 10.5 -25.5t25.5 -10.5q18 0 27 11.5t9 24.5q0 14 -9.5 25t-26.5 11q-10 0 -19 -5t-14 -17zM867 164h-11l-57 78q-1 1 -2 4v-82h-14v100h10q7 0 10 -4l48 -67l2 -6v77h14v-100zM1822 125q4 2 5 2h8v-91h-10v75l-1 -2v-2l-9 -20q-4 -10 -8.5 -18.5t-6.5 -16.5l-8 -16
h-10q-5 8 -8.5 17t-7.5 18l-16 36v1l-1 2v-74h-10v91h8q2 0 5 -2t3 -4l31 -70v-2l1 -1q0 1 0.5 2t0.5 2l31 69q1 2 3 4zM1093 78q-2 -1 -8 -3l30 -39h-6q-8 0 -11 5l-25 34h-16v-39h-10v91h32q12 0 19 -8.5t7 -17.5q0 -8 -3.5 -13.5t-8.5 -9.5zM483 250h-48v-29h39v-14h-39
v-30h48v-13h-62v100h62v-14zM1341 250l-48 1v-30h39v-14h-39v-30h48v-13h-62v100h62v-14zM1182 203q0 -12 -4.5 -19.5t-11 -12.5t-13.5 -7t-11 -2q-20 0 -30 13.5t-10 27.5v61h13v-61q0 -11 8 -19t19 -8q10 0 18 7.5t8 19.5v61h14v-61zM648 181q-11 -18 -32 -18
q-8 0 -19 4.5t-11 12.5q-1 0 -1 2l3 1q2 2 6 2t7 -3l2 -1q3 -5 13 -5q5 0 12.5 4t7.5 13t-6 11.5t-14 5.5l-10 5q-17 7 -17 24q0 16 11 21t19 5q4 0 8.5 -1.5t6.5 -3.5l7 -5q2 -2 3 -2.5t2 -2.5l-4 -2q-3 -3 -7 -3q-5 0 -8 3t-8 3q-4 0 -6 -1l-6 -2q-4 -3 -4 -9
q0 -5 1.5 -7.5t7.5 -4.5l9 -3q2 -1 4.5 -2t5.5 -2l4 -2q8 -3 11.5 -10t3.5 -15q0 -4 -2 -12zM1259 181q-10 -18 -31 -18q-11 0 -17 4t-12 10l-3 5l4 1q2 2 5 2q5 0 8 -3l1 -1q5 -5 14 -5q8 0 14 5t6 12q0 6 -6 12l-14 5l-10 5q-18 7 -18 24q0 14 10.5 20t20.5 6q8 0 15 -5
l7 -5l5 -5l-4 -2q-3 -3 -7 -3q-5 0 -9 3t-7 3q-5 0 -7 -1l-5 -2q-5 -3 -5 -9q0 -7 10 -12l8 -3q4 -2 5 -2l10 -4q8 -3 11.5 -10t3.5 -15q0 -6 -3 -12zM1352 36h-10v91h7q5 0 8 -4l47 -66q2 -2 2 -5v75h10v-91h-9l-54 75l-1 1q1 2 0 3v-79zM265 58q-4 4 -5.5 10.5t-1.5 12.5
q0 20 14 33.5t33 13.5q9 0 18 -3.5t15 -10.5l-2 -2q-2 -2 -4 -2h-2q-6 0 -11.5 3.5t-13.5 3.5q-15 0 -26 -10.5t-11 -25.5q0 -17 12 -26.5t25 -9.5q12 0 23 6v19h-7q-4 0 -6.5 3t-2.5 6v1h26v-35q-7 -8 -24 -10h-9q-15 0 -25 6.5t-15 16.5zM1629 -89q2 5 3 9t1 9
q0 21 -15 34q-4 3 -8 5q-19 -46 -19 -81v-4q12 1 21 8q10 7 17 20zM371 116v-29h36v-10h-36v-31h45v-10h-56v91l56 -1v-10h-45zM980 116v-29h37v-10h-37v-31h45v-10h-55v91h55v-11h-45zM635 127v-56q0 -11 7.5 -18.5t18.5 -7.5q10 0 18.5 7t8.5 19v56h10v-56
q0 -19 -12.5 -27.5t-24.5 -8.5q-15 0 -25.5 10t-10.5 26v56h10zM1163 49q6 4 6 12q0 11 -12 16l-7 2q-7 2 -15.5 6.5t-8.5 18.5q0 9 7.5 16.5t18.5 7.5q2 0 4 -0.5t4 -0.5l6 -3q2 -2 3 -2.5t2 -1.5l5 -4l-3 -2q-1 -2 -5 -2q-3 0 -5 1l-5 3q-2 0 -3 0.5t-3 0.5q-16 0 -16 -13
q0 -8 9 -12l9 -3q2 -2 6 -3t7 -3l4 -2q9 -9 9 -20q0 -14 -10 -20t-21 -6q-10 0 -18.5 5.5t-8.5 10.5l2 1q1 1 4 1q5 0 10 -4t11 -4q9 0 14 4zM913 36l-40 91h6q2 0 4.5 -1.5t3.5 -4.5l30 -68q0 -2 0.5 -3t0.5 -2v2l1 3l30 68q2 6 8 6h5l-39 -91h-10zM563 116v-31h38v-10h-38
v-39h-11v91h56v-11h-45zM1673 45q17 0 26.5 11t9.5 25q0 18 -12 27q-23 -28 -42 -59q7 -4 18 -4zM456 36v80h-29v11h68v-11h-29v-80h-10zM727 127v-81h41v-10h-51v91h10zM789 127v-81h41v-10h-51v91h10zM392 245q-7 5 -13 5h-22v-36h22q8 0 13 5.5t5 12.5q0 8 -5 13z
M1079 85q5 0 10.5 4t5.5 12q0 6 -5 10.5t-11 4.5h-22v-31h22zM554 228q1 2 1 6q0 6 -4 11t-11 5h-22v-31h22q4 0 6 1l5 3zM662 -86l-18 43q-2 3 -2 5t-1 4q0 -1 -2 -9l-18 -43h41zM1210 127v-91h-10v91h10zM927 244l-19 -44h39l-19 42q0 1 -1 2zM1363 -117q4 -4 4 -11
q0 -15 -16 -15q-5 0 -10 3.5t-5 11.5q0 6 4 11t11 5t12 -5zM1021 472q0 7 -13 7q-6 0 -10 -1t-5 -6q0 -5 4.5 -9.5t9.5 -5.5q5 0 9.5 5t4.5 10zM1109 512q0 8 -10 8q-9 -3 -9 -11q1 -8 9 -8q5 0 7.5 3.5t2.5 7.5zM946 510q-2 8 -9 8q-7 -2 -7 -8q0 -9 7 -9q4 0 6.5 3.5
t2.5 5.5z" />
    <glyph glyph-name="seven" unicode="7" 
d="M1649 -35q4 -8 6.5 -16.5t2.5 -19.5q0 -6 -3 -18t-11 -24t-22 -21t-36 -9q-17 0 -30 6.5t-22.5 16.5t-14.5 23t-5 26q0 33 22.5 52.5t49.5 19.5q23 0 39 -11t24 -25zM955 -35q4 -8 6.5 -16.5t2.5 -19.5q0 -32 -21.5 -52t-50.5 -20q-17 0 -30.5 6.5t-22.5 17t-14 23
t-5 25.5q0 18 6.5 31.5t17 22.5t23.5 13.5t25 4.5q23 0 39 -11t24 -25zM1804 -1q2 0 2.5 0.5t2.5 0.5h26v-142h-26v104q-1 -2 -1 -3.5t-1 -3.5q-10 -25 -19 -49t-20 -48h-24l-37 90q-2 4 -2 7l-2 6v-103h-26v142h25q9 0 15 -7l3 -4q4 -11 8 -21.5t9 -21.5l17 -43q2 -2 2 -9
v-1q0 2 1 5t1 5l5 10l29 76q4 7 12 10zM1083 0h26v-142h-24l-68 95q-1 1 -1 1.5t-1 1.5l-2 4q-2 2 -2 3l-2 3v-108h-26v142h23q11 0 21.5 -16t21.5 -32l30 -41q4 -8 4 -11v100zM653 0l62 -142h-16q-10 0 -17 11l-8 19h-65l-8 -19q-2 -4 -6.5 -7.5t-10.5 -3.5h-16l62 142h23z
M1499 200q-5 -11 -15 -24t-35 -13q-20 0 -35.5 13.5t-15.5 36.5q0 17 12.5 34.5t38.5 17.5q20 0 35.5 -14t15.5 -38q0 -8 -1 -13zM262 0h105v-12q0 -5 -1 -7l-3 -6l-70 -94q1 0 2 1t4 1h67v-25h-108v8q0 8 3 13l3 6q3 3 4 5l62 85h-68v25zM762 200q-5 -13 -15.5 -25
t-33.5 -12q-20 0 -36 14t-16 36q0 21 15.5 36.5t36.5 15.5q22 0 36.5 -15.5t14.5 -36.5q0 -3 -0.5 -6t-1.5 -7zM384 0h91v-25h-65v-33h53v-25h-53v-34h65v-25h-91v142zM1416 -38q-6 -7 -10 -15.5t-4 -17.5q0 -19 14 -32.5t33 -13.5q13 0 19.5 5.5t16.5 5.5q8 0 14 -6l5 -5
q-11 -14 -25.5 -20t-29.5 -6q-33 0 -52.5 22.5t-19.5 49.5t19.5 49.5t52.5 22.5q14 0 29 -6.5t26 -19.5l-5 -6q-5 -5 -14 -5q-8 0 -16.5 5.5t-19.5 5.5q-9 0 -17.5 -4t-15.5 -9zM1319 -73q9 -8 9 -25q0 -22 -16.5 -33.5t-33.5 -11.5q-20 0 -31 10.5t-16 20.5q2 1 3.5 2
t3.5 2l4 1q2 0 2.5 0.5t2.5 0.5q10 0 15.5 -5.5t15.5 -5.5q5 0 8 1l8 3q9 7 9 15q0 7 -9 12q-8 5 -17.5 8t-18 7.5t-14.5 12t-6 20.5q0 21 15 30t29 9q10 0 21 -6t19 -17l-5 -4q-8 -5 -15 -5h-3q-4 1 -8 3.5t-9 2.5q-18 0 -18 -13q0 -6 4 -8.5t9 -4.5l17 -6q17 -5 25 -16z
M1245 48q-6 7 -10 15.5t-4 17.5q0 21 15 34t32 13q20 0 33.5 -14.5t13.5 -32.5q0 -23 -15 -34.5t-32 -11.5q-20 0 -33 13zM1706 48q-13 -13 -33 -13q-19 0 -33 13t-14 33q0 14 12 30.5t35 16.5q17 0 32 -12.5t15 -34.5q0 -19 -14 -33zM1629 -89q2 5 3 9t1 9q0 21 -15 33.5
t-32 12.5t-31.5 -13t-14.5 -33t14 -33t32 -13q16 0 26 7.5t17 20.5zM935 -89q2 5 3 9t1 9q0 20 -14 33t-33 13q-17 0 -31.5 -12.5t-14.5 -33.5q0 -20 14 -33t32 -13q30 0 43 28zM721 0h90v-25h-65v-36h55v-25h-55v-56h-25v142zM1121 0h109v-25h-42v-117h-26v117h-41v25z
M589 -25h-41v-117h-26v117h-42v25h109v-25zM571 164q-10 0 -12 6l-26 35h-15v-41h-14v100h36q12 0 20.5 -8.5t8.5 -21.5q0 -20 -20 -27l31 -43h-9zM1476 240q-11 11 -27 11q-14 0 -25.5 -10.5t-11.5 -27.5q0 -11 9 -24t28 -13q15 0 26.5 11t11.5 26q0 18 -11 27zM739 240
q-9 11 -26 11q-14 0 -26 -10.5t-12 -27.5q0 -11 9 -24t29 -13q14 0 25.5 10.5t11.5 26.5t-11 27zM970 164q-7 0 -10 6l-7 16h-51l-7 -16q-3 -6 -10 -6h-8l44 100h13l44 -100h-8zM408 220q-3 -8 -10.5 -13.5t-18.5 -5.5h-22v-37h-13v100h35q14 0 23 -10t9 -22q0 -6 -3 -12z
M1673 45q17 0 26.5 11t9.5 25q0 18 -11.5 27t-24.5 9q-14 0 -25 -10t-11 -26q0 -11 9 -23.5t27 -12.5zM1245 95q-3 -6 -3 -14q0 -15 10.5 -25.5t25.5 -10.5q18 0 27 11.5t9 24.5q0 14 -9.5 25t-26.5 11q-10 0 -19 -5t-14 -17zM867 164h-11l-57 78q-1 1 -2 4v-82h-14v100h10
q7 0 10 -4l48 -67q2 -4 2 -7v78h14v-100zM1604 164h-12l-57 78q-1 0 -1 4l-1 2v-84h-14v100h10q6 0 10 -4l48 -67q2 -2 2 -3.5t1 -3.5v78h14v-100zM1093 78q-2 -1 -8 -3l30 -39h-6q-8 0 -11 5l-25 34h-16v-39h-10v91h32q12 0 19 -8.5t7 -17.5q0 -8 -3.5 -13.5t-8.5 -9.5z
M1602 84q-5 -7 -14 -9l29 -39h-6q-8 0 -10 5l-25 34h-17v-39h-10v91h32q12 0 19.5 -8t7.5 -18q0 -11 -6 -17zM1822 125q4 2 5 2h8v-91h-10v75l-1 -2v-1v-1l-9 -20q-4 -10 -8.5 -18.5t-6.5 -16.5l-8 -16h-10q-5 8 -8.5 17t-7.5 18l-16 36v1q0 1 -0.5 1t-0.5 1v-74h-10v91h8
q2 0 5 -2t3 -4l31 -70v-2q0 -1 1 -1q0 1 0.5 2t0.5 2l31 69q1 2 3 4zM483 250h-48v-29h39v-14h-39v-30h48v-13h-62v100h62v-14zM1341 250l-48 1v-30h39v-14h-39v-30h48v-13h-62v100h62v-14zM1182 203q0 -12 -4.5 -19.5t-11 -12.5t-13.5 -7t-11 -2q-20 0 -30 13.5t-10 27.5
v61h13v-61q0 -11 8 -19t19 -8q10 0 18 7.5t8 19.5v61h14v-61zM1352 36h-10v91h7q5 0 8 -4l47 -66q2 -2 2 -5v75h10v-91h-9l-54 75q-1 0 -0.5 1.5t-0.5 2.5v-79zM648 181q-11 -18 -32 -18q-8 0 -19 4.5t-11 12.5q-1 0 -1 2l3 1q2 2 6 2t7 -3l2 -1q3 -5 13 -5q5 0 12.5 4
t7.5 13t-6 11.5t-14 5.5l-10 5q-17 7 -17 24q0 16 11 21t19 5q4 0 8.5 -1.5t6.5 -3.5l7 -5q2 -2 3 -2.5t2 -2.5l-4 -2q-3 -3 -7 -3q-5 0 -8 3t-8 3q-4 0 -6 -1l-6 -2q-4 -3 -4 -9q0 -5 1.5 -7.5t7.5 -4.5l9 -3q2 -1 4.5 -2t5.5 -2l4 -2q8 -3 11.5 -10t3.5 -15q0 -4 -2 -12z
M1259 181q-10 -18 -31 -18q-11 0 -17 4t-12 10l-3 5l4 1q2 2 5 2q5 0 8 -3l1 -1q5 -5 14 -5q8 0 14 5t6 12q0 6 -6 12l-14 5l-10 5q-18 7 -18 24q0 14 10.5 20t20.5 6q8 0 15 -5l7 -5l5 -5l-4 -2q-3 -3 -7 -3q-5 0 -9 3t-7 3q-5 0 -7 -1l-5 -2q-5 -3 -5 -9q0 -7 10 -12l8 -3
q4 -2 5 -2l10 -4q8 -3 11.5 -10t3.5 -15q0 -6 -3 -12zM265 58q-4 4 -5.5 10.5t-1.5 12.5q0 20 14 33.5t33 13.5q9 0 18 -3.5t15 -10.5l-2 -2q-2 -2 -4 -2h-2q-6 0 -11.5 3.5t-13.5 3.5q-15 0 -26 -10.5t-11 -25.5q0 -17 12 -26.5t25 -9.5q12 0 23 6v19h-7q-4 0 -6.5 3
t-2.5 6v1h26v-35q-7 -8 -24 -10h-9q-15 0 -25 6.5t-15 16.5zM1729 215q-4 -4 -3 -4l-1 -2v-3v-42h-14v45q-1 1 -1 2l-3 4l-36 49h10q8 0 12 -7l24 -32l1 -1v-2v1q0 2 1 2l24 32q3 7 12 7h10zM980 116v-29h37v-10h-37v-31h45v-10h-55v91h55v-11h-45zM371 116v-29h36v-10h-36
v-31h45v-10h-56v91l56 -1v-10h-45zM635 127v-56q0 -11 7.5 -18.5t18.5 -7.5q10 0 18.5 7t8.5 19v56h10v-56q0 -19 -12.5 -27.5t-24.5 -8.5q-15 0 -25.5 10t-10.5 26v56h10zM913 36l-40 91h6q2 0 4.5 -1.5t3.5 -4.5l30 -68q0 -2 0.5 -3t0.5 -2v2q0 1 0.5 1.5t0.5 1.5l30 68
q2 6 8 6h5l-39 -91h-10zM1045 164h-57v100h13v-87h44v-13zM1163 49q6 4 6 12q0 11 -12 16l-7 2q-7 2 -15.5 6.5t-8.5 18.5q0 9 7.5 16.5t18.5 7.5q2 0 4 -0.5t4 -0.5l6 -3q2 -2 3 -2.5t2 -1.5l5 -4l-3 -2q-1 -2 -5 -2q-3 0 -5 1l-5 3q-2 0 -3 0.5t-3 0.5q-16 0 -16 -13
q0 -8 9 -12l9 -3q2 -2 6 -3t7 -3l4 -2q9 -9 9 -20q0 -14 -10 -20t-21 -6q-10 0 -18.5 5.5t-8.5 10.5l2 1q1 1 4 1q5 0 10 -4t11 -4q9 0 14 4zM563 116v-31h38v-10h-38v-39h-11v91h56v-11h-45zM1493 116v-31h38v-10h-38v-39h-10v91h55v-11h-45zM456 36v80h-29v11h68v-11h-29
v-80h-10zM727 127v-81h41v-10h-51v91h10zM789 127v-81h41v-10h-51v91h10zM392 245q-7 5 -13 5h-22v-36h22q8 0 13 5.5t5 12.5q0 8 -5 13zM1588 86q5 2 7 6t2 9q0 6 -4 10.5t-12 4.5h-22v-31h22q5 0 7 1zM1079 85q5 0 10.5 4t5.5 12q0 6 -5 10.5t-11 4.5h-22v-31h22zM554 228
q1 2 1 6q0 6 -4 11t-11 5h-22v-31h22q4 0 6 1l5 3zM662 -86l-18 43q-2 3 -2 5t-1 4q0 -1 -2 -9l-18 -43h41zM1210 127v-91h-10v91h10zM927 244l-19 -44h39l-19 42q0 1 -0.5 2t-0.5 3v-3zM1363 -117q4 -4 4 -11q0 -15 -16 -15q-5 0 -10 3.5t-5 11.5q0 6 4 11t11 5t12 -5z
M1629 722q9 -2 9 -8t-4.5 -13.5t-10 -14t-10 -12t-5.5 -6.5q0 -6 1 -11.5t1 -11.5q0 -28 -11.5 -52t-31.5 -41.5t-47 -27.5t-58 -10q-13 0 -27 1t-27 8q29 -23 48 -52t30 -55.5t15.5 -45t4.5 -19.5q0 -8 -8 -8q-1 0 -5.5 -0.5t-9.5 -1t-10 0t-6 2.5q-14 15 -27 20t-30 6
t-39.5 2t-53.5 7q-12 2 -27 12.5t-24 17.5q-7 -11 -5.5 -25t4.5 -28.5t4 -26.5t-6 -18h-52q-23 0 -39.5 8.5t-28.5 22.5t-20 31.5t-14 35.5q-33 -5 -65 -9.5t-64 -4.5q-5 0 -11 1t-11 1q-2 -4 -2.5 -7t-0.5 -6q0 -11 11 -20.5t21.5 -18t15.5 -16t-6 -14.5
q-74 -5 -122.5 20.5t-74.5 67.5q-47 -17 -47 -34q0 -4 2 -7q17 -17 25.5 -29.5t-5.5 -17.5q-16 -5 -37 -6.5t-40 6.5q-23 13 -40.5 42t-31 65.5t-22 78t-14 79t-8 67.5t-2.5 45q-19 11 -41.5 27t-41.5 38t-32 49.5t-13 61.5q0 68 31 115t76.5 76.5t97 42.5t91.5 13
q55 0 91.5 -8.5t58.5 -22.5t31 -32t9 -37q0 -27 -15.5 -49.5t-50.5 -22.5q-21 0 -46 8t-49.5 17.5t-45.5 17.5t-33 8q-15 0 -40.5 -10t-50 -29t-42.5 -47t-18 -64q0 -25 10.5 -50.5t33.5 -48.5q9 18 27 44t43.5 49.5t58.5 40.5t72 17q29 0 61.5 -11t69.5 -37q54 -39 97 -68
t77.5 -48t62.5 -28t54 -9q24 0 42 7.5t36.5 19.5t42 26.5t59.5 27.5q1 3 8 16.5t17 28.5t21.5 26.5t21.5 11.5q7 0 13 -8.5t10.5 -21t7.5 -26.5t5 -25q26 -7 48 -22t39 -35q5 1 13 2.5t16 1.5q4 0 8 -1.5t7 -1.5zM1575 641q0 -3 2 -6t4 -3q11 0 11 16q0 4 -3 6.5t-6 2.5
q-2 0 -5 -3t-3 -9v-4zM1473 687q0 -10 9 -10q12 0 12 10q0 6 -3 10t-6 4q-12 0 -12 -9v-5zM1550 593q0 -4 1 -8.5t3 -6.5q3 0 9.5 3t6.5 8t-6.5 8t-9.5 3q-4 0 -4 -3v-4zM1685 164h-57v100h14v-87h43v-13z" />
    <glyph glyph-name="eight" unicode="8" 
d="M1649 -35q4 -8 6.5 -16.5t2.5 -19.5q0 -6 -3 -18t-11 -24t-22 -21t-36 -9q-17 0 -30 6.5t-22.5 16.5t-14.5 23t-5 26q0 33 22.5 52.5t49.5 19.5q23 0 39 -11t24 -25zM955 -35q4 -8 6.5 -16.5t2.5 -19.5q0 -32 -21.5 -52t-50.5 -20q-17 0 -30.5 6.5t-22.5 17t-14 23
t-5 25.5q0 18 6.5 31.5t17 22.5t23.5 13.5t25 4.5q23 0 39 -11t24 -25zM1804 -1q2 0 2.5 0.5t2.5 0.5h26v-142h-26v104q-1 -2 -1 -3.5t-1 -3.5q-10 -25 -19 -49t-20 -48h-24l-37 90q-2 4 -2 7l-2 6v-103h-26v142h25q9 0 15 -7l3 -4q4 -11 8 -21.5t9 -21.5l17 -43q2 -2 2 -9
v-1q0 2 1 5t1 5l5 10l29 76q4 7 12 10zM1083 0h26v-142h-24l-68 95q-1 1 -1 1.5t-1 1.5l-2 4q-2 2 -2 3l-2 3v-108h-26v142h23q11 0 21.5 -16t21.5 -32l30 -41q4 -8 4 -11v100zM653 0l62 -142h-16q-10 0 -17 11l-8 19h-65l-8 -19q-2 -4 -6.5 -7.5t-10.5 -3.5h-16l62 142h23z
M1499 200q-5 -11 -15 -24t-35 -13q-20 0 -35.5 13.5t-15.5 36.5q0 17 12.5 34.5t38.5 17.5q20 0 35.5 -14t15.5 -38q0 -8 -1 -13zM262 0h105v-12q0 -5 -1 -7l-3 -6l-70 -94q1 0 2 1t4 1h67v-25h-108v8q0 8 3 13l3 6q3 3 4 5l62 85h-68v25zM762 200q-5 -13 -15.5 -25
t-33.5 -12q-20 0 -36 14t-16 36q0 21 15.5 36.5t36.5 15.5q22 0 36.5 -15.5t14.5 -36.5q0 -3 -0.5 -6t-1.5 -7zM384 0h91v-25h-65v-33h53v-25h-53v-34h65v-25h-91v142zM1416 -38q-6 -7 -10 -15.5t-4 -17.5q0 -19 14 -32.5t33 -13.5q13 0 19.5 5.5t16.5 5.5q8 0 14 -6l5 -5
q-11 -14 -25.5 -20t-29.5 -6q-33 0 -52.5 22.5t-19.5 49.5t19.5 49.5t52.5 22.5q14 0 29 -6.5t26 -19.5l-5 -6q-5 -5 -14 -5q-8 0 -16.5 5.5t-19.5 5.5q-9 0 -17.5 -4t-15.5 -9zM1319 -73q9 -8 9 -25q0 -22 -16.5 -33.5t-33.5 -11.5q-20 0 -31 10.5t-16 20.5q2 1 3.5 2
t3.5 2l4 1q2 0 2.5 0.5t2.5 0.5q10 0 15.5 -5.5t15.5 -5.5q5 0 8 1l8 3q9 7 9 15q0 7 -9 12q-8 5 -17.5 8t-18 7.5t-14.5 12t-6 20.5q0 21 15 30t29 9q10 0 21 -6t19 -17l-5 -4q-8 -5 -15 -5h-3q-4 1 -8 3.5t-9 2.5q-18 0 -18 -13q0 -6 4 -8.5t9 -4.5l17 -6q17 -5 25 -16z
M1245 48q-6 7 -10 15.5t-4 17.5q0 21 15 34t32 13q20 0 33.5 -14.5t13.5 -32.5q0 -23 -15 -34.5t-32 -11.5q-20 0 -33 13zM1706 48q-13 -13 -33 -13q-19 0 -33 13t-14 33q0 14 12 30.5t35 16.5q17 0 32 -12.5t15 -34.5q0 -19 -14 -33zM1629 -89q2 5 3 9t1 9q0 21 -15 33.5
t-32 12.5t-31.5 -13t-14.5 -33t14 -33t32 -13q16 0 26 7.5t17 20.5zM935 -89q2 5 3 9t1 9q0 20 -14 33t-33 13q-17 0 -31.5 -12.5t-14.5 -33.5q0 -20 14 -33t32 -13q30 0 43 28zM721 0h90v-25h-65v-36h55v-25h-55v-56h-25v142zM1121 0h109v-25h-42v-117h-26v117h-41v25z
M589 -25h-41v-117h-26v117h-42v25h109v-25zM571 164q-10 0 -12 6l-26 35h-15v-41h-14v100h36q12 0 20.5 -8.5t8.5 -21.5q0 -20 -20 -27l31 -43h-9zM1476 240q-11 11 -27 11q-14 0 -25.5 -10.5t-11.5 -27.5q0 -11 9 -24t28 -13q15 0 26.5 11t11.5 26q0 18 -11 27zM739 240
q-9 11 -26 11q-14 0 -26 -10.5t-12 -27.5q0 -11 9 -24t29 -13q14 0 25.5 10.5t11.5 26.5t-11 27zM970 164q-7 0 -10 6l-7 16h-51l-7 -16q-3 -6 -10 -6h-8l44 100h13l44 -100h-8zM408 220q-3 -8 -10.5 -13.5t-18.5 -5.5h-22v-37h-13v100h35q14 0 23 -10t9 -22q0 -6 -3 -12z
M1673 45q17 0 26.5 11t9.5 25q0 18 -11.5 27t-24.5 9q-14 0 -25 -10t-11 -26q0 -11 9 -23.5t27 -12.5zM1245 95q-3 -6 -3 -14q0 -15 10.5 -25.5t25.5 -10.5q18 0 27 11.5t9 24.5q0 14 -9.5 25t-26.5 11q-10 0 -19 -5t-14 -17zM867 164h-11l-57 78q-1 1 -2 4v-82h-14v100h10
q7 0 10 -4l48 -67q2 -4 2 -7v78h14v-100zM1604 164h-12l-57 78q-1 0 -1 4l-1 2v-84h-14v100h10q6 0 10 -4l48 -67q2 -2 2 -3.5t1 -3.5v78h14v-100zM1093 78q-2 -1 -8 -3l30 -39h-6q-8 0 -11 5l-25 34h-16v-39h-10v91h32q12 0 19 -8.5t7 -17.5q0 -8 -3.5 -13.5t-8.5 -9.5z
M1602 84q-5 -7 -14 -9l29 -39h-6q-8 0 -10 5l-25 34h-17v-39h-10v91h32q12 0 19.5 -8t7.5 -18q0 -11 -6 -17zM1822 125q4 2 5 2h8v-91h-10v75l-1 -2v-1v-1l-9 -20q-4 -10 -8.5 -18.5t-6.5 -16.5l-8 -16h-10q-5 8 -8.5 17t-7.5 18l-16 36v1q0 1 -0.5 1t-0.5 1v-74h-10v91h8
q2 0 5 -2t3 -4l31 -70v-2q0 -1 1 -1q0 1 0.5 2t0.5 2l31 69q1 2 3 4zM483 250h-48v-29h39v-14h-39v-30h48v-13h-62v100h62v-14zM1341 250l-48 1v-30h39v-14h-39v-30h48v-13h-62v100h62v-14zM1182 203q0 -12 -4.5 -19.5t-11 -12.5t-13.5 -7t-11 -2q-20 0 -30 13.5t-10 27.5
v61h13v-61q0 -11 8 -19t19 -8q10 0 18 7.5t8 19.5v61h14v-61zM1352 36h-10v91h7q5 0 8 -4l47 -66q2 -2 2 -5v75h10v-91h-9l-54 75q-1 0 -0.5 1.5t-0.5 2.5v-79zM648 181q-11 -18 -32 -18q-8 0 -19 4.5t-11 12.5q-1 0 -1 2l3 1q2 2 6 2t7 -3l2 -1q3 -5 13 -5q5 0 12.5 4
t7.5 13t-6 11.5t-14 5.5l-10 5q-17 7 -17 24q0 16 11 21t19 5q4 0 8.5 -1.5t6.5 -3.5l7 -5q2 -2 3 -2.5t2 -2.5l-4 -2q-3 -3 -7 -3q-5 0 -8 3t-8 3q-4 0 -6 -1l-6 -2q-4 -3 -4 -9q0 -5 1.5 -7.5t7.5 -4.5l9 -3q2 -1 4.5 -2t5.5 -2l4 -2q8 -3 11.5 -10t3.5 -15q0 -4 -2 -12z
M1259 181q-10 -18 -31 -18q-11 0 -17 4t-12 10l-3 5l4 1q2 2 5 2q5 0 8 -3l1 -1q5 -5 14 -5q8 0 14 5t6 12q0 6 -6 12l-14 5l-10 5q-18 7 -18 24q0 14 10.5 20t20.5 6q8 0 15 -5l7 -5l5 -5l-4 -2q-3 -3 -7 -3q-5 0 -9 3t-7 3q-5 0 -7 -1l-5 -2q-5 -3 -5 -9q0 -7 10 -12l8 -3
q4 -2 5 -2l10 -4q8 -3 11.5 -10t3.5 -15q0 -6 -3 -12zM265 58q-4 4 -5.5 10.5t-1.5 12.5q0 20 14 33.5t33 13.5q9 0 18 -3.5t15 -10.5l-2 -2q-2 -2 -4 -2h-2q-6 0 -11.5 3.5t-13.5 3.5q-15 0 -26 -10.5t-11 -25.5q0 -17 12 -26.5t25 -9.5q12 0 23 6v19h-7q-4 0 -6.5 3
t-2.5 6v1h26v-35q-7 -8 -24 -10h-9q-15 0 -25 6.5t-15 16.5zM1729 215q-4 -4 -3 -4l-1 -2v-3v-42h-14v45q-1 1 -1 2l-3 4l-36 49h10q8 0 12 -7l24 -32l1 -1v-2v1q0 2 1 2l24 32q3 7 12 7h10zM980 116v-29h37v-10h-37v-31h45v-10h-55v91h55v-11h-45zM371 116v-29h36v-10h-36
v-31h45v-10h-56v91l56 -1v-10h-45zM635 127v-56q0 -11 7.5 -18.5t18.5 -7.5q10 0 18.5 7t8.5 19v56h10v-56q0 -19 -12.5 -27.5t-24.5 -8.5q-15 0 -25.5 10t-10.5 26v56h10zM913 36l-40 91h6q2 0 4.5 -1.5t3.5 -4.5l30 -68q0 -2 0.5 -3t0.5 -2v2q0 1 0.5 1.5t0.5 1.5l30 68
q2 6 8 6h5l-39 -91h-10zM1045 164h-57v100h13v-87h44v-13zM1163 49q6 4 6 12q0 11 -12 16l-7 2q-7 2 -15.5 6.5t-8.5 18.5q0 9 7.5 16.5t18.5 7.5q2 0 4 -0.5t4 -0.5l6 -3q2 -2 3 -2.5t2 -1.5l5 -4l-3 -2q-1 -2 -5 -2q-3 0 -5 1l-5 3q-2 0 -3 0.5t-3 0.5q-16 0 -16 -13
q0 -8 9 -12l9 -3q2 -2 6 -3t7 -3l4 -2q9 -9 9 -20q0 -14 -10 -20t-21 -6q-10 0 -18.5 5.5t-8.5 10.5l2 1q1 1 4 1q5 0 10 -4t11 -4q9 0 14 4zM563 116v-31h38v-10h-38v-39h-11v91h56v-11h-45zM1493 116v-31h38v-10h-38v-39h-10v91h55v-11h-45zM456 36v80h-29v11h68v-11h-29
v-80h-10zM727 127v-81h41v-10h-51v91h10zM789 127v-81h41v-10h-51v91h10zM392 245q-7 5 -13 5h-22v-36h22q8 0 13 5.5t5 12.5q0 8 -5 13zM1588 86q5 2 7 6t2 9q0 6 -4 10.5t-12 4.5h-22v-31h22q5 0 7 1zM1079 85q5 0 10.5 4t5.5 12q0 6 -5 10.5t-11 4.5h-22v-31h22zM554 228
q1 2 1 6q0 6 -4 11t-11 5h-22v-31h22q4 0 6 1l5 3zM662 -86l-18 43q-2 3 -2 5t-1 4q0 -1 -2 -9l-18 -43h41zM1210 127v-91h-10v91h10zM927 244l-19 -44h39l-19 42q0 1 -0.5 2t-0.5 3v-3zM1363 -117q4 -4 4 -11q0 -15 -16 -15q-5 0 -10 3.5t-5 11.5q0 6 4 11t11 5t12 -5z
M2013 738q20 -17 35 -43.5t19.5 -54.5t-3 -53.5t-32.5 -41.5q-14 -9 -23 -7t-16 10.5t-13 21t-12 24.5q-5 11 -11.5 21t-11.5 17q-13 17 -33.5 24.5t-39.5 4.5q-74 -11 -162 -42t-184 -70t-197 -81t-201 -74.5t-196.5 -49.5t-182.5 -7q-2 -5 -3 -8t-2 -5q-1 -3 -1 -5
q-26 -5 -46.5 -6.5t-47.5 6.5q-23 2 -48 2t-53 -4q2 -5 -23.5 -7.5t-61.5 -2.5t-75 3t-64 9q-7 5 -15 25t-14 48.5t-9 62.5t1 68t16 64.5t36 52.5q36 33 56.5 66.5t31.5 61.5t16 49t8 30q4 8 5 26t15 38q0 2 -0.5 4t-0.5 4v8t1 10q0 12 3 21q0 8 4 18q3 9 5 10q4 1 8 -8
q2 -3 3.5 -6t4.5 -5l10 -10q1 -2 3 -3.5t4 -3.5q14 5 32 8.5t41 3.5h15.5t14.5 -1q10 -2 18.5 -4t13.5 -4q4 3 9.5 5.5t7.5 3.5q3 2 6.5 3t6.5 3q4 1 11 8t10 4q2 -2 2 -11q0 -4 -0.5 -8.5t-1.5 -9.5q-2 -5 -2.5 -10.5t-2.5 -10.5v-1q11 -12 17.5 -25.5t9.5 -26.5t3.5 -24
t0.5 -16q0 -3 -2 -7q-1 -4 -6 -10q-2 -3 -4.5 -5.5t-4.5 -5.5q-3 -2 -5 -4t-4 -3v-1q-15 -26 -22.5 -61t-5.5 -70t15 -66.5t39 -50.5q29 -22 36 -58.5t3 -73.5q69 9 142.5 39.5t153 71t165 85t178 83t192.5 65t208 30.5q58 0 112 -11t95 -46zM559 882q0 11 -9 15
q-12 0 -12 -14q-2 -12 10 -14q9 0 11 13zM682 884q0 12 -11 14q-9 0 -11 -12q0 -14 10 -14q5 -2 8 2.5t4 9.5zM644 833q0 6 -11 6q-9 0 -9 -6q0 -4 4 -8.5t5 -4.5q2 0 6.5 4.5t4.5 8.5zM1685 164h-57v100h14v-87h43v-13z" />
    <glyph glyph-name="nine" unicode="9" 
d="M1649 -35q4 -8 6.5 -16.5t2.5 -19.5q0 -6 -3 -18t-11 -24t-22 -21t-36 -9q-17 0 -30 6.5t-22.5 16.5t-14.5 23t-5 26q0 33 22.5 52.5t49.5 19.5q23 0 39 -11t24 -25zM955 -35q4 -8 6.5 -16.5t2.5 -19.5q0 -32 -21.5 -52t-50.5 -20q-17 0 -30.5 6.5t-22.5 17t-14 23
t-5 25.5q0 18 6.5 31.5t17 22.5t23.5 13.5t25 4.5q23 0 39 -11t24 -25zM1804 -1q2 0 2.5 0.5t2.5 0.5h26v-142h-26v104q-1 -2 -1 -3.5t-1 -3.5q-10 -25 -19 -49t-20 -48h-24l-37 90q-2 4 -2 7l-2 6v-103h-26v142h25q9 0 15 -7l3 -4q4 -11 8 -21.5t9 -21.5l17 -43q2 -2 2 -9
v-1q0 2 1 5t1 5l5 10l29 76q4 7 12 10zM1083 0h26v-142h-24l-68 95q-1 1 -1 1.5t-1 1.5l-2 4q-2 2 -2 3l-2 3v-108h-26v142h23q11 0 21.5 -16t21.5 -32l30 -41q4 -8 4 -11v100zM653 0l62 -142h-16q-10 0 -17 11l-8 19h-65l-8 -19q-2 -4 -6.5 -7.5t-10.5 -3.5h-16l62 142h23z
M1499 200q-5 -11 -15 -24t-35 -13q-20 0 -35.5 13.5t-15.5 36.5q0 17 12.5 34.5t38.5 17.5q20 0 35.5 -14t15.5 -38q0 -8 -1 -13zM262 0h105v-12q0 -5 -1 -7l-3 -6l-70 -94q1 0 2 1t4 1h67v-25h-108v8q0 8 3 13l3 6q3 3 4 5l62 85h-68v25zM762 200q-5 -13 -15.5 -25
t-33.5 -12q-20 0 -36 14t-16 36q0 21 15.5 36.5t36.5 15.5q22 0 36.5 -15.5t14.5 -36.5q0 -3 -0.5 -6t-1.5 -7zM384 0h91v-25h-65v-33h53v-25h-53v-34h65v-25h-91v142zM1416 -38q-6 -7 -10 -15.5t-4 -17.5q0 -19 14 -32.5t33 -13.5q13 0 19.5 5.5t16.5 5.5q8 0 14 -6l5 -5
q-11 -14 -25.5 -20t-29.5 -6q-33 0 -52.5 22.5t-19.5 49.5t19.5 49.5t52.5 22.5q14 0 29 -6.5t26 -19.5l-5 -6q-5 -5 -14 -5q-8 0 -16.5 5.5t-19.5 5.5q-9 0 -17.5 -4t-15.5 -9zM1319 -73q9 -8 9 -25q0 -22 -16.5 -33.5t-33.5 -11.5q-20 0 -31 10.5t-16 20.5q2 1 3.5 2
t3.5 2l4 1q2 0 2.5 0.5t2.5 0.5q10 0 15.5 -5.5t15.5 -5.5q5 0 8 1l8 3q9 7 9 15q0 7 -9 12q-8 5 -17.5 8t-18 7.5t-14.5 12t-6 20.5q0 21 15 30t29 9q10 0 21 -6t19 -17l-5 -4q-8 -5 -15 -5h-3q-4 1 -8 3.5t-9 2.5q-18 0 -18 -13q0 -6 4 -8.5t9 -4.5l17 -6q17 -5 25 -16z
M1245 48q-6 7 -10 15.5t-4 17.5q0 21 15 34t32 13q20 0 33.5 -14.5t13.5 -32.5q0 -23 -15 -34.5t-32 -11.5q-20 0 -33 13zM1706 48q-13 -13 -33 -13q-19 0 -33 13t-14 33q0 14 12 30.5t35 16.5q17 0 32 -12.5t15 -34.5q0 -19 -14 -33zM1629 -89q2 5 3 9t1 9q0 21 -15 33.5
t-32 12.5t-31.5 -13t-14.5 -33t14 -33t32 -13q16 0 26 7.5t17 20.5zM935 -89q2 5 3 9t1 9q0 20 -14 33t-33 13q-17 0 -31.5 -12.5t-14.5 -33.5q0 -20 14 -33t32 -13q30 0 43 28zM721 0h90v-25h-65v-36h55v-25h-55v-56h-25v142zM1121 0h109v-25h-42v-117h-26v117h-41v25z
M589 -25h-41v-117h-26v117h-42v25h109v-25zM571 164q-10 0 -12 6l-26 35h-15v-41h-14v100h36q12 0 20.5 -8.5t8.5 -21.5q0 -20 -20 -27l31 -43h-9zM1476 240q-11 11 -27 11q-14 0 -25.5 -10.5t-11.5 -27.5q0 -11 9 -24t28 -13q15 0 26.5 11t11.5 26q0 18 -11 27zM739 240
q-9 11 -26 11q-14 0 -26 -10.5t-12 -27.5q0 -11 9 -24t29 -13q14 0 25.5 10.5t11.5 26.5t-11 27zM970 164q-7 0 -10 6l-7 16h-51l-7 -16q-3 -6 -10 -6h-8l44 100h13l44 -100h-8zM408 220q-3 -8 -10.5 -13.5t-18.5 -5.5h-22v-37h-13v100h35q14 0 23 -10t9 -22q0 -6 -3 -12z
M1673 45q17 0 26.5 11t9.5 25q0 18 -11.5 27t-24.5 9q-14 0 -25 -10t-11 -26q0 -11 9 -23.5t27 -12.5zM1245 95q-3 -6 -3 -14q0 -15 10.5 -25.5t25.5 -10.5q18 0 27 11.5t9 24.5q0 14 -9.5 25t-26.5 11q-10 0 -19 -5t-14 -17zM867 164h-11l-57 78q-1 1 -2 4v-82h-14v100h10
q7 0 10 -4l48 -67q2 -4 2 -7v78h14v-100zM1604 164h-12l-57 78q-1 0 -1 4l-1 2v-84h-14v100h10q6 0 10 -4l48 -67q2 -2 2 -3.5t1 -3.5v78h14v-100zM1093 78q-2 -1 -8 -3l30 -39h-6q-8 0 -11 5l-25 34h-16v-39h-10v91h32q12 0 19 -8.5t7 -17.5q0 -8 -3.5 -13.5t-8.5 -9.5z
M1602 84q-5 -7 -14 -9l29 -39h-6q-8 0 -10 5l-25 34h-17v-39h-10v91h32q12 0 19.5 -8t7.5 -18q0 -11 -6 -17zM1822 125q4 2 5 2h8v-91h-10v75l-1 -2v-1v-1l-9 -20q-4 -10 -8.5 -18.5t-6.5 -16.5l-8 -16h-10q-5 8 -8.5 17t-7.5 18l-16 36v1q0 1 -0.5 1t-0.5 1v-74h-10v91h8
q2 0 5 -2t3 -4l31 -70v-2q0 -1 1 -1q0 1 0.5 2t0.5 2l31 69q1 2 3 4zM483 250h-48v-29h39v-14h-39v-30h48v-13h-62v100h62v-14zM1341 250l-48 1v-30h39v-14h-39v-30h48v-13h-62v100h62v-14zM1182 203q0 -12 -4.5 -19.5t-11 -12.5t-13.5 -7t-11 -2q-20 0 -30 13.5t-10 27.5
v61h13v-61q0 -11 8 -19t19 -8q10 0 18 7.5t8 19.5v61h14v-61zM1352 36h-10v91h7q5 0 8 -4l47 -66q2 -2 2 -5v75h10v-91h-9l-54 75q-1 0 -0.5 1.5t-0.5 2.5v-79zM648 181q-11 -18 -32 -18q-8 0 -19 4.5t-11 12.5q-1 0 -1 2l3 1q2 2 6 2t7 -3l2 -1q3 -5 13 -5q5 0 12.5 4
t7.5 13t-6 11.5t-14 5.5l-10 5q-17 7 -17 24q0 16 11 21t19 5q4 0 8.5 -1.5t6.5 -3.5l7 -5q2 -2 3 -2.5t2 -2.5l-4 -2q-3 -3 -7 -3q-5 0 -8 3t-8 3q-4 0 -6 -1l-6 -2q-4 -3 -4 -9q0 -5 1.5 -7.5t7.5 -4.5l9 -3q2 -1 4.5 -2t5.5 -2l4 -2q8 -3 11.5 -10t3.5 -15q0 -4 -2 -12z
M1259 181q-10 -18 -31 -18q-11 0 -17 4t-12 10l-3 5l4 1q2 2 5 2q5 0 8 -3l1 -1q5 -5 14 -5q8 0 14 5t6 12q0 6 -6 12l-14 5l-10 5q-18 7 -18 24q0 14 10.5 20t20.5 6q8 0 15 -5l7 -5l5 -5l-4 -2q-3 -3 -7 -3q-5 0 -9 3t-7 3q-5 0 -7 -1l-5 -2q-5 -3 -5 -9q0 -7 10 -12l8 -3
q4 -2 5 -2l10 -4q8 -3 11.5 -10t3.5 -15q0 -6 -3 -12zM265 58q-4 4 -5.5 10.5t-1.5 12.5q0 20 14 33.5t33 13.5q9 0 18 -3.5t15 -10.5l-2 -2q-2 -2 -4 -2h-2q-6 0 -11.5 3.5t-13.5 3.5q-15 0 -26 -10.5t-11 -25.5q0 -17 12 -26.5t25 -9.5q12 0 23 6v19h-7q-4 0 -6.5 3
t-2.5 6v1h26v-35q-7 -8 -24 -10h-9q-15 0 -25 6.5t-15 16.5zM1729 215q-4 -4 -3 -4l-1 -2v-3v-42h-14v45q-1 1 -1 2l-3 4l-36 49h10q8 0 12 -7l24 -32l1 -1v-2v1q0 2 1 2l24 32q3 7 12 7h10zM980 116v-29h37v-10h-37v-31h45v-10h-55v91h55v-11h-45zM371 116v-29h36v-10h-36
v-31h45v-10h-56v91l56 -1v-10h-45zM635 127v-56q0 -11 7.5 -18.5t18.5 -7.5q10 0 18.5 7t8.5 19v56h10v-56q0 -19 -12.5 -27.5t-24.5 -8.5q-15 0 -25.5 10t-10.5 26v56h10zM913 36l-40 91h6q2 0 4.5 -1.5t3.5 -4.5l30 -68q0 -2 0.5 -3t0.5 -2v2q0 1 0.5 1.5t0.5 1.5l30 68
q2 6 8 6h5l-39 -91h-10zM1045 164h-57v100h13v-87h44v-13zM1163 49q6 4 6 12q0 11 -12 16l-7 2q-7 2 -15.5 6.5t-8.5 18.5q0 9 7.5 16.5t18.5 7.5q2 0 4 -0.5t4 -0.5l6 -3q2 -2 3 -2.5t2 -1.5l5 -4l-3 -2q-1 -2 -5 -2q-3 0 -5 1l-5 3q-2 0 -3 0.5t-3 0.5q-16 0 -16 -13
q0 -8 9 -12l9 -3q2 -2 6 -3t7 -3l4 -2q9 -9 9 -20q0 -14 -10 -20t-21 -6q-10 0 -18.5 5.5t-8.5 10.5l2 1q1 1 4 1q5 0 10 -4t11 -4q9 0 14 4zM563 116v-31h38v-10h-38v-39h-11v91h56v-11h-45zM1493 116v-31h38v-10h-38v-39h-10v91h55v-11h-45zM456 36v80h-29v11h68v-11h-29
v-80h-10zM727 127v-81h41v-10h-51v91h10zM789 127v-81h41v-10h-51v91h10zM392 245q-7 5 -13 5h-22v-36h22q8 0 13 5.5t5 12.5q0 8 -5 13zM1588 86q5 2 7 6t2 9q0 6 -4 10.5t-12 4.5h-22v-31h22q5 0 7 1zM1079 85q5 0 10.5 4t5.5 12q0 6 -5 10.5t-11 4.5h-22v-31h22zM554 228
q1 2 1 6q0 6 -4 11t-11 5h-22v-31h22q4 0 6 1l5 3zM662 -86l-18 43q-2 3 -2 5t-1 4q0 -1 -2 -9l-18 -43h41zM1210 127v-91h-10v91h10zM927 244l-19 -44h39l-19 42q0 1 -0.5 2t-0.5 3v-3zM1363 -117q4 -4 4 -11q0 -15 -16 -15q-5 0 -10 3.5t-5 11.5q0 6 4 11t11 5t12 -5z
M1851 638q8 -19 11.5 -35.5t3.5 -30.5q0 -26 -16.5 -46.5t-46.5 -20.5q-13 0 -23 8t-21.5 20.5t-25.5 27t-35 27t-50 20.5t-71 8q-57 0 -152 -17t-226 -56q8 -10 14.5 -21t10.5 -23q0 -11 12.5 -31.5t30.5 -41t39 -35.5t39 -15q24 0 39 -3.5t24 -9.5t13.5 -13.5t9.5 -15.5
h-262v-16q0 -35 -6.5 -42.5t-16.5 -7.5q-9 0 -16.5 4t-12.5 9.5t-8 10.5t-3 7q-17 5 -28.5 11t-22.5 14q-28 -1 -61 -1.5t-68.5 -1t-71.5 -0.5h-69h-158q-21 -3 -43.5 -7t-44 -8t-41 -7t-33.5 -3q-19 0 -38.5 2t-35 9t-25 21t-9.5 38q0 16 3 32.5t13 30.5q16 27 34 53
t49 47.5t81.5 36t132.5 16.5q49 0 88 -13.5t81 -30.5q25 13 54 26.5t60 30.5q-27 33 -27 52q0 14 4 27.5t11 25.5q-5 14 -12 37t-7 45q0 8 0.5 14.5t3.5 11.5q15 -9 31 -19q14 -8 30 -17t31 -16q14 5 29.5 7.5t30.5 2.5q18 0 33 -2.5t29 -7.5q15 7 31.5 16t30.5 17
q16 10 32 19q1 -5 3 -11.5t2 -12.5q0 -19 -6 -40.5t-12 -37.5q76 23 165 40t186 17q45 0 89.5 -9t82 -25.5t66 -39.5t41.5 -51zM1009 692q-1 6 -8 6q-8 -2 -8 -6q0 -5 3 -7.5t5 -2.5q4 0 6 3.5t2 6.5zM1081 655q0 6 -12 6q-6 0 -9 -0.5t-5 -5.5q0 -5 4 -9.5t9 -4.5t9 4.5
t4 9.5zM1167 693q-2 8 -11 8q-8 -5 -8 -10q1 -9 8 -9q5 0 8 3.5t3 7.5zM1685 164h-57v100h14v-87h43v-13z" />
    <glyph glyph-name="zero" unicode="0" 
d="M1649 -35q4 -8 6.5 -16.5t2.5 -19.5q0 -6 -3 -18t-11 -24t-22 -21t-36 -9q-17 0 -30 6.5t-22.5 16.5t-14.5 23t-5 26q0 33 22.5 52.5t49.5 19.5q23 0 39 -11t24 -25zM955 -35q4 -8 6.5 -16.5t2.5 -19.5q0 -32 -21.5 -52t-50.5 -20q-17 0 -30.5 6.5t-22.5 17t-14 23
t-5 25.5q0 18 6.5 31.5t17 22.5t23.5 13.5t25 4.5q23 0 39 -11t24 -25zM1804 -1q2 0 2.5 0.5t2.5 0.5h26v-142h-26v104q-1 -2 -1 -3.5t-1 -3.5q-10 -25 -19 -49t-20 -48h-24l-37 90q-2 4 -2 7l-2 6v-103h-26v142h25q9 0 15 -7l3 -4q4 -11 8 -21.5t9 -21.5l17 -43q2 -2 2 -9
v-1q0 2 1 5t1 5l5 10l29 76q4 7 12 10zM1083 0h26v-142h-24l-68 95q-1 1 -1 1.5t-1 1.5l-2 4q-2 2 -2 3l-2 3v-108h-26v142h23q11 0 21.5 -16t21.5 -32l30 -41q4 -8 4 -11v100zM653 0l62 -142h-16q-10 0 -17 11l-8 19h-65l-8 -19q-2 -4 -6.5 -7.5t-10.5 -3.5h-16l62 142h23z
M1499 200q-5 -11 -15 -24t-35 -13q-20 0 -35.5 13.5t-15.5 36.5q0 17 12.5 34.5t38.5 17.5q20 0 35.5 -14t15.5 -38q0 -8 -1 -13zM262 0h105v-12q0 -5 -1 -7l-3 -6l-70 -94q1 0 2 1t4 1h67v-25h-108v8q0 8 3 13l3 6q3 3 4 5l62 85h-68v25zM762 200q-5 -13 -15.5 -25
t-33.5 -12q-20 0 -36 14t-16 36q0 21 15.5 36.5t36.5 15.5q22 0 36.5 -15.5t14.5 -36.5q0 -3 -0.5 -6t-1.5 -7zM384 0h91v-25h-65v-33h53v-25h-53v-34h65v-25h-91v142zM1416 -38q-6 -7 -10 -15.5t-4 -17.5q0 -19 14 -32.5t33 -13.5q13 0 19.5 5.5t16.5 5.5q8 0 14 -6l5 -5
q-11 -14 -25.5 -20t-29.5 -6q-33 0 -52.5 22.5t-19.5 49.5t19.5 49.5t52.5 22.5q14 0 29 -6.5t26 -19.5l-5 -6q-5 -5 -14 -5q-8 0 -16.5 5.5t-19.5 5.5q-9 0 -17.5 -4t-15.5 -9zM1319 -73q9 -8 9 -25q0 -22 -16.5 -33.5t-33.5 -11.5q-20 0 -31 10.5t-16 20.5q2 1 3.5 2
t3.5 2l4 1q2 0 2.5 0.5t2.5 0.5q10 0 15.5 -5.5t15.5 -5.5q5 0 8 1l8 3q9 7 9 15q0 7 -9 12q-8 5 -17.5 8t-18 7.5t-14.5 12t-6 20.5q0 21 15 30t29 9q10 0 21 -6t19 -17l-5 -4q-8 -5 -15 -5h-3q-4 1 -8 3.5t-9 2.5q-18 0 -18 -13q0 -6 4 -8.5t9 -4.5l17 -6q17 -5 25 -16z
M1245 48q-6 7 -10 15.5t-4 17.5q0 21 15 34t32 13q20 0 33.5 -14.5t13.5 -32.5q0 -23 -15 -34.5t-32 -11.5q-20 0 -33 13zM1706 48q-13 -13 -33 -13q-19 0 -33 13t-14 33q0 14 12 30.5t35 16.5q17 0 32 -12.5t15 -34.5q0 -19 -14 -33zM1629 -89q2 5 3 9t1 9q0 21 -15 33.5
t-32 12.5t-31.5 -13t-14.5 -33t14 -33t32 -13q16 0 26 7.5t17 20.5zM935 -89q2 5 3 9t1 9q0 20 -14 33t-33 13q-17 0 -31.5 -12.5t-14.5 -33.5q0 -20 14 -33t32 -13q30 0 43 28zM721 0h90v-25h-65v-36h55v-25h-55v-56h-25v142zM1121 0h109v-25h-42v-117h-26v117h-41v25z
M589 -25h-41v-117h-26v117h-42v25h109v-25zM571 164q-10 0 -12 6l-26 35h-15v-41h-14v100h36q12 0 20.5 -8.5t8.5 -21.5q0 -20 -20 -27l31 -43h-9zM1476 240q-11 11 -27 11q-14 0 -25.5 -10.5t-11.5 -27.5q0 -11 9 -24t28 -13q15 0 26.5 11t11.5 26q0 18 -11 27zM739 240
q-9 11 -26 11q-14 0 -26 -10.5t-12 -27.5q0 -11 9 -24t29 -13q14 0 25.5 10.5t11.5 26.5t-11 27zM970 164q-7 0 -10 6l-7 16h-51l-7 -16q-3 -6 -10 -6h-8l44 100h13l44 -100h-8zM408 220q-3 -8 -10.5 -13.5t-18.5 -5.5h-22v-37h-13v100h35q14 0 23 -10t9 -22q0 -6 -3 -12z
M1673 45q17 0 26.5 11t9.5 25q0 18 -11.5 27t-24.5 9q-14 0 -25 -10t-11 -26q0 -11 9 -23.5t27 -12.5zM1245 95q-3 -6 -3 -14q0 -15 10.5 -25.5t25.5 -10.5q18 0 27 11.5t9 24.5q0 14 -9.5 25t-26.5 11q-10 0 -19 -5t-14 -17zM867 164h-11l-57 78q-1 1 -2 4v-82h-14v100h10
q7 0 10 -4l48 -67q2 -4 2 -7v78h14v-100zM1604 164h-12l-57 78q-1 0 -1 4l-1 2v-84h-14v100h10q6 0 10 -4l48 -67q2 -2 2 -3.5t1 -3.5v78h14v-100zM1093 78q-2 -1 -8 -3l30 -39h-6q-8 0 -11 5l-25 34h-16v-39h-10v91h32q12 0 19 -8.5t7 -17.5q0 -8 -3.5 -13.5t-8.5 -9.5z
M1602 84q-5 -7 -14 -9l29 -39h-6q-8 0 -10 5l-25 34h-17v-39h-10v91h32q12 0 19.5 -8t7.5 -18q0 -11 -6 -17zM1822 125q4 2 5 2h8v-91h-10v75l-1 -2v-1v-1l-9 -20q-4 -10 -8.5 -18.5t-6.5 -16.5l-8 -16h-10q-5 8 -8.5 17t-7.5 18l-16 36v1q0 1 -0.5 1t-0.5 1v-74h-10v91h8
q2 0 5 -2t3 -4l31 -70v-2q0 -1 1 -1q0 1 0.5 2t0.5 2l31 69q1 2 3 4zM483 250h-48v-29h39v-14h-39v-30h48v-13h-62v100h62v-14zM1341 250l-48 1v-30h39v-14h-39v-30h48v-13h-62v100h62v-14zM1182 203q0 -12 -4.5 -19.5t-11 -12.5t-13.5 -7t-11 -2q-20 0 -30 13.5t-10 27.5
v61h13v-61q0 -11 8 -19t19 -8q10 0 18 7.5t8 19.5v61h14v-61zM1352 36h-10v91h7q5 0 8 -4l47 -66q2 -2 2 -5v75h10v-91h-9l-54 75q-1 0 -0.5 1.5t-0.5 2.5v-79zM648 181q-11 -18 -32 -18q-8 0 -19 4.5t-11 12.5q-1 0 -1 2l3 1q2 2 6 2t7 -3l2 -1q3 -5 13 -5q5 0 12.5 4
t7.5 13t-6 11.5t-14 5.5l-10 5q-17 7 -17 24q0 16 11 21t19 5q4 0 8.5 -1.5t6.5 -3.5l7 -5q2 -2 3 -2.5t2 -2.5l-4 -2q-3 -3 -7 -3q-5 0 -8 3t-8 3q-4 0 -6 -1l-6 -2q-4 -3 -4 -9q0 -5 1.5 -7.5t7.5 -4.5l9 -3q2 -1 4.5 -2t5.5 -2l4 -2q8 -3 11.5 -10t3.5 -15q0 -4 -2 -12z
M1259 181q-10 -18 -31 -18q-11 0 -17 4t-12 10l-3 5l4 1q2 2 5 2q5 0 8 -3l1 -1q5 -5 14 -5q8 0 14 5t6 12q0 6 -6 12l-14 5l-10 5q-18 7 -18 24q0 14 10.5 20t20.5 6q8 0 15 -5l7 -5l5 -5l-4 -2q-3 -3 -7 -3q-5 0 -9 3t-7 3q-5 0 -7 -1l-5 -2q-5 -3 -5 -9q0 -7 10 -12l8 -3
q4 -2 5 -2l10 -4q8 -3 11.5 -10t3.5 -15q0 -6 -3 -12zM265 58q-4 4 -5.5 10.5t-1.5 12.5q0 20 14 33.5t33 13.5q9 0 18 -3.5t15 -10.5l-2 -2q-2 -2 -4 -2h-2q-6 0 -11.5 3.5t-13.5 3.5q-15 0 -26 -10.5t-11 -25.5q0 -17 12 -26.5t25 -9.5q12 0 23 6v19h-7q-4 0 -6.5 3
t-2.5 6v1h26v-35q-7 -8 -24 -10h-9q-15 0 -25 6.5t-15 16.5zM1729 215q-4 -4 -3 -4l-1 -2v-3v-42h-14v45q-1 1 -1 2l-3 4l-36 49h10q8 0 12 -7l24 -32l1 -1v-2v1q0 2 1 2l24 32q3 7 12 7h10zM980 116v-29h37v-10h-37v-31h45v-10h-55v91h55v-11h-45zM371 116v-29h36v-10h-36
v-31h45v-10h-56v91l56 -1v-10h-45zM635 127v-56q0 -11 7.5 -18.5t18.5 -7.5q10 0 18.5 7t8.5 19v56h10v-56q0 -19 -12.5 -27.5t-24.5 -8.5q-15 0 -25.5 10t-10.5 26v56h10zM913 36l-40 91h6q2 0 4.5 -1.5t3.5 -4.5l30 -68q0 -2 0.5 -3t0.5 -2v2q0 1 0.5 1.5t0.5 1.5l30 68
q2 6 8 6h5l-39 -91h-10zM1045 164h-57v100h13v-87h44v-13zM1685 164h-57v100h14v-87h43v-13zM1163 49q6 4 6 12q0 11 -12 16l-7 2q-7 2 -15.5 6.5t-8.5 18.5q0 9 7.5 16.5t18.5 7.5q2 0 4 -0.5t4 -0.5l6 -3q2 -2 3 -2.5t2 -1.5l5 -4l-3 -2q-1 -2 -5 -2q-3 0 -5 1l-5 3
q-2 0 -3 0.5t-3 0.5q-16 0 -16 -13q0 -8 9 -12l9 -3q2 -2 6 -3t7 -3l4 -2q9 -9 9 -20q0 -14 -10 -20t-21 -6q-10 0 -18.5 5.5t-8.5 10.5l2 1q1 1 4 1q5 0 10 -4t11 -4q9 0 14 4zM563 116v-31h38v-10h-38v-39h-11v91h56v-11h-45zM1493 116v-31h38v-10h-38v-39h-10v91h55v-11
h-45zM456 36v80h-29v11h68v-11h-29v-80h-10zM727 127v-81h41v-10h-51v91h10zM789 127v-81h41v-10h-51v91h10zM392 245q-7 5 -13 5h-22v-36h22q8 0 13 5.5t5 12.5q0 8 -5 13zM1588 86q5 2 7 6t2 9q0 6 -4 10.5t-12 4.5h-22v-31h22q5 0 7 1zM1079 85q5 0 10.5 4t5.5 12
q0 6 -5 10.5t-11 4.5h-22v-31h22zM554 228q1 2 1 6q0 6 -4 11t-11 5h-22v-31h22q4 0 6 1l5 3zM662 -86l-18 43q-2 3 -2 5t-1 4q0 -1 -2 -9l-18 -43h41zM1210 127v-91h-10v91h10zM927 244l-19 -44h39l-19 42q0 1 -0.5 2t-0.5 3v-3zM1363 -117q4 -4 4 -11q0 -15 -16 -15
q-5 0 -10 3.5t-5 11.5q0 6 4 11t11 5t12 -5zM1629 692q9 -2 9 -8t-4.5 -13.5t-10 -14t-10 -12t-5.5 -6.5q0 -6 1 -11.5t1 -11.5q0 -28 -11.5 -52t-31.5 -41.5t-47 -27.5t-58 -10q-13 0 -27 1t-27 8q29 -23 48 -52t30 -55.5t15.5 -45t4.5 -19.5q0 -8 -8 -8q-1 0 -5.5 -0.5
t-9.5 -1t-10 0t-6 2.5q-14 15 -27 20t-30 6t-39.5 2t-53.5 7q-12 2 -27 12.5t-24 17.5q-7 -11 -5.5 -25t4.5 -28.5t4 -26.5t-6 -18h-52q-23 0 -39.5 8.5t-28.5 22.5t-20 31.5t-14 35.5q-33 -5 -65 -9.5t-64 -4.5q-5 0 -11 1t-11 1q-2 -4 -2.5 -7t-0.5 -6q0 -11 11 -20.5
t21.5 -18t15.5 -16t-6 -14.5q-74 -5 -122.5 20.5t-74.5 67.5q-47 -17 -47 -34q0 -4 2 -7q17 -17 25.5 -29.5t-5.5 -17.5q-16 -5 -37 -6.5t-40 6.5q-23 13 -40.5 42t-31 65.5t-22 78t-14 79t-8 67.5t-2.5 45q-19 11 -41.5 27t-41.5 38t-32 49.5t-13 61.5q0 68 31 115
t76.5 76.5t97 42.5t91.5 13q55 0 91.5 -8.5t58.5 -22.5t31 -32t9 -37q0 -27 -15.5 -49.5t-50.5 -22.5q-21 0 -46 8t-49.5 17.5t-45.5 17.5t-33 8q-15 0 -40.5 -10t-50 -29t-42.5 -47t-18 -64q0 -25 10.5 -50.5t33.5 -48.5q9 18 27 44t43.5 49.5t58.5 40.5t72 17
q29 0 61.5 -11t69.5 -37q54 -39 97 -68t77.5 -48t62.5 -28t54 -9q24 0 42 7.5t36.5 19.5t42 26.5t59.5 27.5q1 3 8 16.5t17 28.5t21.5 26.5t21.5 11.5q7 0 13 -8.5t10.5 -21t7.5 -26.5t5 -25q26 -7 48 -22t39 -35q5 1 13 2.5t16 1.5q4 0 8 -1.5t7 -1.5zM1575 611q0 -3 2 -6
t4 -3q11 0 11 16q0 4 -3 6.5t-6 2.5q-2 0 -5 -3t-3 -9v-4zM1473 657q0 -10 9 -10q12 0 12 10q0 6 -3 10t-6 4q-12 0 -12 -9v-5zM1550 563q0 -4 1 -8.5t3 -6.5q3 0 9.5 3t6.5 8t-6.5 8t-9.5 3q-4 0 -4 -3v-4z" />
    <glyph glyph-name="AE" unicode="&#xc6;" horiz-adv-x="986" 
d="M393 510q-21 -30 -42.5 -62t-32.5 -52l-13 -22q-14 -24 -30 -52t-30 -56q26 -4 52 -6.5t52 -4.5q17 0 33.5 0.5t34.5 0.5q-8 59 -14 114.5t-10 109.5v30zM914 79q9 -26 -5 -44v1q1 -20 -12.5 -32.5t-38.5 -20t-60.5 -10.5t-77.5 -3q-25 0 -48.5 1t-44.5 2
q-12 -1 -22 -1.5t-22 -1.5q-12 0 -24.5 2.5t-24.5 7.5t-21 12.5t-13 18.5q-13 23 -26.5 58.5t-24.5 70.5q-20 -1 -39 -1h-39q-36 1 -80.5 4t-96.5 9q-18 -45 -25.5 -76.5t-13.5 -57.5q-2 -20 -18 -28t-37 -8q-15 0 -32 3.5t-32 12t-25 21.5t-11 33q2 29 14 66.5t32 82.5
q-27 19 -40 48q-10 28 -10 48q1 11 5 18t14 9q11 -2 30 -10t48 -16q25 46 56 99t67.5 104t78 96t87.5 75q3 23 14.5 39.5t37.5 16.5q17 0 37.5 -6t36.5 -16q51 6 108 6h42q88 -1 150 -8t89 -30q5 -14 7 -27.5t1 -26.5q-3 -26 -14.5 -44t-34.5 -26q-60 7 -109.5 9.5
t-96.5 2.5q-29 0 -58.5 -2t-58.5 -4q2 -76 9 -161q78 6 127.5 7t83.5 1q38 0 60 -5.5t28 -20.5q6 -17 6 -31.5t-3 -25.5t-8 -19.5t-9 -13.5q-11 -11 -23.5 -16t-17.5 -5q-30 0 -60.5 4.5t-62.5 4.5h-53.5t-45.5 -1q8 -48 18 -91.5t21 -85.5q52 -3 93 -3h23q36 0 71 3.5
t67 3.5q23 0 37.5 -5t19.5 -17z" />
    <glyph glyph-name="Ccedilla" unicode="&#xc7;" horiz-adv-x="682" 
d="M581 575q11 -33 8 -61t-14.5 -48.5t-29 -32.5t-34.5 -12q-14 0 -32.5 6t-37 15.5t-34 21.5t-23 24.5t-4.5 24.5t22 22q18 12 30 29.5t4 43.5q-13 42 -74 42q-50 0 -87.5 -21t-63.5 -55.5t-40.5 -79.5t-19.5 -93t0 -96t18 -88q12 -35 37 -64t58.5 -50t73.5 -32.5t83 -11.5
q48 0 89 9t73 25q17 9 34 17t25 6q12 -5 15.5 -10t4.5 -18q-3 -29 -35 -56q-52 -41 -109.5 -54.5t-121.5 -13.5q-84 0 -152.5 18.5t-121.5 53.5t-89.5 85t-57.5 113q-19 56 -17.5 115t20 114t53 104t83 85.5t110 57.5t133.5 21q38 0 72.5 -8.5t63.5 -27.5t51.5 -48.5
t36.5 -71.5zM297 -120q-2 4 -6 14q-4 6 -8 24t-3.5 38t8 36t27.5 18q11 1 19 -5.5t10 -12.5q2 1 5.5 -2t4.5 -8q2 -12 2.5 -32.5t4.5 -31.5q49 -46 62 -80q11 -34 -7.5 -58t-74.5 -26q-7 0 -13 -0.5t-12 1.5q-32 4 -62.5 19.5t-38.5 37.5q-11 32 31 33q46 -20 67 -23
q11 0 19 3q12 3 9 14q-3 9 -15 20.5t-29 20.5z" />
    <glyph glyph-name="icircumflex" unicode="&#xee;" horiz-adv-x="237" 
d="M250 162q7 -24 -8.5 -54t-42.5 -56.5t-60.5 -44.5t-63.5 -18q-45 0 -66 18t-34 57q-7 20 -13 52.5t-8.5 69t-1 74t9.5 69t23.5 53t40.5 25.5q14 1 24.5 -0.5t18.5 -3.5q20 -5 29 -14.5t12 -18.5q4 -10 5 -14q3 -29 -2 -54t-11 -63q-4 -25 -7.5 -59t0.5 -75q5 -16 22 -16
q21 0 44.5 26.5t48.5 61.5q2 2 4.5 6.5t4.5 4.5q9 -1 18.5 -8t12.5 -18zM193 518q3 -8 4 -15.5t0 -12.5q2 -7 -2 -11t-11 -5.5t-16 -1.5t-17 2q-18 3 -30.5 16.5t-23.5 30t-23 32t-29 23.5q-9 -4 -19.5 -20t-23.5 -34t-26.5 -33t-28.5 -16q-17 0 -31 11t-15 24q-2 17 9.5 40
t30 45t43 39.5t49.5 23.5q31 8 58 -8q12 -6 25.5 -19.5t27 -31.5t26 -38.5t23.5 -40.5z" />
    <glyph glyph-name="idieresis" unicode="&#xef;" horiz-adv-x="237" 
d="M250 162q7 -24 -8.5 -54t-42.5 -56.5t-60.5 -44.5t-63.5 -18q-45 0 -66 18t-34 57q-7 20 -13 52.5t-8.5 69t-1 74t9.5 69t23.5 53t40.5 25.5q14 1 24.5 -0.5t18.5 -3.5q20 -5 29 -14.5t12 -18.5q4 -10 5 -14q3 -29 -2 -54t-11 -63q-4 -25 -7.5 -59t0.5 -75q5 -16 22 -16
q21 0 44.5 26.5t48.5 61.5q2 2 4.5 6.5t4.5 4.5q9 -1 18.5 -8t12.5 -18zM102 599q26 -2 51 -16t38 -34q17 -20 11.5 -41.5t-24.5 -32.5q-24 -12 -54 -3.5t-48 38.5q-11 15 -15 31.5t-1 29.5t13 21t29 7zM-122 522q-6 15 -8.5 29t0.5 25t12 17.5t27 6.5q15 0 30.5 -4.5
t28.5 -12.5t23 -18.5t14 -22.5q6 -18 3 -36t-14.5 -29t-31 -12.5t-45.5 13.5q-12 7 -22.5 18t-16.5 26z" />
    <glyph glyph-name="igrave" unicode="&#xec;" horiz-adv-x="237" 
d="M250 162q7 -24 -8.5 -54t-42.5 -56.5t-60.5 -44.5t-63.5 -18q-45 0 -66 18t-34 57q-7 20 -13 52.5t-8.5 69t-1 74t9.5 69t23.5 53t40.5 25.5q14 1 24.5 -0.5t18.5 -3.5q20 -5 29 -14.5t12 -18.5q4 -10 5 -14q3 -29 -2 -54t-11 -63q-4 -25 -7.5 -59t0.5 -75q5 -16 22 -16
q21 0 44.5 26.5t48.5 61.5q2 2 4.5 6.5t4.5 4.5q9 -1 18.5 -8t12.5 -18zM141 492q4 -11 -13 -11q-16 0 -41 5.5t-53.5 15t-57.5 23t-54 30t-43.5 35.5t-25.5 40q-3 9 3 16t17 10q38 10 64 -5t52 -39q16 -15 40.5 -31t48.5 -32t42 -30.5t21 -26.5z" />
    <glyph glyph-name="ntilde" unicode="&#xf1;" horiz-adv-x="468" 
d="M483 155q3 -23 -14 -51.5t-45 -54t-62.5 -42.5t-65.5 -17q-42 0 -73 17.5t-43 50.5q-8 26 -4.5 59.5t10 65.5t11.5 59.5t1 41.5q-14 3 -30 -3q-29 -11 -44.5 -43t-21.5 -72t-5 -80.5t4 -67.5q2 -15 -8.5 -20.5t-40.5 -5.5q-8 0 -28 8t-37 36q-6 11 -12 25t-10 31v-1
q-8 34 -11 73t-2 77t6 73t13.5 61.5t20 42.5t26.5 16q12 0 27.5 -2t29 -6.5t24 -11.5t13.5 -16q1 -4 -1 -13t-5 -20.5t-6 -24.5t-3 -25q12 19 28 36.5t34 30.5t37 21t37 8q15 0 31 -4t31 -11.5t26.5 -18.5t16.5 -26q7 -24 1.5 -58t-14.5 -70t-15 -69.5t1 -55.5q5 -17 23 -17
q19 0 43.5 19.5t42.5 51.5l18 32q1 1 3.5 4t6.5 3q13 0 22.5 -12.5t12.5 -23.5zM91 576q13 -2 28 -5.5t31 -7.5q7 -2 12 -3l10 -2q12 -3 21 -5.5t17 -2.5q19 0 26.5 3t9.5 6.5t2.5 6.5t6.5 4q13 0 25 -7t21 -17t14.5 -22t6.5 -22q1 -2 1 -7v1q0 -23 -17 -36.5t-44 -15.5
q-18 -2 -36 3.5t-40 13t-48.5 15t-60.5 10.5q-17 1 -28 -1t-22 -2q-5 0 -7.5 -0.5t-6.5 -0.5q-12 0 -18.5 10.5t-8.5 23.5t2 25.5t15 21.5t30.5 13.5t49.5 0.5q5 0 8 -1z" />
    <glyph glyph-name="uacute" unicode="&#xfa;" horiz-adv-x="485" 
d="M496 162q4 -26 -8.5 -53.5t-36.5 -51.5t-55 -41t-64 -22q-14 -1 -27 0q-56 3 -79 47q-2 5 -4.5 10.5t-4.5 11.5q-28 -34 -61.5 -54t-68.5 -20q-43 0 -71.5 25t-42.5 66q-6 19 -11.5 49t-7.5 64.5t0 70t10 65.5t23.5 50.5t40.5 25.5q37 3 58 -7q9 -2 15 -7.5t8 -11.5
q5 -8 5 -19q4 -25 1 -49.5t-8 -53.5t-9 -66t-1 -86q5 -17 24 -17q28 0 43.5 28.5t22.5 66.5q9 49 13.5 89t10.5 69t16.5 46t32.5 20q10 1 23 -0.5t27 -4.5q15 -4 28 -12t18 -21q7 -30 4.5 -66t-9 -72.5t-13 -70t-5.5 -58.5q2 -8 9.5 -12.5t16.5 -4.5q18 0 39.5 17t43.5 56
q6 9 11.5 20t11.5 11q9 -1 19 -8t12 -19zM300 601q6 -27 -6.5 -50.5t-35 -42t-51.5 -31t-55 -17.5q-5 -1 -12.5 -3t-15.5 -2t-14.5 2.5t-9.5 9.5q-5 14 3 27.5t20 27t25.5 27.5t21.5 29q5 11 10 19.5t9 15.5q6 9 15 15t33 6q8 0 18 -3t19.5 -7.5t16.5 -10.5t9 -12z" />
    <glyph glyph-name="udieresis" unicode="&#xfc;" horiz-adv-x="485" 
d="M496 162q4 -26 -8.5 -53.5t-36.5 -51.5t-55 -41t-64 -22q-14 -1 -27 0q-56 3 -79 47q-2 5 -4.5 10.5t-4.5 11.5q-28 -34 -61.5 -54t-68.5 -20q-43 0 -71.5 25t-42.5 66q-6 19 -11.5 49t-7.5 64.5t0 70t10 65.5t23.5 50.5t40.5 25.5q37 3 58 -7q9 -2 15 -7.5t8 -11.5
q5 -8 5 -19q4 -25 1 -49.5t-8 -53.5t-9 -66t-1 -86q5 -17 24 -17q28 0 43.5 28.5t22.5 66.5q9 49 13.5 89t10.5 69t16.5 46t32.5 20q10 1 23 -0.5t27 -4.5q15 -4 28 -12t18 -21q7 -30 4.5 -66t-9 -72.5t-13 -70t-5.5 -58.5q2 -8 9.5 -12.5t16.5 -4.5q18 0 39.5 17t43.5 56
q6 9 11.5 20t11.5 11q9 -1 19 -8t12 -19zM217 591q26 -2 51 -16t38 -34q17 -20 11.5 -41.5t-24.5 -32.5q-24 -12 -54 -3.5t-48 38.5q-11 15 -15 31.5t-1 29.5t13 21t29 7zM-7 514q-6 15 -8.5 29t0.5 25t12 17.5t27 6.5q15 0 30.5 -4.5t28.5 -12.5t23 -18.5t14 -22.5
q6 -18 3 -36t-14.5 -29t-31 -12.5t-45.5 13.5q-12 7 -22.5 18t-16.5 26z" />
    <glyph glyph-name="ucircumflex" unicode="&#xfb;" horiz-adv-x="485" 
d="M496 162q4 -26 -8.5 -53.5t-36.5 -51.5t-55 -41t-64 -22q-14 -1 -27 0q-56 3 -79 47q-2 5 -4.5 10.5t-4.5 11.5q-28 -34 -61.5 -54t-68.5 -20q-43 0 -71.5 25t-42.5 66q-6 19 -11.5 49t-7.5 64.5t0 70t10 65.5t23.5 50.5t40.5 25.5q37 3 58 -7q9 -2 15 -7.5t8 -11.5
q5 -8 5 -19q4 -25 1 -49.5t-8 -53.5t-9 -66t-1 -86q5 -17 24 -17q28 0 43.5 28.5t22.5 66.5q9 49 13.5 89t10.5 69t16.5 46t32.5 20q10 1 23 -0.5t27 -4.5q15 -4 28 -12t18 -21q7 -30 4.5 -66t-9 -72.5t-13 -70t-5.5 -58.5q2 -8 9.5 -12.5t16.5 -4.5q18 0 39.5 17t43.5 56
q6 9 11.5 20t11.5 11q9 -1 19 -8t12 -19zM330 503q3 -8 4 -15.5t0 -12.5q2 -7 -2 -11t-11 -5.5t-16 -1.5t-17 2q-18 3 -30.5 16.5t-23.5 30t-23 32t-29 23.5q-9 -4 -19.5 -20t-23.5 -34t-26.5 -33t-28.5 -16q-17 0 -31 11t-15 24q-2 17 9.5 40t30 45t43 39.5t49.5 23.5
q31 8 58 -8q12 -6 25.5 -19.5t27 -31.5t26 -38.5t23.5 -40.5z" />
    <glyph glyph-name="uhungarumlaut" unicode="&#x171;" horiz-adv-x="485" 
d="M353 665q9 0 19.5 -2t20.5 -6t17.5 -9.5t9.5 -12.5q10 -30 -8.5 -57.5t-50 -49t-68 -34.5t-61.5 -13q-15 0 -20 11q-4 10 -1 18.5t8 15.5q14 20 34.5 39t30.5 34q10 16 13.5 28t8 20.5t14.5 13t33 4.5zM209 636q9 -31 -9 -59t-48.5 -49.5t-66 -34t-61.5 -12.5
q-16 0 -21 11q-5 15 4.5 30.5t23.5 30.5t29 30.5t21 30.5q5 12 7 21t7.5 15.5t16 10t31.5 4.5q9 0 19.5 -2t20 -6t17 -9t9.5 -12zM496 162q4 -26 -8.5 -53.5t-36.5 -51.5t-55 -41t-64 -22q-14 -1 -27 0q-56 3 -79 47q-2 5 -4.5 10.5t-4.5 11.5q-28 -34 -61.5 -54t-68.5 -20
q-43 0 -71.5 25t-42.5 66q-6 19 -11.5 49t-7.5 64.5t0 70t10 65.5t23.5 50.5t40.5 25.5q37 3 58 -7q9 -2 15 -7.5t8 -11.5q5 -8 5 -19q4 -25 1 -49.5t-8 -53.5t-9 -66t-1 -86q5 -17 24 -17q28 0 43.5 28.5t22.5 66.5q9 49 13.5 89t10.5 69t16.5 46t32.5 20q10 1 23 -0.5
t27 -4.5q15 -4 28 -12t18 -21q7 -30 4.5 -66t-9 -72.5t-13 -70t-5.5 -58.5q2 -8 9.5 -12.5t16.5 -4.5q18 0 39.5 17t43.5 56q6 9 11.5 20t11.5 11q9 -1 19 -8t12 -19z" />
    <glyph glyph-name="ugrave" unicode="&#xf9;" horiz-adv-x="485" 
d="M496 162q4 -26 -8.5 -53.5t-36.5 -51.5t-55 -41t-64 -22q-14 -1 -27 0q-56 3 -79 47q-2 5 -4.5 10.5t-4.5 11.5q-28 -34 -61.5 -54t-68.5 -20q-43 0 -71.5 25t-42.5 66q-6 19 -11.5 49t-7.5 64.5t0 70t10 65.5t23.5 50.5t40.5 25.5q37 3 58 -7q9 -2 15 -7.5t8 -11.5
q5 -8 5 -19q4 -25 1 -49.5t-8 -53.5t-9 -66t-1 -86q5 -17 24 -17q28 0 43.5 28.5t22.5 66.5q9 49 13.5 89t10.5 69t16.5 46t32.5 20q10 1 23 -0.5t27 -4.5q15 -4 28 -12t18 -21q7 -30 4.5 -66t-9 -72.5t-13 -70t-5.5 -58.5q2 -8 9.5 -12.5t16.5 -4.5q18 0 39.5 17t43.5 56
q6 9 11.5 20t11.5 11q9 -1 19 -8t12 -19zM268 490q4 -11 -13 -11q-16 0 -41 5.5t-53.5 15t-57.5 23t-54 30t-43.5 35.5t-25.5 40q-3 9 3 16t17 10q38 10 64 -5t52 -39q16 -15 40.5 -31t48.5 -32t42 -30.5t21 -26.5z" />
    <glyph glyph-name="umacron" unicode="&#x16b;" horiz-adv-x="485" 
d="M496 162q4 -26 -8.5 -53.5t-36.5 -51.5t-55 -41t-64 -22q-14 -1 -27 0q-56 3 -79 47q-2 5 -4.5 10.5t-4.5 11.5q-28 -34 -61.5 -54t-68.5 -20q-43 0 -71.5 25t-42.5 66q-6 19 -11.5 49t-7.5 64.5t0 70t10 65.5t23.5 50.5t40.5 25.5q37 3 58 -7q9 -2 15 -7.5t8 -11.5
q5 -8 5 -19q4 -25 1 -49.5t-8 -53.5t-9 -66t-1 -86q5 -17 24 -17q28 0 43.5 28.5t22.5 66.5q9 49 13.5 89t10.5 69t16.5 46t32.5 20q10 1 23 -0.5t27 -4.5q15 -4 28 -12t18 -21q7 -30 4.5 -66t-9 -72.5t-13 -70t-5.5 -58.5q2 -8 9.5 -12.5t16.5 -4.5q18 0 39.5 17t43.5 56
q6 9 11.5 20t11.5 11q9 -1 19 -8t12 -19zM18 496q-3 9 1 16.5t11.5 13.5t16 10t16.5 4q40 1 71.5 3t59 4.5t53 6.5t53.5 9q16 -5 26.5 -15t14.5 -23q8 -23 -5 -35.5t-38.5 -18t-59.5 -6.5t-68 -1q-11 0 -35 1t-48.5 4t-44.5 9.5t-24 17.5z" />
    <glyph glyph-name="zcaron" unicode="&#x17e;" horiz-adv-x="406" 
d="M311 597q-16 -18 -30.5 -43t-31.5 -48.5t-38 -41t-49 -20.5q-19 -3 -34 4q-21 9 -43.5 32.5t-41.5 49t-31.5 47t-11.5 25.5q2 13 15.5 26.5t24.5 13.5q17 0 29 -9t20.5 -22t15.5 -28t13.5 -28t15 -21t20.5 -7q7 3 15.5 22.5t20.5 40t30 35t44 7.5q7 0 16.5 -4.5t17.5 -10
t12 -11t1 -9.5zM244 -36h-17t-18 2q-19 2 -58 15t-81 34t-77 49.5t-46 61.5q-10 32 10.5 56t62.5 27q14 2 19.5 -1.5t15.5 -10.5q9 8 21.5 20.5t25 26.5t25.5 29t24 27q-23 4 -39 8.5t-27.5 7.5t-20.5 5t-18 2q-17 1 -30 -7.5t-23 -14.5q-4 -3 -8.5 -4.5t-8.5 -2.5
q-8 4 -12.5 12t-7.5 18q-5 20 -2.5 39.5t11.5 35t24.5 24.5t38.5 9q29 -1 72.5 -17.5t94.5 -38.5q18 23 31.5 31t24.5 8q7 0 16 -4.5t17 -12t15 -16.5t10 -18q1 -2 1 -9q-9 -39 -59 -93.5t-130 -121.5q9 -9 25.5 -21.5t34 -24t34 -20.5t25.5 -10q16 -1 35.5 10.5t32.5 20.5
q19 10 34 13q19 5 30.5 8t19.5 -6q1 0 3 -3q7 -24 -6 -49t-36.5 -46t-53.5 -34.5t-55 -13.5z" />
    <glyph glyph-name="ydieresis" unicode="&#xff;" horiz-adv-x="484" 
d="M212 -237q-14 -3 -28 -5q-62 -7 -95.5 16t-40.5 61q-6 29 4 56t32.5 49.5t56.5 39t76 25.5q2 22 1.5 36t1.5 34q-11 -15 -25.5 -30t-32 -27t-38 -19.5t-42.5 -7.5q-56 0 -85 35.5t-38 95.5q-6 38 -7 87.5t6.5 94t25.5 75t51 30.5q28 0 44.5 -6t25 -14.5t11.5 -18.5t4 -18
q3 -19 0 -36.5t-8.5 -38t-12 -46t-9.5 -59.5q-1 -6 -1.5 -20.5t1.5 -29.5q2 -14 7.5 -24t16.5 -10q22 0 38.5 16.5t28.5 44.5t20.5 63.5t15.5 73.5q4 49 18.5 79t53.5 30q36 0 57.5 -15.5t29.5 -50.5q1 -27 -1.5 -53t-7.5 -60t-12 -81t-13 -116q31 3 70 0t74.5 -15t62 -34
t32.5 -56q4 -19 -3 -36.5t-30 -20.5q-17 -2 -39 5.5t-36 27.5q-32 41 -61.5 53.5t-64.5 12.5l-9 -1q-8 -76 -35 -125t-91 -67zM142 -141q-2 -3 1 -6q2 -10 8.5 -18.5t17.5 -6.5q16 2 25.5 11t14.5 23.5t7 33.5t2 40q-31 -10 -53 -27.5t-23 -49.5zM223.035 593.358
q23.8672 -1.95996 46.8164 -15.6748q22.9492 -13.7158 34.8828 -33.3096q15.6055 -19.5928 10.5566 -40.6562t-22.4902 -31.8398q-22.0312 -11.7559 -49.5703 -3.42871t-44.0625 37.7178q-10.0977 14.6953 -13.7695 30.8594q-3.67188 16.165 -0.917969 28.9004
q2.75391 12.7363 11.9336 20.5732q9.17969 7.83789 26.6211 6.8584zM17.4102 517.923q-5.50781 14.6953 -7.80273 28.4111q-2.29492 13.7148 0.458984 24.4912t11.0156 17.1445t24.7852 6.36816q13.7695 0 27.998 -4.40918q14.2285 -4.4082 26.1621 -12.2451
q11.9336 -7.83789 21.1133 -18.124q9.17969 -10.2871 12.8516 -22.043q5.50781 -17.6338 2.75391 -35.2686q-2.75391 -17.6338 -13.3105 -28.4102t-28.457 -12.2461t-41.7676 13.2256q-11.0156 6.85742 -20.6543 17.6338t-15.1465 25.4717z" />
    <glyph glyph-name="yacute" unicode="&#xfd;" horiz-adv-x="484" 
d="M212 -237q-14 -3 -28 -5q-62 -7 -95.5 16t-40.5 61q-6 29 4 56t32.5 49.5t56.5 39t76 25.5q2 22 1.5 36t1.5 34q-11 -15 -25.5 -30t-32 -27t-38 -19.5t-42.5 -7.5q-56 0 -85 35.5t-38 95.5q-6 38 -7 87.5t6.5 94t25.5 75t51 30.5q28 0 44.5 -6t25 -14.5t11.5 -18.5t4 -18
q3 -19 0 -36.5t-8.5 -38t-12 -46t-9.5 -59.5q-1 -6 -1.5 -20.5t1.5 -29.5q2 -14 7.5 -24t16.5 -10q22 0 38.5 16.5t28.5 44.5t20.5 63.5t15.5 73.5q4 49 18.5 79t53.5 30q36 0 57.5 -15.5t29.5 -50.5q1 -27 -1.5 -53t-7.5 -60t-12 -81t-13 -116q31 3 70 0t74.5 -15t62 -34
t32.5 -56q4 -19 -3 -36.5t-30 -20.5q-17 -2 -39 5.5t-36 27.5q-32 41 -61.5 53.5t-64.5 12.5l-9 -1q-8 -76 -35 -125t-91 -67zM142 -141q-2 -3 1 -6q2 -10 8.5 -18.5t17.5 -6.5q16 2 25.5 11t14.5 23.5t7 33.5t2 40q-31 -10 -53 -27.5t-23 -49.5zM309 590q6 -27 -6.5 -50.5
t-35 -42t-51.5 -31t-55 -17.5q-5 -1 -12.5 -3t-15.5 -2t-14.5 2.5t-9.5 9.5q-5 14 3 27.5t20 27t25.5 27.5t21.5 29q5 11 10 19.5t9 15.5q6 9 15 15t33 6q8 0 18 -3t19.5 -7.5t16.5 -10.5t9 -12z" />
    <glyph glyph-name="scaron" unicode="&#x161;" horiz-adv-x="411" 
d="M291 636q-16 -18 -30.5 -43t-31.5 -48.5t-38 -41t-49 -20.5q-19 -3 -34 4q-21 9 -43.5 32.5t-41.5 49t-31.5 47t-11.5 25.5q2 13 15.5 26.5t24.5 13.5q17 0 29 -9t20.5 -22t15.5 -28t13.5 -28t15 -21t20.5 -7q7 3 15.5 22.5t20.5 40t30 35t44 7.5q7 0 16.5 -4.5t17.5 -10
t12 -11t1 -9.5zM185 126q-6 19 -31 40t-53.5 44t-54 47t-33.5 48q-8 25 -3 48.5t21.5 41t44 28t63.5 10.5q59 0 104.5 -21t59.5 -59q5 -14 3 -26t-8 -20.5t-14.5 -13.5t-17.5 -5q-19 0 -33 12.5t-26 27t-23 27t-25 12.5q-17 0 -25.5 -9t-4.5 -20q8 -23 38 -49.5t64.5 -53
t64.5 -51.5t37 -45q9 -27 3.5 -53.5t-25 -48t-54 -35.5t-82.5 -16q-27 -1 -55 3q-69 8 -113.5 44.5t-56.5 85.5q-5 16 -4 33t8.5 31.5t20.5 24t31 11.5q11 2 27.5 -3t33.5 -16q9 -5 18.5 -14.5t14.5 -21.5q6 -19 0.5 -29.5t-13.5 -16.5t-15.5 -10.5t-4.5 -11.5
q5 -14 21 -21.5t51 -7.5q32 0 43 18t3 41z" />
    <glyph glyph-name="oacute" unicode="&#xf3;" horiz-adv-x="445" 
d="M315 128q-9 -24 -25.5 -49.5t-39.5 -45.5t-52.5 -33t-64.5 -13q-30 0 -58 10.5t-51 28t-40.5 41t-26.5 50.5q-17 51 -10.5 103t30 95t60 70t80.5 27q12 0 25.5 -3.5t24.5 -10.5q8 2 15.5 3.5t15.5 1.5q42 0 69.5 -23t43 -55.5t19.5 -69t-3 -63.5q14 -11 29 -11
q21 0 32.5 15t24.5 35q9 12 13 12q12 -2 19.5 -8.5t11.5 -15.5q4 -17 -0.5 -35.5t-16.5 -34t-30 -25.5t-40 -10q-28 0 -55 14zM146 79q21 1 36 14.5t23.5 34t11 46t-1.5 50.5q-8 6 -18 17t-19 24t-17 27.5t-12 28.5q-2 5 -1.5 9.5t0.5 7.5q-20 -9 -36.5 -30t-26 -47.5
t-11.5 -55.5t6 -55t24.5 -48.5t41.5 -22.5zM347 595q6 -27 -6.5 -50.5t-35 -42t-51.5 -31t-55 -17.5q-5 -1 -12.5 -3t-15.5 -2t-14.5 2.5t-9.5 9.5q-5 14 3 27.5t20 27t25.5 27.5t21.5 29q5 11 10 19.5t9 15.5q6 9 15 15t33 6q8 0 18 -3t19.5 -7.5t16.5 -10.5t9 -12z" />
    <glyph glyph-name="ocircumflex" unicode="&#xf4;" horiz-adv-x="445" 
d="M315 128q-9 -24 -25.5 -49.5t-39.5 -45.5t-52.5 -33t-64.5 -13q-30 0 -58 10.5t-51 28t-40.5 41t-26.5 50.5q-17 51 -10.5 103t30 95t60 70t80.5 27q12 0 25.5 -3.5t24.5 -10.5q8 2 15.5 3.5t15.5 1.5q42 0 69.5 -23t43 -55.5t19.5 -69t-3 -63.5q14 -11 29 -11
q21 0 32.5 15t24.5 35q9 12 13 12q12 -2 19.5 -8.5t11.5 -15.5q4 -17 -0.5 -35.5t-16.5 -34t-30 -25.5t-40 -10q-28 0 -55 14zM146 79q21 1 36 14.5t23.5 34t11 46t-1.5 50.5q-8 6 -18 17t-19 24t-17 27.5t-12 28.5q-2 5 -1.5 9.5t0.5 7.5q-20 -9 -36.5 -30t-26 -47.5
t-11.5 -55.5t6 -55t24.5 -48.5t41.5 -22.5zM314 498q3 -8 4 -15.5t0 -12.5q2 -7 -2 -11t-11 -5.5t-16 -1.5t-17 2q-18 3 -30.5 16.5t-23.5 30t-23 32t-29 23.5q-9 -4 -19.5 -20t-23.5 -34t-26.5 -33t-28.5 -16q-17 0 -31 11t-15 24q-2 17 9.5 40t30 45t43 39.5t49.5 23.5
q31 8 58 -8q12 -6 25.5 -19.5t27 -31.5t26 -38.5t23.5 -40.5z" />
    <glyph glyph-name="odieresis" unicode="&#xf6;" horiz-adv-x="445" 
d="M315 128q-9 -24 -25.5 -49.5t-39.5 -45.5t-52.5 -33t-64.5 -13q-30 0 -58 10.5t-51 28t-40.5 41t-26.5 50.5q-17 51 -10.5 103t30 95t60 70t80.5 27q12 0 25.5 -3.5t24.5 -10.5q8 2 15.5 3.5t15.5 1.5q42 0 69.5 -23t43 -55.5t19.5 -69t-3 -63.5q14 -11 29 -11
q21 0 32.5 15t24.5 35q9 12 13 12q12 -2 19.5 -8.5t11.5 -15.5q4 -17 -0.5 -35.5t-16.5 -34t-30 -25.5t-40 -10q-28 0 -55 14zM146 79q21 1 36 14.5t23.5 34t11 46t-1.5 50.5q-8 6 -18 17t-19 24t-17 27.5t-12 28.5q-2 5 -1.5 9.5t0.5 7.5q-20 -9 -36.5 -30t-26 -47.5
t-11.5 -55.5t6 -55t24.5 -48.5t41.5 -22.5zM227 585q26 -2 51 -16t38 -34q17 -20 11.5 -41.5t-24.5 -32.5q-24 -12 -54 -3.5t-48 38.5q-11 15 -15 31.5t-1 29.5t13 21t29 7zM3 508q-6 15 -8.5 29t0.5 25t12 17.5t27 6.5q15 0 30.5 -4.5t28.5 -12.5t23 -18.5t14 -22.5
q6 -18 3 -36t-14.5 -29t-31 -12.5t-45.5 13.5q-12 7 -22.5 18t-16.5 26z" />
    <glyph glyph-name="ograve" unicode="&#xf2;" horiz-adv-x="445" 
d="M315 128q-9 -24 -25.5 -49.5t-39.5 -45.5t-52.5 -33t-64.5 -13q-30 0 -58 10.5t-51 28t-40.5 41t-26.5 50.5q-17 51 -10.5 103t30 95t60 70t80.5 27q12 0 25.5 -3.5t24.5 -10.5q8 2 15.5 3.5t15.5 1.5q42 0 69.5 -23t43 -55.5t19.5 -69t-3 -63.5q14 -11 29 -11
q21 0 32.5 15t24.5 35q9 12 13 12q12 -2 19.5 -8.5t11.5 -15.5q4 -17 -0.5 -35.5t-16.5 -34t-30 -25.5t-40 -10q-28 0 -55 14zM146 79q21 1 36 14.5t23.5 34t11 46t-1.5 50.5q-8 6 -18 17t-19 24t-17 27.5t-12 28.5q-2 5 -1.5 9.5t0.5 7.5q-20 -9 -36.5 -30t-26 -47.5
t-11.5 -55.5t6 -55t24.5 -48.5t41.5 -22.5zM256 476q4 -11 -13 -11q-16 0 -41 5.5t-53.5 15t-57.5 23t-54 30t-43.5 35.5t-25.5 40q-3 9 3 16t17 10q38 10 64 -5t52 -39q16 -15 40.5 -31t48.5 -32t42 -30.5t21 -26.5z" />
    <glyph glyph-name="Agrave" unicode="&#xc0;" horiz-adv-x="697" 
d="M595 113q23 -60 20.5 -92.5t-35.5 -32.5q-19 0 -35.5 6t-32.5 23t-32 47.5t-33 79.5q-26 -1 -49.5 -1.5t-49.5 -0.5q-38 0 -80.5 2t-84.5 7q-11 -40 -14.5 -70t-8 -50.5t-15 -31.5t-35.5 -14q-9 -2 -18 -1.5t-20 2.5q-17 5 -35 16t-27 29q-10 31 -4.5 74.5t25.5 97.5
q-16 9 -29.5 24.5t-21 32t-9 31.5t6.5 23q2 6 11 6t21.5 -4t27.5 -9t29 -9q19 45 45.5 100.5t59.5 109.5t71.5 99.5t82.5 71.5q-3 33 1.5 47.5t24.5 19.5q13 0 31.5 -2.5t36.5 -8.5t33.5 -16.5t22.5 -26.5q11 -24 11.5 -49t2.5 -51q2 -25 8.5 -65t16 -87t21 -97.5
t22.5 -95.5t20.5 -80.5t16.5 -53.5zM219 265q23 -3 50 -5t54 -3q26 -1 46.5 -1.5t39.5 0.5q-16 66 -29.5 136t-25.5 132q-35 -50 -55 -84.5t-33 -62.5t-23 -53.5t-24 -58.5zM505 819q4 -11 -13 -11q-16 0 -41 5.5t-53.5 15t-57.5 23t-54 30t-43.5 35.5t-25.5 40q-3 9 3 16
t17 10q38 10 64 -5t52 -39q16 -15 40.5 -31t48.5 -32t42 -30.5t21 -26.5z" />
    <glyph glyph-name="Adieresis" unicode="&#xc4;" horiz-adv-x="697" 
d="M595 113q23 -60 20.5 -92.5t-35.5 -32.5q-19 0 -35.5 6t-32.5 23t-32 47.5t-33 79.5q-26 -1 -49.5 -1.5t-49.5 -0.5q-38 0 -80.5 2t-84.5 7q-11 -40 -14.5 -70t-8 -50.5t-15 -31.5t-35.5 -14q-9 -2 -18 -1.5t-20 2.5q-17 5 -35 16t-27 29q-10 31 -4.5 74.5t25.5 97.5
q-16 9 -29.5 24.5t-21 32t-9 31.5t6.5 23q2 6 11 6t21.5 -4t27.5 -9t29 -9q19 45 45.5 100.5t59.5 109.5t71.5 99.5t82.5 71.5q-3 33 1.5 47.5t24.5 19.5q13 0 31.5 -2.5t36.5 -8.5t33.5 -16.5t22.5 -26.5q11 -24 11.5 -49t2.5 -51q2 -25 8.5 -65t16 -87t21 -97.5
t22.5 -95.5t20.5 -80.5t16.5 -53.5zM219 265q23 -3 50 -5t54 -3q26 -1 46.5 -1.5t39.5 0.5q-16 66 -29.5 136t-25.5 132q-35 -50 -55 -84.5t-33 -62.5t-23 -53.5t-24 -58.5zM515 917q26 -2 51 -16t38 -34q17 -20 11.5 -41.5t-24.5 -32.5q-24 -12 -54 -3.5t-48 38.5
q-11 15 -15 31.5t-1 29.5t13 21t29 7zM291 840q-6 15 -8.5 29t0.5 25t12 17.5t27 6.5q15 0 30.5 -4.5t28.5 -12.5t23 -18.5t14 -22.5q6 -18 3 -36t-14.5 -29t-31 -12.5t-45.5 13.5q-12 7 -22.5 18t-16.5 26z" />
    <glyph glyph-name="Aring" unicode="&#xc5;" horiz-adv-x="697" 
d="M382 966q6 17 23.5 26t36.5 9q34 0 68.5 -23.5t49.5 -63.5q12 -30 8 -54.5t-17 -42.5t-32 -29t-37 -13q-40 -6 -78 15.5t-55 64.5q-15 41 -5.5 70.5t38.5 40.5zM436 914q-13 -5 -17.5 -22t4.5 -32q8 -17 29 -18h7t8 2q10 3 19.5 14t7.5 22q-1 7 -7.5 14t-15 12.5
t-18.5 7.5t-17 0zM595 113q23 -60 20.5 -92.5t-35.5 -32.5q-19 0 -35.5 6t-32.5 23t-32 47.5t-33 79.5q-26 -1 -49.5 -1.5t-49.5 -0.5q-38 0 -80.5 2t-84.5 7q-11 -40 -14.5 -70t-8 -50.5t-15 -31.5t-35.5 -14q-9 -2 -18 -1.5t-20 2.5q-17 5 -35 16t-27 29q-10 31 -4.5 74.5
t25.5 97.5q-16 9 -29.5 24.5t-21 32t-9 31.5t6.5 23q2 6 11 6t21.5 -4t27.5 -9t29 -9q19 45 45.5 100.5t59.5 109.5t71.5 99.5t82.5 71.5q-3 33 1.5 47.5t24.5 19.5q13 0 31.5 -2.5t36.5 -8.5t33.5 -16.5t22.5 -26.5q11 -24 11.5 -49t2.5 -51q2 -25 8.5 -65t16 -87t21 -97.5
t22.5 -95.5t20.5 -80.5t16.5 -53.5zM219 265q23 -3 50 -5t54 -3q26 -1 46.5 -1.5t39.5 0.5q-16 66 -29.5 136t-25.5 132q-35 -50 -55 -84.5t-33 -62.5t-23 -53.5t-24 -58.5z" />
    <glyph glyph-name="Atilde" unicode="&#xc3;" horiz-adv-x="697" 
d="M595 113q23 -60 20.5 -92.5t-35.5 -32.5q-19 0 -35.5 6t-32.5 23t-32 47.5t-33 79.5q-26 -1 -49.5 -1.5t-49.5 -0.5q-38 0 -80.5 2t-84.5 7q-11 -40 -14.5 -70t-8 -50.5t-15 -31.5t-35.5 -14q-9 -2 -18 -1.5t-20 2.5q-17 5 -35 16t-27 29q-10 31 -4.5 74.5t25.5 97.5
q-16 9 -29.5 24.5t-21 32t-9 31.5t6.5 23q2 6 11 6t21.5 -4t27.5 -9t29 -9q19 45 45.5 100.5t59.5 109.5t71.5 99.5t82.5 71.5q-3 33 1.5 47.5t24.5 19.5q13 0 31.5 -2.5t36.5 -8.5t33.5 -16.5t22.5 -26.5q11 -24 11.5 -49t2.5 -51q2 -25 8.5 -65t16 -87t21 -97.5
t22.5 -95.5t20.5 -80.5t16.5 -53.5zM219 265q23 -3 50 -5t54 -3q26 -1 46.5 -1.5t39.5 0.5q-16 66 -29.5 136t-25.5 132q-35 -50 -55 -84.5t-33 -62.5t-23 -53.5t-24 -58.5zM375 918q13 -2 28 -5.5t31 -7.5q7 -2 12 -3l10 -2q12 -3 21 -5.5t17 -2.5q19 0 26.5 3t9.5 6.5
t2.5 6.5t6.5 4q13 0 25 -7t21 -17t14.5 -22t6.5 -22q1 -2 1 -7v1q0 -23 -17 -36.5t-44 -15.5q-18 -2 -36 3.5t-40 13t-48.5 15t-60.5 10.5q-17 1 -28 -1t-22 -2q-5 0 -7.5 -0.5t-6.5 -0.5q-12 0 -18.5 10.5t-8.5 23.5t2 25.5t15 21.5t30.5 13.5t49.5 0.5q5 0 8 -1z" />
    <glyph glyph-name="Ydieresis" unicode="&#x178;" horiz-adv-x="651" 
d="M38 713q37 0 71.5 -26.5t66.5 -66t62.5 -85t58.5 -83.5l43 76q15 29 32 58t38 53.5t48 42.5t62 24q15 2 35 -3q10 -2 21.5 -6t21.5 -8.5t17 -10t9 -10.5q2 -9 -6 -23.5t-22 -31t-32 -34.5t-36 -35q-22 -22 -47.5 -45.5t-48.5 -45.5t-42.5 -42.5t-29.5 -36.5
q-13 -17 -15 -52.5t1 -79t8 -89.5t5.5 -83.5t-6.5 -62t-28 -24.5q-34 0 -59 24t-36 75q-14 58 -20.5 126t-8.5 134q-39 59 -82 114.5t-86 106.5q-8 9 -16 19t-15 19.5t-12 18t-6 13.5q-5 16 0.5 30.5t15.5 25t21 17t17 7.5zM324 855q26 -2 51 -16t38 -34q17 -20 11.5 -41.5
t-24.5 -32.5q-24 -12 -54 -3.5t-48 38.5q-11 15 -15 31.5t-1 29.5t13 21t29 7zM100 778q-6 15 -8.5 29t0.5 25t12 17.5t27 6.5q15 0 30.5 -4.5t28.5 -12.5t23 -18.5t14 -22.5q6 -18 3 -36t-14.5 -29t-31 -12.5t-45.5 13.5q-12 7 -22.5 18t-16.5 26z" />
    <glyph glyph-name="Yacute" unicode="&#xdd;" horiz-adv-x="651" 
d="M38 713q37 0 71.5 -26.5t66.5 -66t62.5 -85t58.5 -83.5l43 76q15 29 32 58t38 53.5t48 42.5t62 24q15 2 35 -3q10 -2 21.5 -6t21.5 -8.5t17 -10t9 -10.5q2 -9 -6 -23.5t-22 -31t-32 -34.5t-36 -35q-22 -22 -47.5 -45.5t-48.5 -45.5t-42.5 -42.5t-29.5 -36.5
q-13 -17 -15 -52.5t1 -79t8 -89.5t5.5 -83.5t-6.5 -62t-28 -24.5q-34 0 -59 24t-36 75q-14 58 -20.5 126t-8.5 134q-39 59 -82 114.5t-86 106.5q-8 9 -16 19t-15 19.5t-12 18t-6 13.5q-5 16 0.5 30.5t15.5 25t21 17t17 7.5zM402 851q6 -27 -6.5 -50.5t-35 -42t-51.5 -31
t-55 -17.5q-5 -1 -12.5 -3t-15.5 -2t-14.5 2.5t-9.5 9.5q-5 14 3 27.5t20 27t25.5 27.5t21.5 29q5 11 10 19.5t9 15.5q6 9 15 15t33 6q8 0 18 -3t19.5 -7.5t16.5 -10.5t9 -12z" />
    <glyph glyph-name="Zcaron" unicode="&#x17d;" horiz-adv-x="629" 
d="M428 904q-16 -18 -30.5 -43t-31.5 -48.5t-38 -41t-49 -20.5q-19 -3 -34 4q-21 9 -43.5 32.5t-41.5 49t-31.5 47t-11.5 25.5q2 13 15.5 26.5t24.5 13.5q17 0 29 -9t20.5 -22t15.5 -28t13.5 -28t15 -21t20.5 -7q7 3 15.5 22.5t20.5 40t30 35t44 7.5q7 0 16.5 -4.5t17.5 -10
t12 -11t1 -9.5zM468 -28q-31 0 -68.5 6.5t-75 15t-73 16t-62.5 10.5q-22 2 -41.5 -2t-37.5 -4q-34 1 -58.5 12.5t-40.5 26.5t-24 31.5t-9 28.5q-2 17 7 27t25 18q7 8 14 15l15 15q64 60 109.5 107.5t78 84t53 62.5t34.5 43l24 32q-11 1 -21.5 1t-21.5 2q-24 1 -54.5 8
t-60.5 15t-55.5 14.5t-39.5 6.5q-22 0 -29.5 -14.5t-9.5 -32t-4.5 -31.5t-15.5 -14q-17 0 -28.5 8.5t-19 21t-11.5 26t-5 22.5q-2 30 4 60.5t22 55t41 40t61 15.5q28 0 66.5 -12t82 -26t90 -26t90.5 -12q14 20 27 27.5t27 7.5q22 0 38.5 -8t27 -18.5t16.5 -22t7 -17.5
q1 -10 -0.5 -15.5t-3.5 -9.5q0 -8 -2.5 -17t-8.5 -19q-22 -36 -59.5 -80t-84 -94t-98 -104.5t-101.5 -110.5q35 -4 66.5 -14t61 -20.5t58.5 -19t59 -8.5q60 0 96 20t61 55q5 6 11 15.5t13 9.5q13 0 24.5 -9t12.5 -20q-7 -38 -22.5 -74t-40.5 -64.5t-59 -45.5t-77 -17z" />
    <glyph glyph-name="Zdotaccent" unicode="&#x17b;" horiz-adv-x="623" 
d="M304 757q-16 -2 -31 1q-22 5 -40.5 21t-26.5 40q-12 37 -6 57.5t40 20.5q15 0 31.5 -5t30.5 -13.5t24 -19t14 -21.5q3 -10 4 -23t-3 -25.5t-12.5 -21.5t-24.5 -11zM468 -28q-31 0 -68.5 6.5t-75 15t-73 16t-62.5 10.5q-22 2 -41.5 -2t-37.5 -4q-34 1 -58.5 12.5
t-40.5 26.5t-24 31.5t-9 28.5q-2 17 7 27t25 18q7 8 14 15l15 15q64 60 109.5 107.5t78 84t53 62.5t34.5 43l24 32q-11 1 -21.5 1t-21.5 2q-24 1 -54.5 8t-60.5 15t-55.5 14.5t-39.5 6.5q-22 0 -29.5 -14.5t-9.5 -32t-4.5 -31.5t-15.5 -14q-17 0 -28.5 8.5t-19 21t-11.5 26
t-5 22.5q-2 30 4 60.5t22 55t41 40t61 15.5q28 0 66.5 -12t82 -26t90 -26t90.5 -12q14 20 27 27.5t27 7.5q22 0 38.5 -8t27 -18.5t16.5 -22t7 -17.5q1 -10 -0.5 -15.5t-3.5 -9.5q0 -8 -2.5 -17t-8.5 -19q-22 -36 -59.5 -80t-84 -94t-98 -104.5t-101.5 -110.5q35 -4 66.5 -14
t61 -20.5t58.5 -19t59 -8.5q60 0 96 20t61 55q5 6 11 15.5t13 9.5q13 0 24.5 -9t12.5 -20q-7 -38 -22.5 -74t-40.5 -64.5t-59 -45.5t-77 -17z" />
    <glyph glyph-name="Iacute" unicode="&#xcd;" horiz-adv-x="268" 
d="M89 718q13 0 29.5 -5.5t32 -15t28.5 -22.5t19 -28q5 -9 2 -25.5t-8 -30.5q-12 -43 -21 -100t-13.5 -121.5t-4.5 -134t7 -138.5q4 -25 8.5 -45.5t3.5 -35.5t-9 -23t-29 -8q-46 0 -73 39q-16 27 -27.5 68.5t-20 90.5t-13.5 102t-6.5 103t-1 94t4.5 74t10.5 59.5t17 52
t26 36.5t38.5 14zM286 922q6 -27 -6.5 -50.5t-35 -42t-51.5 -31t-55 -17.5q-5 -1 -12.5 -3t-15.5 -2t-14.5 2.5t-9.5 9.5q-5 14 3 27.5t20 27t25.5 27.5t21.5 29q5 11 10 19.5t9 15.5q6 9 15 15t33 6q8 0 18 -3t19.5 -7.5t16.5 -10.5t9 -12z" />
    <glyph glyph-name="Icircumflex" unicode="&#xce;" horiz-adv-x="268" 
d="M90 718q13 0 29.5 -5.5t32 -15t28.5 -22.5t19 -28q5 -9 2 -25.5t-8 -30.5q-12 -43 -21 -100t-13.5 -121.5t-4.5 -134t7 -138.5q4 -25 8.5 -45.5t3.5 -35.5t-9 -23t-29 -8q-46 0 -73 39q-16 27 -27.5 68.5t-20 90.5t-13.5 102t-6.5 103t-1 94t4.5 74t10.5 59.5t17 52
t26 36.5t38.5 14zM235 785q3 -8 4 -15.5t0 -12.5q2 -7 -2 -11t-11 -5.5t-16 -1.5t-17 2q-18 3 -30.5 16.5t-23.5 30t-23 32t-29 23.5q-9 -4 -19.5 -20t-23.5 -34t-26.5 -33t-28.5 -16q-17 0 -31 11t-15 24q-2 17 9.5 40t30 45t43 39.5t49.5 23.5q31 8 58 -8
q12 -6 25.5 -19.5t27 -31.5t26 -38.5t23.5 -40.5z" />
    <glyph glyph-name="Idieresis" unicode="&#xcf;" horiz-adv-x="264" 
d="M85 718q13 0 29.5 -5.5t32 -15t28.5 -22.5t19 -28q5 -9 2 -25.5t-8 -30.5q-12 -43 -21 -100t-13.5 -121.5t-4.5 -134t7 -138.5q4 -25 8.5 -45.5t3.5 -35.5t-9 -23t-29 -8q-46 0 -73 39q-16 27 -27.5 68.5t-20 90.5t-13.5 102t-6.5 103t-1 94t4.5 74t10.5 59.5t17 52
t26 36.5t38.5 14zM147 892q26 -2 51 -16t38 -34q17 -20 11.5 -41.5t-24.5 -32.5q-24 -12 -54 -3.5t-48 38.5q-11 15 -15 31.5t-1 29.5t13 21t29 7zM-77 815q-6 15 -8.5 29t0.5 25t12 17.5t27 6.5q15 0 30.5 -4.5t28.5 -12.5t23 -18.5t14 -22.5q6 -18 3 -36t-14.5 -29
t-31 -12.5t-45.5 13.5q-12 7 -22.5 18t-16.5 26z" />
    <glyph glyph-name="Igrave" unicode="&#xcc;" horiz-adv-x="268" 
d="M86 718q13 0 29.5 -5.5t32 -15t28.5 -22.5t19 -28q5 -9 2 -25.5t-8 -30.5q-12 -43 -21 -100t-13.5 -121.5t-4.5 -134t7 -138.5q4 -25 8.5 -45.5t3.5 -35.5t-9 -23t-29 -8q-46 0 -73 39q-16 27 -27.5 68.5t-20 90.5t-13.5 102t-6.5 103t-1 94t4.5 74t10.5 59.5t17 52
t26 36.5t38.5 14zM201 765q4 -11 -13 -11q-16 0 -41 5.5t-53.5 15t-57.5 23t-54 30t-43.5 35.5t-25.5 40q-3 9 3 16t17 10q38 10 64 -5t52 -39q16 -15 40.5 -31t48.5 -32t42 -30.5t21 -26.5z" />
    <glyph glyph-name="Ntilde" unicode="&#xd1;" horiz-adv-x="695" 
d="M438 591q7 60 23 90t57 30q6 0 20 -4t30.5 -12t32 -21.5t23.5 -31.5q2 -12 -0.5 -30t-6.5 -37q-12 -55 -20.5 -116t-11.5 -124t-1.5 -126t8.5 -123q6 -25 8.5 -45t-1 -34.5t-15 -22t-32.5 -7.5q-36 0 -61 18q-30 22 -69 68t-82 109t-88 140t-88 161q-5 -47 -7.5 -97.5
t-1.5 -101.5t4.5 -100.5t9.5 -94.5q4 -23 9.5 -41.5t6 -32t-6.5 -21t-26 -7.5q-26 0 -51.5 5.5t-41.5 28.5q-8 14 -13.5 30.5t-10.5 36.5q-19 71 -31 146t-16.5 145.5t-1 132.5t15.5 108.5t32 73.5t50 27q2 0 14.5 -2t27.5 -7t29 -13t20 -21q33 -75 61.5 -133t58 -109.5
t61.5 -101.5t71 -108q-3 50 -3.5 101.5t1 100t5 93t8.5 80.5zM231 877q13 -2 28 -5.5t31 -7.5q7 -2 12 -3l10 -2q12 -3 21 -5.5t17 -2.5q19 0 26.5 3t9.5 6.5t2.5 6.5t6.5 4q13 0 25 -7t21 -17t14.5 -22t6.5 -22q1 -2 1 -7v1q0 -23 -17 -36.5t-44 -15.5q-18 -2 -36 3.5
t-40 13t-48.5 15t-60.5 10.5q-17 1 -28 -1t-22 -2q-5 0 -7.5 -0.5t-6.5 -0.5q-12 0 -18.5 10.5t-8.5 23.5t2 25.5t15 21.5t30.5 13.5t49.5 0.5q5 0 8 -1z" />
    <glyph glyph-name="Ecircumflex" unicode="&#xca;" horiz-adv-x="531" 
d="M381 795q3 -8 4 -15.5t0 -12.5q2 -7 -2 -11t-11 -5.5t-16 -1.5t-17 2q-18 3 -30.5 16.5t-23.5 30t-23 32t-29 23.5q-9 -4 -19.5 -20t-23 -34t-27 -33t-29.5 -16q-17 0 -31.5 11t-15.5 24q-1 17 10 40t30 45t43.5 39.5t49.5 23.5q31 8 60 -8q12 -6 25 -19.5t26.5 -31.5
t26 -38.5t23.5 -40.5zM-23 631q-6 25 6.5 42.5t39 27.5t65.5 14.5t87 4.5q52 0 100.5 -2t88 -6.5t67 -12t36.5 -19.5q6 -17 5 -36.5t-7 -37t-17 -30.5t-26 -17q-60 7 -113.5 9.5t-101.5 2.5h-26l-10 -44q-8 -30 -14 -62.5t-11 -66.5q57 3 99 4t70 1q36 0 58 -6t29 -24
q9 -27 4.5 -47t-14 -33t-19.5 -19.5t-12 -6.5q-31 0 -61.5 4t-62.5 4q-25 1 -48 1h-46q-2 -45 0.5 -88t5.5 -84q22 2 44.5 3t47.5 1q93 0 153.5 -7t76.5 -28q5 -15 4.5 -30.5t-5.5 -29.5t-14.5 -24.5t-22.5 -13.5q-44 5 -80.5 7.5t-71.5 2.5q-36 0 -71 -3t-67 -3h-25.5
t-23.5 2q-13 2 -23.5 6t-17.5 13q-10 14 -16.5 32.5t-13.5 43.5q-15 64 -19 134t-1.5 136t9 123t13.5 96q-14 1 -22.5 9.5t-13.5 19t-8 21t-4 16.5z" />
    <glyph glyph-name="Eacute" unicode="&#xc9;" horiz-adv-x="531" 
d="M412 914q6 -27 -6 -50.5t-35 -42t-51.5 -31t-55.5 -17.5l-12.5 -2.5t-15.5 -1.5t-14.5 2.5t-9.5 9.5q-5 14 3 27t20.5 26.5t26 27.5t21.5 29q5 11 9.5 19.5t8.5 16.5q6 8 15 14.5t33 6.5q8 0 18 -3t19.5 -7.5t16.5 -10.5t9 -13zM-23 631q-6 25 6.5 42.5t39 27.5
t65.5 14.5t87 4.5q52 0 100.5 -2t88 -6.5t67 -12t36.5 -19.5q6 -17 5 -36.5t-7 -37t-17 -30.5t-26 -17q-60 7 -113.5 9.5t-101.5 2.5h-26l-10 -44q-8 -30 -14 -62.5t-11 -66.5q57 3 99 4t70 1q36 0 58 -6t29 -24q9 -27 4.5 -47t-14 -33t-19.5 -19.5t-12 -6.5q-31 0 -61.5 4
t-62.5 4q-25 1 -48 1h-46q-2 -45 0.5 -88t5.5 -84q22 2 44.5 3t47.5 1q93 0 153.5 -7t76.5 -28q5 -15 4.5 -30.5t-5.5 -29.5t-14.5 -24.5t-22.5 -13.5q-44 5 -80.5 7.5t-71.5 2.5q-36 0 -71 -3t-67 -3h-25.5t-23.5 2q-13 2 -23.5 6t-17.5 13q-10 14 -16.5 32.5t-13.5 43.5
q-15 64 -19 134t-1.5 136t9 123t13.5 96q-14 1 -22.5 9.5t-13.5 19t-8 21t-4 16.5z" />
    <glyph glyph-name="Edieresis" unicode="&#xcb;" horiz-adv-x="531" 
d="M298 903q25 -2 50.5 -16t37.5 -35q17 -20 11.5 -41.5t-24.5 -32.5q-25 -12 -55 -3t-47 39q-11 15 -15 31t-1 29t13.5 21.5t29.5 7.5zM73 825q-6 15 -9 29t0 25t12.5 17.5t28.5 6.5q15 0 30 -4.5t28 -12.5t23 -18.5t14 -22.5q6 -17 3 -35t-14.5 -29.5t-31 -13t-45.5 14.5
q-12 6 -22.5 17t-16.5 26zM-23 631q-6 25 6.5 42.5t39 27.5t65.5 14.5t87 4.5q52 0 100.5 -2t88 -6.5t67 -12t36.5 -19.5q6 -17 5 -36.5t-7 -37t-17 -30.5t-26 -17q-60 7 -113.5 9.5t-101.5 2.5h-26l-10 -44q-8 -30 -14 -62.5t-11 -66.5q57 3 99 4t70 1q36 0 58 -6t29 -24
q9 -27 4.5 -47t-14 -33t-19.5 -19.5t-12 -6.5q-31 0 -61.5 4t-62.5 4q-25 1 -48 1h-46q-2 -45 0.5 -88t5.5 -84q22 2 44.5 3t47.5 1q93 0 153.5 -7t76.5 -28q5 -15 4.5 -30.5t-5.5 -29.5t-14.5 -24.5t-22.5 -13.5q-44 5 -80.5 7.5t-71.5 2.5q-36 0 -71 -3t-67 -3h-25.5
t-23.5 2q-13 2 -23.5 6t-17.5 13q-10 14 -16.5 32.5t-13.5 43.5q-15 64 -19 134t-1.5 136t9 123t13.5 96q-14 1 -22.5 9.5t-13.5 19t-8 21t-4 16.5z" />
    <glyph glyph-name="Edotaccent" unicode="&#x116;" horiz-adv-x="531" 
d="M261 772q-19 -2 -31 1q-23 5 -41.5 21t-26.5 40q-13 37 -6.5 57.5t39.5 20.5q15 0 31.5 -5t30.5 -13.5t25 -19t15 -21.5q3 -10 3.5 -23t-3 -25.5t-12.5 -21.5t-24 -11zM-23 631q-6 25 6.5 42.5t39 27.5t65.5 14.5t87 4.5q52 0 100.5 -2t88 -6.5t67 -12t36.5 -19.5
q6 -17 5 -36.5t-7 -37t-17 -30.5t-26 -17q-60 7 -113.5 9.5t-101.5 2.5h-26l-10 -44q-8 -30 -14 -62.5t-11 -66.5q57 3 99 4t70 1q36 0 58 -6t29 -24q9 -27 4.5 -47t-14 -33t-19.5 -19.5t-12 -6.5q-31 0 -61.5 4t-62.5 4q-25 1 -48 1h-46q-2 -45 0.5 -88t5.5 -84
q22 2 44.5 3t47.5 1q93 0 153.5 -7t76.5 -28q5 -15 4.5 -30.5t-5.5 -29.5t-14.5 -24.5t-22.5 -13.5q-44 5 -80.5 7.5t-71.5 2.5q-36 0 -71 -3t-67 -3h-25.5t-23.5 2q-13 2 -23.5 6t-17.5 13q-10 14 -16.5 32.5t-13.5 43.5q-15 64 -19 134t-1.5 136t9 123t13.5 96
q-14 1 -22.5 9.5t-13.5 19t-8 21t-4 16.5z" />
    <glyph glyph-name="Egrave" unicode="&#xc8;" horiz-adv-x="531" 
d="M-23 631q-6 25 6.5 42.5t39 27.5t65.5 14.5t87 4.5q52 0 100.5 -2t88 -6.5t67 -12t36.5 -19.5q6 -17 5 -36.5t-7 -37t-17 -30.5t-26 -17q-60 7 -113.5 9.5t-101.5 2.5h-26l-10 -44q-8 -30 -14 -62.5t-11 -66.5q57 3 99 4t70 1q36 0 58 -6t29 -24q9 -27 4.5 -47t-14 -33
t-19.5 -19.5t-12 -6.5q-31 0 -61.5 4t-62.5 4q-25 1 -48 1h-46q-2 -45 0.5 -88t5.5 -84q22 2 44.5 3t47.5 1q93 0 153.5 -7t76.5 -28q5 -15 4.5 -30.5t-5.5 -29.5t-14.5 -24.5t-22.5 -13.5q-44 5 -80.5 7.5t-71.5 2.5q-36 0 -71 -3t-67 -3h-25.5t-23.5 2q-13 2 -23.5 6
t-17.5 13q-10 14 -16.5 32.5t-13.5 43.5q-15 64 -19 134t-1.5 136t9 123t13.5 96q-14 1 -22.5 9.5t-13.5 19t-8 21t-4 16.5zM359 780q4 -11 -13 -11t-41.5 5.5t-53 15t-57.5 23t-54 30t-43.5 35.5t-25.5 40q-3 9 3 16t17 10q38 10 64 -5t52 -39q16 -15 40.5 -31t48.5 -32
t42 -30.5t21 -26.5z" />
    <glyph glyph-name="Ograve" unicode="&#xd2;" horiz-adv-x="742" 
d="M-32 237q-16 52 -16 109q0 78 26.5 148t74.5 123t115.5 84t148.5 31q89 0 155 -29t110 -80t66 -120t22 -149q0 -45 -9 -90.5t-28 -87t-47 -77.5t-65 -62q-49 -41 -103 -54.5t-113 -13.5q-79 0 -134 18.5t-94 53t-64.5 84.5t-44.5 112zM328 63q47 0 78.5 26t50.5 67t27 91
t8 98q0 58 -10.5 111.5t-33.5 93.5t-61 64t-93 24q-48 0 -79 -26.5t-50 -67.5t-26.5 -91.5t-7.5 -98.5q0 -58 10 -111t33.5 -93t61 -63.5t92.5 -23.5zM412 801q4 -11 -13 -11q-16 0 -41 5.5t-53.5 15t-57.5 23t-54 30t-43.5 35.5t-25.5 40q-3 9 3 16t17 10q38 10 64 -5
t52 -39q16 -15 40.5 -31t48.5 -32t42 -30.5t21 -26.5z" />
    <glyph glyph-name="Odieresis" unicode="&#xd6;" horiz-adv-x="742" 
d="M-32 237q-16 52 -16 109q0 78 26.5 148t74.5 123t115.5 84t148.5 31q89 0 155 -29t110 -80t66 -120t22 -149q0 -45 -9 -90.5t-28 -87t-47 -77.5t-65 -62q-49 -41 -103 -54.5t-113 -13.5q-79 0 -134 18.5t-94 53t-64.5 84.5t-44.5 112zM328 63q47 0 78.5 26t50.5 67t27 91
t8 98q0 58 -10.5 111.5t-33.5 93.5t-61 64t-93 24q-48 0 -79 -26.5t-50 -67.5t-26.5 -91.5t-7.5 -98.5q0 -58 10 -111t33.5 -93t61 -63.5t92.5 -23.5zM399 914q26 -2 51 -16t38 -34q17 -20 11.5 -41.5t-24.5 -32.5q-24 -12 -54 -3.5t-48 38.5q-11 15 -15 31.5t-1 29.5t13 21
t29 7zM175 837q-6 15 -8.5 29t0.5 25t12 17.5t27 6.5q15 0 30.5 -4.5t28.5 -12.5t23 -18.5t14 -22.5q6 -18 3 -36t-14.5 -29t-31 -12.5t-45.5 13.5q-12 7 -22.5 18t-16.5 26z" />
    <glyph glyph-name="Ocircumflex" unicode="&#xd4;" horiz-adv-x="742" 
d="M-32 237q-16 52 -16 109q0 78 26.5 148t74.5 123t115.5 84t148.5 31q89 0 155 -29t110 -80t66 -120t22 -149q0 -45 -9 -90.5t-28 -87t-47 -77.5t-65 -62q-49 -41 -103 -54.5t-113 -13.5q-79 0 -134 18.5t-94 53t-64.5 84.5t-44.5 112zM328 63q47 0 78.5 26t50.5 67t27 91
t8 98q0 58 -10.5 111.5t-33.5 93.5t-61 64t-93 24q-48 0 -79 -26.5t-50 -67.5t-26.5 -91.5t-7.5 -98.5q0 -58 10 -111t33.5 -93t61 -63.5t92.5 -23.5zM488 814q3 -8 4 -15.5t0 -12.5q2 -7 -2 -11t-11 -5.5t-16 -1.5t-17 2q-18 3 -30.5 16.5t-23.5 30t-23 32t-29 23.5
q-9 -4 -19.5 -20t-23.5 -34t-26.5 -33t-28.5 -16q-17 0 -31 11t-15 24q-2 17 9.5 40t30 45t43 39.5t49.5 23.5q31 8 58 -8q12 -6 25.5 -19.5t27 -31.5t26 -38.5t23.5 -40.5z" />
    <glyph glyph-name="Oacute" unicode="&#xd3;" horiz-adv-x="742" 
d="M-32 237q-16 52 -16 109q0 78 26.5 148t74.5 123t115.5 84t148.5 31q89 0 155 -29t110 -80t66 -120t22 -149q0 -45 -9 -90.5t-28 -87t-47 -77.5t-65 -62q-49 -41 -103 -54.5t-113 -13.5q-79 0 -134 18.5t-94 53t-64.5 84.5t-44.5 112zM328 63q47 0 78.5 26t50.5 67t27 91
t8 98q0 58 -10.5 111.5t-33.5 93.5t-61 64t-93 24q-48 0 -79 -26.5t-50 -67.5t-26.5 -91.5t-7.5 -98.5q0 -58 10 -111t33.5 -93t61 -63.5t92.5 -23.5zM513 921q6 -27 -6.5 -50.5t-35 -42t-51.5 -31t-55 -17.5q-5 -1 -12.5 -3t-15.5 -2t-14.5 2.5t-9.5 9.5q-5 14 3 27.5
t20 27t25.5 27.5t21.5 29q5 11 10 19.5t9 15.5q6 9 15 15t33 6q8 0 18 -3t19.5 -7.5t16.5 -10.5t9 -12z" />
    <glyph glyph-name="Oslash" unicode="&#xd8;" horiz-adv-x="754" 
d="M209 -114q-13 -16 -36 -18q-13 -2 -28 2t-29 13t-27.5 21.5t-23.5 27.5q2 13 11 36t23 55q-49 35 -79 88.5t-52 125.5q-16 52 -16 109q0 78 26.5 148t74.5 123t115.5 84t148.5 31q26 0 49.5 -2.5t45.5 -7.5q5 13 9.5 25.5t9.5 24.5l24 54q12 4 27 5t31.5 -4t32.5 -18
t29 -36q-6 -15 -19 -40t-30 -60q72 -50 108 -133t36 -186q0 -45 -9 -90.5t-28 -87t-47 -77.5t-65 -62q-49 -41 -103 -54.5t-113 -13.5q-21 0 -40 1.5t-37 3.5q-6 -23 -10.5 -45t-8.5 -43zM328 63q47 0 78.5 26t50.5 67t27 91t8 98q0 54 -8.5 102.5t-27.5 87.5
q-25 -50 -51.5 -106t-52.5 -115t-50 -119.5t-43 -119.5q30 -12 69 -12zM131 354q0 -53 8 -100.5t26 -86.5q24 51 50 107t53 114.5t53.5 117.5t50.5 116q-35 16 -78 16q-48 0 -79 -26.5t-50 -67.5t-26.5 -91.5t-7.5 -98.5z" />
    <glyph glyph-name="Otilde" unicode="&#xd5;" horiz-adv-x="742" 
d="M-32 237q-16 52 -16 109q0 78 26.5 148t74.5 123t115.5 84t148.5 31q89 0 155 -29t110 -80t66 -120t22 -149q0 -45 -9 -90.5t-28 -87t-47 -77.5t-65 -62q-49 -41 -103 -54.5t-113 -13.5q-79 0 -134 18.5t-94 53t-64.5 84.5t-44.5 112zM328 63q47 0 78.5 26t50.5 67t27 91
t8 98q0 58 -10.5 111.5t-33.5 93.5t-61 64t-93 24q-48 0 -79 -26.5t-50 -67.5t-26.5 -91.5t-7.5 -98.5q0 -58 10 -111t33.5 -93t61 -63.5t92.5 -23.5zM330 919q13 -2 28 -5.5t31 -7.5q7 -2 12 -3l10 -2q12 -3 21 -5.5t17 -2.5q19 0 26.5 3t9.5 6.5t2.5 6.5t6.5 4q13 0 25 -7
t21 -17t14.5 -22t6.5 -22q1 -2 1 -7v1q0 -23 -17 -36.5t-44 -15.5q-18 -2 -36 3.5t-40 13t-48.5 15t-60.5 10.5q-17 1 -28 -1t-22 -2q-5 0 -7.5 -0.5t-6.5 -0.5q-12 0 -18.5 10.5t-8.5 23.5t2 25.5t15 21.5t30.5 13.5t49.5 0.5q5 0 8 -1z" />
    <glyph glyph-name="oslash" unicode="&#xf8;" horiz-adv-x="445" 
d="M315 128q-9 -24 -26 -49t-40 -44.5t-52.5 -32t-64.5 -12.5h-8q-6 -23 -10.5 -44.5t-9.5 -37.5t-12 -26t-19 -11q-8 -1 -18 1.5t-20 8t-18.5 12.5t-13.5 16q-3 5 7.5 33.5t29.5 73.5q-29 17 -50.5 43t-32.5 58q-17 51 -10 103t30 95t60 70t80 27q12 0 25.5 -3.5
t24.5 -10.5q7 2 13 3l12 2q17 55 26 98q13 5 23 8l9.5 -0.5t21.5 -4t24 -11t18 -20.5q2 -5 0 -7q-18 -36 -41 -92q19 -17 31.5 -40t19.5 -48t7.5 -50t-4.5 -44q12 -11 29 -11q21 0 32.5 15t24.5 35q7 12 13 12q12 -2 19.5 -8.5t11.5 -15.5q4 -17 -1 -35.5t-17 -34
t-29.5 -25.5t-39.5 -10q-28 0 -55 14zM146 79q21 1 35.5 14.5t23.5 34t11.5 46t-1.5 50.5q-8 6 -18 17t-19 24t-17 27.5t-12 28.5q-2 5 -1.5 9.5t0.5 7.5q-20 -9 -36.5 -30t-26.5 -47.5t-12 -55.5t7 -55q8 -26 24.5 -48.5t41.5 -22.5z" />
    <glyph glyph-name="Scaron" unicode="&#x160;" horiz-adv-x="555" 
d="M441 933q-16 -18 -30.5 -43t-31.5 -48.5t-38 -41t-49 -20.5q-19 -3 -34 4q-21 9 -43.5 32.5t-41.5 49t-31.5 47t-11.5 25.5q2 13 15.5 26.5t24.5 13.5q17 0 29 -9t20.5 -22t15.5 -28t13.5 -28t15 -21t20.5 -7q7 3 15.5 22.5t20.5 40t30 35t44 7.5q7 0 16.5 -4.5t17.5 -10
t12 -11t1 -9.5zM-27 245q6 19 20 28t29 9q9 0 26 -3t34.5 -8.5t30 -14t11.5 -20.5q0 -10 -3.5 -21.5t-4.5 -24.5q-3 -62 31 -101.5t90 -39.5q25 0 49 8t42.5 23t30.5 36t14 47q1 20 -6.5 38t-18.5 37q-25 42 -65.5 70.5t-84.5 56.5t-84 61.5t-63 84.5q-17 42 -15 80
q1 31 16 58t44.5 48t73 34t103.5 16q44 0 85 -12.5t72 -35t49 -54t16 -70.5q-1 -19 -8.5 -35t-18 -28t-23 -18.5t-24.5 -6.5q-13 0 -32 4t-37.5 11.5t-33 17.5t-17.5 21q0 8 4.5 14.5t10 15t12 19t11.5 27.5q-8 13 -27 22.5t-49 9.5q-17 0 -35.5 -3t-33.5 -10t-25 -17
t-11 -23q0 -13 7 -25.5t24 -27.5t44.5 -34t66.5 -46q64 -48 108 -83t71 -65.5t38.5 -60.5t9.5 -68q-2 -40 -24.5 -80.5t-62 -72.5t-93 -52.5t-117.5 -20.5q-54 0 -102.5 21t-85 55.5t-57 79t-18.5 91.5q0 10 2 19t4 19z" />
    <glyph glyph-name="Uacute" unicode="&#xda;" horiz-adv-x="664" 
d="M534 382q0 -66 -1 -116t-4 -86.5t-8.5 -62.5t-14.5 -45q-14 -30 -35 -49.5t-48.5 -30.5t-61.5 -15t-74 -4q-55 0 -101 18.5t-82 49.5t-61.5 72.5t-38.5 88.5q-18 73 -25 151.5t-2.5 149.5t19 127.5t39.5 83.5q12 12 29 12q16 0 35.5 -5.5t37.5 -15.5t31.5 -23t18.5 -28
q6 -19 -3 -32q-4 -10 -11 -35t-14 -60t-13 -77t-8.5 -86t0 -87.5t11.5 -80.5q1 -3 0.5 -5.5t1.5 -5.5q14 -46 47.5 -76t81.5 -30q28 0 47.5 19.5t28.5 53.5q5 23 7 62.5t-1 90.5q-6 84 -4 160.5t14 134.5t34 92t55 34q7 0 23 -4.5t33 -13t32.5 -21.5t22.5 -31
q4 -15 -1 -42.5t-13.5 -63.5t-16 -79t-7.5 -89zM418 910q6 -27 -6.5 -50.5t-35 -42t-51.5 -31t-55 -17.5q-5 -1 -12.5 -3t-15.5 -2t-14.5 2.5t-9.5 9.5q-5 14 3 27.5t20 27t25.5 27.5t21.5 29q5 11 10 19.5t9 15.5q6 9 15 15t33 6q8 0 18 -3t19.5 -7.5t16.5 -10.5t9 -12z
" />
    <glyph glyph-name="Ucircumflex" unicode="&#xdb;" horiz-adv-x="664" 
d="M534 382q0 -66 -1 -116t-4 -86.5t-8.5 -62.5t-14.5 -45q-14 -30 -35 -49.5t-48.5 -30.5t-61.5 -15t-74 -4q-55 0 -101 18.5t-82 49.5t-61.5 72.5t-38.5 88.5q-18 73 -25 151.5t-2.5 149.5t19 127.5t39.5 83.5q12 12 29 12q16 0 35.5 -5.5t37.5 -15.5t31.5 -23t18.5 -28
q6 -19 -3 -32q-4 -10 -11 -35t-14 -60t-13 -77t-8.5 -86t0 -87.5t11.5 -80.5q1 -3 0.5 -5.5t1.5 -5.5q14 -46 47.5 -76t81.5 -30q28 0 47.5 19.5t28.5 53.5q5 23 7 62.5t-1 90.5q-6 84 -4 160.5t14 134.5t34 92t55 34q7 0 23 -4.5t33 -13t32.5 -21.5t22.5 -31
q4 -15 -1 -42.5t-13.5 -63.5t-16 -79t-7.5 -89zM402 813q3 -8 4 -15.5t0 -12.5q2 -7 -2 -11t-11 -5.5t-16 -1.5t-17 2q-18 3 -30.5 16.5t-23.5 30t-23 32t-29 23.5q-9 -4 -19.5 -20t-23.5 -34t-26.5 -33t-28.5 -16q-17 0 -31 11t-15 24q-2 17 9.5 40t30 45t43 39.5
t49.5 23.5q31 8 58 -8q12 -6 25.5 -19.5t27 -31.5t26 -38.5t23.5 -40.5z" />
    <glyph glyph-name="Udieresis" unicode="&#xdc;" horiz-adv-x="664" 
d="M534 382q0 -66 -1 -116t-4 -86.5t-8.5 -62.5t-14.5 -45q-14 -30 -35 -49.5t-48.5 -30.5t-61.5 -15t-74 -4q-55 0 -101 18.5t-82 49.5t-61.5 72.5t-38.5 88.5q-18 73 -25 151.5t-2.5 149.5t19 127.5t39.5 83.5q12 12 29 12q16 0 35.5 -5.5t37.5 -15.5t31.5 -23t18.5 -28
q6 -19 -3 -32q-4 -10 -11 -35t-14 -60t-13 -77t-8.5 -86t0 -87.5t11.5 -80.5q1 -3 0.5 -5.5t1.5 -5.5q14 -46 47.5 -76t81.5 -30q28 0 47.5 19.5t28.5 53.5q5 23 7 62.5t-1 90.5q-6 84 -4 160.5t14 134.5t34 92t55 34q7 0 23 -4.5t33 -13t32.5 -21.5t22.5 -31
q4 -15 -1 -42.5t-13.5 -63.5t-16 -79t-7.5 -89zM345 898q26 -2 51 -16t38 -34q17 -20 11.5 -41.5t-24.5 -32.5q-24 -12 -54 -3.5t-48 38.5q-11 15 -15 31.5t-1 29.5t13 21t29 7zM121 821q-6 15 -8.5 29t0.5 25t12 17.5t27 6.5q15 0 30.5 -4.5t28.5 -12.5t23 -18.5t14 -22.5
q6 -18 3 -36t-14.5 -29t-31 -12.5t-45.5 13.5q-12 7 -22.5 18t-16.5 26z" />
    <glyph glyph-name="Ugrave" unicode="&#xd9;" horiz-adv-x="664" 
d="M534 382q0 -66 -1 -116t-4 -86.5t-8.5 -62.5t-14.5 -45q-14 -30 -35 -49.5t-48.5 -30.5t-61.5 -15t-74 -4q-55 0 -101 18.5t-82 49.5t-61.5 72.5t-38.5 88.5q-18 73 -25 151.5t-2.5 149.5t19 127.5t39.5 83.5q12 12 29 12q16 0 35.5 -5.5t37.5 -15.5t31.5 -23t18.5 -28
q6 -19 -3 -32q-4 -10 -11 -35t-14 -60t-13 -77t-8.5 -86t0 -87.5t11.5 -80.5q1 -3 0.5 -5.5t1.5 -5.5q14 -46 47.5 -76t81.5 -30q28 0 47.5 19.5t28.5 53.5q5 23 7 62.5t-1 90.5q-6 84 -4 160.5t14 134.5t34 92t55 34q7 0 23 -4.5t33 -13t32.5 -21.5t22.5 -31
q4 -15 -1 -42.5t-13.5 -63.5t-16 -79t-7.5 -89zM352 762q4 -11 -13 -11q-16 0 -41 5.5t-53.5 15t-57.5 23t-54 30t-43.5 35.5t-25.5 40q-3 9 3 16t17 10q38 10 64 -5t52 -39q16 -15 40.5 -31t48.5 -32t42 -30.5t21 -26.5z" />
    <glyph glyph-name="yen" unicode="&#xa5;" horiz-adv-x="533" 
d="M87 235l-6 53q-16 1 -30 2.5t-26 4.5q-11 4 -17.5 10.5t-4.5 19.5q-2 10 5.5 20t21.5 12q8 0 16.5 0.5t16.5 1.5q-40 54 -82 105.5t-84 98.5q-17 17 -34.5 38t-20.5 32q-5 16 0 30.5t14 25t20 17t18 7.5q36 0 72 -26.5t70 -66t67 -85t63 -83.5l37 76q13 29 29 58t36 53.5
t46 42.5t61 24q13 1 34 -3q10 -2 21 -6t20.5 -8.5t16.5 -10t9 -10.5q3 -9 -4 -23t-19.5 -30t-29.5 -33.5t-34 -34.5q-20 -22 -43 -45.5t-45 -46.5t-39.5 -43.5t-27.5 -36.5l-5 -8q33 3 70 9q9 -2 9 -7q23 -12 23 -35q0 -19 -19.5 -28t-47.5 -14q-9 -2 -19.5 -3t-21.5 -1
q1 -11 2 -23t3 -25q44 2 88 10q31 -9 39 -35q5 -13 2 -24.5t-11 -19.5q-42 -11 -106 -12q5 -35 8.5 -66.5t2 -56t-8.5 -39t-23 -14.5q-33 0 -59 24t-40 75q-6 18 -11 37.5t-9 39.5l-60 3q-10 4 -16 11t-9 15q-4 14 3.5 27.5t36.5 18.5z" />
    <glyph glyph-name="Euro" unicode="&#x20ac;" horiz-adv-x="695" 
d="M-19 335q18 -3 45.5 -1t59 5.5t64 7t60 3t47 -7t24.5 -21.5q7 -20 -4.5 -31t-34.5 -16t-53.5 -6t-61.5 -1q-18 0 -47 -1.5t-57 0t-50.5 8t-27.5 21.5q-4 12 6.5 25t29.5 15zM104 215q45 2 82 3.5t79 8.5q29 -8 37 -33q9 -22 -3.5 -33t-37 -15.5t-57 -5t-64.5 -0.5
q-20 0 -46.5 -1t-52 1t-45 8t-23.5 20q-5 14 2.5 26.5t33.5 17.5zM628 130q8 -28 -6 -61.5t-48 -62.5t-86 -48.5t-121 -19.5q-80 0 -139 22.5t-100 58t-67 78.5t-40 85q-24 72 -8.5 140.5t61 122t115.5 85.5t156 32q69 0 120.5 -29.5t72.5 -91.5q9 -26 5 -47.5t-15 -36.5
t-25.5 -23t-27.5 -8q-14 0 -33 5.5t-38 15t-34 21.5t-19 25q-4 11 5 18.5t20.5 15t19.5 17t3 25.5q-2 8 -13 15.5t-36 7.5q-48 0 -85.5 -27t-58.5 -72.5t-23.5 -105t18.5 -123.5q20 -61 67 -100t125 -39q27 0 48.5 4t40.5 13t37.5 22.5t40.5 33.5q8 7 16.5 20t17.5 22
t17.5 9t16.5 -19z" />
    <glyph glyph-name="currency" unicode="&#xa4;" horiz-adv-x="511" 
d="M368 138q0 -2 -1 -4.5t-2 -5.5q28 -22 44 -33t23.5 -17t10.5 -10t6 -13q3 -8 -4 -16t-14 -10q-9 -6 -25 -3q-15 3 -25 7.5t-18.5 11t-16.5 15.5t-19 20q-26 -24 -64.5 -36.5t-80.5 -5.5q-20 3 -38 8.5t-35 16.5q-5 -9 -8.5 -18.5t-8 -17t-11 -11.5t-18.5 -2q-1 0 -12 5.5
t-23 13t-21.5 15.5t-6.5 13q-2 4 8.5 18t29.5 35q-17 17 -27 36t-17 40q-14 50 -10.5 95t29.5 80q-11 10 -23.5 23t-22.5 24.5t-17 21t-8 13.5q-4 12 1 18t13.5 8t16 2t8.5 -1q13 -2 22.5 -8t18.5 -15.5t19 -20.5t24 -22q12 7 24 13.5t26 11t31 6.5t40 0t45 -11t46 -23
q6 8 10 16.5t9.5 15.5t12.5 10.5t18 2.5q1 0 9.5 -3t19 -9t20.5 -14.5t13 -20.5q0 -1 -4.5 -6.5t-11.5 -13.5t-14.5 -17t-14.5 -16q8 -13 15.5 -27t12.5 -29q14 -45 12 -83t-16 -73zM223 346q-8 3 -16 3.5t-16 -0.5q-19 -5 -37.5 -19t-31.5 -35t-17.5 -47t4.5 -55
q12 -36 31.5 -57.5t42.5 -25.5q25 -4 45.5 11t33 40.5t15 56.5t-6.5 60q-6 20 -17 37t-30 31z" />
    </font>
</defs>
</svg>
