<?xml version="1.0" encoding="utf-8"?>
<!-- Generator: Adobe Illustrator 23.0.1, SVG Export Plug-In . SVG Version: 6.00 Build 0)  -->
<svg version="1.1" id="Layer_1" xmlns="http://www.w3.org/2000/svg" xmlns:xlink="http://www.w3.org/1999/xlink" x="0px" y="0px"
	 viewBox="0 0 200 200" style="enable-background:new 0 0 200 200;" xml:space="preserve">
<style type="text/css">
	.st0{stroke:#000000;stroke-width:3;stroke-miterlimit:10;}
</style>
<path class="st0" d="M102.6,62.7c-0.9-0.8-2.4-0.8-3.3,0c-1.4,1.3-33.8,31.8-33.8,57.4c0,18.7,14.6,34.1,33,35.3v16
	c0,1.3,1.1,2.4,2.4,2.4s2.4-1.1,2.4-2.4v-16c18.4-1.3,33-16.6,33-35.3C136.4,93.1,104,64,102.6,62.7z M98.6,150.6
	c-15.7-1.2-28.1-14.4-28.1-30.4c0-18.3,19.4-40.6,28.1-49.7V150.6z M103.4,150.6V70.3c8.7,8.7,28.1,30.4,28.1,49.9
	C131.6,136.2,119.2,149.4,103.4,150.6z"/>
<path class="st0" d="M6.6,93.4l14.6-13.3v115c0,1.3,1.1,2.4,2.4,2.4h152.3c1.3,0,2.4-1.1,2.4-2.4v-115L193.4,94
	c0.5,0.4,1.1,0.6,1.6,0.6c0.7,0,1.3-0.3,1.8-0.8c0.9-1,0.8-2.5-0.2-3.4l-30-27.4V12.4c0-1.3-1.1-2.4-2.4-2.4h-30.4
	c-1.3,0-2.4,1.1-2.4,2.4v18.3L101.3,3.1c-0.9-0.9-2.4-0.9-3.3,0L3.3,89.8c-1,0.9-1.1,2.5-0.2,3.4C4,94.2,5.6,94.3,6.6,93.4z
	 M136.4,14.9h25.5v43.6l-25.5-23.3V14.9z M26,75.6L99.7,8.2l73.7,67.4v117H26V75.6z"/>
</svg>
