<?xml version="1.0" encoding="utf-8"?>
<!-- Generator: Adobe Illustrator 23.0.1, SVG Export Plug-In . SVG Version: 6.00 Build 0)  -->
<svg version="1.1" id="Layer_1" xmlns="http://www.w3.org/2000/svg" xmlns:xlink="http://www.w3.org/1999/xlink" x="0px" y="0px"
	 viewBox="0 0 200 200" style="enable-background:new 0 0 200 200;" xml:space="preserve">
<style type="text/css">
	.st0{fill:none;stroke:#000000;stroke-width:8;stroke-linecap:round;stroke-linejoin:round;}
</style>
<g>
	<path class="st0" d="M13.1,114.7h22.5c4.1,0,7.5,3.6,7.5,8v61.9c0,4.4-3.4,8-7.5,8H13.1c-4.1,0-7.5-3.6-7.5-8v-61.9
		C5.6,118.3,9,114.7,13.1,114.7z"/>
	<path class="st0" d="M43.1,129c0,0,29-8,52.8-21.2c10.9-6,26.1,0.5,28.7,12.2l-58.8,31.6"/>
	<path class="st0" d="M83.8,141.9l34.2,22.5l39.3-19.7c0,0,20.4-9.6,36.8,10.1l-66,34.4l-84.9-4.1"/>
	<path class="st0" d="M54.5,125.3C65.9,68.4,180,67.6,178.2,143.7"/>
	<polyline class="st0" points="115.9,84.4 115.9,55.4 124.4,44.1 	"/>
	<line class="st0" x1="115.9" y1="55.4" x2="108.3" y2="44.3"/>
	<path class="st0" d="M124.4,44.1c0,0-13.5-34.4,37.5-39.3C161.9,4.7,167.1,50,124.4,44.1z"/>
	<path class="st0" d="M108.3,44.3c0,0,8.5-37.8-37.3-39.3C71.1,5,66.2,48.2,108.3,44.3z"/>
</g>
</svg>
