<?xml version="1.0" encoding="utf-8"?>
<!-- Generator: Adobe Illustrator 23.0.1, SVG Export Plug-In . SVG Version: 6.00 Build 0)  -->
<svg version="1.1" id="Layer_1" xmlns="http://www.w3.org/2000/svg" xmlns:xlink="http://www.w3.org/1999/xlink" x="0px" y="0px"
	 viewBox="0 0 200 200" style="enable-background:new 0 0 200 200;" xml:space="preserve">
<title>healthy, fitness, sport</title>
<g>
	<path d="M194.7,67.9c-4.9-32.2-35-54.3-67.2-49.4c-10,1.5-19.5,5.6-27.4,11.8c-25.5-20.2-62.6-15.8-82.7,9.7
		c-17.5,22.2-16.8,53.7,1.7,75c0.2,0.4,0.5,0.8,0.8,1.2l70.6,70.6c5.3,5.3,13.9,5.3,19.2,0l70.6-70.6c0.3-0.3,0.6-0.7,0.8-1.1
		C192.3,102.2,197.2,84.9,194.7,67.9z M173.6,110.1l-0.5,0.6l-69.8,69.8c-1.6,1.8-4.4,1.8-6.2,0.2c-0.1-0.1-0.1-0.1-0.2-0.2
		l-69.8-69.7l-0.5-0.7C16.6,98.9,12.2,84,14.4,69.2c4.2-27.2,29.7-45.9,57-41.7C80.9,29,89.8,33.2,97,39.6c0.7,0.5,1.4,0.9,2.3,1.1
		c1.4,0.3,2.9-0.1,3.9-1.1c11.1-9.9,26.1-14.3,40.8-12.2c21.5,3.3,38.4,20.2,41.7,41.7C187.9,84,183.5,98.9,173.6,110.1z
		 M136.3,54.2c-7.5,0-13.6,6.1-13.6,13.6v13.6H77.4V67.8c0-7.5-6.1-13.6-13.6-13.6s-13.6,6.1-13.6,13.6v36.3
		c0,7.5,6.1,13.6,13.6,13.6s13.6-6.1,13.6-13.6V90.5h45.4v13.6c0,7.5,6.1,13.6,13.6,13.6c7.5,0,13.6-6.1,13.6-13.6V67.8
		C150,60.2,143.9,54.2,136.3,54.2z M68.3,104.1c0,2.5-2,4.5-4.5,4.5c-2.5,0-4.5-2-4.5-4.5V67.8c0-2.5,2-4.5,4.5-4.5
		c2.5,0,4.5,2,4.5,4.5V104.1z M140.9,104.1c0,2.5-2,4.5-4.5,4.5s-4.5-2-4.5-4.5V67.8c0-2.5,2-4.5,4.5-4.5s4.5,2,4.5,4.5V104.1z
		 M168.1,76.8V95c0,2.5-2,4.5-4.5,4.5s-4.5-2-4.5-4.5V76.8c0-2.5,2-4.5,4.5-4.5S168.1,74.3,168.1,76.8z M41.1,76.8V95
		c0,2.5-2,4.5-4.5,4.5S32,97.5,32,95V76.8c0-2.5,2-4.5,4.5-4.5S41.1,74.3,41.1,76.8z"/>
</g>
</svg>
