<?xml version="1.0" encoding="utf-8"?>
<!-- Generator: Adobe Illustrator 23.0.1, SVG Export Plug-In . SVG Version: 6.00 Build 0)  -->
<svg version="1.1" id="Layer_1" xmlns="http://www.w3.org/2000/svg" xmlns:xlink="http://www.w3.org/1999/xlink" x="0px" y="0px"
	 viewBox="0 0 200 200" style="enable-background:new 0 0 200 200;" xml:space="preserve">
<style type="text/css">
	.st0{stroke:#000000;stroke-width:4;stroke-miterlimit:10;}
</style>
<path class="st0" d="M117.5,114.2l10.7-11c1-1,2.3-1.3,3.6-1c2.6,1,5.5,1.3,8.7,1.3c12.3,0,26.6-7.1,38.2-18.8
	c18.8-18.8,24-43.7,11.7-55.7c-4.2-4.2-10.4-6.5-17.5-6.5c-12.6,0-26.9,6.8-38.2,18.5c-15.2,15.2-22,34-17.5,47.3
	c0.3,1.3,0,2.6-1,3.6l-11.3,11l-10.4-9.7c-1.9-1.9-2.6-4.5-1.9-7.1c3.2-9.7,0.3-21-7.4-28.8L40.7,11.8c-0.6-0.6-1.9-0.6-2.9,0
	c-0.6,0.6-0.6,1.9,0,2.9l44.7,44.7c6.8,6.8,9.4,16.5,6.5,24.9c-1.3,3.9-0.3,8.4,2.9,11.3l10,9.7l-5.2,4.9l-9.7-10
	c-2.9-2.9-7.4-4.2-11.3-2.9c-8.4,2.6-18.1,0-24.9-6.5L6.4,46.2c-0.6-0.6-1.9-0.6-2.9,0c-0.6,0.6-0.6,1.9,0,2.9l44.7,44.7
	c7.8,7.8,19.1,10.7,28.8,7.4c2.6-1,5.5,0,7.1,1.9l9.7,10l-59.9,57.6c-1.9,1.9-3.2,4.5-3.2,7.4s1,5.5,2.9,7.4
	c1.9,1.9,4.5,2.9,7.1,2.9l0,0c2.9,0,5.5-1.3,7.4-3.2l58-59.6l56.7,59.6c1.9,1.9,4.5,3.2,7.4,3.2l0,0c2.6,0,5.2-1,7.1-2.9
	c1.9-1.9,2.9-4.5,2.9-7.4c0-2.9-1.3-5.5-3.2-7.4L117.5,114.2z M45.6,182.8c-1.3,1.3-2.9,1.9-4.5,1.9l0,0c-1.6,0-3.2-0.6-4.5-1.9
	c-1.3-1.3-1.9-2.9-1.9-4.5c0-1.6,0.6-3.2,1.9-4.5l82.6-79.7c1.9-1.9,2.9-5.2,1.9-7.8c-4.2-11.7,2.6-28.8,16.5-43.1
	c10.7-10.7,24-17.2,35.6-17.2c6.2,0,11,1.9,14.6,5.5c10.7,10.7,5.2,33-11.7,50.2c-11,11-24.3,17.8-35.6,17.8c-2.6,0-5.2-0.3-7.4-1.3
	c-0.6-0.3-1.6-0.3-2.6-0.3c-1.9,0-3.9,1-5.2,2.3L45.6,182.8z M174.5,182.8c-1.3,1.3-2.9,1.9-4.5,1.9s-3.2-0.6-4.5-1.9l-56.7-59.9
	l5.8-5.8l59.9,56.7c1.3,1.3,1.9,2.9,1.9,4.5C176.4,179.9,175.8,181.5,174.5,182.8z M26.5,25.8c-0.6-0.6-0.6-1.9,0-2.9
	c0.6-0.6,1.9-0.6,2.9,0l43.4,43.4c0.6,0.6,0.6,1.9,0,2.9c-0.3,0.3-1,0.6-1.3,0.6c-0.6,0-1-0.3-1.3-0.6L26.5,25.8z M14.8,37.4
	c-0.6-0.6-0.6-1.9,0-2.9c0.6-0.6,1.9-0.6,2.9,0l43.4,43.4c0.6,0.6,0.6,1.9,0,2.9c-0.3,0.3-1,0.6-1.3,0.6c-0.6,0-1-0.3-1.3-0.6
	L14.8,37.4z"/>
</svg>
