<?xml version="1.0" encoding="utf-8"?>
<!-- Generator: Adobe Illustrator 23.0.1, SVG Export Plug-In . SVG Version: 6.00 Build 0)  -->
<svg version="1.1" id="Layer_1" xmlns="http://www.w3.org/2000/svg" xmlns:xlink="http://www.w3.org/1999/xlink" x="0px" y="0px"
	 viewBox="0 0 200 200" style="enable-background:new 0 0 200 200;" xml:space="preserve">
<style type="text/css">
	.st0{stroke:#000000;stroke-miterlimit:10;}
</style>
<title>wash hands, wash, hands, water, water tap, hygiene_1</title>
<g>
	<path class="st0" d="M196.2,168.5c-1-1.5-2.4-2.8-4.1-3.7c0.4-0.7,0.8-1.4,1-2.1c1.9-5.9-2.8-8.9-6.2-11.1l-0.7-0.5
		c-4.2-2.2-8.5-4.1-12.8-5.8c1.2-1.2,2-2.8,2.2-4.6c0.1-1.3-0.1-2.7-0.5-3.9c1.5-0.7,2.9-1.7,4-3c1.6-2.1,2.2-4.7,1.8-7.3
		c-0.3-1.9-1.3-3.7-2.9-4.8c-1.5-1-3.3-1.7-5.1-1.9c0.2-0.8,0.2-1.6,0.2-2.3c-0.4-6.1-5.8-7.2-9.8-8l-0.9-0.2
		c-3-0.6-18.8-0.7-23.9-0.7l1.1-1.1c4.7-4.7,6.6-10.8,5.1-16.1c-0.6-2.9-2.7-5.3-5.4-6.2l0,0c-5.1-1.3-9.6,3.4-12.6,6.5
		c-0.6,0.6-1.4,1.4-1.7,1.6l0,0c-0.7,0.4-2.5,1.5-5.8,3.8c-5.6,3.7-14,9.3-19.3,12.6c-4.5,0-9.4-0.1-12.2-0.2l-1.5-0.4
		c4.9-4.1,12.1-11,15.4-17.6c3-6,3-12.3,0-16.9c-1.4-2.6-4.1-4.2-7.1-4.3c-5.2,0.3-8.1,6.2-10.1,10.1c-0.3,0.7-0.8,1.6-1,1.9
		c-0.7,0.5-3.3,2-5.5,3.2c-7,3.9-17.5,9.9-22,15c-1.4,1.6-6.7,7.4-11.4,12.5c-3.8,4.1-7.1,7.7-7.8,8.6s-2.2,2.3-3.8,4
		c-1.8,1.9-3.7,3.8-4.9,5.1c-2,1.3-13.1,3.7-22.4,5.2c-1.7,0.3-2.8,1.8-2.5,3.5s1.8,2.8,3.5,2.5c15.2-2.6,23.9-4.9,25.8-7
		c1.1-1.2,3-3.3,4.8-5.1c1.8-1.8,3.2-3.3,4-4.2s4.1-4.6,7.7-8.5c4.7-5.1,10-10.9,11.5-12.6c3.8-4.3,14.2-10.2,20.4-13.7
		c4.7-2.7,6.3-3.6,7-4.4c0.8-1,1.4-2.1,1.9-3.3c1-2,3.3-6.6,4.9-6.7c0.9,0.4,1.7,1.2,2.1,2.2c0.7,1.3,1.9,5-0.7,10.1
		c-3.8,7.5-14.1,15.9-17.4,18.5c-5.4-1.2-9-1-10.6,0.7c-1.2,1.2-1.2,3.1,0,4.3c1,1,2.6,1.2,3.8,0.4c0.4-0.1,2.2-0.3,6.8,0.8l7.7,1.9
		c0.2,0.1,0.5,0.1,0.7,0.1c1.9,0,19.1,0.4,22.2,0.2c1.7-0.1,9.4-0.3,16.2-0.5l5.1-0.2h0.2h0.5c3-0.1,5.3-0.2,5.9-0.2
		c2.5-0.2,21.5,0,23.8,0.5l0.9,0.2c4.3,0.9,4.9,1.3,5,2.5c0,0.8-0.4,1.6-1,2.1l-61.2,7.2c-1.7,0.1-3,1.5-2.9,3.2
		c0.1,1.7,1.5,3,3.2,2.9h0.4l61.9-7.2h0.1c1.5-0.2,5.4-0.4,7,0.7c0.3,0.2,0.4,0.5,0.5,0.8c0.2,0.9,0,1.9-0.5,2.6
		c-1.2,1.1-2.8,1.9-4.4,2h-0.3l-62.8,11.1c-1.7,0.1-2.9,1.6-2.8,3.3s1.6,2.9,3.3,2.8c0.2,0,0.4,0,0.5,0l61.2-10.8
		c0.3,0.6,0.5,1.2,0.4,1.9c-0.1,0.4-1.6,2.5-6.6,4.2c-5.3,1.8-15.2,4.1-15.6,4.2l0,0l-45.2,9.7c-1.6,0.3-2.7,1.9-2.4,3.6
		c0.3,1.6,1.9,2.7,3.6,2.4c0,0,0.1,0,0.1,0l44.8-9.7c0.5,0,0.9,0.4,1,0.9c0.3,1.1-1.9,2.5-4.1,3.2c-1.1,0.3-3.3,1.2-6,2.2
		c-2.4,0.9-5.6,2.1-8.6,3.2c-0.2,0-0.4,0.1-0.6,0.2c-2.9,1.1-5.8,2-8.9,2.5c-3.6,0.2-8.8,2.2-14.9,4.6c-3.1,1.2-6.4,2.4-9.4,3.4
		c-4.6,1.4-9.4,2.4-14.2,3.2h-0.3c-9.4,1.6-19.8,2.8-24.9,2.3c-9.6-0.9-15.1,0-29.3,4.6c-15.5,4.9-22.4,5.9-22.5,5.9
		c-1.7,0.1-2.9,1.6-2.8,3.2c0.1,1.7,1.6,2.9,3.2,2.8h0.4c0.3,0,7.4-1,23.5-6.2c14.2-4.6,18.7-5,26.9-4.3c5.6,0.5,16.2-0.6,25.6-2.2
		c5.8,2.5,12,4.3,18.2,5.4c2.9,0.6,5.7,1.2,8.3,1.9c10.5,2.8,42.1,5.3,42.5,5.4c0.4,0,1,0,1.5,0c5.6,0,9.4-2.6,10-6.8
		c0-0.4,0-0.7,0-1.1c3.4,0.4,7.4,0.9,10.4,1c6.7,0.3,11.8-1.5,13.4-4.9c0.6-1.2,0.9-2.5,1-3.8c1.7-0.1,3.3-0.5,4.8-1.3
		c2.2-1.3,3.8-3.5,4.3-6.1C197.5,172.2,197.2,170.2,196.2,168.5z M125.3,109.1c-5.3,0.2-10.8,0.3-14,0.4c3.9-2.6,8-5.3,11.2-7.4
		c2.7-1.8,5-3.3,5.5-3.6l0,0c1-0.7,2-1.6,2.8-2.5c1.5-1.5,5.1-5.2,6.8-4.9c0.8,0.7,1.2,1.7,1.3,2.8c0.2,1.5,0.3,5.3-3.8,9.4
		c-2.9,2.9-4.6,4.6-5.4,5.5l-0.2,0.2L125.3,109.1z M164.9,150.3c0.8-0.3,1.5-0.6,2.2-0.9c3.7,1.4,13.9,5.6,15.7,6.8l0.8,0.5
		c3.7,2.4,4.1,3,3.7,4.1c-0.3,0.8-0.9,1.3-1.7,1.5l-30.4-8.1v-0.1c-0.1-0.4-0.2-0.7-0.3-1C158.1,152.3,162.1,151.3,164.9,150.3
		L164.9,150.3z M152.1,190.9c-8.1-0.6-33.1-3-41.4-5.2c-2.8-0.8-5.8-1.4-8.6-2c-2.9-0.6-5.3-1.2-7.9-1.8c1.7-0.4,3.3-0.9,4.6-1.3
		c2-0.6,4-1.4,6-2.1l51.8,9.7c0.5,0.2,0.7,0.7,0.6,1.2C156.9,190.6,154.4,191.1,152.1,190.9z M181.6,182.6c-0.3,0.4-2.4,1.8-7.7,1.5
		c-5.6-0.3-15.4-1.7-16-1.8l-42.1-7.8c1.8-0.7,3.7-1.2,5.7-1.4c3.4-0.5,6.8-1.4,10-2.7l50.4,10.3C182,181.4,181.9,182,181.6,182.6
		L181.6,182.6z M191.2,172.7c-0.1,0.9-0.7,1.8-1.5,2.2c-1.5,0.6-3.3,0.7-4.9,0.2h-0.1h-0.2l-42.3-8.7c2-0.8,3.8-1.4,4.6-1.7
		c2.7-0.7,5.2-2.3,7-4.4l30.8,8.2h0.1c1.5,0.3,5.2,1.6,6.2,3.2C191.1,172,191.3,172.3,191.2,172.7L191.2,172.7z"/>
	<path class="st0" d="M169.6,23.7h0.2c1.7-0.1,2.9-1.6,2.8-3.2c0,0,0,0,0,0l-0.4-6.1c-0.1-1.7-1.6-2.9-3.3-2.8
		c-1.7,0.1-2.9,1.6-2.8,3.3l0.4,6.1C166.7,22.5,168,23.7,169.6,23.7z"/>
	<path class="st0" d="M167.7,36.1l0.4,6.1c0.1,1.6,1.4,2.8,3,2.8h0.2c1.7-0.1,2.9-1.6,2.8-3.2c0,0,0,0,0,0l-0.4-6.1
		c-0.1-1.7-1.6-2.9-3.3-2.8C168.8,33,167.6,34.4,167.7,36.1L167.7,36.1z"/>
	<path class="st0" d="M169.2,57.2l0.4,6.1c0.1,1.6,1.4,2.8,3,2.8h0.2c1.7-0.1,2.9-1.6,2.8-3.2c0,0,0,0,0,0l-0.4-6.1
		c-0.1-1.7-1.6-2.9-3.3-2.8C170.4,54.1,169.1,55.6,169.2,57.2L169.2,57.2z"/>
	<path class="st0" d="M172.2,99.7l0.4,6.1c0.1,1.6,1.4,2.8,3,2.8h0.2c1.7-0.1,2.9-1.6,2.8-3.2c0,0,0,0,0,0l-0.4-6.1
		c-0.1-1.7-1.6-2.9-3.3-2.8C173.4,96.5,172.1,98,172.2,99.7L172.2,99.7z"/>
	<path class="st0" d="M170.7,78.4l0.4,6.1c0.1,1.6,1.4,2.8,3,2.8h0.2c1.7-0.1,2.9-1.6,2.8-3.2c0,0,0,0,0,0l-0.4-6.1
		c-0.1-1.7-1.6-2.9-3.3-2.8S170.6,76.8,170.7,78.4L170.7,78.4z"/>
	<path class="st0" d="M141.4,11.8L141.4,11.8c1.7,0,3.1-1.3,3.1-3l0.1-3c0-1.7-1.3-3.1-3-3.1c-1.7,0-3.1,1.3-3.1,3l-0.1,3
		C138.4,10.3,139.8,11.7,141.4,11.8C141.4,11.8,141.4,11.8,141.4,11.8z"/>
	<path class="st0" d="M140.2,58.1L140.2,58.1c1.7,0,3.1-1.3,3.1-3l0.2-6.6c0-1.7-1.3-3.1-2.9-3.1h-0.1c-1.6,0-3,1.3-3,3l-0.2,6.6
		C137.2,56.7,138.5,58.1,140.2,58.1z"/>
	<path class="st0" d="M140.8,35L140.8,35c1.7,0,3.1-1.3,3.1-3l0.2-6.5c0.1-1.7-1.2-3.1-2.9-3.2c-0.1,0-0.1,0-0.2,0l0,0
		c-1.6,0-3,1.3-3,3l-0.2,6.6C137.9,33.5,139.2,34.9,140.8,35z"/>
	<path class="st0" d="M139.6,77.7L139.6,77.7c1.7,0,3.1-1.3,3.1-3l0.1-3c0-1.7-1.3-3.1-2.9-3.1c-1.7,0-3.1,1.3-3.1,2.9l-0.1,3
		C136.6,76.2,138,77.6,139.6,77.7z"/>
	<path class="st0" d="M158.3,88.8c-1.7,0-3,1.4-2.9,3.1l0.1,3c0,1.6,1.4,3,3,3h0.1c1.7,0,3-1.4,2.9-3.1l-0.1-3
		C161.4,90.1,160,88.8,158.3,88.8C158.3,88.8,158.3,88.8,158.3,88.8z"/>
	<path class="st0" d="M157.7,66.4c-1.6,0-2.9,1.4-2.9,3l0.2,6.4c0,1.6,1.4,3,3,3h0.1c1.7,0,3-1.4,2.9-3.1l-0.2-6.4
		C160.7,67.7,159.3,66.4,157.7,66.4z"/>
	<path class="st0" d="M157.1,44.1c-1.7,0-3,1.4-2.9,3.1l0.2,6.4c0,1.6,1.4,3,3,3h0.1c1.7,0,3-1.4,2.9-3.1l-0.2-6.4
		C160.1,45.4,158.7,44,157.1,44.1C157.1,44.1,157.1,44.1,157.1,44.1z"/>
	<path class="st0" d="M156.4,21.7c-1.7,0-3,1.4-2.9,3.1l0.2,6.4c0,1.6,1.4,3,3,3h0.1c1.7,0,3-1.4,2.9-3.1l-0.2-6.4
		C159.5,23,158.1,21.7,156.4,21.7C156.5,21.7,156.5,21.7,156.4,21.7z"/>
	<path class="st0" d="M156.1,11.8L156.1,11.8c1.7,0,3-1.4,3-3l-0.1-3c0-1.7-1.4-3-3.1-3c-1.7,0-3,1.4-3,3.1l0.1,3
		C153.1,10.5,154.5,11.8,156.1,11.8z"/>
	<path class="st0" d="M126.1,43h0.2c1.6,0,2.9-1.2,3-2.8l0.4-6.1c0.1-1.7-1.1-3.1-2.8-3.3c-1.7-0.1-3.1,1.1-3.3,2.8l-0.4,6.1
		C123.1,41.4,124.4,42.9,126.1,43C126.1,43,126.1,43,126.1,43z"/>
	<path class="st0" d="M127.6,21.8h0.2c1.6,0,2.9-1.2,3-2.8l0.4-6.1c0.1-1.7-1.1-3.1-2.8-3.3c-1.7-0.1-3.1,1.1-3.3,2.8l-0.4,6.1
		C124.7,20.2,125.9,21.7,127.6,21.8C127.6,21.8,127.6,21.8,127.6,21.8z"/>
	<path class="st0" d="M123.1,85.4h0.2c1.6,0,2.9-1.2,3-2.8l0.4-6.1c0.1-1.7-1.1-3.1-2.8-3.3c-1.7-0.1-3.1,1.1-3.3,2.8l-0.4,6.1
		C120.1,83.8,121.4,85.3,123.1,85.4C123,85.4,123.1,85.4,123.1,85.4z"/>
	<path class="st0" d="M124.6,64.2h0.2c1.6,0,2.9-1.2,3-2.8l0.4-6.1c0.1-1.7-1.1-3.1-2.8-3.3c-1.7-0.1-3.1,1.1-3.3,2.8l-0.4,6.1
		C121.6,62.6,122.9,64.1,124.6,64.2C124.6,64.2,124.6,64.2,124.6,64.2z"/>
</g>
</svg>
