<svg height="512pt" viewBox="-96 0 512 512.00002" width="512pt" xmlns="http://www.w3.org/2000/svg"><path d="m140.121094 512c-3.878906 0-7.199219-2.945312-7.589844-6.886719-6.089844-61.746093-19.546875-173.742187-41.242188-230.089843-1.515624-3.9375.445313-8.359376 4.382813-9.871094 3.9375-1.515625 8.355469.445312 9.871094 4.382812 9.589843 24.90625 27.820312 88.4375 42.1875 234.078125.414062 4.195313-2.652344 7.933594-6.847657 8.347657-.253906.027343-.507812.039062-.761718.039062zm0 0" fill="#4a9453"/><path d="m145.542969 512c-.082031 0-.164063-.003906-.246094-.003906-4.214844-.136719-7.523437-3.660156-7.390625-7.878906 2.109375-66.390626 8.121094-127.914063 17.863281-182.863282 8.480469-47.828125 19.367188-87.847656 31.476563-115.730468 1.679687-3.871094 6.175781-5.644532 10.046875-3.964844 3.871093 1.683594 5.644531 6.179687 3.964843 10.046875-30.84375 71.003906-45.0625 197.910156-48.085937 293-.132813 4.132812-3.523437 7.394531-7.628906 7.394531zm0 0" fill="#4a9453"/><path d="m288.875 378.433594c-3.738281 29.902344-22.089844 57.351562-51.230469 71.449218-29.125 14.09375-62.035156 11.460938-87.804687-4.167968 3.75-29.878906 22.089844-57.328125 51.226562-71.421875 29.136719-14.109375 62.046875-11.464844 87.808594 4.140625zm0 0" fill="#74bd95"/><path d="m257.597656 270.675781c-2.445312 19.558594-14.445312 37.503907-33.496094 46.726563-19.050781 9.21875-40.566406 7.484375-57.417968-2.726563 2.453125-19.546875 14.445312-37.492187 33.492187-46.710937 19.050781-9.222656 40.578125-7.488282 57.421875 2.710937zm0 0" fill="#74bd95"/><path d="m257.597656 270.675781c-2.445312 19.558594-14.445312 37.503907-33.496094 46.726563-19.050781 9.21875-40.566406 7.484375-57.417968-2.726563zm0 0" fill="#4a9453"/><path d="m122.199219 382.667969c-17.722657 14.996093-42.457031 20.984375-66.347657 13.769531-23.890624-7.207031-41.175781-25.882812-47.636718-48.1875 17.722656-15.007812 42.457031-21 66.347656-13.792969 23.890625 7.21875 41.171875 25.894531 47.636719 48.210938zm0 0" fill="#74bd95"/><path d="m122.199219 382.667969c-17.722657 14.996093-42.457031 20.984375-66.347657 13.769531-23.890624-7.207031-41.175781-25.882812-47.636718-48.1875zm0 0" fill="#4a9453"/><path d="m133.679688 83.800781c0 34.804688-28.214844 63.019531-63.019532 63.019531-34.804687 0-63.019531-28.214843-63.019531-63.019531 0-34.804687 28.214844-63.019531 63.019531-63.019531 34.804688 0 63.019532 28.214844 63.019532 63.019531zm0 0" fill="#ffe261"/><path d="m48.917969 150.609375c-.878907 0-1.769531-.152344-2.640625-.472656-23.566406-8.691407-40.890625-29.441407-45.214844-54.152344-6.710938-38.378906 19.046875-75.0625 57.425781-81.777344 29.75-5.207031 59.511719 9.058594 74.066407 35.496094 2.035156 3.695313.691406 8.339844-3.003907 10.375-3.691406 2.03125-8.339843.6875-10.375-3.007813-11.410156-20.71875-34.738281-31.898437-58.054687-27.816406-30.082032 5.261719-50.277344 34.015625-45.015625 64.097656 3.390625 19.371094 16.976562 35.640626 35.453125 42.457032 3.957031 1.457031 5.984375 5.847656 4.523437 9.804687-1.136719 3.085938-4.054687 4.996094-7.164062 4.996094zm0 0" fill="#f2a918"/><path d="m96.335938 93.726562c-2.296876-13.125-12.277344-16.058593-22.324219-17.910156l-2.996094-17.117187c3.832031-.355469 6.347656.414062 8.375 1.035156 1.453125.441406 2.597656.792969 3.761719.585937 2.082031-.363281 3.121094-2.007812 3.628906-3.324218.660156-1.714844.6875-3.511719.507812-4.53125-1.015624-5.796875-11.875-5.847656-18.230468-4.957032l-.425782-2.441406c-.113281-.644531-.628906-1.234375-1.417968-1.621094-.765625-.371093-1.679688-.503906-2.511719-.359374-1.882813.332031-3.265625 1.792968-3.023437 3.195312l.464843 2.648438c-5.699219 1.804687-18.375 7.5625-15.730469 22.664062 2.222657 12.710938 13.027344 14.761719 22.589844 16.546875l3.390625 19.375c-5.054687.273437-8.511719-1.570313-11.292969-3.050781-2.035156-1.078125-3.640624-1.933594-5.242187-1.652344-1.429687.25-2.699219 1.375-3.570313 3.164062-.769531 1.574219-1.089843 3.429688-.839843 4.84375.972656 5.558594 11.019531 10.4375 23.042969 8.683594l.460937 2.636719c.113281.660156.605469 1.253906 1.339844 1.632813.535156.273437 1.15625.417968 1.800781.417968.261719 0 .523438-.023437.785156-.070312 1.789063-.3125 3.253906-1.867188 3.023438-3.195313l-.515625-2.949219c11.5-4.011718 16.945312-12.84375 14.949219-24.25zm-17.796876 12.601563-2.941406-16.792969c4.023438 1.015625 7.828125 2.675782 8.691406 7.621094.722657 4.125-1.320312 7.375-5.75 9.171875zm-11.085937-31.699219c-5.167969-1.0625-8.296875-2.484375-8.992187-6.460937-.617188-3.527344 1.671874-6.394531 6.449218-8.082031zm0 0" fill="#f2a918"/><path d="m288.875 378.433594c-3.738281 29.902344-22.089844 57.351562-51.230469 71.449218-29.125 14.09375-62.035156 11.460938-87.804687-4.167968zm0 0" fill="#4a9453"/><path d="m311.613281 108.765625c0 55.84375-45.269531 101.117187-101.117187 101.117187-55.84375 0-101.117188-45.273437-101.117188-101.117187 0-55.847656 45.273438-101.117187 101.117188-101.117187 55.847656 0 101.117187 45.269531 101.117187 101.117187zm0 0" fill="#ffe261"/><path d="m210.558594 217.527344c-5.785156 0-11.640625-.460938-17.535156-1.421875-59.1875-9.632813-99.503907-65.625-89.867188-124.8125 9.632812-59.191407 65.621094-99.503907 124.8125-89.871094 28.671875 4.667969 53.8125 20.21875 70.785156 43.796875 16.972656 23.574219 23.75 52.347656 19.085938 81.019531-8.675782 53.296875-54.941406 91.289063-107.28125 91.289063zm-.113282-202.253906c-44.992187 0-84.757812 32.65625-92.214843 78.472656-8.28125 50.875 26.371093 99.003906 77.25 107.285156 5.058593.824219 10.097656 1.222656 15.070312 1.222656 44.992188.003906 84.757813-32.65625 92.214844-78.46875 4.011719-24.648437-1.8125-49.378906-16.402344-69.644531-14.59375-20.261719-36.199219-33.628906-60.84375-37.640625-5.0625-.828125-10.101562-1.226562-15.074219-1.226562zm0 0" fill="#f2a918"/><path d="m244.882812 56.796875c-4.261718-2.453125-10.25-4.613281-16.445312-5.9375l1.328125-8.148437c.269531-1.667969-.121094-3.339844-1.109375-4.710938-.988281-1.367188-2.449219-2.273438-4.117188-2.542969-3.449218-.5625-6.695312 1.78125-7.253906 5.222657l-1.398437 8.597656c-8.582031-.253906-16.171875 1.492187-21.957031 5.070312-7.046876 4.355469-11.386719 11.285156-12.902344 20.59375-1.5 9.203125.480468 16.808594 6.046875 23.246094 4.792969 5.546875 11.558593 9.53125 18.660156 13.449219l-6.308594 38.753906c-9.332031-2.6875-13.90625-8.066406-17.253906-12-2.105469-2.476563-3.769531-4.433594-5.84375-4.769531-4.058594-.660156-8.550781 4.058594-9.230469 8.242187-.664062 4.066407 1.984375 9.273438 7.085938 13.929688 5.703125 5.199219 13.722656 9.066406 22.589844 10.894531l-1.433594 8.800781c-.269532 1.664063.125 3.339844 1.109375 4.710938.988281 1.367187 2.449219 2.273437 4.117187 2.542969.34375.058593.6875.085937 1.03125.085937 1.3125 0 2.589844-.410156 3.679688-1.195313 1.371094-.984374 2.273437-2.445312 2.542968-4.113281l1.539063-9.449219c8.921875-.023437 16.683594-2.484374 22.464844-7.121093 6.253906-5.015625 10.214843-12.414063 11.773437-21.988281 3.558594-21.859376-10.050781-31.691407-23.121094-39.179688l5.449219-33.46875c6.136719 1.679688 9.835938 4.339844 12.546875 6.289062 1.867188 1.34375 3.34375 2.40625 4.902344 2.660157 2.804688.457031 4.894531-1.199219 6.15625-2.667969 1.667969-1.945312 2.523438-4.246094 2.75-5.628906.574219-3.535156-1.984375-7.050782-7.398438-10.167969zm-32.859374 94.898437 5.34375-32.828124c5.515624 3.875 10.871093 9.203124 9.246093 19.183593-1.304687 8.015625-6.347656 12.730469-14.589843 13.644531zm1.320312-86.8125-4.605469 28.292969c-7.613281-4.628906-12.058593-9.136719-10.753906-17.160156 1.136719-6.988281 6.449219-10.835937 15.359375-11.132813zm0 0" fill="#f2a918"/><path d="m150.804688 204.773438c0 38.484374-31.195313 69.679687-69.679688 69.679687s-69.683594-31.195313-69.683594-69.679687c0-38.484376 31.199219-69.683594 69.683594-69.683594s69.679688 31.199218 69.679688 69.683594zm0 0" fill="#ffe261"/><path d="m80.992188 282.121094c-13.6875 0-27.175782-3.664063-39.265626-10.820313-17.769531-10.523437-30.378906-27.339843-35.503906-47.34375-5.121094-20.007812-2.148437-40.8125 8.375-58.582031 10.523438-17.769531 27.335938-30.378906 47.34375-35.503906 20.003906-5.125 40.808594-2.152344 58.582032 8.375 17.769531 10.523437 30.378906 27.335937 35.5 47.34375 5.125 20.003906 2.152343 40.808594-8.371094 58.578125-10.523438 17.769531-27.339844 30.378906-47.34375 35.503906-6.398438 1.640625-12.882813 2.449219-19.316406 2.449219zm.238281-139.417969c-5.164063 0-10.363281.648437-15.5 1.964844-16.054688 4.109375-29.546875 14.226562-37.992188 28.488281-8.445312 14.257812-10.832031 30.953125-6.71875 47.007812 4.113281 16.054688 14.230469 29.546876 28.488281 37.992188 14.261719 8.445312 30.953126 10.832031 47.007813 6.71875 16.058594-4.113281 29.550781-14.230469 37.992187-28.488281 8.445313-14.261719 10.832032-30.957031 6.722657-47.011719-4.113281-16.054688-14.230469-29.546875-28.492188-37.992188-9.699219-5.738281-20.523437-8.679687-31.507812-8.679687zm0 0" fill="#f2a918"/><path d="m110.265625 213.519531c-3.65625-14.269531-14.910156-16.644531-26.140625-17.828125l-4.773438-18.632812c4.207032-.726563 7.046876-.089844 9.339844.417968 1.636719.363282 2.925782.652344 4.191406.328126 2.257813-.578126 3.261719-2.476563 3.707032-3.96875.578125-1.941407.453125-3.925782.167968-5.03125-1.609374-6.292969-13.59375-5.417969-20.515624-3.890626l-.683594-2.667968c-.367188-1.4375-2.542969-2.332032-4.480469-1.835938-.996094.253906-1.863281.796875-2.445313 1.523438-.566406.710937-.785156 1.527344-.605468 2.242187l.742187 2.894531c-6.121093 2.464844-19.609375 9.898438-15.402343 26.320313 3.535156 13.816406 15.625 15.148437 26.320312 16.292969l5.402344 21.097656c-5.5625.730469-9.535156-1.003906-12.738282-2.398438-2.332031-1.015624-4.171874-1.816406-5.90625-1.375-1.554687.398438-2.855468 1.746094-3.660156 3.789063-.707031 1.796875-.902344 3.867187-.511718 5.402344 1.550781 6.042969 13.046874 10.554687 26.144531 7.585937l.738281 2.878906c.3125 1.214844 1.683594 1.996094 3.261719 1.996094.398437 0 .808593-.050781 1.222656-.15625.902344-.230468 1.761719-.777344 2.359375-1.5.617188-.742187.867188-1.570312.6875-2.265625l-.824219-3.214843c12.328125-5.40625 17.578125-15.605469 14.402344-28.003907zm-33.441406-18.570312c-5.808594-.730469-9.390625-2.027344-10.5-6.363281-.988281-3.851563 1.296875-7.214844 6.4375-9.484376zm14.90625 34-4.6875-18.300781c4.535156.777343 8.882812 2.277343 10.261719 7.671874 1.152343 4.496094-.828126 8.265626-5.574219 10.628907zm0 0" fill="#f2a918"/><path d="m242.453125 512h-192.433594c-4.21875 0-7.636719-3.417969-7.636719-7.636719s3.417969-7.636719 7.636719-7.636719h192.433594c4.21875 0 7.636719 3.417969 7.636719 7.636719s-3.417969 7.636719-7.636719 7.636719zm0 0" fill="#87604d"/></svg>