<svg height="511pt" viewBox="0 1 511 511.99856" width="511pt" xmlns="http://www.w3.org/2000/svg"><path d="m268.222656 126.699219c-2.703125-3.597657-7.203125-5.398438-11.703125-5.398438s-9 1.800781-11.699219 5.398438c-8.097656 9.898437-78.300781 99-78.300781 144.300781 0 49.5 40.5 90 90 90 49.503907 0 90-40.5 90-90 0-45.300781-70.199219-134.402344-78.296875-144.300781zm0 0" fill="#9bfcff"/><path d="m256.519531 0h-1.199219c-50.097656.300781-96.300781 16-135.597656 40.601562l-23.199218-22.199218c-3.902344-4.203125-9.601563-5.402344-15-3.902344-5.402344 1.5-9.300782 6-10.503907 11.402344-.597656 2.996094-19.796875 99.898437-20.996093 106.195312-1.203126 4.800782.296874 9.902344 3.898437 13.5 4.5 3.902344 10.5 4.800782 13.5 3.902344 3-.601562 107.5-21 107.5-21 5.398437-1.5 9.597656-5.101562 11.097656-10.5 1.5-5.101562.300781-11.101562-3.898437-15l-18.300782-18.300781c28.5-15.597657 60.601563-24.699219 92.699219-24.699219h2.402344c108.601563 1.5 193.597656 86.800781 193.597656 196 0 17.398438-2.097656 33.898438-6.597656 49.800781-2.101563 8.398438 2.398437 16.796875 10.5 18.898438l29.097656 7.800781c8.101563 2.398438 16.203125-2.703125 18.300781-10.800781 4.5-16.5 7.796876-34.199219 8.398438-55.203125 5.699219-146.695313-108.699219-266.796875-255.699219-266.496094zm0 0" fill="#c8ec4b"/><path d="m463.019531 379.597656s-20.398437 103.5-21 106.5c-1.199219 5.402344-5.101562 9.902344-10.5 11.402344-5.398437 1.199219-10.5.597656-15-3.902344l-22.199219-22.199218c-39.300781 24.902343-87.699218 40.601562-137.800781 40.601562h-3.597656c-142.5-2.101562-250-119.800781-252.398437-250.902344-.300782-24.597656 2.398437-48.597656 8.695312-71.699218 2.402344-7.800782 10.804688-12 18.601562-9.898438l28.800782 7.796875c8.101562 2.101563 12.597656 10.503906 10.5 18.601563-4.5 16.199218-6.597656 32.699218-6.597656 50.101562 0 106.5 81.699218 192.398438 189.695312 196h6.300781c33.902344-.300781 66.101563-9.703125 93.703125-24.703125l-19.300781-18.296875c-4.199219-3.902344-5.402344-9.902344-3.902344-15 1.5-5.402344 6-9.300781 11.402344-10.5 6.300781-1.203125 104.199219-20.398438 107.199219-21 4.796875-1.199219 9.898437.300781 13.5 3.898438 3.601562 3.601562 5.101562 8.398437 3.898437 13.199218zm0 0" fill="#c8ec4b"/><path d="m256.519531 361v-239.699219c4.503907 0 9 1.800781 11.703125 5.398438 8.097656 9.898437 78.296875 99 78.296875 144.300781 0 49.496094-40.5 90-90 90zm0 0" fill="#76e2f8"/><g fill="#97d325"><path d="m459.121094 366.398438c3.601562 3.601562 5.101562 8.398437 3.898437 13.199218 0 0-20.398437 103.5-21 106.5-1.199219 5.402344-5.101562 9.902344-10.5 11.402344-5.398437 1.199219-10.5.597656-15-3.902344l-22.199219-22.199218c-39.300781 24.902343-87.699218 40.601562-137.800781 40.601562v-60c33.902344-.300781 66.097657-9.703125 93.703125-24.703125l-19.300781-18.296875c-4.199219-3.902344-5.402344-9.902344-3.902344-15 1.5-5.402344 6-9.300781 11.402344-10.5 6.300781-1.203125 104.199219-20.398438 107.199219-21 4.796875-1.199219 9.898437.300781 13.5 3.898438zm0 0"/><path d="m512.21875 266.5c-.601562 21-3.898438 38.699219-8.398438 55.199219-2.097656 8.101562-10.199218 13.199219-18.300781 10.800781l-29.097656-7.800781c-8.101563-2.097657-12.601563-10.5-10.5-18.898438 4.5-15.898437 6.597656-32.402343 6.597656-49.800781 0-109.199219-85-194.5-193.597656-196h-2.402344v-60c147-.300781 261.398438 119.800781 255.699219 266.5zm0 0"/></g></svg>